<svg width="140" height="140" viewBox="0 0 140 140" fill="none" xmlns="http://www.w3.org/2000/svg">
<path d="M124.297 92.9542H73.6882C72.7833 92.9542 72.0469 92.2178 72.0469 91.3129V17.5964C72.0469 16.6915 72.7833 15.9551 73.6882 15.9551H124.297C125.202 15.9551 125.938 16.6912 125.938 17.5964V91.3129C125.939 92.2178 125.202 92.9542 124.297 92.9542ZM73.6882 16.0251C72.8216 16.0251 72.1169 16.7301 72.1169 17.5964V91.3129C72.1169 92.1795 72.8219 92.8842 73.6882 92.8842H124.297C125.164 92.8842 125.868 92.1792 125.868 91.3129V17.5964C125.868 16.7301 125.163 16.0251 124.297 16.0251H73.6882Z" fill="#E0E0E0"/>
<path d="M65.938 92.9542H15.3289C14.4239 92.9542 13.6875 92.2178 13.6875 91.3129V17.5964C13.6875 16.6915 14.4236 15.9551 15.3289 15.9551H65.938C66.843 15.9551 67.5794 16.6912 67.5794 17.5964V91.3129C67.5794 92.2178 66.843 92.9542 65.938 92.9542ZM15.3289 16.0251C14.4625 16.0251 13.7575 16.7301 13.7575 17.5964V91.3129C13.7575 92.1795 14.4625 92.8842 15.3289 92.8842H65.938C66.8046 92.8842 67.5094 92.1792 67.5094 91.3129V17.5964C67.5094 16.7301 66.8043 16.0251 65.938 16.0251H15.3289Z" fill="#E0E0E0"/>
<path d="M140 110.055H0V110.125H140V110.055Z" fill="#E0E0E0"/>
<path d="M18.9646 114.047H14.4678V114.117H18.9646V114.047Z" fill="#E0E0E0"/>
<path d="M62.6866 113.289H47.6982V113.359H62.6866V113.289Z" fill="#E0E0E0"/>
<path d="M29.3951 116.648H19.2451V116.718H29.3951V116.648Z" fill="#E0E0E0"/>
<path d="M118.032 113.252H105.938V113.322H118.032V113.252Z" fill="#E0E0E0"/>
<path d="M122.299 113.252H120.526V113.322H122.299V113.252Z" fill="#E0E0E0"/>
<path d="M103.628 114.996H88.5391V115.066H103.628V114.996Z" fill="#E0E0E0"/>
<path d="M98.0948 32.3687L97.7725 32.299L97.3632 34.2391L96.2972 37.0302L95.4259 36.5279L95.9691 35.0959L96.3784 35.3342L96.547 35.0439L96.0853 34.7767L96.2566 34.3265L97.128 30.1646L96.8057 30.0977L95.9343 34.2335L95.7921 34.6082L94.7553 34.0039L94.5867 34.2943L95.6728 34.9274L95.1327 36.3593L95.0747 36.3246L94.9093 36.6149L95.0137 36.676L94.1919 38.8454L93.8637 38.7961L93.8145 39.1243L94.0729 39.1621L93.9945 39.3713V41.1372H93.8282V41.4682H93.9937V43.3299H93.8282V43.6667H93.9937V45.5257H93.8282V45.8566H93.9937V47.7183H93.8282V48.0496H93.9937V50.7362H94.3249V48.0496H95.4256V50.7362H95.7565V48.0496H95.922V47.7183H95.7565V45.8566H95.922V45.5257H95.7565V43.6667H95.922V43.3358H95.7565V41.4741H95.922V41.1428H95.7565V39.4379V39.4147L95.8755 39.432L95.9248 39.1039H95.8755L96.4708 37.5269L96.7119 37.6663L96.8774 37.376L96.587 37.2074L97.6703 34.3408L98.0948 32.3687ZM95.4256 47.7094H94.3509V45.8477H95.4256V47.7094ZM95.4256 45.5167H94.3509V43.6667H95.4256V45.5167ZM95.4256 43.3268H94.3509V41.4651H95.4256V43.3268ZM95.4256 39.3682V41.1339H94.3509V39.4289L94.4321 39.2083L95.4284 39.3564L95.4256 39.3682ZM95.5505 39.04L94.5514 38.8919L95.327 36.8415L96.1984 37.3438L95.5505 39.04Z" fill="#E6E6E6"/>
<path d="M59.7087 29.2656H42.4878L40.6925 31.3679H41.7203V36.0184L40.4783 39.1199H41.7203V43.7705H39.5433V46.8684H41.7203V51.5189H38.7616V50.4804L36.9307 51.1692V73.815L40.8137 76.6811L45.5964 72.4481L49.4724 76.1172L45.5964 75.1534L40.9531 80.1965L36.9307 77.9481V110.152H59.7087V66.2486L57.7848 68.5258L57.4995 67.0194H54.826V62.3689H56.6144L56.0219 59.271H54.826V54.6205H55.1332L54.826 53.0071L55.4507 51.5189H54.826V46.8684H57.4065L59.7087 41.3933V29.2656Z" fill="#EBEBEB"/>
<path d="M47.0779 31.3672H44.1191V36.0177H47.0779V31.3672Z" fill="#FAFAFA"/>
<path d="M57.7849 31.3672H54.8262V36.0177H57.7849V31.3672Z" fill="#FAFAFA"/>
<path d="M52.4314 39.1191H49.4727V43.7697H52.4314V39.1191Z" fill="#FAFAFA"/>
<path d="M57.7849 39.1191H54.8262V43.7697H57.7849V39.1191Z" fill="#FAFAFA"/>
<path d="M52.4314 46.8691H49.4727V51.5197H52.4314V46.8691Z" fill="#FAFAFA"/>
<path d="M47.0779 54.6211H44.1191V59.2716H47.0779V54.6211Z" fill="#FAFAFA"/>
<path d="M52.4314 54.6211H49.4727V59.2716H52.4314V54.6211Z" fill="#FAFAFA"/>
<path d="M41.7205 62.373H38.7617V67.0236H41.7205V62.373Z" fill="#FAFAFA"/>
<path d="M47.0779 62.373H44.1191V67.0236H47.0779V62.373Z" fill="#FAFAFA"/>
<path d="M52.4314 70.1211H49.4727V74.7716H52.4314V70.1211Z" fill="#FAFAFA"/>
<path d="M57.7849 70.1211H54.8262V74.7716H57.7849V70.1211Z" fill="#FAFAFA"/>
<path d="M47.0779 77.873H44.1191V82.5236H47.0779V77.873Z" fill="#FAFAFA"/>
<path d="M57.7849 77.873H54.8262V82.5236H57.7849V77.873Z" fill="#FAFAFA"/>
<path d="M41.7205 85.6211H38.7617V90.2716H41.7205V85.6211Z" fill="#FAFAFA"/>
<path d="M52.4314 85.6211H49.4727V90.2716H52.4314V85.6211Z" fill="#FAFAFA"/>
<path d="M57.7849 85.6211H54.8262V90.2716H57.7849V85.6211Z" fill="#FAFAFA"/>
<path d="M41.7205 93.373H38.7617V98.0236H41.7205V93.373Z" fill="#FAFAFA"/>
<path d="M47.0779 93.373H44.1191V98.0236H47.0779V93.373Z" fill="#FAFAFA"/>
<path d="M57.7849 93.373H54.8262V98.0236H57.7849V93.373Z" fill="#FAFAFA"/>
<path d="M47.0779 101.123H44.1191V105.774H47.0779V101.123Z" fill="#FAFAFA"/>
<path d="M52.4314 101.123H49.4727V105.774H52.4314V101.123Z" fill="#FAFAFA"/>
<path d="M62.7904 67.2082L63.8737 70.0749L63.5834 70.2434L63.7488 70.5338L63.9899 70.3944L64.5852 71.9713H64.5359L64.5852 72.2995L64.7042 72.2821V72.3054V74.0103H64.5387V74.3412H64.7042V76.203H64.5387V76.5339H64.7042V78.3926H64.5387V78.7235H64.7042V80.5852H64.5387V80.9165H64.7042V83.6031H65.0352V80.9165H66.1358V83.6031H66.4671V80.9165H66.6326V80.5852H66.4671V78.7235H66.6326V78.3926H66.4671V76.5339H66.6326V76.1971H66.4671V74.3354H66.6326V74.0044H66.4671V72.2384L66.3887 72.0293L66.6471 71.9915L66.5978 71.6633L66.2697 71.7126L65.4476 69.5432L65.552 69.4821L65.3866 69.1918L65.3286 69.2265L64.7885 67.7946L65.8746 67.1615L65.706 66.8711L64.6692 67.4754L64.527 67.1007L63.6556 62.9648L63.3333 63.0318L64.2047 67.1937L64.376 67.6439L63.9143 67.911L64.0829 68.2014L64.4922 67.9631L65.0354 69.395L64.1641 69.8974L63.0981 67.1063L62.6885 65.1662L62.3662 65.2359L62.7904 67.2082ZM65.0357 78.7154H66.1104V80.5771H65.0357V78.7154ZM65.0357 76.5342H66.1104V78.3842H65.0357V76.5342ZM65.0357 74.3326H66.1104V76.1943H65.0357V74.3326ZM65.0326 72.2242L66.0289 72.076L66.1101 72.2967V74.0016H65.0354V72.2359L65.0326 72.2242ZM64.2629 70.2112L65.1343 69.7089L65.9099 71.7594L64.9109 71.9075L64.2629 70.2112Z" fill="#E6E6E6"/>
<path d="M78.9306 70.4428L80.458 73.5835H78.9306L80.0833 75.9711L77.2315 72.6842H78.9306L77.0854 69.8965H72.6952L68.5801 71.0924L66.3888 69.8965L63.8047 72.5876V110.053H81.5824V71.5062L78.9306 70.4428Z" fill="#E0E0E0"/>
<path d="M67.5455 73.584H65.2363V75.9718H67.5455V73.584Z" fill="#FAFAFA"/>
<path d="M71.7252 73.584H69.416V75.9718H71.7252V73.584Z" fill="#FAFAFA"/>
<path d="M75.9039 73.584H73.5947V75.9718H75.9039V73.584Z" fill="#FAFAFA"/>
<path d="M67.5455 77.5625H65.2363V79.9503H67.5455V77.5625Z" fill="#FAFAFA"/>
<path d="M75.9039 77.5625H73.5947V79.9503H75.9039V77.5625Z" fill="#FAFAFA"/>
<path d="M80.0836 77.5625H77.7744V79.9503H80.0836V77.5625Z" fill="#FAFAFA"/>
<path d="M67.5455 81.543H65.2363V83.9308H67.5455V81.543Z" fill="#FAFAFA"/>
<path d="M71.7252 81.543H69.416V83.9308H71.7252V81.543Z" fill="#FAFAFA"/>
<path d="M80.0836 81.543H77.7744V83.9308H80.0836V81.543Z" fill="#FAFAFA"/>
<path d="M67.5455 85.5195H65.2363V87.9074H67.5455V85.5195Z" fill="#FAFAFA"/>
<path d="M71.7252 85.5195H69.416V87.9074H71.7252V85.5195Z" fill="#FAFAFA"/>
<path d="M75.9039 85.5195H73.5947V87.9074H75.9039V85.5195Z" fill="#FAFAFA"/>
<path d="M71.7252 89.498H69.416V91.8859H71.7252V89.498Z" fill="#FAFAFA"/>
<path d="M75.9039 89.498H73.5947V91.8859H75.9039V89.498Z" fill="#FAFAFA"/>
<path d="M80.0836 89.498H77.7744V91.8859H80.0836V89.498Z" fill="#FAFAFA"/>
<path d="M67.5455 93.4785H65.2363V95.8664H67.5455V93.4785Z" fill="#FAFAFA"/>
<path d="M71.7252 93.4785H69.416V95.8664H71.7252V93.4785Z" fill="#FAFAFA"/>
<path d="M80.0836 93.4785H77.7744V95.8664H80.0836V93.4785Z" fill="#FAFAFA"/>
<path d="M71.7252 97.457H69.416V99.8449H71.7252V97.457Z" fill="#FAFAFA"/>
<path d="M75.9039 97.457H73.5947V99.8449H75.9039V97.457Z" fill="#FAFAFA"/>
<path d="M80.0836 97.457H77.7744V99.8449H80.0836V97.457Z" fill="#FAFAFA"/>
<path d="M67.5455 101.438H65.2363V103.825H67.5455V101.438Z" fill="#FAFAFA"/>
<path d="M71.7252 101.438H69.416V103.825H71.7252V101.438Z" fill="#FAFAFA"/>
<path d="M75.9039 101.438H73.5947V103.825H75.9039V101.438Z" fill="#FAFAFA"/>
<path d="M71.7252 105.416H69.416V107.804H71.7252V105.416Z" fill="#FAFAFA"/>
<path d="M80.0836 105.416H77.7744V107.804H80.0836V105.416Z" fill="#FAFAFA"/>
<path d="M102.373 49.3623L105.088 46.7082V34.9336L91.0904 43.3207L91.9915 45.0312L90.5987 47.5053H90.7331V51.0694L93.8271 55.5472L90.7331 60.0247V63.5891H89.8229L91.9915 78.4358L89.5513 77.5227L86.9092 81.4321V110.387H105.088V79.4376L102.373 81.2305L98.8179 79.6026L97.5777 83.671L98.0999 92.6629L95.9988 86.478L91.5059 89.8559L95.9988 84.6207L98.0999 77.7823L102.373 79.6026L105.088 77.6204V49.7655L103.555 51.2162L98.0999 50.0402L95.9988 52.2914L98.0999 48.4674L102.373 49.3623Z" fill="#EBEBEB"/>
<path d="M95.0065 47.5059H92.6455V51.2167H95.0065V47.5059Z" fill="#FAFAFA"/>
<path d="M99.2789 41.3203H96.918V45.0312H99.2789V41.3203Z" fill="#FAFAFA"/>
<path d="M99.2789 53.6895H96.918V57.4003H99.2789V53.6895Z" fill="#FAFAFA"/>
<path d="M103.555 53.6895H101.194V57.4003H103.555V53.6895Z" fill="#FAFAFA"/>
<path d="M95.0065 59.8789H92.6455V63.5897H95.0065V59.8789Z" fill="#FAFAFA"/>
<path d="M99.2789 59.8789H96.918V63.5897H99.2789V59.8789Z" fill="#FAFAFA"/>
<path d="M95.0065 66.0625H92.6455V69.7733H95.0065V66.0625Z" fill="#FAFAFA"/>
<path d="M103.555 66.0625H101.194V69.7733H103.555V66.0625Z" fill="#FAFAFA"/>
<path d="M95.0065 72.25H92.6455V75.9608H95.0065V72.25Z" fill="#FAFAFA"/>
<path d="M99.2789 72.25H96.918V75.9608H99.2789V72.25Z" fill="#FAFAFA"/>
<path d="M103.555 72.25H101.194V75.9608H103.555V72.25Z" fill="#FAFAFA"/>
<path d="M95.0065 78.4355H92.6455V82.1464H95.0065V78.4355Z" fill="#FAFAFA"/>
<path d="M90.733 84.6211H88.3721V88.3319H90.733V84.6211Z" fill="#FAFAFA"/>
<path d="M103.555 84.6211H101.194V88.3319H103.555V84.6211Z" fill="#FAFAFA"/>
<path d="M95.0065 90.8086H92.6455V94.5194H95.0065V90.8086Z" fill="#FAFAFA"/>
<path d="M103.555 90.8086H101.194V94.5194H103.555V90.8086Z" fill="#FAFAFA"/>
<path d="M90.733 96.9941H88.3721V100.705H90.733V96.9941Z" fill="#FAFAFA"/>
<path d="M95.0065 96.9941H92.6455V100.705H95.0065V96.9941Z" fill="#FAFAFA"/>
<path d="M103.555 96.9941H101.194V100.705H103.555V96.9941Z" fill="#FAFAFA"/>
<path d="M95.0065 103.178H92.6455V106.889H95.0065V103.178Z" fill="#FAFAFA"/>
<path d="M99.2789 103.178H96.918V106.889H99.2789V103.178Z" fill="#FAFAFA"/>
<path d="M130.104 83.4109L129.113 75.9207L128.422 66.0809L126.203 56.8594H124.068V109.957H132.779V84.1081L131.097 82.5368L130.104 83.4109Z" fill="#E0E0E0"/>
<path d="M129.58 59.4938L130.425 59.6478L130.487 59.3224L129.65 59.1684L129.856 58.1954L129.531 58.1285L129.325 59.1102L128.453 58.9506L128.392 59.276L129.263 59.4328L129.121 60.1064L129.092 60.3271L128.047 60.1353L128.918 55.9966L128.593 55.9297L127.721 60.0742L127.445 60.025L127.384 60.3503L127.675 60.4027L127.094 64.8958V76.2227H127.425V64.916L127.733 62.4878L128.781 62.6824L128.491 64.8956V76.2224H128.822V64.9157L129.098 62.7404L129.728 62.8566L129.789 62.5312L129.141 62.4122L129.356 60.716H129.397L129.458 60.3906H129.397L129.426 60.1641L129.58 59.4938ZM128.828 62.3604L127.78 62.1686L127.995 60.4724L129.043 60.6642L128.828 62.3604Z" fill="#E0E0E0"/>
<path d="M134.431 65.5855L134.109 65.5158L133.7 67.4559L132.634 70.247L131.762 69.7447L132.306 68.3127L132.715 68.551L132.883 68.2607L132.422 67.9935L132.593 67.5433L133.464 63.3814L133.142 63.3145L132.271 67.4503L132.129 67.825L131.092 67.2207L130.923 67.5111L132.009 68.1442L131.469 69.5761L131.411 69.5414L131.245 69.8317L131.35 69.8928L130.528 72.0622L130.2 72.0129L130.15 72.3411L130.409 72.3789L130.33 72.5881V74.354H130.165V74.685H130.33V76.5467H130.165V76.8835H130.33V78.7422H130.165V79.0731H130.33V80.9349H130.165V81.2658H130.33V83.9524H130.661V81.2658H131.762V83.9524H132.093V81.2658H132.259V80.9349H132.093V79.0731H132.259V78.7422H132.093V76.8835H132.259V76.5526H132.093V74.6909H132.259V74.3596H132.093V72.6547V72.6315L132.212 72.6488L132.261 72.3207H132.212L132.807 70.7437L133.048 70.8831L133.214 70.5928L132.924 70.4242L134.007 67.5576L134.431 65.5855ZM131.762 80.9262H130.688V79.0645H131.762V80.9262ZM131.762 78.7335H130.688V76.8835H131.762V78.7335ZM131.762 76.5436H130.688V74.6819H131.762V76.5436ZM131.762 72.585V74.3509H130.688V72.646L130.769 72.4254L131.765 72.5735L131.762 72.585ZM131.887 72.2568L130.888 72.1087L131.664 70.0583L132.535 70.5609L131.887 72.2568Z" fill="#E6E6E6"/>
<path d="M108.193 59.8371L109.276 62.7038L108.986 62.8723L109.154 63.1627L109.392 63.0232L109.988 64.6002H109.938L109.988 64.9284L110.11 64.911V64.9342V66.6392H109.944V66.9704H110.11V68.8321H109.944V69.1631H110.11V71.022H109.944V71.3647H110.11V73.2264H109.944V73.5574H110.11V76.244H110.441V73.5574H111.515V76.244H111.846V73.5574H112.012V73.2264H111.846V71.3647H112.012V71.0335H111.846V69.1748H112.012V68.8436H111.846V66.9819H112.012V66.6506H111.846V64.8847L111.765 64.6755L112.024 64.6377L111.974 64.3096L111.646 64.3588L110.85 62.1776L110.958 62.1166L110.789 61.8262L110.734 61.8612L110.191 60.4293L111.277 59.7962L111.109 59.5059L110.072 60.1129L109.932 59.7383L109.061 55.5996L108.739 55.6693L109.61 59.8312L109.779 60.2784L109.317 60.5486L109.485 60.839L109.898 60.5979L110.438 62.0326L109.567 62.5349L108.509 59.7467L108.103 57.8066L107.777 57.8763L108.193 59.8371ZM110.452 71.3647H111.527V73.2264H110.452V71.3647ZM110.452 69.1748H111.527V71.0335H110.452V69.1748ZM110.452 66.9819H111.527V68.8436H110.452V66.9819ZM110.452 64.8735L111.449 64.7254L111.533 64.946V66.6509H110.458V64.885L110.452 64.8735ZM109.689 62.8491L110.56 62.3465L111.336 64.3969L110.339 64.545L109.689 62.8491Z" fill="#EBEBEB"/>
<path d="M107.365 87.0924V75.7423L106.785 71.2724L107.075 71.2172L107.017 70.8919L106.741 70.9442L105.87 66.7969L105.548 66.8666L106.419 71.0025L105.371 71.1971L105.342 70.9619L105.202 70.3025L106.073 70.1429L106.015 69.8175L105.144 69.9774L104.935 68.9957L104.613 69.0654L104.819 70.0384L103.982 70.1924L104.041 70.5178L104.889 70.361L105.028 71.0173L105.057 71.2556H104.999L105.057 71.581H105.101L105.316 73.2741L104.668 73.3931L104.729 73.7213L105.357 73.6051L105.647 75.7572V87.084H105.978V75.7426L105.688 73.5499L106.736 73.3581L107.044 75.763V87.0899L107.365 87.0924ZM105.623 73.2215L105.408 71.5252L106.457 71.3334L106.671 73.0297L105.623 73.2215Z" fill="#E0E0E0"/>
<path d="M105.931 76.5567L108.135 72.1738H109.512L109.953 73.6463L108.908 76.2254L107.307 76.5567H105.931Z" fill="#E0E0E0"/>
<path d="M105.931 76.5567L108.135 72.1738H109.512L109.953 73.6463L108.908 76.2254L107.307 76.5567H105.931Z" fill="#E0E0E0"/>
<path d="M107.308 76.5574L109.512 72.1745L111.719 73.0285L114.144 71.8145V77.1613L107.308 76.5574Z" fill="#E0E0E0"/>
<path d="M107.308 76.5574L109.512 72.1745L111.719 73.0285L114.144 71.8145V77.1613L107.308 76.5574Z" fill="#E0E0E0"/>
<path d="M109.622 66.9637L110.615 61.0622H112.599L113.592 56.8594H114.696V59.8509V64.7013L114.144 66.9637L113.427 67.3675L110.726 66.9637H109.622Z" fill="#E0E0E0"/>
<path d="M109.622 66.9637L110.615 61.0622H112.599L113.592 56.8594H114.696V59.8509V64.7013L114.144 66.9637L113.427 67.3675L110.726 66.9637H109.622Z" fill="#E0E0E0"/>
<path d="M110.726 66.9637L111.719 61.0622H113.702L114.696 56.8594L116.891 59.4849L116.29 61.3408V67.3675L110.726 66.9637Z" fill="#E0E0E0"/>
<path d="M110.726 66.9637L111.719 61.0622H113.702L114.696 56.8594L116.891 59.4849L116.29 61.3408V67.3675L110.726 66.9637Z" fill="#E0E0E0"/>
<path d="M119.982 56.8594L116.709 58.2247L115.303 61.4483L113.261 63.5685V66.3276H109.207L108.687 68.1487V69.6358H113.261V75.5897H107.307V75.5723L106.453 75.9207H104.81V109.957H124.068V56.8594H119.982Z" fill="#E0E0E0"/>
<path d="M119.982 56.8594L116.709 58.2247L115.303 61.4483L113.261 63.5685V66.3276H109.207L108.687 68.1487V69.6358H113.261V75.5897H107.307V75.5723L106.453 75.9207H104.81V109.957H124.068V56.8594H119.982Z" fill="#E6E6E6"/>
<path d="M113.262 88.8223H107.308V94.7762H113.262V88.8223Z" fill="#F5F5F5"/>
<path d="M121.64 88.8223H115.687V94.7762H121.64V88.8223Z" fill="#F5F5F5"/>
<path d="M113.262 79.5605H107.308V85.5145H113.262V79.5605Z" fill="#F5F5F5"/>
<path d="M121.64 79.5605H115.687V85.5145H121.64V79.5605Z" fill="#F5F5F5"/>
<path d="M121.64 70.2988H115.687V76.2527H121.64V70.2988Z" fill="#F5F5F5"/>
<path d="M121.64 61.0371H115.687V66.991H121.64V61.0371Z" fill="#F5F5F5"/>
<path d="M132.778 86.8652H130.518L131.221 90.2286L127.486 95.4652L128.009 99.3801L126.493 103.461L126.731 109.958H132.778V86.8652Z" fill="#EBEBEB"/>
<path d="M130.063 94.9824H128.657V95.6852H130.063V94.9824Z" fill="#E0E0E0"/>
<path d="M131.041 93.9082H129.636V94.611H131.041V93.9082Z" fill="#E0E0E0"/>
<path d="M131.041 96.0566H129.636V96.7594H131.041V96.0566Z" fill="#E0E0E0"/>
<path d="M131.924 94.9824H130.519V95.6852H131.924V94.9824Z" fill="#E0E0E0"/>
<path d="M130.409 99.9023H129.003V100.605H130.409V99.9023Z" fill="#E0E0E0"/>
<path d="M131.288 98.8281H129.883V99.5309H131.288V98.8281Z" fill="#E0E0E0"/>
<path d="M128.547 103.963H127.142V104.666H128.547V103.963Z" fill="#E0E0E0"/>
<path d="M129.526 102.889H128.12V103.591H129.526V102.889Z" fill="#E0E0E0"/>
<path d="M131.399 102.889H129.993V103.591H131.399V102.889Z" fill="#E0E0E0"/>
<path d="M129.526 105.037H128.12V105.74H129.526V105.037Z" fill="#E0E0E0"/>
<path d="M131.399 105.037H129.993V105.74H131.399V105.037Z" fill="#E0E0E0"/>
<path d="M130.409 103.963H129.003V104.666H130.409V103.963Z" fill="#E0E0E0"/>
<path d="M129.526 107.25H128.12V107.953H129.526V107.25Z" fill="#E0E0E0"/>
<path d="M130.504 106.176H129.099V106.879H130.504V106.176Z" fill="#E0E0E0"/>
<path d="M130.504 108.326H129.099V109.029H130.504V108.326Z" fill="#E0E0E0"/>
<path d="M132.377 108.326H130.972V109.029H132.377V108.326Z" fill="#E0E0E0"/>
<path d="M131.387 107.25H129.981V107.953H131.387V107.25Z" fill="#E0E0E0"/>
<g opacity="0.2">
<path d="M130.063 94.9824H128.657V95.6852H130.063V94.9824Z" fill="#E0E0E0"/>
<path d="M131.042 93.9082H129.637V94.611H131.042V93.9082Z" fill="#E0E0E0"/>
<path d="M131.042 96.0566H129.637V96.7594H131.042V96.0566Z" fill="#E0E0E0"/>
<path d="M131.925 94.9824H130.52V95.6852H131.925V94.9824Z" fill="#E0E0E0"/>
<path d="M130.409 99.9023H129.003V100.605H130.409V99.9023Z" fill="#E0E0E0"/>
<path d="M131.288 98.8281H129.883V99.5309H131.288V98.8281Z" fill="#E0E0E0"/>
<path d="M128.547 103.963H127.142V104.666H128.547V103.963Z" fill="#E0E0E0"/>
<path d="M129.526 102.889H128.12V103.591H129.526V102.889Z" fill="#E0E0E0"/>
<path d="M131.4 102.889H129.994V103.591H131.4V102.889Z" fill="#E0E0E0"/>
<path d="M129.526 105.037H128.12V105.74H129.526V105.037Z" fill="#E0E0E0"/>
<path d="M131.4 105.037H129.994V105.74H131.4V105.037Z" fill="#E0E0E0"/>
<path d="M130.409 103.963H129.003V104.666H130.409V103.963Z" fill="#E0E0E0"/>
<path d="M129.526 107.25H128.12V107.953H129.526V107.25Z" fill="#E0E0E0"/>
<path d="M130.504 106.176H129.099V106.879H130.504V106.176Z" fill="#E0E0E0"/>
<path d="M130.504 108.326H129.099V109.029H130.504V108.326Z" fill="#E0E0E0"/>
<path d="M132.378 108.326H130.973V109.029H132.378V108.326Z" fill="#E0E0E0"/>
<path d="M131.387 107.25H129.981V107.953H131.387V107.25Z" fill="#E0E0E0"/>
</g>
<path d="M108.51 88.8223H107.308V94.7762H108.51V88.8223Z" fill="#E0E0E0"/>
<path d="M116.889 88.8223H115.687V94.7762H116.889V88.8223Z" fill="#E0E0E0"/>
<path d="M108.51 79.5605H107.308V85.5145H108.51V79.5605Z" fill="#E0E0E0"/>
<path d="M116.889 79.5605H115.687V85.5145H116.889V79.5605Z" fill="#E0E0E0"/>
<path d="M116.889 70.2988H115.687V76.2527H116.889V70.2988Z" fill="#E0E0E0"/>
<path d="M116.889 61.0371H115.687V66.991H116.889V61.0371Z" fill="#E0E0E0"/>
<g opacity="0.3">
<path d="M108.51 88.8223H107.308V94.7762H108.51V88.8223Z" fill="#E0E0E0"/>
<path d="M116.889 88.8223H115.687V94.7762H116.889V88.8223Z" fill="#E0E0E0"/>
<path d="M108.51 79.5605H107.308V85.5145H108.51V79.5605Z" fill="#E0E0E0"/>
<path d="M116.889 79.5605H115.687V85.5145H116.889V79.5605Z" fill="#E0E0E0"/>
<path d="M116.889 70.2988H115.687V76.2527H116.889V70.2988Z" fill="#E0E0E0"/>
<path d="M116.889 61.0371H115.687V66.991H116.889V61.0371Z" fill="#E0E0E0"/>
</g>
<path d="M118.35 98.1836H106.401V100.008H118.35V98.1836Z" fill="#E0E0E0"/>
<path d="M118.35 98.1836H106.401V100.008H118.35V98.1836Z" fill="#E0E0E0"/>
<path d="M122.166 98.1836H118.35V100.008H122.166V98.1836Z" fill="#E0E0E0"/>
<path d="M122.166 98.1836H118.35V100.008H122.166V98.1836Z" fill="#E0E0E0"/>
<path d="M108.916 100.01H107.258V109.934H108.916V100.01Z" fill="#E0E0E0"/>
<path d="M108.916 100.01H107.258V109.934H108.916V100.01Z" fill="#E0E0E0"/>
<path d="M122.166 101.367H116.677V109.935H122.166V101.367Z" fill="#E0E0E0"/>
<path opacity="0.2" d="M122.166 101.367H116.677V109.935H122.166V101.367Z" fill="#EBEBEB"/>
<path d="M116.674 101.367H111.185V109.935H116.674V101.367Z" fill="#E0E0E0"/>
<path opacity="0.1" d="M116.674 101.367H111.185V109.935H116.674V101.367Z" fill="#E0E0E0"/>
<path d="M113.932 102.776L113.343 104.353L114.56 105.764L114.412 107.173L115.777 106.537L116.677 106.74V101.367H113.624L113.932 102.776Z" fill="#F5F5F5"/>
<path d="M122.166 109.932V105.706L120.92 104.768L120.673 105.764L119.703 105.651L120.118 107.617L118.541 108.363L120.063 108.944L119.796 109.932H122.166Z" fill="#EBEBEB"/>
<path d="M107.258 105.063L107.688 104.767L107.935 104.971L108.661 104.157L108.919 104.43V100.01H107.258V105.063Z" fill="#E0E0E0"/>
<path d="M107.258 105.063L107.688 104.767L107.935 104.971L108.661 104.157L108.919 104.43V100.01H107.258V105.063Z" fill="#E0E0E0"/>
<path d="M119.177 100.01H117.519V109.934H119.177V100.01Z" fill="#E0E0E0"/>
<path d="M119.177 100.01H117.519V109.934H119.177V100.01Z" fill="#E0E0E0"/>
<path d="M39.5167 80.219L38.4074 71.828L37.6329 60.8046L35.1471 50.4746H32.7559V109.957H42.5133V80.9999L40.6295 79.2396L39.5167 80.219Z" fill="#E0E0E0"/>
<path d="M38.9311 53.4258L39.8778 53.5983L39.9461 53.234L39.0092 53.0616L39.2402 51.9715L38.8759 51.8968L38.6449 52.9966L37.6688 52.8177L37.6005 53.182L38.5766 53.3575L38.4173 54.1124L38.3848 54.3596L37.2136 54.1449L38.1896 49.5084L37.8254 49.4336L36.8493 54.0766L36.5402 54.0211L36.4718 54.3854L36.7972 54.4439L36.1465 59.4772V72.1662H36.5175V59.4999L36.8624 56.78L38.037 56.9981L37.7117 59.4775V72.1665H38.0827V59.5002L38.3918 57.0633L39.098 57.1935L39.1663 56.8292L38.4408 56.696L38.6816 54.7959H38.7272L38.7956 54.4316H38.7272L38.7597 54.1779L38.9311 53.4258ZM38.0886 56.6372L36.914 56.4224L37.1548 54.5223L38.3294 54.7371L38.0886 56.6372Z" fill="#E0E0E0"/>
<path d="M44.3649 60.2494L44.0037 60.1713L43.5451 62.3447L42.3509 65.4714L41.3748 64.9086L41.9832 63.3045L42.4419 63.5714L42.6306 63.246L42.1131 62.9467L42.3052 62.4424L43.2813 57.7798L42.9201 57.7051L41.944 62.3382L41.7847 62.758L40.6233 62.0812L40.4345 62.4066L41.6514 63.1158L41.0463 64.7199L40.9814 64.681L40.796 65.0064L40.9131 65.0747L39.9924 67.5051L39.6248 67.4499L39.5693 67.8176L39.8589 67.8598L39.7709 68.0942V70.0724H39.5856V70.4434H39.7709V72.5288H39.5856V72.9063H39.7709V74.9886H39.5856V75.3596H39.7709V77.4451H39.5856V77.8161H39.7709V80.8258H40.1419V77.8161H41.3751V80.8258H41.7461V77.8161H41.9314V77.4451H41.7461V75.3596H41.9314V74.9886H41.7461V72.9063H41.9314V72.5353H41.7461V70.4498H41.9314V70.0788H41.7461V68.169V68.1429L41.8793 68.1625L41.9348 67.7949H41.8793L42.5463 66.0281L42.8162 66.1843L43.0016 65.859L42.6762 65.6702L43.8897 62.4589L44.3649 60.2494ZM41.3748 77.435H40.1711V75.3496H41.3748V77.435ZM41.3748 74.9786H40.1711V72.906H41.3748V74.9786ZM41.3748 72.5255H40.1711V70.44H41.3748V72.5255ZM41.3748 68.0908V70.069H40.1711V68.1592L40.2621 67.9119L41.3781 68.078L41.3748 68.0908ZM41.5148 67.7229L40.3956 67.5569L41.2645 65.2598L42.2405 65.8226L41.5148 67.7229Z" fill="#E6E6E6"/>
<path d="M14.9715 53.8102L16.185 57.0215L15.8597 57.2102L16.0484 57.5356L16.3152 57.3793L16.9822 59.1461H16.9267L16.9822 59.5138L17.1188 59.4942V59.5202V61.4301H16.9335V61.8011H17.1188V63.8868H16.9335V64.2578H17.1188V66.3402H16.9335V66.7241H17.1188V68.8098H16.9335V69.1808H17.1188V72.1902H17.4898V69.1808H18.6935V72.1902H19.0645V69.1808H19.2499V68.8098H19.0645V66.7241H19.2499V66.3531H19.0645V64.2707H19.2499V63.8997H19.0645V61.814H19.2499V61.443H19.0645V59.4648L18.9735 59.2304L19.2631 59.1881L19.2076 58.8205L18.84 58.8757L17.9485 56.4321L18.0689 56.3638L17.8801 56.0384L17.8183 56.0773L17.2098 54.4732L18.4267 53.764L18.238 53.4386L17.0765 54.1187L16.9203 53.699L15.9442 49.0625L15.583 49.1406L16.5591 53.8032L16.7478 54.3041L16.2304 54.6068L16.4191 54.9321L16.8811 54.6622L17.4862 56.2694L16.5101 56.8322L15.3257 53.7088L14.8701 51.5355L14.5059 51.6136L14.9715 53.8102ZM17.503 66.7238H18.7067V68.8095H17.503V66.7238ZM17.503 64.2707H18.7067V66.3531H17.503V64.2707ZM17.503 61.8143H18.7067V63.8997H17.503V61.8143ZM17.503 59.4519L18.6191 59.2859L18.7134 59.5331V61.443H17.5097V59.4648L17.503 59.4519ZM16.6473 57.1842L17.6234 56.6214L18.4922 58.9185L17.3761 59.0845L16.6473 57.1842Z" fill="#EBEBEB"/>
<path d="M14.0445 84.3415V71.6264L13.3938 66.6192L13.7192 66.5573L13.6542 66.193L13.3451 66.2515L12.369 61.6055L12.0078 61.6836L12.9839 66.3168L11.8093 66.5349L11.7768 66.2714L11.6206 65.5327L12.5967 65.3538L12.5317 64.9895L11.5556 65.1685L11.3213 64.0686L10.9601 64.1467L11.1911 65.2368L10.2539 65.4093L10.3189 65.7735L11.2689 65.5977L11.4251 66.333L11.4576 66.5998H11.3927L11.4576 66.9641H11.5063L11.7471 68.8608L11.0217 68.9941L11.09 69.3618L11.7928 69.2316L12.1181 71.6424V84.3314H12.4891V71.6261L12.1638 69.1697L13.3384 68.9549L13.6833 71.6488V84.3378L14.0445 84.3415ZM12.0924 68.802L11.8516 66.9019L13.0262 66.6872L13.267 68.5873L12.0924 68.802Z" fill="#E0E0E0"/>
<path d="M12.4375 72.5407L14.9071 67.6309H16.4493L16.9438 69.2806L15.7726 72.1697L13.9797 72.5407H12.4375Z" fill="#E0E0E0"/>
<path d="M12.4375 72.5407L14.9071 67.6309H16.4493L16.9438 69.2806L15.7726 72.1697L13.9797 72.5407H12.4375Z" fill="#E0E0E0"/>
<path d="M13.9795 72.5418L16.4491 67.632L18.9218 68.5885L21.6386 67.2285V73.2186L13.9795 72.5418Z" fill="#E0E0E0"/>
<path d="M13.9795 72.5418L16.4491 67.632L18.9218 68.5885L21.6386 67.2285V73.2186L13.9795 72.5418Z" fill="#E0E0E0"/>
<path d="M16.5723 61.7939L17.685 55.1825H19.9073L21.0201 50.4746H22.2565V53.8256V59.2593L21.6383 61.7939L20.8347 62.2461L17.8087 61.7939H16.5723Z" fill="#E0E0E0"/>
<path d="M16.5723 61.7939L17.685 55.1825H19.9073L21.0201 50.4746H22.2565V53.8256V59.2593L21.6383 61.7939L20.8347 62.2461L17.8087 61.7939H16.5723Z" fill="#E0E0E0"/>
<path d="M17.8086 61.7939L18.9213 55.1825H21.1437L22.2564 50.4746L24.7159 53.4157L24.0425 55.4947V62.2461L17.8086 61.7939Z" fill="#E0E0E0"/>
<path d="M17.8086 61.7939L18.9213 55.1825H21.1437L22.2564 50.4746L24.7159 53.4157L24.0425 55.4947V62.2461L17.8086 61.7939Z" fill="#E0E0E0"/>
<path d="M28.1785 50.4746L24.5116 52.0037L22.9369 55.6151L20.6496 57.9904V61.0813H16.1077L15.5253 63.1214V64.7871H20.6496V71.457H13.9797V71.4376L13.0232 71.828H11.1816V109.957H32.7565V50.4746H28.1785Z" fill="#E0E0E0"/>
<path d="M28.1785 50.4746L24.5116 52.0037L22.9369 55.6151L20.6496 57.9904V61.0813H16.1077L15.5253 63.1214V64.7871H20.6496V71.457H13.9797V71.4376L13.0232 71.828H11.1816V109.957H32.7565V50.4746H28.1785Z" fill="#E6E6E6"/>
<path d="M20.6494 86.2812H13.9795V92.9511H20.6494V86.2812Z" fill="#F5F5F5"/>
<path d="M30.0361 86.2812H23.3662V92.9511H30.0361V86.2812Z" fill="#F5F5F5"/>
<path d="M20.6494 75.9062H13.9795V82.5761H20.6494V75.9062Z" fill="#F5F5F5"/>
<path d="M30.0361 75.9062H23.3662V82.5761H30.0361V75.9062Z" fill="#F5F5F5"/>
<path d="M30.0361 65.5293H23.3662V72.1992H30.0361V65.5293Z" fill="#F5F5F5"/>
<path d="M30.0361 55.1543H23.3662V61.8242H30.0361V55.1543Z" fill="#F5F5F5"/>
<path d="M42.5135 84.0879H39.9823L40.7697 87.8556L36.5854 93.7219L37.1711 98.1078L35.4727 102.679L35.7395 109.957H42.5135V84.0879Z" fill="#EBEBEB"/>
<path d="M39.4712 93.1816H37.8965V93.969H39.4712V93.1816Z" fill="#E0E0E0"/>
<path d="M40.5679 91.9785H38.9932V92.7659H40.5679V91.9785Z" fill="#E0E0E0"/>
<path d="M40.5679 94.3867H38.9932V95.1741H40.5679V94.3867Z" fill="#E0E0E0"/>
<path d="M41.5571 93.1816H39.9824V93.969H41.5571V93.1816Z" fill="#E0E0E0"/>
<path d="M39.8589 98.6934H38.2842V99.4807H39.8589V98.6934Z" fill="#E0E0E0"/>
<path d="M40.8442 97.4902H39.2695V98.2776H40.8442V97.4902Z" fill="#E0E0E0"/>
<path d="M37.773 103.242H36.1982V104.03H37.773V103.242Z" fill="#E0E0E0"/>
<path d="M38.8696 102.039H37.2949V102.826H38.8696V102.039Z" fill="#E0E0E0"/>
<path d="M40.9683 102.039H39.3936V102.826H40.9683V102.039Z" fill="#E0E0E0"/>
<path d="M38.8696 104.445H37.2949V105.233H38.8696V104.445Z" fill="#E0E0E0"/>
<path d="M40.9683 104.445H39.3936V105.233H40.9683V104.445Z" fill="#E0E0E0"/>
<path d="M39.8589 103.242H38.2842V104.03H39.8589V103.242Z" fill="#E0E0E0"/>
<path d="M38.8696 106.926H37.2949V107.713H38.8696V106.926Z" fill="#E0E0E0"/>
<path d="M39.9663 105.721H38.3916V106.508H39.9663V105.721Z" fill="#E0E0E0"/>
<path d="M39.9663 108.129H38.3916V108.916H39.9663V108.129Z" fill="#E0E0E0"/>
<path d="M42.064 108.129H40.4893V108.916H42.064V108.129Z" fill="#E0E0E0"/>
<path d="M40.9546 106.926H39.3799V107.713H40.9546V106.926Z" fill="#E0E0E0"/>
<g opacity="0.2">
<path d="M39.4712 93.1816H37.8965V93.969H39.4712V93.1816Z" fill="#E0E0E0"/>
<path d="M40.5679 91.9785H38.9932V92.7659H40.5679V91.9785Z" fill="#E0E0E0"/>
<path d="M40.5679 94.3867H38.9932V95.1741H40.5679V94.3867Z" fill="#E0E0E0"/>
<path d="M41.5571 93.1816H39.9824V93.969H41.5571V93.1816Z" fill="#E0E0E0"/>
<path d="M39.8579 98.6934H38.2832V99.4807H39.8579V98.6934Z" fill="#E0E0E0"/>
<path d="M40.8442 97.4902H39.2695V98.2776H40.8442V97.4902Z" fill="#E0E0E0"/>
<path d="M37.773 103.242H36.1982V104.03H37.773V103.242Z" fill="#E0E0E0"/>
<path d="M38.8696 102.039H37.2949V102.826H38.8696V102.039Z" fill="#E0E0E0"/>
<path d="M40.9673 102.039H39.3926V102.826H40.9673V102.039Z" fill="#E0E0E0"/>
<path d="M38.8696 104.447H37.2949V105.235H38.8696V104.447Z" fill="#E0E0E0"/>
<path d="M40.9673 104.447H39.3926V105.235H40.9673V104.447Z" fill="#E0E0E0"/>
<path d="M39.8579 103.242H38.2832V104.03H39.8579V103.242Z" fill="#E0E0E0"/>
<path d="M38.8696 106.926H37.2949V107.713H38.8696V106.926Z" fill="#E0E0E0"/>
<path d="M39.9663 105.723H38.3916V106.51H39.9663V105.723Z" fill="#E0E0E0"/>
<path d="M39.9663 108.129H38.3916V108.916H39.9663V108.129Z" fill="#E0E0E0"/>
<path d="M42.064 108.129H40.4893V108.916H42.064V108.129Z" fill="#E0E0E0"/>
<path d="M40.9546 106.926H39.3799V107.713H40.9546V106.926Z" fill="#E0E0E0"/>
</g>
<path d="M15.3266 86.2812H13.9795V92.9511H15.3266V86.2812Z" fill="#E0E0E0"/>
<path d="M24.7133 86.2812H23.3662V92.9511H24.7133V86.2812Z" fill="#E0E0E0"/>
<path d="M15.3266 75.9062H13.9795V82.5761H15.3266V75.9062Z" fill="#E0E0E0"/>
<path d="M24.7133 75.9062H23.3662V82.5761H24.7133V75.9062Z" fill="#E0E0E0"/>
<path d="M24.7133 65.5293H23.3662V72.1992H24.7133V65.5293Z" fill="#E0E0E0"/>
<path d="M24.7133 55.1543H23.3662V61.8242H24.7133V55.1543Z" fill="#E0E0E0"/>
<g opacity="0.3">
<path d="M15.3266 86.2812H13.9795V92.9511H15.3266V86.2812Z" fill="#E0E0E0"/>
<path d="M24.7133 86.2812H23.3662V92.9511H24.7133V86.2812Z" fill="#E0E0E0"/>
<path d="M15.3266 75.9062H13.9795V82.5761H15.3266V75.9062Z" fill="#E0E0E0"/>
<path d="M24.7133 75.9062H23.3662V82.5761H24.7133V75.9062Z" fill="#E0E0E0"/>
<path d="M24.7133 65.5293H23.3662V72.1992H24.7133V65.5293Z" fill="#E0E0E0"/>
<path d="M24.7133 55.1543H23.3662V61.8242H24.7133V55.1543Z" fill="#E0E0E0"/>
</g>
<path d="M26.3493 96.7676H12.9639V98.8107H26.3493V96.7676Z" fill="#E0E0E0"/>
<path d="M26.3493 96.7676H12.9639V98.8107H26.3493V96.7676Z" fill="#E0E0E0"/>
<path d="M30.6249 96.7676H26.3496V98.8107H30.6249V96.7676Z" fill="#E0E0E0"/>
<path d="M30.6249 96.7676H26.3496V98.8107H30.6249V96.7676Z" fill="#E0E0E0"/>
<path d="M15.7816 98.8145H13.9238V109.932H15.7816V98.8145Z" fill="#E0E0E0"/>
<path d="M15.7816 98.8145H13.9238V109.932H15.7816V98.8145Z" fill="#E0E0E0"/>
<path d="M30.6249 100.334H24.4756V109.932H30.6249V100.334Z" fill="#E0E0E0"/>
<path opacity="0.2" d="M30.6249 100.334H24.4756V109.932H30.6249V100.334Z" fill="#EBEBEB"/>
<path d="M24.4726 100.334H18.3232V109.932H24.4726V100.334Z" fill="#E0E0E0"/>
<path opacity="0.1" d="M24.4726 100.334H18.3232V109.932H24.4726V100.334Z" fill="#E0E0E0"/>
<path d="M21.4008 101.912L20.7402 103.679L22.1033 105.26L21.9375 106.838L23.4666 106.126L24.4752 106.353V100.334H21.0558L21.4008 101.912Z" fill="#F5F5F5"/>
<path d="M30.6247 109.928V105.194L29.2289 104.143L28.9526 105.259L27.8659 105.132L28.331 107.335L26.5645 108.171L28.2691 108.821L27.9698 109.928H30.6247Z" fill="#EBEBEB"/>
<path d="M13.9238 104.476L14.4051 104.144L14.6818 104.372L15.4952 103.46L15.7847 103.766V98.8145H13.9238V104.476Z" fill="#E0E0E0"/>
<path d="M13.9238 104.476L14.4051 104.144L14.6818 104.372L15.4952 103.46L15.7847 103.766V98.8145H13.9238V104.476Z" fill="#E0E0E0"/>
<path d="M27.2767 98.8145H25.4189V109.932H27.2767V98.8145Z" fill="#E0E0E0"/>
<path d="M27.2767 98.8145H25.4189V109.932H27.2767V98.8145Z" fill="#E0E0E0"/>
<path d="M63.7273 22.4785L61.9297 18.5923L63.1194 18.3809L65.4722 21.5267L68.6447 21.5004L67.5608 20.4297L69.0411 20.1785L70.0192 20.9981L80.1969 19.2268L81.6772 16.7155L84.7175 16.2132C84.7175 16.2132 84.8233 15.6316 84.9026 15.605C84.9818 15.5787 85.2727 15.605 85.2727 15.605V14.7591L71.8963 7.99153L72.8214 7.46289L85.0347 13.9925C85.0347 13.9925 85.2461 13.7016 85.6692 13.7016C86.0923 13.7016 86.5417 13.7808 86.5417 13.7808L86.9382 14.2039L103.672 12.2212C103.672 12.2212 104.227 12.8294 104.148 12.8028C104.068 12.7765 90.7182 14.5475 90.7182 14.5475C90.7182 14.5475 89.9252 14.2039 89.8457 14.2039C89.7664 14.2039 88.0481 14.4682 88.0481 14.4682L87.9159 14.7325L86.3827 14.9705L86.2768 15.4199L86.7791 15.605L86.832 15.9223L87.7572 15.8959L87.9686 16.2924C87.9686 16.2924 90.0042 15.9752 91.0088 16.1339C92.0135 16.2924 94.1812 18.1166 95.2648 18.6982C96.3487 19.2797 96.5338 20.5221 95.2648 21.051C93.9958 21.5797 91.7754 22.7428 88.894 22.9015C86.0125 23.06 81.7828 22.3729 80.8574 22.1349C79.9323 21.8969 71.5785 22.5314 71.5785 22.5314L72.7945 23.6945L71.3142 23.8267L70.204 22.7691L65.7629 22.9542L64.5732 25.2804L63.5685 25.0953L63.8329 23.0597H62.8282L62.8545 22.7954L63.7273 22.4785Z" fill="#E0E0E0"/>
<path d="M83.3196 22.7661C84.3478 23.7083 84.1865 25.229 84.044 26.4798C84.0275 26.6245 84.1789 26.746 84.3117 26.7474C84.4699 26.7491 84.5631 26.6228 84.5793 26.4798C84.7389 25.0775 84.84 23.4339 83.6982 22.3873C83.4445 22.1549 83.0651 22.5326 83.3196 22.7661Z" fill="#E0E0E0"/>
<path d="M83.0973 27.0024C84.5983 26.7851 86.0969 26.5511 87.5927 26.2993C88.9865 26.0647 90.424 25.8933 91.6863 25.2143C92.3709 24.8461 92.9927 24.3749 93.6104 23.9062C93.8437 23.7292 93.7179 23.3453 93.4041 23.417C90.5542 24.0663 87.6599 24.5099 84.7456 24.7353C83.9104 24.7999 83.074 24.8461 82.2368 24.8764C81.8933 24.8887 81.8916 25.4241 82.2368 25.4117C85.1905 25.3056 88.1361 24.9847 91.0431 24.4497C91.8811 24.2954 92.7155 24.1226 93.5463 23.9333C93.4774 23.7701 93.4088 23.6071 93.3399 23.4439C92.8051 23.8496 92.2687 24.2562 91.6896 24.5975C91.0997 24.9453 90.4767 25.1883 89.8111 25.3476C88.3932 25.687 86.9271 25.8757 85.4879 26.1028C84.6443 26.2361 83.7998 26.3635 82.9545 26.4858C82.6151 26.5354 82.7596 27.0511 83.0973 27.0024Z" fill="#E0E0E0"/>
<path d="M88.0122 23.0056C88.589 23.812 88.7886 24.8393 88.5335 25.8C88.4451 26.1335 88.9614 26.2757 89.0499 25.9422C89.3388 24.8536 89.1313 23.6533 88.4745 22.7354C88.3905 22.6181 88.2412 22.5615 88.1082 22.6394C87.9923 22.7071 87.9276 22.8874 88.0122 23.0056Z" fill="#E0E0E0"/>
<path d="M81.2704 22.1769C81.1069 22.677 81.0262 23.2059 81.0304 23.7321C81.0315 23.8721 81.1528 24.0062 81.2981 23.9997C81.4423 23.9933 81.5669 23.8821 81.5658 23.7321C81.565 23.6111 81.568 23.4899 81.5764 23.3692C81.5809 23.3042 81.5868 23.2393 81.5941 23.1746C81.5971 23.1469 81.6005 23.1191 81.6042 23.0914C81.5983 23.1357 81.6112 23.0477 81.6126 23.0382C81.6512 22.7943 81.71 22.5544 81.7867 22.3195C81.8301 22.1862 81.736 22.0213 81.5997 21.9902C81.4527 21.9566 81.3169 22.0344 81.2704 22.1769Z" fill="#E0E0E0"/>
<path d="M79.9708 24.2418C82.026 23.9178 84.0815 23.5941 86.1367 23.2702C86.476 23.2167 86.3321 22.7006 85.9944 22.7538C83.9392 23.0778 81.8838 23.4018 79.8286 23.7254C79.4892 23.7789 79.6331 24.295 79.9708 24.2418Z" fill="#E0E0E0"/>
<path d="M81.3298 51.5276C80.7863 51.1168 79.9931 51.0704 79.4054 51.4148C78.625 49.8378 76.4505 49.142 74.8999 49.9728C74.4953 48.2737 72.8212 46.9678 71.0748 46.9885C69.3282 47.0095 67.686 48.3555 67.3225 50.0638C67.2648 50.3351 67.2265 50.6327 67.0324 50.831C66.7169 51.1532 66.1902 51.0452 65.7408 51.0099C64.3262 50.8996 62.9033 51.8924 62.5186 53.258L81.9968 53.1872C82.167 52.528 81.8733 51.9384 81.3298 51.5276Z" fill="#F0F0F0"/>
<path d="M88.0166 38.0226C87.7543 37.8244 87.3715 37.8019 87.0879 37.968C86.7113 37.207 85.6618 36.8712 84.9137 37.2722C84.7185 36.4523 83.9104 35.8221 83.0676 35.8322C82.2248 35.8422 81.4322 36.4918 81.2569 37.3161C81.2292 37.4472 81.2107 37.5906 81.1169 37.6863C80.9646 37.8417 80.7106 37.7896 80.4936 37.7728C79.811 37.7196 79.1241 38.1987 78.9385 38.8578L88.3384 38.8237C88.4207 38.5056 88.279 38.2208 88.0166 38.0226Z" fill="#F0F0F0"/>
<path d="M29.7598 24.1302C29.4151 23.8698 28.9122 23.8404 28.5395 24.0585C28.0448 23.0587 26.666 22.6174 25.6827 23.1443C25.4262 22.0669 24.3647 21.2389 23.2573 21.2521C22.1499 21.2655 21.1086 22.119 20.8782 23.202C20.8415 23.3742 20.8174 23.5627 20.6942 23.6887C20.4943 23.8931 20.1602 23.8245 19.8752 23.8021C18.9784 23.7321 18.0759 24.3618 17.832 25.2275L30.1828 25.1825C30.2906 24.7644 30.1044 24.3906 29.7598 24.1302Z" fill="#F0F0F0"/>
<path d="M118.083 31.5474C117.755 31.2996 117.277 31.2716 116.922 31.4794C116.451 30.5279 115.139 30.1079 114.203 30.6094C113.959 29.5841 112.949 28.7961 111.895 28.8087C110.841 28.8213 109.85 29.6336 109.63 30.6646C109.596 30.8284 109.572 31.0079 109.455 31.1274C109.265 31.3217 108.947 31.2565 108.676 31.2355C107.822 31.1689 106.964 31.7681 106.731 32.5921L118.485 32.5493C118.588 32.1511 118.411 31.7952 118.083 31.5474Z" fill="#E0E0E0"/>
<path d="M56.2808 16.599C55.8603 16.2815 55.2468 16.2454 54.7921 16.5116C54.1884 15.292 52.5064 14.7538 51.3069 15.3964C50.9939 14.0821 49.6991 13.0718 48.3481 13.0881C46.9971 13.1043 45.727 14.1454 45.4456 15.467C45.4008 15.677 45.3715 15.9071 45.2211 16.0603C44.9772 16.3095 44.5698 16.2258 44.2221 16.1989C43.1281 16.1135 42.0271 16.8815 41.7295 17.938L56.796 17.8831C56.9284 17.3729 56.7011 16.9168 56.2808 16.599Z" fill="#E0E0E0"/>
<path d="M127.506 125.119C127.506 126.068 101.322 126.836 69.0211 126.836C36.7206 126.836 10.5361 126.067 10.5361 125.119C10.5361 124.171 36.7206 123.402 69.0211 123.402C101.322 123.402 127.506 124.171 127.506 125.119Z" fill="#F5F5F5"/>
<path d="M116.662 124.422L117.718 120.656L121.894 119.314C121.894 119.314 127.043 122.641 127.34 122.736C127.638 122.83 127.935 124.415 127.935 124.415L116.662 124.422Z" fill="#263238"/>
<path opacity="0.3" d="M116.662 124.422L117.718 120.656L121.894 119.314C121.894 119.314 127.043 122.641 127.34 122.736C127.638 122.83 127.935 124.415 127.935 124.415L116.662 124.422Z" fill="white"/>
<path d="M107.18 124.495L107.764 122.412L110.074 121.67C110.074 121.67 112.922 123.51 113.087 123.562C113.251 123.615 113.415 124.491 113.415 124.491L107.18 124.495Z" fill="#263238"/>
<path opacity="0.3" d="M107.18 124.495L107.764 122.412L110.074 121.67C110.074 121.67 112.922 123.51 113.087 123.562C113.251 123.615 113.415 124.491 113.415 124.491L107.18 124.495Z" fill="white"/>
<path d="M28.7772 124.338L27.0678 118.244L20.31 116.072C20.31 116.072 11.9774 121.456 11.4967 121.609C11.0159 121.762 10.5352 124.326 10.5352 124.326L28.7772 124.338Z" fill="#263238"/>
<path opacity="0.3" d="M28.7772 124.338L27.0678 118.244L20.31 116.072C20.31 116.072 11.9774 121.456 11.4967 121.609C11.0159 121.762 10.5352 124.326 10.5352 124.326L28.7772 124.338Z" fill="white"/>
<path d="M102.644 103.687C102.644 103.687 103.505 103.398 104.392 103.534C105.279 103.67 105.843 103.951 106.216 103.915C106.588 103.878 106.982 104.033 106.619 104.419C106.256 104.806 106.203 105.088 105.6 105.117C105.6 105.117 106.035 105.217 106.085 106.203C106.135 107.19 105.182 107.817 105.182 107.817C105.182 107.817 105.1 108.505 104.446 108.494C104.446 108.494 104.083 108.88 103.591 108.83C103.099 108.781 101.675 108.095 101.253 107.33C100.831 106.565 101.125 106.825 100.567 106.592C100.01 106.359 99.0596 105.809 99.0596 105.809L100.139 102.592L102.549 103.654" fill="#EFB9AF"/>
<path d="M99.7788 106.418L101.659 102.847L101.044 102.516L98.0669 98.8789C98.0669 98.8789 94.475 102.963 94.4932 103.013C94.5112 103.062 99.1639 106.101 99.1639 106.101L99.7788 106.418Z" fill="#407BFF"/>
<path opacity="0.4" d="M99.7788 106.418L101.659 102.847L101.044 102.516L98.0669 98.8789C98.0669 98.8789 94.475 102.963 94.4932 103.013C94.5112 103.062 99.1639 106.101 99.1639 106.101L99.7788 106.418Z" fill="black"/>
<path d="M104.682 105.092L102.218 106.982L102.907 107.958L105.55 106.19L104.682 105.092Z" fill="#263238"/>
<path d="M105.079 105.887C104.967 105.748 104.807 105.598 104.637 105.652C104.491 105.698 104.432 105.873 104.417 106.025C104.384 106.373 104.426 106.769 104.602 107.074C104.527 106.97 104.441 106.848 104.383 106.762C104.265 106.583 104.151 106.393 103.977 106.268C103.803 106.143 103.548 106.1 103.378 106.231C103.173 106.389 103.19 106.706 103.279 106.948C103.332 107.091 103.405 107.226 103.492 107.35C103.396 107.277 103.287 107.228 103.169 107.239C102.906 107.265 102.762 107.591 102.827 107.847C102.892 108.103 103.094 108.298 103.287 108.478L105.836 106.947C105.604 106.579 105.351 106.225 105.079 105.887Z" fill="#EFB9AF"/>
<path d="M71.0965 88.6679C70.2103 89.2435 69.6158 90.202 69.232 91.2035C68.544 92.9989 68.4538 94.9637 68.3721 96.8867C68.3416 97.6066 68.3234 98.3771 68.6966 98.9839C69.2448 99.8746 71.5988 100.136 72.6023 99.8945L74.5304 88.9926C73.6736 88.385 71.9827 88.0922 71.0965 88.6679Z" fill="#407BFF"/>
<g opacity="0.3">
<path d="M71.0965 88.6679C70.2103 89.2435 69.6158 90.202 69.232 91.2035C68.544 92.9989 68.4538 94.9637 68.3721 96.8867C68.3416 97.6066 68.3234 98.3771 68.6966 98.9839C69.2448 99.8746 71.5988 100.136 72.6023 99.8945L74.5304 88.9926C73.6736 88.385 71.9827 88.0922 71.0965 88.6679Z" fill="black"/>
</g>
<path opacity="0.3" d="M73.5148 88.5264C73.4994 88.5233 71.8606 99.8764 71.8606 99.8764C71.8606 99.8764 70.7728 99.7482 72.4018 90.6538C72.7507 88.7059 72.9688 88.4062 72.9688 88.4062C73.2765 88.4477 73.3101 88.4606 73.5148 88.5264Z" fill="black"/>
<path d="M74.6678 80.6631C74.0446 80.8619 73.533 81.3365 73.1399 81.8718C72.4354 82.8311 72.0602 83.9892 71.6968 85.124C71.5607 85.5488 71.4238 86.0058 71.5472 86.4291C71.7287 87.0504 73.0912 87.5917 73.7298 87.6118L76.6648 81.4191C76.2526 80.9162 75.2911 80.4646 74.6678 80.6631Z" fill="#407BFF"/>
<g opacity="0.3">
<path d="M74.6678 80.6631C74.0446 80.8619 73.533 81.3365 73.1399 81.8718C72.4354 82.8311 72.0602 83.9892 71.6968 85.124C71.5607 85.5488 71.4238 86.0058 71.5472 86.4291C71.7287 87.0504 73.0912 87.5917 73.7298 87.6118L76.6648 81.4191C76.2526 80.9162 75.2911 80.4646 74.6678 80.6631Z" fill="black"/>
</g>
<path opacity="0.3" d="M73.5825 87.5999L76.1308 80.9737L75.6918 80.7578C74.0877 82.7231 73.3933 85.0093 73.2393 87.552L73.5825 87.5999Z" fill="black"/>
<path d="M81.7935 97.9097C82.2947 92.7104 82.7962 87.511 83.2973 82.3117C83.3234 82.0415 83.3055 81.7699 83.2447 81.5104C83.0767 80.7919 82.5957 80.2285 81.9643 80.0051C81.2912 79.7668 80.6021 79.5912 79.8948 79.5436C78.8252 79.4714 77.7035 79.7094 76.7622 80.4083C75.7514 81.1587 75.0172 82.3873 74.5353 83.6958C74.0534 85.0042 73.7992 86.4034 73.5483 87.7905C73.0877 90.3374 72.6268 92.8845 72.1662 95.4314C71.8812 97.0075 71.5962 98.6517 71.9145 100.177C72.4026 102.515 74.2338 104.053 76.1574 104.644C77.0965 104.932 78.1316 105.031 79.0503 104.544C80.032 104.023 80.7452 102.892 81.1444 101.685C81.544 100.478 81.6708 99.1845 81.7935 97.9097Z" fill="#407BFF"/>
<g opacity="0.3">
<path d="M81.7935 97.9097C82.2947 92.7104 82.7962 87.511 83.2973 82.3117C83.3234 82.0415 83.3055 81.7699 83.2447 81.5104C83.0767 80.7919 82.5957 80.2285 81.9643 80.0051C81.2912 79.7668 80.6021 79.5912 79.8948 79.5436C78.8252 79.4714 77.7035 79.7094 76.7622 80.4083C75.7514 81.1587 75.0172 82.3873 74.5353 83.6958C74.0534 85.0042 73.7992 86.4034 73.5483 87.7905C73.0877 90.3374 72.6268 92.8845 72.1662 95.4314C71.8812 97.0075 71.5962 98.6517 71.9145 100.177C72.4026 102.515 74.2338 104.053 76.1574 104.644C77.0965 104.932 78.1316 105.031 79.0503 104.544C80.032 104.023 80.7452 102.892 81.1444 101.685C81.544 100.478 81.6708 99.1845 81.7935 97.9097Z" fill="black"/>
</g>
<g opacity="0.3">
<path d="M75.7881 94.2211C76.1434 91.6532 76.599 89.1033 77.0512 86.5519C77.5871 84.1714 77.6672 80.9525 80.0609 79.623C77.8186 81.1474 77.8576 84.1952 77.3261 86.6023C76.8442 89.1481 76.3663 91.6941 75.7881 94.2211Z" fill="black"/>
</g>
<path d="M86.1445 77.5867C86.0582 76.9107 86.1881 76.2088 86.5101 75.6082L85.6435 74.9961C84.8265 75.0658 83.9955 75.3495 83.4352 75.9481C82.9547 76.4613 82.7142 77.1639 82.6489 77.8639C82.5837 78.5639 82.6806 79.2683 82.8001 79.9611C82.8214 80.0848 82.8615 80.2304 82.9807 80.2699C83.0404 80.2895 83.1053 80.2761 83.1669 80.2623C84.4429 79.9781 85.7189 79.6939 86.9948 79.4097C86.5325 78.9094 86.2307 78.2626 86.1445 77.5867Z" fill="#263238"/>
<path d="M86.6498 75.5701C86.44 75.2658 86.2306 74.9614 86.0212 74.6568L86.0049 74.6083C85.9005 74.5131 85.7188 74.5473 85.6294 74.6568C85.5401 74.7663 85.532 74.925 85.5751 75.0597C85.6182 75.1944 85.7053 75.3097 85.7935 75.4203C85.9464 75.6119 86.118 75.8045 86.349 75.8863C86.423 75.9126 86.5047 75.9263 86.5795 75.9031C86.6542 75.8798 86.7192 75.8123 86.7195 75.7339C86.7195 75.6737 86.6839 75.62 86.6498 75.5701Z" fill="#407BFF"/>
<path d="M87.5757 71.5156L86.3356 71.6721C85.7414 72.4732 85.5675 73.5692 85.8845 74.515C86.2014 75.4608 87.0006 76.2305 87.9573 76.5119C87.7655 74.8521 87.6384 73.185 87.5757 71.5156Z" fill="#263238"/>
<path d="M86.6748 80.1649C86.6748 80.1649 87.4501 78.4805 87.3398 75.1219C87.3387 75.1252 87.3409 75.1185 87.3398 75.1219C87.3264 74.6526 87.3143 74.057 87.2779 73.6746C87.2776 73.6636 87.4459 73.7801 87.4459 73.7801L91.0506 77.5133C90.6956 78.488 90.5623 80.5119 90.5688 81.3827C90.5688 81.3827 90.7326 82.9983 88.7499 82.5623C87.3012 82.244 86.6748 80.1649 86.6748 80.1649Z" fill="#EFB9AF"/>
<path opacity="0.2" d="M90.7662 78.938L88.4453 77.7559C88.4739 78.5785 88.9202 79.6587 90.615 80.1689C90.615 80.1689 90.6624 79.2687 90.7662 78.938Z" fill="black"/>
<path d="M95.8897 70.8747C96.1411 71.9928 95.7656 74.2149 94.3046 73.3597C92.8438 72.5046 95.4574 68.9531 95.8897 70.8747Z" fill="#263238"/>
<path d="M87.9418 71.6927C87.5397 74.4784 87.2566 76.0414 88.3581 77.7295C90.0149 80.2688 93.5913 79.7295 94.8211 77.1124C95.9279 74.7567 96.3997 70.5968 93.9237 68.9677C91.4846 67.3628 88.3441 68.907 87.9418 71.6927Z" fill="#EFB9AF"/>
<path d="M88.1672 68.3612C88.8596 66.9236 92.7749 67.648 93.6751 68.6428C93.8095 68.7915 95.4041 70.8296 95.5508 70.8081L90.3361 69.5794C90.1804 69.5094 89.8203 69.6335 89.549 70.1061C89.549 70.1061 89.3485 73.1024 87.8998 74.0751C86.8196 73.2757 86.593 72.7199 86.497 71.6618C86.3536 70.0851 87.3728 69.0721 88.1672 68.3612Z" fill="#263238"/>
<path d="M91.6698 73.4188C91.6113 73.7002 91.7137 73.958 91.8983 73.9944C92.0828 74.0308 92.2799 73.8323 92.3384 73.5506C92.3969 73.2692 92.2945 73.0113 92.1099 72.9749C91.9254 72.9388 91.7283 73.1374 91.6698 73.4188Z" fill="#263238"/>
<path d="M94.6718 73.9324C94.6132 74.2138 94.7154 74.4717 94.9002 74.5081C95.085 74.5445 95.2819 74.346 95.3404 74.0643C95.3989 73.7829 95.2967 73.525 95.1119 73.4886C94.9271 73.4525 94.73 73.651 94.6718 73.9324Z" fill="#263238"/>
<path d="M93.598 73.5898C93.598 73.5898 94.1986 75.1735 94.3661 75.8024C93.9007 76.0748 93.2598 75.7716 93.2598 75.7716L93.598 73.5898Z" fill="#E27064"/>
<path d="M91.4233 72.1989C91.4485 72.2384 91.4938 72.2639 91.5445 72.2614C92.1465 72.2328 92.4438 72.6293 92.4469 72.6335C92.4909 72.6934 92.5755 72.7069 92.6357 72.6637C92.6959 72.6203 92.709 72.5366 92.6653 72.4767C92.6499 72.4554 92.2773 71.9587 91.5305 71.994C91.456 71.9973 91.3986 72.0603 91.4025 72.134C91.4037 72.1581 91.4109 72.1802 91.4233 72.1989Z" fill="#263238"/>
<path d="M91.178 79.8329L89.6198 79.3011C89.2793 79.1849 89.0976 78.8148 89.2138 78.4743C89.33 78.1338 89.7002 77.9521 90.0404 78.0683L91.5986 78.6C91.9391 78.7162 92.1208 79.0864 92.0046 79.4266C91.8887 79.7673 91.5185 79.9491 91.178 79.8329Z" fill="#263238"/>
<path d="M95.8752 73.155C95.8993 73.1466 95.9214 73.1312 95.9382 73.1094C95.9836 73.05 95.973 72.9655 95.9142 72.9201C95.3267 72.4668 94.7432 72.6729 94.716 72.6787C94.6463 72.7039 94.6091 72.7809 94.6334 72.8512C94.6578 72.9212 94.7334 72.9576 94.8031 72.9335C94.8272 72.924 95.2786 72.7709 95.7501 73.1349C95.787 73.1634 95.8341 73.1693 95.8752 73.155Z" fill="#263238"/>
<path d="M86.3798 73.7602C86.4526 74.514 86.869 75.1611 87.3584 75.5455C88.0945 76.1237 88.829 75.5506 88.9309 74.6677C89.0227 73.8731 88.7506 72.6148 87.8641 72.3818C86.9911 72.1525 86.2967 72.8981 86.3798 73.7602Z" fill="#EFB9AF"/>
<path opacity="0.2" d="M87.166 73.1298C87.3111 72.9887 87.5496 72.9753 87.7319 73.0624C87.9145 73.1497 88.0458 73.3202 88.1298 73.5042C88.2309 73.7251 88.2731 73.9726 88.2507 74.2143" stroke="black" stroke-width="0.5" stroke-miterlimit="10" stroke-linecap="round" stroke-linejoin="round"/>
<path d="M89.5512 71.4698C89.5512 71.4698 88.8325 77.4679 89.0875 77.7944C90.1448 79.1479 91.2676 79.3784 91.2676 79.3784C91.2676 79.3784 91.1346 79.5203 90.4786 79.2798C89.8225 79.0393 89.0769 78.7369 88.7611 78.2466C88.4452 77.7561 88.6185 75.1845 88.5413 74.5137C88.464 73.8425 88.5861 71.334 88.5861 71.334L89.5512 71.4698Z" fill="#263238"/>
<path d="M88.6804 77.2363L87.2168 76.0181L87.2876 75.4844L88.6042 76.608L88.6804 77.2363Z" fill="#263238"/>
<path d="M91.1182 76.2487C91.4578 76.3736 91.7723 76.5542 92.0786 76.7443C92.1937 76.8157 92.2992 76.6342 92.1847 76.5628C91.8624 76.3626 91.5312 76.1773 91.1739 76.046C91.1207 76.0264 91.0588 76.0678 91.0448 76.1193C91.0289 76.1781 91.0647 76.2291 91.1182 76.2487Z" fill="#263238"/>
<path d="M85.7572 72.0755C85.7572 72.0755 90.0843 71.9675 92.4884 72.1685C94.8924 72.3695 96.862 72.9248 97.0062 72.6677C97.3114 72.1234 96.8541 71.9829 96.8541 71.9829C96.8541 71.9829 97.3058 66.8225 92.037 66.3554C86.7682 65.8884 86.0464 71.1703 86.0464 71.1703C86.0464 71.1703 85.5161 71.438 85.7572 72.0755Z" fill="#407BFF"/>
<path opacity="0.3" d="M86.0459 71.1694C86.0459 71.1694 91.6171 70.8953 96.8536 71.982C96.8536 71.982 90.0785 70.0931 86.0459 71.1694Z" fill="black"/>
<path d="M91.9999 66.023C93.5816 65.9762 95.1373 66.7356 96.063 68.0213C96.1414 68.13 96.3233 68.0252 96.2444 67.9152C95.2753 66.5695 93.6597 65.7634 91.9999 65.8127C91.8649 65.8172 91.8643 66.0272 91.9999 66.023Z" fill="#407BFF"/>
<path d="M91.0046 104.352C91.3386 104.642 105.377 114.026 106.246 115.481C107.114 116.936 107.205 120.486 105.122 121.009C103.039 121.533 88.8024 121.867 88.8024 121.867C88.8024 121.867 88.4345 116.402 88.4938 114.596C88.4978 114.479 94.0602 115.573 94.0602 115.573L83.332 113.449L91.0046 104.352Z" fill="#407BFF"/>
<path opacity="0.4" d="M91.0028 104.346C91.3368 104.637 105.375 114.02 106.244 115.475C107.112 116.93 107.203 120.48 105.12 121.003C103.037 121.527 88.8006 121.861 88.8006 121.861C88.8006 121.861 88.4326 116.396 88.492 114.59C88.4959 114.474 94.0584 115.567 94.0584 115.567L84.0518 113.601L91.0028 104.346Z" fill="black"/>
<path opacity="0.3" d="M86.9025 114.167L89.1005 112.569L90.1648 106.287C90.1648 106.287 85.2357 113.791 85.3174 113.831C85.3989 113.871 86.9025 114.167 86.9025 114.167Z" fill="black"/>
<path opacity="0.3" d="M97.0006 121.603L96.1122 120.612L97.2039 115.286C97.2039 115.286 97.7496 115.271 98.0568 114.513C98.3639 113.755 98.8422 109.774 98.8327 109.767C98.8231 109.761 97.4724 109.061 97.4724 109.061L93.9629 119.895C93.9629 119.895 94.8037 121.572 94.895 121.603C94.9863 121.635 96.8626 121.67 96.8626 121.67" fill="black"/>
<path d="M95.4841 121.115C97.9184 122.73 100.145 122.28 100.324 123.543C100.414 124.173 100.535 125.204 99.0639 125.113C96.6217 125.015 96.8365 124.943 94.7575 124.849C92.979 124.769 90.9291 124.757 89.5173 124.716C89.4955 124.714 89.4736 124.712 89.4518 124.708C89.1432 124.655 88.9366 124.361 88.9898 124.053L89.6898 120.881C89.7186 120.738 89.358 114.079 89.503 114.09L96.5282 114.462L95.4841 121.115Z" fill="#263238"/>
<path d="M81.5248 120.914C79.9888 123.399 80.5093 125.61 79.2524 125.83C78.626 125.94 77.5998 126.093 77.6429 124.62C77.6634 122.176 77.7423 122.388 77.7692 120.307C77.793 118.527 77.7395 116.478 77.7356 115.066C77.7362 115.044 77.7378 115.022 77.7409 115C77.7846 114.69 78.071 114.474 78.3813 114.517L81.5741 115.116C81.7175 115.14 88.5002 114.451 88.4946 114.597L88.9815 121.868L81.5248 120.914Z" fill="#263238"/>
<path d="M92.8953 100.099C93.0969 101.389 92.7889 106.599 92.7889 106.599C91.3729 107.142 77.4536 105.671 77.1909 104.864C76.9286 104.056 79.3285 97.5293 79.3285 97.5293L92.8953 100.099Z" fill="#407BFF"/>
<path d="M80.6411 90.6738C80.6411 90.6738 81.1927 82.509 81.9168 81.6332C82.6409 80.7571 83.869 79.137 86.0588 79.5508C88.2487 79.9646 90.9373 80.9474 90.9373 80.9474C90.9373 80.9474 94.2444 85.1164 94.0786 85.1318C93.9128 85.1472 85.6671 97.4495 85.6671 97.4495L79.9834 95.3378L80.6411 90.6738Z" fill="#407BFF"/>
<path opacity="0.3" d="M79.4971 99.6953C79.4971 99.6953 81.3246 100.681 84.3562 101.561C89.4942 103.052 92.992 102.137 92.992 102.137L93.0978 101.388L79.4971 99.6953Z" fill="black"/>
<path d="M78.5454 97.7566C78.3864 98.868 79.1052 99.9152 80.1974 100.174C84.3748 101.165 94.0798 103.177 94.445 100.589C94.8042 98.0422 94.7622 91.4144 94.8204 87.9877C94.8627 85.4994 93.6878 84.5989 93.6878 84.5989L92.1576 82.9037L89.9498 82.7671C89.9498 82.7671 88.4843 79.5995 85.9428 79.3027C83.4012 79.0059 81.9169 81.6337 81.9169 81.6337C81.9169 81.6337 83.77 79.1344 85.7053 79.7787C87.6407 80.4227 87.1588 82.3606 87.4074 84.5146C87.5416 85.678 84.4459 90.8191 83.0582 89.8811C81.6708 88.9433 81.778 88.0524 82.0446 86.03C82.2255 84.6563 81.8721 83.471 81.8721 83.471C81.8721 83.471 82.1048 81.8224 81.0411 85.2474C80.1277 88.1882 79.3264 93.8761 78.856 95.9968C78.7316 96.5549 78.628 97.1804 78.5454 97.7566Z" fill="#407BFF"/>
<path opacity="0.7" d="M78.5454 97.7566C78.3864 98.868 79.1052 99.9152 80.1974 100.174C84.3748 101.165 94.0798 103.177 94.445 100.589C94.8042 98.0422 94.7622 91.4144 94.8204 87.9877C94.8627 85.4994 93.6878 84.5989 93.6878 84.5989L92.1576 82.9037L89.9498 82.7671C89.9498 82.7671 88.4843 79.5995 85.9428 79.3027C83.4012 79.0059 81.9169 81.6337 81.9169 81.6337C81.9169 81.6337 83.77 79.1344 85.7053 79.7787C87.6407 80.4227 87.1588 82.3606 87.4074 84.5146C87.5416 85.678 84.4459 90.8191 83.0582 89.8811C81.6708 88.9433 81.778 88.0524 82.0446 86.03C82.2255 84.6563 81.8721 83.471 81.8721 83.471C81.8721 83.471 82.1048 81.8224 81.0411 85.2474C80.1277 88.1882 79.3264 93.8761 78.856 95.9968C78.7316 96.5549 78.628 97.1804 78.5454 97.7566Z" fill="black"/>
<path d="M85.9426 79.3018C83.4859 78.4775 81.1224 81.5208 81.1224 81.5208L81.2776 82.4616C86.8342 77.5025 87.3174 81.8501 87.9945 84.0307C88.6715 86.2113 86.7221 89.5823 86.7221 89.5823C86.7221 89.5823 75.5076 97.261 75.623 97.2772C75.738 97.2935 75.9259 101.237 75.9259 101.237L77.8025 100.429L86.723 92.7443C88.0172 91.6293 88.8874 90.1022 89.1862 88.4203C89.3424 87.5411 89.5082 86.6117 89.6308 85.9364C89.9424 84.2177 88.3994 80.1261 85.9426 79.3018Z" fill="#407BFF"/>
<path opacity="0.3" d="M85.9426 79.3018C83.4859 78.4775 81.1224 81.5208 81.1224 81.5208L81.2776 82.4616C86.8342 77.5025 87.3174 81.8501 87.9945 84.0307C88.6715 86.2113 86.7221 89.5823 86.7221 89.5823C86.7221 89.5823 75.5076 97.261 75.623 97.2772C75.738 97.2935 75.9259 101.237 75.9259 101.237L77.8025 100.429L86.8949 92.5962C88.0785 91.5767 88.8734 90.1809 89.1464 88.6429C89.3136 87.7004 89.4975 86.6691 89.6305 85.9364C89.9424 84.2177 88.3994 80.1261 85.9426 79.3018Z" fill="black"/>
<path opacity="0.3" d="M79.0867 94.834L76.6562 96.5243L79.8382 90.6211L79.0867 94.834Z" fill="black"/>
<path opacity="0.3" d="M78.6103 102.852C78.5061 102.995 87.4742 98.3555 87.4742 98.3555C87.4742 98.3555 80.8408 99.7782 78.6103 102.852Z" fill="black"/>
<path d="M98.7627 96.3613C98.7635 96.3644 98.7632 96.3664 98.7641 96.3694C98.7688 96.384 98.7677 96.3792 98.7627 96.3613Z" fill="#CD7A63"/>
<path d="M78.7801 102.798C78.7801 102.798 92.4704 95.1986 96.006 95.4106C99.5415 95.6228 99.0636 97.6778 99.2755 99.7285C99.4472 101.389 98.1919 110.052 97.7078 113.29C97.6039 113.984 96.9905 114.486 96.2893 114.451L90.231 114.15C89.5128 114.115 88.9791 113.472 89.0751 112.76L89.8706 106.87C89.8706 106.87 87.9151 115.285 80.8902 115.285C75.7642 115.285 75.3213 112.399 75.8085 107.1C76.1487 103.4 78.7801 102.798 78.7801 102.798Z" fill="#407BFF"/>
<path d="M74.8671 107.218C74.3654 109.331 74.4653 111.553 75.1589 113.611C75.2017 113.739 75.4047 113.684 75.3613 113.556C74.6795 111.532 74.5762 109.352 75.0696 107.274C75.1006 107.142 74.8982 107.086 74.8671 107.218Z" fill="#407BFF"/>
<path opacity="0.3" d="M90.8076 112.219C90.8295 112.295 91.6499 114.299 91.6499 114.299C91.6499 114.299 90.7267 114.077 90.8295 112.295" fill="black"/>
<g opacity="0.3">
<path d="M95.9312 112.604C95.7266 113.158 95.2741 114.061 94.8916 114.512C95.2259 114.441 95.6423 113.93 95.7697 113.613C95.9044 113.278 95.9797 112.961 95.9312 112.604Z" fill="black"/>
</g>
<path opacity="0.3" d="M93.2607 114.343C93.2607 114.343 93.837 112.799 93.8991 111.379C93.8991 111.379 94.4552 113.398 93.2607 114.343Z" fill="black"/>
<path opacity="0.3" d="M89.9098 106.651L90.5401 103.025L88.0938 110.956C88.5255 110.342 89.7348 107.883 89.9098 106.651Z" fill="black"/>
<path d="M83.1581 103.857L82.3545 100.891L85.2743 99.4121L85.7453 103.204L83.1581 103.857Z" fill="#263238"/>
<path d="M79.5684 105.05L81.516 110.136C81.516 110.136 88.4082 108.632 88.9741 107.435C89.54 106.238 88.8534 102.217 87.3818 102.316C85.9104 102.415 80.1622 103.688 79.5684 105.05Z" fill="#407BFF"/>
<path d="M87.0744 108.561L84.3701 109.423C84.3701 109.423 84.8766 111.44 87.475 111.843C87.475 111.843 88.3663 110.74 88.8006 109.949C88.8006 109.949 87.5798 109.613 87.0744 108.561Z" fill="#263238"/>
<path opacity="0.3" d="M79.5684 105.05L81.516 110.136C81.516 110.136 88.4082 108.632 88.9741 107.435C89.54 106.238 88.8534 102.217 87.3818 102.316C85.9104 102.415 80.1622 103.688 79.5684 105.05Z" fill="black"/>
<path opacity="0.3" d="M81.9029 109.949C81.9029 109.949 84.5719 107.533 84.3966 107.032C84.2238 106.538 79.9863 104.945 79.9863 104.945C79.9863 104.945 84.7096 106.17 84.7693 106.972C84.8289 107.774 82.2896 109.763 81.9029 109.949Z" fill="black"/>
<path opacity="0.3" d="M83.4097 107.064C83.4988 107.03 83.5984 107.075 83.6323 107.164C83.6665 107.253 83.622 107.352 83.5329 107.386C83.4439 107.42 83.3442 107.376 83.3103 107.287C83.2762 107.198 83.3207 107.098 83.4097 107.064Z" fill="black"/>
<path d="M98.4945 107.777H89.749L89.9618 106.352H98.683L98.4945 107.777Z" fill="#263238"/>
<path d="M81.9702 82.6975C81.9702 82.6975 75.0836 92.4827 78.8278 94.1417C83.0107 95.9953 91.6305 95.6859 91.6305 95.6859L92.7642 90.8869L87.6217 89.9226L84.8973 89.3551L86.6459 86.543C86.6459 86.543 89.9502 81.8043 87.0444 80.3419C84.0806 78.8497 81.9702 82.6975 81.9702 82.6975Z" fill="#407BFF"/>
<path d="M109.534 108.772L109.935 108.351L102.27 96.4227L104.144 94.811L103.778 94.4045L103.105 94.7679L100.648 91.9743L99.5772 92.6965L98.2217 91.052L98.577 90.4097L98.2671 89.9586L97.7569 90.3755L87.9104 77.9287C87.6559 77.6067 87.1922 77.5437 86.8607 77.7856L83.1692 80.4798C82.7038 80.8194 82.7674 81.532 83.2854 81.784L91.2713 85.6704L95.0625 90.6469L94.8144 91.3485C94.8144 91.3485 95.2792 92.025 96.5711 93.8859C97.863 95.7468 96.9133 96.2001 96.9133 96.2001L97.8216 97.3534C97.7337 97.3697 97.4307 97.5379 96.442 98.3163C94.857 99.5649 91.955 102.511 91.955 102.511L94.9032 105.043C96.1556 102.576 98.9777 101.215 98.9777 101.215L99.2124 101.498L101.18 100.266L102.219 101.623L102.139 102.222L107.733 109.957L108.518 109.497L114.647 118.842L115.593 118.498L109.534 108.772ZM85.3594 81.0773L86.8694 79.8879C86.9873 79.7949 87.1581 79.8148 87.2516 79.9321L89.8592 83.2061C89.8592 83.2061 86.6569 81.994 85.4338 81.5474C85.2334 81.4743 85.1916 81.2095 85.3594 81.0773Z" fill="#263238"/>
<path opacity="0.8" d="M96.4019 98.3477C94.8087 99.6131 91.9541 102.511 91.9541 102.511L94.9022 105.043C96.1547 102.576 98.9768 101.215 98.9768 101.215C98.1401 100.189 97.3939 99.2913 96.4921 98.3223L96.4019 98.3477Z" fill="black"/>
<path opacity="0.8" d="M109.533 108.771L109.934 108.35L104.836 100.416L102.151 102.128L102.139 102.221L107.732 109.956L108.518 109.496L108.536 109.523C108.874 109.279 109.239 109.015 109.546 108.791L109.533 108.771Z" fill="black"/>
<path opacity="0.8" d="M104.144 94.8113L103.778 94.4045L103.106 94.7682L100.648 91.9746L99.5771 92.6967L102.27 96.4227L104.144 94.8113Z" fill="black"/>
<path d="M92.5859 102.827C93.8107 101.363 95.4733 99.9972 97.0808 98.9688" stroke="#263238" stroke-miterlimit="10"/>
<path d="M93.9717 103.977C95.1684 102.5 96.6241 101.233 98.2523 100.252" stroke="#263238" stroke-miterlimit="10"/>
<path opacity="0.3" d="M101.179 100.266L97.3218 95.4922L97.3086 95.8061L100.859 100.467L101.179 100.266Z" fill="black"/>
<path d="M105.016 101.924C105.233 102.377 105.491 102.812 105.783 103.222" stroke="#263238" stroke-miterlimit="10"/>
<path d="M106.379 103.971C106.597 104.424 106.854 104.859 107.146 105.269" stroke="#263238" stroke-miterlimit="10"/>
<path d="M107.742 106.018C107.96 106.471 108.217 106.906 108.509 107.316" stroke="#263238" stroke-miterlimit="10"/>
<path d="M92.5831 91.6523C92.715 91.6745 93.8983 92.0331 93.8983 92.0331L95.198 91.6523C95.198 91.6523 96.1442 92.1804 96.2102 92.3344C96.2763 92.4884 96.3813 93.2091 96.3813 93.2091C96.3813 93.2091 97.7726 95.2391 97.8166 95.6132C97.8606 95.9873 98.2786 97.4175 97.8166 97.5276C97.3546 97.6376 96.9144 97.2857 96.9144 97.2857L96.8044 96.4935C96.8044 96.4935 96.7604 97.0216 96.4964 97.1095C96.2324 97.1975 96.0123 96.9555 96.0123 96.9555C96.0123 96.9555 96.1444 97.4601 95.7261 97.5489C95.3081 97.6376 94.934 97.4397 94.934 97.4397C94.934 97.4397 94.934 97.7698 94.4938 97.6816C94.0537 97.5937 93.1736 94.748 92.6674 94.6744C92.1614 94.601 91.8142 94.9059 91.8142 94.9059C91.7484 94.8326 92.5831 91.6523 92.5831 91.6523Z" fill="#EFB9AF"/>
<path opacity="0.3" d="M84.8976 89.3537C84.8976 89.3537 83.2157 89.599 82.502 90.5658C82.502 90.5658 82.8604 89.0647 85.125 88.9883L84.8976 89.3537Z" fill="black"/>
<path d="M55.9774 63.167C55.9774 63.167 56.893 62.8875 57.8251 63.0569C58.7572 63.2263 59.3427 63.5394 59.7369 63.5117C60.1312 63.4839 60.5413 63.6589 60.1474 64.0557C59.7534 64.4525 59.6899 64.749 59.0526 64.7616C59.0526 64.7616 59.5087 64.8795 59.5322 65.9216C59.5558 66.9635 58.5326 67.5971 58.5326 67.5971C58.5326 67.5971 58.4257 68.3207 57.7366 68.2896C57.7366 68.2896 57.3426 68.6863 56.8249 68.6197C56.3072 68.5531 54.8251 67.7884 54.4026 66.9691C53.9801 66.1498 54.2828 66.4332 53.7012 66.1708C53.1197 65.9085 52.1338 65.3011 52.1338 65.3011L53.3661 61.9395L55.8774 63.1306" fill="#CD7A63"/>
<path d="M52.876 65.9639L54.876 62.6551L54.3409 62.1831L51.2915 57.9629C51.2915 57.9629 47.3838 62.1657 47.4014 62.2183C47.4191 62.271 52.237 65.6122 52.237 65.6122L52.876 65.9639Z" fill="#407BFF"/>
<path opacity="0.4" d="M52.876 65.9639L54.876 62.6551L54.3409 62.1831L51.2915 57.9629C51.2915 57.9629 47.3838 62.1657 47.4014 62.2183C47.4191 62.271 52.237 65.6122 52.237 65.6122L52.876 65.9639Z" fill="black"/>
<path d="M57.9654 64.9941L55.4316 66.6305L56.065 67.6796L58.786 66.1659L57.9654 64.9941Z" fill="#263238"/>
<path opacity="0.5" d="M57.9654 64.9941L55.4316 66.6305L56.065 67.6796L58.786 66.1659L57.9654 64.9941Z" fill="black"/>
<path d="M56.6304 67.9147C56.454 67.7408 56.2695 67.5529 56.2154 67.311C56.1614 67.0691 56.305 66.767 56.5523 66.7499C56.7368 66.737 56.8933 66.8792 57.0098 67.0229C57.1263 67.1665 57.2388 67.3303 57.413 67.3922C57.0641 67.1917 56.7922 66.861 56.6632 66.4802C56.585 66.2504 56.578 65.9536 56.7738 65.8102C56.9364 65.6915 57.1744 65.7382 57.3346 65.8603C57.4948 65.9824 57.597 66.163 57.7031 66.3341C57.8092 66.5052 58.031 66.8235 58.031 66.8235C57.7574 66.5242 57.7039 66.0465 57.754 65.6439C57.7717 65.5014 57.8319 65.3395 57.9699 65.2998C58.1304 65.2536 58.2768 65.3992 58.3779 65.5319C58.6246 65.8561 58.8528 66.1946 59.0605 66.5452" fill="#CD7A63"/>
<path d="M40.924 40.7375C40.924 40.7375 41.4856 38.8635 40.8752 35.3708C40.8758 35.3671 41.0626 35.3075 41.0631 35.3038C40.9797 34.8158 40.8836 34.3625 40.7896 33.9682C40.7876 33.9568 40.7882 33.9531 40.7882 33.9531L45.1046 37.3221C44.8773 38.3925 45.0366 40.527 45.1716 41.4356C45.1716 41.4356 45.5809 43.0993 43.4454 42.9361C41.8846 42.8174 40.924 40.7375 40.924 40.7375Z" fill="#CD7A63"/>
<path opacity="0.2" d="M45.0169 38.8539L42.418 37.9609C42.5689 38.8163 43.1947 39.8789 45.0402 40.1623C45.0402 40.1623 44.957 39.2148 45.0169 38.8539Z" fill="black"/>
<path d="M49.1813 29.6732C49.6089 30.8041 49.5439 33.181 47.8917 32.5031C46.2397 31.825 48.4466 27.7291 49.1813 29.6732Z" fill="#263238"/>
<path d="M40.9993 31.7009C40.9898 34.6706 40.9245 36.3452 42.324 37.9466C44.4293 40.3551 48.0864 39.2648 48.9852 36.3491C49.7944 33.725 49.674 29.3094 46.8471 27.9724C44.0622 26.6553 41.0088 28.7312 40.9993 31.7009Z" fill="#CD7A63"/>
<path d="M40.7427 28.187C41.2542 26.5831 45.4514 26.7626 46.5387 27.6695C46.7011 27.8051 44.2029 28.864 44.353 28.8201L43.1882 29.1404C43.0151 29.09 42.6573 29.2728 42.4437 29.8065C42.4437 29.8065 42.6758 32.9663 41.3057 34.1961C40.0592 33.5201 39.7408 32.973 39.4843 31.8816C39.1024 30.2556 40.0177 29.0469 40.7427 28.187Z" fill="#263238"/>
<path d="M45.1776 32.8295C45.158 33.1322 45.3027 33.3864 45.5012 33.3973C45.6995 33.4083 45.8762 33.1717 45.8958 32.869C45.9154 32.5663 45.7706 32.3121 45.5724 32.3011C45.3738 32.2902 45.1972 32.5268 45.1776 32.8295Z" fill="#263238"/>
<path d="M48.1424 33.0795C48.1228 33.3822 48.2676 33.6364 48.4658 33.6473C48.664 33.6583 48.8407 33.4217 48.8603 33.119C48.8799 32.8163 48.7352 32.5621 48.5369 32.5511C48.3384 32.5402 48.162 32.7768 48.1424 33.0795Z" fill="#263238"/>
<path d="M47.1872 32.8496C47.1872 32.8496 48.0482 34.4156 48.3156 35.0479C47.8696 35.4012 47.1553 35.1786 47.1553 35.1786L47.1872 32.8496Z" fill="#AD6359"/>
<path d="M44.7265 31.8966C44.7674 31.9243 44.822 31.9299 44.8702 31.9064C45.4414 31.6272 45.8953 31.8868 45.9 31.8893C45.9675 31.9291 46.0551 31.9067 46.0955 31.8397C46.1358 31.7725 46.1134 31.686 46.0462 31.6463C46.0224 31.6323 45.4534 31.3066 44.745 31.6533C44.6742 31.6877 44.6451 31.7725 44.6795 31.8425C44.6907 31.8652 44.7069 31.8834 44.7265 31.8966Z" fill="#263238"/>
<path d="M45.5791 39.7269L43.8728 39.4012C43.5001 39.3301 43.2556 38.9703 43.3268 38.5974C43.3979 38.2247 43.7577 37.9802 44.1306 38.0514L45.837 38.377C46.2096 38.4481 46.4541 38.8079 46.383 39.1809C46.3116 39.5536 45.9518 39.798 45.5791 39.7269Z" fill="#263238"/>
<path d="M49.5051 32.0498C49.5289 32.0372 49.5493 32.0176 49.5633 31.9918C49.6008 31.9227 49.5756 31.8359 49.5073 31.7986C48.8205 31.4226 48.2465 31.7334 48.219 31.7437C48.1504 31.7813 48.1244 31.8678 48.1614 31.937C48.198 32.0058 48.2832 32.0316 48.3518 31.9949C48.3753 31.9809 48.8205 31.7474 49.3718 32.0492C49.4144 32.073 49.4645 32.0714 49.5051 32.0498Z" fill="#263238"/>
<path d="M39.6715 34.092C39.8588 34.8687 40.3892 35.4836 40.957 35.8129C41.8113 36.3085 42.4939 35.6015 42.4707 34.6641C42.4497 33.8204 41.9798 32.5459 41.0192 32.4333C40.0728 32.3224 39.4573 33.2039 39.6715 34.092Z" fill="#CD7A63"/>
<path opacity="0.2" d="M40.3994 33.3177C40.5299 33.1488 40.7771 33.0995 40.9807 33.1639C41.1843 33.2281 41.3464 33.3871 41.4615 33.5669C41.5995 33.7827 41.6801 34.035 41.6925 34.2909" stroke="black" stroke-width="0.5" stroke-miterlimit="10" stroke-linecap="round" stroke-linejoin="round"/>
<path d="M42.6473 31.2305C42.6473 31.2305 42.7806 37.6027 43.0953 37.9065C44.3993 39.1645 45.6063 39.2399 45.6063 39.2399C45.6063 39.2399 45.4885 39.4076 44.7675 39.2533C44.0467 39.0987 43.223 38.8929 42.8209 38.427C42.4188 37.9611 42.2209 35.249 42.0411 34.5594C41.8613 33.8695 41.6191 31.2308 41.6191 31.2308H42.6473V31.2305Z" fill="#263238"/>
<path d="M42.5875 37.3847L41.0181 36.3148L40.957 35.8125L42.4153 36.7396L42.5875 37.3847Z" fill="#263238"/>
<path d="M44.9748 35.9847C45.3486 36.0654 45.7051 36.2037 46.0539 36.3577C46.1057 36.3806 46.1668 36.3728 46.1976 36.3199C46.2236 36.2754 46.2121 36.1992 46.1598 36.1762C45.7941 36.015 45.422 35.8666 45.0303 35.782C44.8989 35.7537 44.8427 35.9562 44.9748 35.9847Z" fill="#263238"/>
<path d="M38.772 32.4225C38.772 32.4225 43.2769 31.6719 45.8179 31.5274C48.3592 31.3829 50.4987 31.673 50.6115 31.3829C50.8501 30.7691 50.3517 30.6899 50.3517 30.6899C50.3517 30.6899 50.063 25.2321 44.4896 25.5208C38.9165 25.8095 38.9406 31.4341 38.9406 31.4341C38.9406 31.4341 38.4259 31.792 38.772 32.4225Z" fill="#407BFF"/>
<path opacity="0.3" d="M38.772 32.4225C38.772 32.4225 43.2769 31.6719 45.8179 31.5274C48.3592 31.3829 50.4987 31.673 50.6115 31.3829C50.8501 30.7691 50.3517 30.6899 50.3517 30.6899C50.3517 30.6899 50.063 25.2321 44.4896 25.5208C38.9165 25.8095 38.9406 31.4341 38.9406 31.4341C38.9406 31.4341 38.4259 31.792 38.772 32.4225Z" fill="black"/>
<path opacity="0.3" d="M38.9404 31.4335C38.9404 31.4335 44.7205 30.3259 50.3513 30.6893C50.3513 30.6893 42.9948 29.7146 38.9404 31.4335Z" fill="black"/>
<path d="M25.6162 51.8933C24.7751 52.6255 24.2955 53.7141 24.0421 54.8173C23.5879 56.7944 23.7834 58.8602 23.9816 60.8815C24.0558 61.6381 24.1502 62.4459 24.6298 63.0247C25.3337 63.8745 27.8316 63.8005 28.8446 63.4001L29.252 51.7264C28.267 51.2179 26.4574 51.1613 25.6162 51.8933Z" fill="#407BFF"/>
<g opacity="0.3">
<path d="M25.6162 51.8933C24.7751 52.6255 24.2955 53.7141 24.0421 54.8173C23.5879 56.7944 23.7834 58.8602 23.9816 60.8815C24.0558 61.6381 24.1502 62.4459 24.6298 63.0247C25.3337 63.8745 27.8316 63.8005 28.8446 63.4001L29.252 51.7264C28.267 51.2179 26.4574 51.1613 25.6162 51.8933Z" fill="black"/>
</g>
<path opacity="0.3" d="M28.1213 51.3888C28.1048 51.3879 28.0662 63.4906 28.0662 63.4906C28.0662 63.4906 26.9109 63.517 27.2721 53.7758C27.3494 51.6892 27.5331 51.3442 27.5331 51.3442C27.8609 51.3414 27.8979 51.3498 28.1213 51.3888Z" fill="black"/>
<path d="M28.1684 43.0054C27.5465 43.3047 27.082 43.8764 26.7502 44.4933C26.1555 45.5993 25.9343 46.8646 25.7218 48.1036C25.6422 48.5673 25.5664 49.0651 25.7582 49.489C26.0396 50.1115 27.5426 50.476 28.2129 50.403L30.3661 43.5007C29.8613 43.0359 28.7903 42.7058 28.1684 43.0054Z" fill="#407BFF"/>
<g opacity="0.3">
<path d="M28.1684 43.0054C27.5465 43.3047 27.082 43.8764 26.7502 44.4933C26.1555 45.5993 25.9343 46.8646 25.7218 48.1036C25.6422 48.5673 25.5664 49.0651 25.7582 49.489C26.0396 50.1115 27.5426 50.476 28.2129 50.403L30.3661 43.5007C29.8613 43.0359 28.7903 42.7058 28.1684 43.0054Z" fill="black"/>
</g>
<path opacity="0.3" d="M28.0564 50.4123L29.742 43.1138L29.2514 42.9531C27.8651 45.243 27.4768 47.7338 27.6907 50.4126L28.0564 50.4123Z" fill="black"/>
<path d="M38.1542 59.9721C37.9114 54.4662 37.6687 48.9605 37.4262 43.4546C37.4136 43.1685 37.3548 42.8876 37.2532 42.625C36.9718 41.8992 36.386 41.3815 35.6936 41.2409C34.9552 41.0914 34.2093 41.0094 33.4636 41.0637C32.3355 41.1457 31.1987 41.5599 30.3184 42.4287C29.3731 43.3617 28.7871 44.7533 28.4766 46.1913C28.166 47.6294 28.1067 49.1285 28.049 50.6148C27.9432 53.3437 27.8373 56.0725 27.7315 58.8011C27.666 60.4898 27.6105 62.2493 28.168 63.7958C29.0226 66.1663 31.1626 67.5041 33.259 67.8379C34.2824 68.0008 35.3786 67.9518 36.2667 67.307C37.2156 66.6179 37.7941 65.3316 38.0332 64.0117C38.2724 62.6917 38.2136 61.322 38.1542 59.9721Z" fill="#407BFF"/>
<g opacity="0.3">
<path d="M38.1542 59.9721C37.9114 54.4662 37.6687 48.9605 37.4262 43.4546C37.4136 43.1685 37.3548 42.8876 37.2532 42.625C36.9718 41.8992 36.386 41.3815 35.6936 41.2409C34.9552 41.0914 34.2093 41.0094 33.4636 41.0637C32.3355 41.1457 31.1987 41.5599 30.3184 42.4287C29.3731 43.3617 28.7871 44.7533 28.4766 46.1913C28.166 47.6294 28.1067 49.1285 28.049 50.6148C27.9432 53.3437 27.8373 56.0725 27.7315 58.8011C27.666 60.4898 27.6105 62.2493 28.168 63.7958C29.0226 66.1663 31.1626 67.5041 33.259 67.8379C34.2824 68.0008 35.3786 67.9518 36.2667 67.307C37.2156 66.6179 37.7941 65.3316 38.0332 64.0117C38.2724 62.6917 38.2136 61.322 38.1542 59.9721Z" fill="black"/>
</g>
<path opacity="0.3" d="M34.8731 57.1567L32.583 59.2811L35.0372 52.6445L34.8731 57.1567Z" fill="black"/>
<g opacity="0.3">
<path d="M31.4268 57.0041C31.4256 54.2693 31.5264 51.5379 31.6236 48.806C31.8319 46.2403 31.4394 42.8691 33.739 41.123C31.641 42.9772 32.0884 46.2832 31.903 48.8174C31.7756 51.5483 31.6522 54.2788 31.4268 57.0041Z" fill="black"/>
</g>
<path d="M35.8842 52.5819C35.8842 52.5819 35.257 43.9708 35.8842 42.9488C36.5114 41.9268 37.5558 40.0531 39.9045 40.1628C42.2534 40.2726 45.2071 40.9029 45.2071 40.9029C45.2071 40.9029 50.2244 45.8393 50.0533 45.8799C49.8823 45.9205 42.1335 58.92 42.1335 58.92L35.8842 57.5517V52.5819Z" fill="#407BFF"/>
<path d="M50.0755 60.6201C50.4765 61.9384 50.9225 67.4267 50.9225 67.4267C49.5231 68.2026 35.1316 67.5479 34.7385 66.7435C34.3454 65.939 35.5233 59.9355 35.5233 59.9355L50.0755 60.6201Z" fill="#407BFF"/>
<path opacity="0.3" d="M36.0186 62.1741C36.0186 62.1741 38.0732 62.9349 41.3702 63.4069C46.9579 64.2069 50.4772 62.7358 50.4772 62.7358V61.9375L36.0186 62.1741Z" fill="black"/>
<path d="M34.7383 60.289C34.736 61.4734 35.6413 62.4615 36.8204 62.571C41.3306 62.9901 51.7662 63.6618 51.7662 60.9041C51.7662 58.1907 50.7453 51.2724 50.301 47.6839C49.9781 45.078 48.6182 44.3105 48.6182 44.3105L46.7696 42.7652L44.4428 42.9477C44.4428 42.9477 42.4447 39.8543 39.7458 39.919C37.0466 39.9836 35.8835 42.9477 35.8835 42.9477C35.8835 42.9477 37.4509 40.0637 39.568 40.4512C41.6851 40.8388 42.8308 42.9477 43.4079 45.1614C43.7196 46.3573 39.8794 52.1712 38.2915 51.3959C36.7039 50.6206 36.6846 49.6742 36.665 47.5221C36.6515 46.0602 36.1075 44.8741 36.1075 44.8741C36.1075 44.8741 36.1075 43.1174 35.5013 46.8523C34.9808 50.0595 34.9819 56.1198 34.803 58.4046C34.7556 59.0057 34.7394 59.6746 34.7383 60.289Z" fill="#263238"/>
<path d="M39.7461 39.9194C37.0578 39.4205 35.0373 42.9482 35.0373 42.9482L35.3381 43.908C40.4122 37.9079 41.558 42.3787 42.5867 44.5571C43.6154 46.7355 42.076 50.5446 42.076 50.5446C42.076 50.5446 31.4917 60.22 31.6143 60.22C31.737 60.22 32.5145 64.3119 32.5145 64.3119L34.3558 63.1919L42.5425 53.848C43.7302 52.4923 44.414 50.7686 44.4784 48.9674C44.512 48.0257 44.5481 47.0303 44.5769 46.3068C44.6497 44.4658 42.4344 40.4184 39.7461 39.9194Z" fill="#407BFF"/>
<path opacity="0.3" d="M39.7461 39.9194C37.0578 39.4205 35.0373 42.9482 35.0373 42.9482L35.3381 43.908C40.4122 37.9079 41.558 42.3787 42.5867 44.5571C43.6154 46.7355 42.076 50.5446 42.076 50.5446C42.076 50.5446 31.4917 60.22 31.6143 60.22C31.737 60.22 32.5145 64.3119 32.5145 64.3119L34.3558 63.1919L42.7004 53.668C43.7865 52.4284 44.4115 50.8532 44.47 49.2059C44.5058 48.1968 44.5459 47.0919 44.5769 46.3071C44.6497 44.4658 42.4344 40.4184 39.7461 39.9194Z" fill="black"/>
<path d="M53.2472 58.0977L52.9815 58.1066C52.9815 58.1066 51.1327 59.3731 50.5673 61.0962C50.4934 61.3216 50.5444 61.5694 50.7071 61.7419L52.6455 63.7971C52.8404 64.0037 53.1848 63.8928 53.2265 63.612C53.3197 62.9865 53.5642 62.0807 54.2017 61.3608C54.9717 60.4914 55.4321 60.4365 55.4321 60.4365L53.2472 58.0977Z" fill="#263238"/>
<path opacity="0.5" d="M53.2472 58.0977L52.9815 58.1066C52.9815 58.1066 51.1327 59.3731 50.5673 61.0962C50.4934 61.3216 50.5444 61.5694 50.7071 61.7419L52.6455 63.7971C52.8404 64.0037 53.1848 63.8928 53.2265 63.612C53.3197 62.9865 53.5642 62.0807 54.2017 61.3608C54.9717 60.4914 55.4321 60.4365 55.4321 60.4365L53.2472 58.0977Z" fill="black"/>
<path d="M61.7369 68.3144L62.6637 67.1899L57.3574 58.9072L56.7924 58.9739L54.7876 55.0192L55.4252 52.5272L54.9906 51.8767L54.2237 52.3566L52.5742 49.8999L51.3579 49.6017L43.5694 36.6534C43.5694 36.6534 41.8729 36.2295 41.526 38.4532C41.179 40.677 41.3666 42.877 41.8228 43.4078C42.2792 43.9387 46.9484 45.7671 46.9484 45.7671L49.679 50.2404L53.1572 56.068C53.1572 56.068 52.593 57.9667 53.0984 58.6087C53.6035 59.2511 55.393 61.3197 55.393 61.3197L65.8874 76.3025L66.7156 75.763L61.7369 68.3144ZM43.6876 42.21C43.6876 42.21 43.8609 40.4264 43.9205 40.3021L45.3485 42.7076L43.6876 42.21Z" fill="#263238"/>
<path opacity="0.3" d="M61.7369 68.3144L62.6637 67.1899L57.3574 58.9072L56.7924 58.9739L54.7876 55.0192L55.4252 52.5272L54.9906 51.8767L54.2237 52.3566L52.5742 49.8999L51.3579 49.6017L43.5694 36.6534C43.5694 36.6534 41.8729 36.2295 41.526 38.4532C41.179 40.677 41.3666 42.877 41.8228 43.4078C42.2792 43.9387 46.9484 45.7671 46.9484 45.7671L49.679 50.2404L53.1572 56.068C53.1572 56.068 52.593 57.9667 53.0984 58.6087C53.6035 59.2511 55.393 61.3197 55.393 61.3197L65.8874 76.3025L66.7156 75.763L61.7369 68.3144ZM43.6876 42.21C43.6876 42.21 43.8609 40.4264 43.9205 40.3021L45.3485 42.7076L43.6876 42.21Z" fill="black"/>
<path opacity="0.3" d="M51.3584 49.6016L54.7008 55.0386L55.4257 52.5267L54.9911 51.8763L54.2242 52.3562L52.5747 49.8998L51.3584 49.6016Z" fill="black"/>
<path opacity="0.3" d="M53.1574 56.0684L56.0657 60.4434L55.3932 61.3203C55.3932 61.3203 53.0669 58.6124 53.0126 58.4674C52.9583 58.3224 52.7791 57.8564 52.9474 57.0394C53.1151 56.2224 53.1574 56.0684 53.1574 56.0684Z" fill="black"/>
<path opacity="0.4" d="M57.3578 58.9082L55.3936 61.3212L60.8222 69.0716L61.7372 68.3154L62.6643 67.1909L57.3578 58.9082Z" fill="black"/>
<path d="M64.5039 74.327L64.5924 75.078L66.0459 76.9114L67.2868 76.0342L66.0565 74.203L65.3795 73.7637L64.5039 74.327Z" fill="#263238"/>
<path opacity="0.4" d="M64.5039 74.327L64.5924 75.078L66.0459 76.9114L67.2868 76.0342L66.0565 74.203L65.3795 73.7637L64.5039 74.327Z" fill="black"/>
<path d="M60.046 86.6064C59.7332 85.7347 59.4202 84.8631 59.1074 83.9915C58.9168 83.4603 58.7121 82.9076 58.2963 82.5259C57.8808 82.1443 57.1861 82.0029 56.7571 82.3694L55.6436 82.8286C56.2985 84.3972 56.9531 85.9657 57.6078 87.5343C57.794 87.9801 57.988 88.4379 58.3293 88.7797C58.6706 89.1216 59.1996 89.3227 59.6478 89.1426C60.0894 88.9654 60.333 88.4667 60.3515 87.9913C60.37 87.5158 60.2067 87.0541 60.046 86.6064Z" fill="#263238"/>
<path d="M58.6548 122.272C61.0589 123.663 63.1455 123.106 63.3893 124.295C63.5109 124.887 63.6859 125.858 62.2845 125.858C59.9613 125.907 60.1607 125.826 58.1825 125.858C56.4899 125.885 54.5441 125.993 53.2018 126.036C53.1808 126.036 53.1601 126.035 53.1394 126.033C52.8434 126 52.63 125.733 52.6628 125.438L53.1425 122.387C53.1615 122.25 52.4321 115.952 52.5701 115.953H59.2535L58.6548 122.272Z" fill="#263238"/>
<path d="M44.8594 81.5625C45.2183 81.8766 50.5731 92.3783 50.5731 92.3783C50.5731 92.3783 50.6963 96.0567 50.6391 99.31C50.603 101.366 51.2431 111.17 51.5279 114.818C51.5811 115.501 51.8714 116.242 52.5569 116.242L59.0601 116.256C59.7414 116.256 60.2011 115.513 60.2037 114.831C60.2202 110.355 59.9623 96.3778 59.8859 92.8098C59.7963 88.6193 55.2258 79.2844 53.8286 76.1324C52.4824 73.0952 49.8493 66.4629 49.8493 66.4629L44.8594 81.5625Z" fill="#407BFF"/>
<path opacity="0.3" d="M46.7246 84.9316L48.3158 87.985L48.3873 73.873L46.7246 84.9316Z" fill="black"/>
<path opacity="0.3" d="M53.1152 114.244C53.1404 114.32 54.0474 116.286 54.0474 116.286C54.0474 116.286 53.1152 116.104 53.1404 114.32" fill="black"/>
<g opacity="0.3">
<path d="M58.2506 114.408C58.0702 114.971 57.6575 115.894 57.2949 116.36C57.6256 116.275 58.0196 115.745 58.133 115.423C58.2531 115.083 58.3144 114.763 58.2506 114.408Z" fill="black"/>
</g>
<path opacity="0.3" d="M55.6582 116.261C55.6582 116.261 56.1667 114.694 56.1667 113.271C56.1667 113.271 56.8101 115.265 55.6582 116.261Z" fill="black"/>
<path d="M47.6797 87.1286C47.911 87.1673 56.2768 81.5547 56.2768 81.5547C56.6075 81.7826 58.236 85.7314 57.9274 85.5399C57.9008 85.5234 49.7181 90.707 49.7181 90.707L47.6797 87.1286Z" fill="#263238"/>
<path d="M55.0468 89.4513C54.5193 88.581 53.9921 87.7108 53.4646 86.8408C53.2086 86.4186 52.9205 85.9683 52.4596 85.7908C51.9321 85.5875 51.345 85.8015 50.8211 86.014L49.3701 88.3985C49.9455 88.9327 50.3017 89.6545 50.7427 90.3039C51.184 90.9532 51.7784 91.5734 52.5512 91.7109C53.1392 91.8153 53.735 91.6238 54.3015 91.4345C54.7316 91.2909 55.2154 91.096 55.3632 90.6673C55.5046 90.2574 55.2714 89.822 55.0468 89.4513Z" fill="#263238"/>
<path d="M50.7207 102.054L50.9385 102.05L60.0523 101.85L60.0839 103.791L50.7207 104.045" fill="#263238"/>
<path d="M50.0567 67.3848C50.0567 67.3848 35.3774 65.0762 35.4947 65.0762C35.612 65.0762 34.4455 66.9665 34.0939 70.7148C34.0939 70.7148 34.5287 75.8791 34.9798 78.6903C35.5499 82.243 35.3796 94.8489 35.3796 94.8489C35.3796 94.8489 33.4641 106.966 34.0939 114.228C34.1322 114.67 34.8936 116.339 35.3365 116.339H41.9101C42.3544 116.339 42.8716 114.184 42.9071 113.741C43.1376 110.88 43.7903 102.885 44.0577 101.278C44.4575 98.875 45.1427 96.089 45.6114 93.0098C46.0801 89.9309 47.2681 80.4893 47.2681 80.4893C47.2681 80.4893 48.9574 76.2734 48.8989 75.0685C48.8409 73.8634 50.0567 67.3848 50.0567 67.3848Z" fill="#407BFF"/>
<path opacity="0.4" d="M34.8714 66.7416C35.1682 66.6579 50.3002 67.5948 50.3002 67.5948L50.6625 68.4981C45.0463 68.8987 39.6711 68.7025 34.5908 67.7751L34.8714 66.7416Z" fill="black"/>
<g opacity="0.3">
<path d="M42.2215 70.7754C42.0294 71.9273 41.5025 73.0033 40.7426 73.7949C39.9829 74.5865 38.9945 75.0888 37.9697 75.2047C37.9697 75.2047 39.865 75.8456 41.5344 74.3045C43.2043 72.7634 42.2215 70.7754 42.2215 70.7754Z" fill="black"/>
</g>
<path d="M41.313 122.657C43.7171 124.048 45.8037 123.491 46.0475 124.68C46.1691 125.272 46.3441 126.243 44.9427 126.243C42.6195 126.291 42.8189 126.211 40.8407 126.243C39.1481 126.27 37.2023 126.378 35.86 126.421C35.839 126.421 35.8183 126.42 35.7976 126.417C35.5016 126.385 35.2883 126.118 35.321 125.822L35.8007 122.771C35.8197 122.635 35.0903 116.337 35.2283 116.338H41.9119L41.313 122.657Z" fill="#263238"/>
<path opacity="0.3" d="M36.0879 114.297C36.1131 114.372 37.02 116.339 37.02 116.339C37.02 116.339 36.0879 116.157 36.1131 114.372" fill="black"/>
<g opacity="0.3">
<path d="M41.2232 114.461C41.0429 115.024 40.6302 115.946 40.2676 116.413C40.5983 116.327 40.9922 115.798 41.1056 115.476C41.2255 115.136 41.2871 114.816 41.2232 114.461Z" fill="black"/>
</g>
<path opacity="0.3" d="M38.6309 116.313C38.6309 116.313 39.1393 114.746 39.1393 113.324C39.1393 113.324 39.7831 115.317 38.6309 116.313Z" fill="black"/>
<path d="M40.9745 86.4551L46.3782 87.1962L45.8644 91.0443L40.5596 89.9288L40.9745 86.4551Z" fill="#263238"/>
<path d="M41.1959 81.498H34.0551C34.0551 81.498 32.6649 90.6429 33.8655 91.8973C35.0661 93.1517 40.3114 94.1963 40.8801 92.348C41.4487 90.4998 42.5861 82.8644 41.1959 81.498Z" fill="#407BFF"/>
<path opacity="0.3" d="M41.1959 81.498H34.0551C34.0551 81.498 32.6649 90.6429 33.8655 91.8973C35.0661 93.1517 40.3114 94.1963 40.8801 92.348C41.4487 90.4998 42.5861 82.8644 41.1959 81.498Z" fill="black"/>
<path opacity="0.3" d="M34.1025 82.0586C34.1025 82.0586 35.8094 86.4599 36.5052 86.4804C37.1918 86.5005 41.1289 82.0586 41.1289 82.0586C41.1289 82.0586 37.4138 87.2677 36.4041 86.965C35.3947 86.6621 34.1496 82.6197 34.1025 82.0586Z" fill="black"/>
<path opacity="0.3" d="M36.9285 85.2572C36.9285 85.3821 36.8274 85.4832 36.7025 85.4832C36.5776 85.4832 36.4766 85.3818 36.4766 85.2572C36.4766 85.1323 36.5776 85.0313 36.7025 85.0313C36.8274 85.031 36.9285 85.1323 36.9285 85.2572Z" fill="black"/>
<path d="M34.5136 101.566L34.7353 101.589L44.0165 102.537L43.8098 104.468L34.2686 103.542" fill="#263238"/>
<path d="M35.5389 47.3002C35.5389 47.3002 37.5569 58.9182 41.8779 58.9182C46.4175 58.9182 51.7663 56.5469 51.7663 56.5469L51.2917 52.9372L44.2287 53.251L44.3063 52.5169L42.9948 46.0133C42.9948 46.0133 41.8874 40.1563 38.4879 40.6309C34.1079 41.2424 35.5389 47.3002 35.5389 47.3002Z" fill="#407BFF"/>
<g opacity="0.3">
<path d="M44.1944 53.3477C43.0358 54.2437 42.9084 54.403 42.3828 55.6171C42.3828 55.6171 42.9761 54.6203 43.4003 54.3165C43.8248 54.0121 44.1944 53.3477 44.1944 53.3477Z" fill="black"/>
</g>
<path d="M56.2158 58.6953C56.2169 58.6984 56.2164 58.7006 56.2178 58.7037C56.2234 58.7191 56.222 58.7141 56.2158 58.6953Z" fill="#CD7A63"/>
<path d="M56.9918 55.0409C56.7283 54.6035 55.8718 53.7604 55.8718 53.7604L55.6741 53.2606C54.7849 52.9795 51.291 52.9375 51.291 52.9375L51.6441 55.6224L51.9205 55.4284L54.7353 56.8863L55.9102 57.7952C55.9102 57.7952 56.1748 58.5708 56.2154 58.6963C56.086 58.3065 57.1251 58.752 57.3211 58.0702C57.5188 57.3831 57.2553 55.4779 56.9918 55.0409Z" fill="#CD7A63"/>
<path d="M51.4339 52.7093L49.9727 52.9297L50.5933 57.0458L52.0546 56.8255L51.4339 52.7093Z" fill="#407BFF"/>
<path opacity="0.3" d="M51.4339 52.7093L49.9727 52.9297L50.5933 57.0458L52.0546 56.8255L51.4339 52.7093Z" fill="black"/>
</svg>
