<svg width="127" height="110" viewBox="0 0 127 110" fill="none" xmlns="http://www.w3.org/2000/svg">
<path d="M123.746 95.3272L30.5316 110.001L0 87.8511L100.414 76.6328L123.746 95.3272Z" fill="url(#paint0_linear_552_39658)"/>
<path d="M12.21 88.7668L16.6941 88.3066L30.4691 100.561L29.4291 103.128L12.21 88.7668Z" fill="#280F3A"/>
<path d="M14.8066 73.4453C14.8066 73.4453 18.5541 83.0511 15.5229 89.4606L30.1369 101.373C30.1369 101.373 33.5634 94.4535 29.4612 85.2842L14.8066 73.4453Z" fill="#B27449"/>
<path d="M30.2912 84.19L123.316 77.7441C123.316 77.7441 130.467 84.7821 123.745 95.3244L29.6875 105.106C29.6875 105.106 35.8444 97.4691 30.2912 84.19Z" fill="url(#paint1_linear_552_39658)"/>
<path d="M30.4001 84.3076L123.308 77.9699L101.92 66.5391L13.7051 70.9243L30.4001 84.3076Z" fill="#64347C"/>
<path d="M13.7048 70.9238L30.3999 84.3072C30.3999 84.3072 36.1234 96.1301 29.688 105.107L12.2012 90.3971L12.2097 88.7651L29.4288 103.126C29.4288 103.126 33.4185 94.7846 29.4606 85.2833L13.8023 72.7285L13.7048 70.9238Z" fill="#45205B"/>
<path d="M14.8066 73.4453L29.4612 85.2845C29.4612 85.2845 30.969 89.8473 31.1135 91.8794C30.5475 91.0272 24.1825 79.4458 16.3228 78.909L14.8066 73.4453Z" fill="#8E5F3F"/>
<path opacity="0.2" d="M15.959 87.9021L16.2107 87.2363L30.9623 98.5164L30.7108 99.1818L15.959 87.9021Z" fill="#753B30"/>
<path opacity="0.4" d="M16.593 86.1248L31.1512 96.6094L31.079 95.5935L16.5029 85.5586L16.593 86.1248Z" fill="#753B30"/>
<path opacity="0.2" d="M16.6865 83.764L31.1546 93.6812L31.1859 92.8943L16.7044 83.3145L16.6865 83.764Z" fill="#753B30"/>
<path opacity="0.2" d="M16.3215 78.9088L30.8597 89.7303L30.4457 88.8135L15.7842 78.0996L16.3215 78.9088Z" fill="#753B30"/>
<path d="M21.9946 54.9668C21.9946 54.9668 18.3708 63.0789 22.1382 70.2834L90.5767 85.7551C90.5767 85.7551 87.8665 78.4427 89.1995 67.538L21.9946 54.9668Z" fill="#EA892C"/>
<path d="M91.4698 83.1256L109.751 70.6776L105.367 70.5039L90.3223 80.8283L91.4698 83.1256Z" fill="#EA892C"/>
<path d="M104.892 57.5367L104.92 56.8378L46.0987 49.0156L21.9951 54.9661C21.9951 54.9661 88.8977 67.5248 89.1914 67.6864C89.4551 67.8312 105.025 59.4097 108.237 57.6691L104.892 57.5367Z" fill="#F7B719"/>
<path d="M107.259 60.1797L90.784 69.1377C90.784 69.1377 89.4957 76.0671 91.288 81.9924L106.692 71.1194L107.259 60.1797Z" fill="url(#paint2_linear_552_39658)"/>
<path d="M91.4691 83.125C91.4691 83.125 89.8978 75.2513 90.7848 69.1375L108.851 59.2705L108.822 57.6921L108.221 57.668L89.1908 67.6862C89.1908 67.6862 87.2304 79.2799 90.5766 85.7542L109.805 72.1434L109.75 70.6775L91.4691 83.125Z" fill="#FFD712"/>
<path d="M29.1052 59.6323L22.3071 58.4297C22.3071 58.4297 21.1939 63.7897 22.6075 67.8984L28.536 69.1962C28.5728 66.0131 28.7597 62.8242 29.1052 59.6323Z" fill="#DD721B"/>
<path d="M76.2377 67.9727C75.5552 71.7405 75.366 75.5896 75.4253 79.4591L85.2851 81.9211C85.2851 81.9211 84.7384 73.9637 86.2562 69.7454L76.2377 67.9727Z" fill="#DD721B"/>
<path d="M69.0721 66.7051L36.0463 60.8613C35.6383 64.1181 35.4692 67.4135 35.4854 70.7181L67.6557 77.7592C67.945 74.0545 68.3896 70.3654 69.0721 66.7051Z" fill="#DD721B"/>
<path d="M74.4578 67.6596L70.8407 67.0195C70.1497 70.7021 69.7064 74.416 69.4248 78.1473L73.6324 79.0683C73.5861 75.2263 73.7841 71.4048 74.4578 67.6596Z" fill="#DD721B"/>
<path d="M34.2678 60.5466L30.8832 59.9473C30.5428 63.1681 30.3661 66.3827 30.3408 69.5919L33.6856 70.3237C33.6835 67.0455 33.8604 63.7774 34.2678 60.5466Z" fill="#DD721B"/>
<path opacity="0.3" d="M107.236 60.2207L90.7833 69.138C90.7833 69.138 90.1962 74.9782 90.9158 78.7685C90.9158 78.7685 92.5505 69.996 107.236 60.2207Z" fill="#8E5729"/>
<path opacity="0.5" d="M22.1367 70.2832L63.2308 82.5698L90.5694 85.905L22.1367 70.2832Z" fill="#280F3A"/>
<path d="M30.1724 53.1152L24.9062 55.2574L87.5748 62.6858L91.106 59.3492L30.1724 53.1152Z" fill="#DD721B"/>
<path d="M33.3207 30.4985C33.3026 30.4918 29.9148 29.324 29.749 33.5091C29.5827 37.7056 29.7557 52.273 29.7557 52.273C29.7557 52.273 30.1042 54.8385 33.096 55.1076C36.0876 55.3762 87.8831 62.6976 87.8831 62.6976C85.6894 61.5289 85.8431 49.843 85.8007 42.5676C85.7945 41.4259 85.7769 40.2845 85.7764 39.1428C85.7764 38.1169 85.6363 36.1517 86.0428 35.2258C86.2667 34.7191 86.6743 34.4289 87.0242 34.0475C84.7658 33.7993 82.4975 33.6636 80.23 33.5223C75.8422 33.2486 71.4542 32.9732 67.0671 32.6837C62.0807 32.3544 57.0933 32.0328 52.1057 31.7139C47.8529 31.4415 43.6008 31.1625 39.3485 30.8867C37.4167 30.7614 35.4846 30.6405 33.5527 30.5131C33.4837 30.5094 33.3855 30.5208 33.3207 30.4985Z" fill="url(#paint3_linear_552_39658)"/>
<path d="M32.0732 30.5667L87.0243 34.0464L106.166 31.949L57.8384 28.3164L32.0732 30.5667Z" fill="#9B1E0E"/>
<path d="M105.078 52.8161L101.798 52.5762L101.415 53.6871L85.7285 60.3369L88.7495 62.593L105.075 52.8756L105.078 52.8161Z" fill="#9B1E0E"/>
<path d="M104.389 32.6387C104.389 32.6387 101.127 49.6219 102.1 53.4882L86.7184 61.3951L86.2761 38.0003C86.2761 38.0003 85.7265 34.826 88.4419 34.4835C91.1574 34.1409 104.389 32.6387 104.389 32.6387Z" fill="url(#paint4_linear_552_39658)"/>
<path opacity="0.2" d="M85.6248 38.312L103.814 35.543L103.68 36.168L85.5996 38.9491L85.6248 38.312Z" fill="#753B30"/>
<path opacity="0.2" d="M85.526 39.8831L103.588 37.0605L103.448 37.6636L85.501 40.5199L85.526 39.8831Z" fill="#753B30"/>
<path opacity="0.3" d="M86.4991 42.7736L103.049 39.9395L102.93 40.4816L86.4736 43.4104L86.4991 42.7736Z" fill="#753B30"/>
<path opacity="0.3" d="M86.4452 44.1231L102.904 41.1484L102.817 41.8694L86.4199 44.7604L86.4452 44.1231Z" fill="#753B30"/>
<path opacity="0.2" d="M86.2447 45.3898L102.704 42.5293L102.616 43.2794L86.2109 46.2517L86.2447 45.3898Z" fill="#753B30"/>
<path opacity="0.2" d="M85.5635 50.4506L102.228 46.5098L102.146 47.1149L85.5774 51.0884L85.5635 50.4506Z" fill="#753B30"/>
<path opacity="0.3" d="M85.6055 52.3998L102.03 48.5586L101.952 49.0771L85.6196 53.0374L85.6055 52.3998Z" fill="#753B30"/>
<path opacity="0.2" d="M86.0605 56.9136L101.906 50.959L101.92 51.4854L86.1573 57.544L86.0605 56.9136Z" fill="#753B30"/>
<path opacity="0.2" d="M85.585 51.4266L102.133 47.4629L102.051 48.0675L85.5991 52.0637L85.585 51.4266Z" fill="#753B30"/>
<path opacity="0.3" d="M86.7061 61.2096L86.9615 34.8753L104.388 32.6387L103.812 35.7678C103.812 35.7678 90.875 38.4078 86.7061 61.2096Z" fill="#8E5729"/>
<path d="M105.075 52.8675L89.9304 60.7295C89.9304 60.7295 88.3482 61.6711 87.6354 61.1405C86.915 60.6047 87.1202 58.5325 87.1202 58.5325L87.0391 38.5921C87.0391 38.5921 86.6582 35.1061 88.8723 34.9496C91.5867 34.7578 106.169 33.1585 106.169 33.1585L106.217 31.9219C106.217 31.9219 88.2047 33.375 87.0231 34.0459C87.0231 34.0459 85.4097 34.2495 85.4653 38.5296C85.5083 41.8699 85.5616 54.3568 85.6816 60.2916C85.7006 61.2188 86.1894 62.0018 86.7763 62.3427C87.4182 62.7158 88.3756 62.7922 88.851 62.5775C93.7346 60.3752 103.176 55.1583 105.025 54.1315L105.075 52.8675Z" fill="#FF4B33"/>
<path opacity="0.5" d="M35.193 34.3984L34.5068 51.7087L39.6598 52.3632L40.3548 34.8283L35.193 34.3984Z" fill="#6D0505"/>
<path opacity="0.5" d="M74.4731 37.5312L73.6309 58.7863L78.7792 59.5429L79.6326 38.0122L74.4731 37.5312Z" fill="#6D0505"/>
<path opacity="0.5" d="M43.4931 35.1777L42.7891 52.9387L70.2988 57.6307L71.0829 37.8479L43.4931 35.1777Z" fill="#6D0505"/>
<path opacity="0.3" d="M94.4795 44.0677L97.296 49.6958C97.296 49.6958 98.0989 43.6485 94.4795 44.0677Z" fill="#8E5729"/>
<path d="M94.4775 43.9721L99.2449 43.1289C99.2449 43.1289 102.599 44.9274 101.098 48.6954L97.2959 49.6942C97.2959 49.6942 97.8584 43.8806 94.4775 43.9721Z" fill="url(#paint5_linear_552_39658)"/>
<path opacity="0.3" d="M52.1066 31.7127C52.1066 31.7127 53.1362 40.8271 48.0094 41.2217C41.9883 41.6848 39.904 34.969 40.5988 31.2637L52.1066 31.7127Z" fill="#280F3A"/>
<path d="M21.377 16.2107L68.8488 21.6439L118.873 16.9055L68.62 1.62109L21.377 16.2107Z" fill="url(#paint6_linear_552_39658)"/>
<path d="M44.072 30.1047C44.072 30.1047 67.6934 34.2731 93.862 31.9573C93.862 31.9573 99.6013 18.7363 96.4094 16.4413C87.745 10.2118 65.1666 5.34857 42.2193 14.3571C38.5295 15.8056 44.072 30.1047 44.072 30.1047Z" fill="black"/>
<path d="M21.3771 16.2107L68.6202 1.62107L118.873 16.9055V15.516L68.6202 0L21.1455 15.0528L21.3771 16.2107Z" fill="#ADADAD"/>
<path d="M47.9287 26.7377C50.9375 26.6011 52.3323 30.7116 52.7841 33.2076C53.2542 35.8053 52.8269 38.3223 49.6343 38.6019C46.6898 38.8596 44.077 38.5766 43.8686 35.0964C43.6926 32.1467 44.4342 26.8956 47.9287 26.7377Z" fill="url(#paint7_linear_552_39658)"/>
<path d="M50.8651 5.32617C50.8651 5.32617 47.5123 5.13836 48.8413 26.8853H47.623C47.623 26.8853 45.2298 3.01035 50.8651 5.32617Z" fill="url(#paint8_linear_552_39658)"/>
<g opacity="0.7">
<path d="M49.5693 37.1934C49.5774 37.3504 49.5844 37.5072 49.5895 37.6651C49.589 37.5278 49.5814 37.368 49.5693 37.1934Z" fill="#FFD712"/>
<path d="M49.1865 33.1855C49.2731 34.6376 49.5017 36.1915 49.5705 37.194C49.5008 35.8469 49.3285 34.5234 49.1865 33.1855Z" fill="#FFD712"/>
<path d="M48.965 27.5574C45.8748 27.2385 46.013 35.9025 46.673 37.562V37.9786C47.5871 35.5113 47.2545 32.3007 48.085 29.8656C47.7038 32.3542 48.4034 35.1336 48.1213 37.6961C49.3124 35.3622 48.1978 32.048 48.9766 29.4916C48.9548 30.7544 49.0581 31.9758 49.1862 33.1851C49.0914 31.5978 49.1669 30.1351 49.8103 29.6581C50.631 31.8627 49.3615 34.6593 51.0029 36.6544C51.8067 35.0634 51.0891 27.7763 48.965 27.5574Z" fill="#FFD712"/>
</g>
<path d="M48.1244 27.2117C49.4034 27.2117 50.4402 26.1749 50.4402 24.8959C50.4402 23.6169 49.4034 22.5801 48.1244 22.5801C46.8454 22.5801 45.8086 23.6169 45.8086 24.8959C45.8086 26.1749 46.8454 27.2117 48.1244 27.2117Z" fill="url(#paint9_linear_552_39658)"/>
<path d="M48.5872 25.938C49.2906 25.938 49.8609 25.3678 49.8609 24.6643C49.8609 23.9609 49.2906 23.3906 48.5872 23.3906C47.8837 23.3906 47.3135 23.9609 47.3135 24.6643C47.3135 25.3678 47.8837 25.938 48.5872 25.938Z" fill="#FFD712"/>
<defs>
<linearGradient id="paint0_linear_552_39658" x1="84.8677" y1="94.0191" x2="-13.6097" y2="90.4538" gradientUnits="userSpaceOnUse">
<stop stop-color="#332920" stop-opacity="0.4"/>
<stop offset="0.4769" stop-color="#5B524B" stop-opacity="0.2569"/>
<stop offset="1" stop-color="#837C77" stop-opacity="0.1"/>
</linearGradient>
<linearGradient id="paint1_linear_552_39658" x1="77.0825" y1="82.328" x2="78.4465" y2="99.0443" gradientUnits="userSpaceOnUse">
<stop stop-color="#82479F"/>
<stop offset="0.102" stop-color="#64337B"/>
<stop offset="0.2869" stop-color="#562C6B"/>
<stop offset="0.4592" stop-color="#4E2761"/>
<stop offset="0.6671" stop-color="#502863"/>
<stop offset="0.7784" stop-color="#572C6B"/>
<stop offset="0.8667" stop-color="#623279"/>
<stop offset="0.8776" stop-color="#64337B"/>
<stop offset="1" stop-color="#82479F"/>
</linearGradient>
<linearGradient id="paint2_linear_552_39658" x1="90.4674" y1="70.737" x2="106.815" y2="71.3849" gradientUnits="userSpaceOnUse">
<stop stop-color="#C18553"/>
<stop offset="0.1492" stop-color="#C98D5A"/>
<stop offset="0.6797" stop-color="#E3A36E"/>
<stop offset="1" stop-color="#ECAC76"/>
</linearGradient>
<linearGradient id="paint3_linear_552_39658" x1="60.5489" y1="33.8747" x2="57.7253" y2="56.8989" gradientUnits="userSpaceOnUse">
<stop offset="0.0153" stop-color="#DF2000"/>
<stop offset="0.1531" stop-color="#B61306"/>
<stop offset="0.4388" stop-color="#990A0A"/>
<stop offset="0.8163" stop-color="#AD1007"/>
<stop offset="1" stop-color="#D01B02"/>
</linearGradient>
<linearGradient id="paint4_linear_552_39658" x1="84.1248" y1="49.2985" x2="102.705" y2="41.6853" gradientUnits="userSpaceOnUse">
<stop stop-color="#C18553"/>
<stop offset="0.1492" stop-color="#C98D5A"/>
<stop offset="0.6797" stop-color="#E3A36E"/>
<stop offset="1" stop-color="#ECAC76"/>
</linearGradient>
<linearGradient id="paint5_linear_552_39658" x1="99.5869" y1="49.3706" x2="97.4827" y2="43.6975" gradientUnits="userSpaceOnUse">
<stop offset="0.0153" stop-color="#DF2000"/>
<stop offset="0.6071" stop-color="#B61306"/>
<stop offset="1" stop-color="#990A0A"/>
</linearGradient>
<linearGradient id="paint6_linear_552_39658" x1="70.1251" y1="3.24224" x2="70.1251" y2="23.1703" gradientUnits="userSpaceOnUse">
<stop stop-color="#5C5C5C"/>
<stop offset="0.2821" stop-color="#3E3E3E"/>
<stop offset="1"/>
</linearGradient>
<linearGradient id="paint7_linear_552_39658" x1="49.0477" y1="32.6766" x2="41.8687" y2="32.9082" gradientUnits="userSpaceOnUse">
<stop stop-color="#F7B719"/>
<stop offset="1" stop-color="#DD721B"/>
</linearGradient>
<linearGradient id="paint8_linear_552_39658" x1="48.9917" y1="6.89791" x2="48.9917" y2="27.3331" gradientUnits="userSpaceOnUse">
<stop stop-color="#F7B719"/>
<stop offset="1" stop-color="#DD721B"/>
</linearGradient>
<linearGradient id="paint9_linear_552_39658" x1="48.1245" y1="22.949" x2="48.1245" y2="27.3072" gradientUnits="userSpaceOnUse">
<stop stop-color="#F7B719"/>
<stop offset="1" stop-color="#DD721B"/>
</linearGradient>
</defs>
</svg>
