<svg width="1920" height="1080" viewBox="0 0 1920 1080" fill="none" xmlns="http://www.w3.org/2000/svg">
<g opacity="0.3" clip-path="url(#clip0_395_2874)">
<mask id="mask0_395_2874" style="mask-type:luminance" maskUnits="userSpaceOnUse" x="-30" y="-25" width="1980" height="1131">
<path d="M1949.46 1105.7H-30V-25H1949.46V1105.7Z" fill="white"/>
</mask>
<g mask="url(#mask0_395_2874)">
<g style="mix-blend-mode:screen">
<path fill-rule="evenodd" clip-rule="evenodd" d="M1337.45 344.549L581.917 344.478L-196.822 -49.4678H2116.33L2114.07 -48.3396L1337.45 344.549ZM582.199 343.35H1337.31L2111.53 -48.2691H-192.026L582.199 343.35Z" fill="url(#paint0_linear_395_2874)"/>
<path d="M1361.93 332.069H557.511V330.87H1361.93V332.069Z" fill="url(#paint1_linear_395_2874)"/>
<path d="M1390 317.896H529.507V316.697H1390V317.896Z" fill="url(#paint2_linear_395_2874)"/>
<path d="M1422.24 301.608H497.271V300.409H1422.24V301.608Z" fill="url(#paint3_linear_395_2874)"/>
<path d="M1459.69 282.64H459.815V281.441H1459.69V282.64Z" fill="url(#paint4_linear_395_2874)"/>
<path d="M1503.71 260.359H415.729V259.16H1503.71V260.359Z" fill="url(#paint5_linear_395_2874)"/>
<path d="M1556.26 233.776H363.179V232.577H1556.26V233.776Z" fill="url(#paint6_linear_395_2874)"/>
<path d="M1620.09 201.482H299.342V200.354H1620.09V201.482Z" fill="url(#paint7_linear_395_2874)"/>
<path d="M1699.17 161.501H220.269V160.303H1699.17V161.501Z" fill="url(#paint8_linear_395_2874)"/>
<path d="M1799.82 110.592H119.682V109.394H1799.82V110.592Z" fill="url(#paint9_linear_395_2874)"/>
<path d="M1932.08 43.6772H-12.6475V42.4785H1932.08V43.6772Z" fill="url(#paint10_linear_395_2874)"/>
<path d="M1290.33 344.478L1289.98 343.421L1969.47 -49.3975L1969.82 -48.3398L1290.33 344.478Z" fill="url(#paint11_linear_395_2874)"/>
<path d="M1243.14 344.478L1242.72 343.421L1825.15 -49.3975L1825.57 -48.3398L1243.14 344.478Z" fill="url(#paint12_linear_395_2874)"/>
<path d="M1196.02 344.408L1195.53 343.421L1680.83 -49.3975L1681.32 -48.4103L1196.02 344.408Z" fill="url(#paint13_linear_395_2874)"/>
<path d="M1148.83 344.408L1148.27 343.491L1536.51 -49.3271L1537.07 -48.4105L1148.83 344.408Z" fill="url(#paint14_linear_395_2874)"/>
<path d="M1101.64 344.338L1101.01 343.562L1392.19 -49.2559L1392.89 -48.4802L1101.64 344.338Z" fill="url(#paint15_linear_395_2874)"/>
<path d="M1054.52 344.267L1053.75 343.632L1247.87 -49.1855L1248.64 -48.5509L1054.52 344.267Z" fill="url(#paint16_linear_395_2874)"/>
<path d="M1007.4 344.126L1006.48 343.773L1103.54 -49.0449L1104.46 -48.6924L1007.4 344.126Z" fill="url(#paint17_linear_395_2874)"/>
<path d="M960.212 343.915H959.295V-48.9033H960.212V343.915Z" fill="url(#paint18_linear_395_2874)"/>
<path d="M912.105 344.126L815.045 -48.6924L815.891 -49.0449L912.952 343.773L912.105 344.126Z" fill="url(#paint19_linear_395_2874)"/>
<path d="M864.915 344.267L670.795 -48.5509L671.571 -49.1855L865.691 343.632L864.915 344.267Z" fill="url(#paint20_linear_395_2874)"/>
<path d="M817.796 344.338L526.615 -48.4802L527.25 -49.2559L818.431 343.562L817.796 344.338Z" fill="url(#paint21_linear_395_2874)"/>
<path d="M770.677 344.408L382.365 -48.4105L382.93 -49.3271L771.241 343.491L770.677 344.408Z" fill="url(#paint22_linear_395_2874)"/>
<path d="M723.486 344.408L238.114 -48.4103L238.608 -49.3975L723.98 343.421L723.486 344.408Z" fill="url(#paint23_linear_395_2874)"/>
<path d="M676.296 344.478L93.8643 -48.3398L94.2875 -49.3975L676.719 343.421L676.296 344.478Z" fill="url(#paint24_linear_395_2874)"/>
<path d="M629.106 344.478L-50.3857 -48.3398L-49.9625 -49.3975L629.529 343.421L629.106 344.478Z" fill="url(#paint25_linear_395_2874)"/>
</g>
<g style="mix-blend-mode:screen">
<path fill-rule="evenodd" clip-rule="evenodd" d="M2093.05 1119.96L2092.42 1119.68L1336.88 737.155V343.561L1337.17 343.42L2093.05 -39.3145V1119.96ZM1337.8 736.38L2092.13 1118.27V-37.5517L1337.8 344.337V736.38Z" fill="url(#paint26_linear_395_2874)"/>
<path d="M2092.42 1014.48L1337.24 701.617L1337.52 700.489L2092.7 1013.35L2092.42 1014.48Z" fill="url(#paint27_linear_395_2874)"/>
<path d="M2092.49 909.203L1337.24 665.939L1337.45 664.74L2092.7 908.074L2092.49 909.203Z" fill="url(#paint28_linear_395_2874)"/>
<path d="M2092.49 804L1337.24 630.19L1337.45 629.062L2092.7 802.872L2092.49 804Z" fill="url(#paint29_linear_395_2874)"/>
<path d="M2092.56 698.797L1337.31 594.511L1337.38 593.312L2092.63 697.599L2092.56 698.797Z" fill="url(#paint30_linear_395_2874)"/>
<path d="M2092.56 593.524L1337.31 558.762L1337.38 557.634L2092.63 592.396L2092.56 593.524Z" fill="url(#paint31_linear_395_2874)"/>
<path d="M1337.38 523.083L1337.31 521.884L2092.56 487.122L2092.63 488.321L1337.38 523.083Z" fill="url(#paint32_linear_395_2874)"/>
<path d="M1337.38 487.334L1337.31 486.206L2092.56 381.92L2092.63 383.119L1337.38 487.334Z" fill="url(#paint33_linear_395_2874)"/>
<path d="M1337.45 451.655L1337.24 450.456L2092.49 276.717L2092.7 277.845L1337.45 451.655Z" fill="url(#paint34_linear_395_2874)"/>
<path d="M1337.45 415.906L1337.24 414.778L2092.49 171.443L2092.7 172.642L1337.45 415.906Z" fill="url(#paint35_linear_395_2874)"/>
<path d="M1337.52 380.228L1337.24 379.099L2092.42 66.2412L2092.7 67.3694L1337.52 380.228Z" fill="url(#paint36_linear_395_2874)"/>
<path d="M1869.3 1005.87H1868.39V74.8428H1869.3V1005.87Z" fill="url(#paint37_linear_395_2874)"/>
<path d="M1787.34 964.342H1786.42V116.374H1787.34V964.342Z" fill="url(#paint38_linear_395_2874)"/>
<path d="M1718.78 929.65H1717.86V151.065H1718.78V929.65Z" fill="url(#paint39_linear_395_2874)"/>
<path d="M1660.65 900.177H1659.74V180.469H1660.65V900.177Z" fill="url(#paint40_linear_395_2874)"/>
<path d="M1610.64 874.863H1609.73V205.782H1610.64V874.863Z" fill="url(#paint41_linear_395_2874)"/>
<path d="M1567.26 852.935H1566.34V227.782H1567.26V852.935Z" fill="url(#paint42_linear_395_2874)"/>
<path d="M1529.17 833.614H1528.25V247.031H1529.17V833.614Z" fill="url(#paint43_linear_395_2874)"/>
<path d="M1495.52 816.622H1494.61V264.096H1495.52V816.622Z" fill="url(#paint44_linear_395_2874)"/>
<path d="M1465.55 801.461H1464.63V279.255H1465.55V801.461Z" fill="url(#paint45_linear_395_2874)"/>
<path d="M1438.74 787.853H1437.82V292.864H1438.74V787.853Z" fill="url(#paint46_linear_395_2874)"/>
<path d="M1414.55 775.584H1413.63V305.062H1414.55V775.584Z" fill="url(#paint47_linear_395_2874)"/>
<path d="M1392.68 764.513H1391.76V316.203H1392.68V764.513Z" fill="url(#paint48_linear_395_2874)"/>
<path d="M1372.72 754.43H1371.8V326.286H1372.72V754.43Z" fill="url(#paint49_linear_395_2874)"/>
<path d="M1354.52 745.194H1353.6V335.453H1354.52V745.194Z" fill="url(#paint50_linear_395_2874)"/>
</g>
<g style="mix-blend-mode:screen">
<path fill-rule="evenodd" clip-rule="evenodd" d="M2116.33 1130.18H-196.822L-194.636 1129.06L582.058 736.168L1337.52 736.238L2116.33 1130.18ZM-192.026 1128.99H2111.53L1337.24 737.367H582.199L-192.026 1128.99Z" fill="url(#paint51_linear_395_2874)"/>
<path d="M1361.93 749.777H557.511V748.578H1361.93V749.777Z" fill="url(#paint52_linear_395_2874)"/>
<path d="M1390 763.949H529.507V762.821H1390V763.949Z" fill="url(#paint53_linear_395_2874)"/>
<path d="M1422.24 780.308H497.271V779.109H1422.24V780.308Z" fill="url(#paint54_linear_395_2874)"/>
<path d="M1459.69 799.205H459.815V798.006H1459.69V799.205Z" fill="url(#paint55_linear_395_2874)"/>
<path d="M1503.71 821.487H415.729V820.358H1503.71V821.487Z" fill="url(#paint56_linear_395_2874)"/>
<path d="M1556.26 848.07H363.179V846.941H1556.26V848.07Z" fill="url(#paint57_linear_395_2874)"/>
<path d="M1620.09 880.364H299.342V879.165H1620.09V880.364Z" fill="url(#paint58_linear_395_2874)"/>
<path d="M1699.17 920.343H220.269V919.215H1699.17V920.343Z" fill="url(#paint59_linear_395_2874)"/>
<path d="M1799.82 971.252H119.682V970.124H1799.82V971.252Z" fill="url(#paint60_linear_395_2874)"/>
<path d="M1932.08 1038.24H-12.6475V1037.04H1932.08V1038.24Z" fill="url(#paint61_linear_395_2874)"/>
<path d="M-49.9625 1130.11L-50.3857 1129.06L629.106 736.238L629.529 737.296L-49.9625 1130.11Z" fill="url(#paint62_linear_395_2874)"/>
<path d="M94.2875 1130.11L93.8643 1129.06L676.296 736.238L676.719 737.296L94.2875 1130.11Z" fill="url(#paint63_linear_395_2874)"/>
<path d="M238.608 1130.04L238.114 1129.06L723.486 736.238L723.98 737.225L238.608 1130.04Z" fill="url(#paint64_linear_395_2874)"/>
<path d="M382.93 1130.04L382.365 1129.13L770.677 736.309L771.241 737.225L382.93 1130.04Z" fill="url(#paint65_linear_395_2874)"/>
<path d="M527.25 1129.97L526.615 1129.2L817.796 736.38L818.431 737.155L527.25 1129.97Z" fill="url(#paint66_linear_395_2874)"/>
<path d="M671.571 1129.9L670.795 1129.27L864.915 736.45L865.691 737.085L671.571 1129.9Z" fill="url(#paint67_linear_395_2874)"/>
<path d="M815.891 1129.76L815.045 1129.41L912.105 736.591L912.952 736.943L815.891 1129.76Z" fill="url(#paint68_linear_395_2874)"/>
<path d="M960.212 1129.55H959.295V736.732H960.212V1129.55Z" fill="url(#paint69_linear_395_2874)"/>
<path d="M1103.54 1129.76L1006.48 736.943L1007.4 736.591L1104.46 1129.41L1103.54 1129.76Z" fill="url(#paint70_linear_395_2874)"/>
<path d="M1247.87 1129.9L1053.75 737.085L1054.52 736.45L1248.64 1129.27L1247.87 1129.9Z" fill="url(#paint71_linear_395_2874)"/>
<path d="M1392.19 1129.97L1101.01 737.155L1101.64 736.38L1392.89 1129.2L1392.19 1129.97Z" fill="url(#paint72_linear_395_2874)"/>
<path d="M1536.51 1130.04L1148.27 737.225L1148.83 736.309L1537.07 1129.13L1536.51 1130.04Z" fill="url(#paint73_linear_395_2874)"/>
<path d="M1680.83 1130.04L1195.53 737.225L1196.02 736.238L1681.32 1129.06L1680.83 1130.04Z" fill="url(#paint74_linear_395_2874)"/>
<path d="M1825.15 1130.11L1242.72 737.296L1243.14 736.238L1825.57 1129.06L1825.15 1130.11Z" fill="url(#paint75_linear_395_2874)"/>
<path d="M1969.47 1130.11L1289.98 737.296L1290.33 736.238L1969.82 1129.06L1969.47 1130.11Z" fill="url(#paint76_linear_395_2874)"/>
</g>
<g style="mix-blend-mode:screen">
<path fill-rule="evenodd" clip-rule="evenodd" d="M-173.545 1119.96V-39.3145L-172.981 -38.9619L582.551 343.561V737.155L582.269 737.296L-173.545 1119.96ZM-172.628 -37.5517V1118.27L581.705 736.309V344.337L-172.628 -37.5517Z" fill="url(#paint77_linear_395_2874)"/>
<path d="M581.987 380.228L-173.263 67.3694L-172.981 66.2412L582.269 379.099L581.987 380.228Z" fill="url(#paint78_linear_395_2874)"/>
<path d="M581.987 415.906L-173.263 172.642L-172.981 171.443L582.199 414.778L581.987 415.906Z" fill="url(#paint79_linear_395_2874)"/>
<path d="M582.057 451.655L-173.192 277.845L-173.051 276.717L582.198 450.456L582.057 451.655Z" fill="url(#paint80_linear_395_2874)"/>
<path d="M582.057 487.334L-173.192 383.119L-173.051 381.92L582.198 486.206L582.057 487.334Z" fill="url(#paint81_linear_395_2874)"/>
<path d="M582.128 523.083L-173.122 488.321V487.122L582.128 521.884V523.083Z" fill="url(#paint82_linear_395_2874)"/>
<path d="M-173.122 593.524V592.396L582.128 557.634V558.762L-173.122 593.524Z" fill="url(#paint83_linear_395_2874)"/>
<path d="M-173.051 698.797L-173.192 697.599L582.057 593.312L582.198 594.511L-173.051 698.797Z" fill="url(#paint84_linear_395_2874)"/>
<path d="M-173.051 804L-173.192 802.872L582.057 629.062L582.198 630.19L-173.051 804Z" fill="url(#paint85_linear_395_2874)"/>
<path d="M-172.981 909.203L-173.263 908.074L581.987 664.74L582.199 665.939L-172.981 909.203Z" fill="url(#paint86_linear_395_2874)"/>
<path d="M-172.981 1014.48L-173.263 1013.35L581.987 700.489L582.269 701.617L-172.981 1014.48Z" fill="url(#paint87_linear_395_2874)"/>
<path d="M51.0479 1005.87H50.1309V74.8428H51.0479V1005.87Z" fill="url(#paint88_linear_395_2874)"/>
<path d="M133.013 964.342H132.096V116.374H133.013V964.342Z" fill="url(#paint89_linear_395_2874)"/>
<path d="M201.576 929.65H200.659V151.065H201.576V929.65Z" fill="url(#paint90_linear_395_2874)"/>
<path d="M259.77 900.177H258.853V180.469H259.77V900.177Z" fill="url(#paint91_linear_395_2874)"/>
<path d="M309.711 874.863H308.794V205.782H309.711V874.863Z" fill="url(#paint92_linear_395_2874)"/>
<path d="M353.162 852.935H352.245V227.782H353.162V852.935Z" fill="url(#paint93_linear_395_2874)"/>
<path d="M391.182 833.614H390.265V247.031H391.182V833.614Z" fill="url(#paint94_linear_395_2874)"/>
<path d="M424.828 816.622H423.911V264.096H424.828V816.622Z" fill="url(#paint95_linear_395_2874)"/>
<path d="M454.807 801.461H453.89V279.255H454.807V801.461Z" fill="url(#paint96_linear_395_2874)"/>
<path d="M481.611 787.853H480.694V292.864H481.611V787.853Z" fill="url(#paint97_linear_395_2874)"/>
<path d="M505.806 775.584H504.889V305.062H505.806V775.584Z" fill="url(#paint98_linear_395_2874)"/>
<path d="M527.743 764.513H526.826V316.203H527.743V764.513Z" fill="url(#paint99_linear_395_2874)"/>
<path d="M547.635 754.43H546.718V326.286H547.635V754.43Z" fill="url(#paint100_linear_395_2874)"/>
<path d="M565.834 745.194H564.917V335.453H565.834V745.194Z" fill="url(#paint101_linear_395_2874)"/>
</g>
</g>
</g>
<defs>
<linearGradient id="paint0_linear_395_2874" x1="993.312" y1="-48.1203" x2="993.312" y2="345.875" gradientUnits="userSpaceOnUse">
<stop offset="0.341" stop-color="#787878"/>
<stop offset="1"/>
</linearGradient>
<linearGradient id="paint1_linear_395_2874" x1="959.734" y1="330.903" x2="959.734" y2="332.08" gradientUnits="userSpaceOnUse">
<stop offset="0.341" stop-color="#787878"/>
<stop offset="1"/>
</linearGradient>
<linearGradient id="paint2_linear_395_2874" x1="959.734" y1="316.725" x2="959.734" y2="317.902" gradientUnits="userSpaceOnUse">
<stop offset="0.341" stop-color="#787878"/>
<stop offset="1"/>
</linearGradient>
<linearGradient id="paint3_linear_395_2874" x1="959.734" y1="300.421" x2="959.734" y2="301.599" gradientUnits="userSpaceOnUse">
<stop offset="0.341" stop-color="#787878"/>
<stop offset="1"/>
</linearGradient>
<linearGradient id="paint4_linear_395_2874" x1="959.734" y1="281.475" x2="959.734" y2="282.652" gradientUnits="userSpaceOnUse">
<stop offset="0.341" stop-color="#787878"/>
<stop offset="1"/>
</linearGradient>
<linearGradient id="paint5_linear_395_2874" x1="959.734" y1="259.194" x2="959.734" y2="260.371" gradientUnits="userSpaceOnUse">
<stop offset="0.341" stop-color="#787878"/>
<stop offset="1"/>
</linearGradient>
<linearGradient id="paint6_linear_395_2874" x1="959.734" y1="232.603" x2="959.734" y2="233.78" gradientUnits="userSpaceOnUse">
<stop offset="0.341" stop-color="#787878"/>
<stop offset="1"/>
</linearGradient>
<linearGradient id="paint7_linear_395_2874" x1="959.734" y1="200.326" x2="959.734" y2="201.503" gradientUnits="userSpaceOnUse">
<stop offset="0.341" stop-color="#787878"/>
<stop offset="1"/>
</linearGradient>
<linearGradient id="paint8_linear_395_2874" x1="959.733" y1="160.316" x2="959.733" y2="161.493" gradientUnits="userSpaceOnUse">
<stop offset="0.341" stop-color="#787878"/>
<stop offset="1"/>
</linearGradient>
<linearGradient id="paint9_linear_395_2874" x1="959.734" y1="109.418" x2="959.734" y2="110.595" gradientUnits="userSpaceOnUse">
<stop offset="0.341" stop-color="#787878"/>
<stop offset="1"/>
</linearGradient>
<linearGradient id="paint10_linear_395_2874" x1="959.734" y1="42.4856" x2="959.734" y2="43.6624" gradientUnits="userSpaceOnUse">
<stop offset="0.341" stop-color="#787878"/>
<stop offset="1"/>
</linearGradient>
<linearGradient id="paint11_linear_395_2874" x1="1744.08" y1="-48.1205" x2="1744.08" y2="345.772" gradientUnits="userSpaceOnUse">
<stop offset="0.341" stop-color="#787878"/>
<stop offset="1"/>
</linearGradient>
<linearGradient id="paint12_linear_395_2874" x1="1667.33" y1="-48.1205" x2="1667.33" y2="345.741" gradientUnits="userSpaceOnUse">
<stop offset="0.341" stop-color="#787878"/>
<stop offset="1"/>
</linearGradient>
<linearGradient id="paint13_linear_395_2874" x1="1598.15" y1="-48.1205" x2="1598.15" y2="345.695" gradientUnits="userSpaceOnUse">
<stop offset="0.341" stop-color="#787878"/>
<stop offset="1"/>
</linearGradient>
<linearGradient id="paint14_linear_395_2874" x1="1542.18" y1="-48.1207" x2="1542.18" y2="345.622" gradientUnits="userSpaceOnUse">
<stop offset="0.341" stop-color="#787878"/>
<stop offset="1"/>
</linearGradient>
<linearGradient id="paint15_linear_395_2874" x1="1512.58" y1="-48.1199" x2="1512.58" y2="345.512" gradientUnits="userSpaceOnUse">
<stop offset="0.341" stop-color="#787878"/>
<stop offset="1"/>
</linearGradient>
<linearGradient id="paint16_linear_395_2874" x1="1548.62" y1="-48.1201" x2="1548.62" y2="345.753" gradientUnits="userSpaceOnUse">
<stop offset="0.341" stop-color="#787878"/>
<stop offset="1"/>
</linearGradient>
<linearGradient id="paint17_linear_395_2874" x1="1845.23" y1="-48.1205" x2="1845.23" y2="345.751" gradientUnits="userSpaceOnUse">
<stop offset="0.341" stop-color="#787878"/>
<stop offset="1"/>
</linearGradient>
<linearGradient id="paint18_linear_395_2874" x1="85267.7" y1="-48.1199" x2="85267.7" y2="345.752" gradientUnits="userSpaceOnUse">
<stop offset="0.341" stop-color="#787878"/>
<stop offset="1"/>
</linearGradient>
<linearGradient id="paint19_linear_395_2874" x1="1653.76" y1="-48.1205" x2="1653.76" y2="345.751" gradientUnits="userSpaceOnUse">
<stop offset="0.341" stop-color="#787878"/>
<stop offset="1"/>
</linearGradient>
<linearGradient id="paint20_linear_395_2874" x1="1165.68" y1="-48.1201" x2="1165.68" y2="345.753" gradientUnits="userSpaceOnUse">
<stop offset="0.341" stop-color="#787878"/>
<stop offset="1"/>
</linearGradient>
<linearGradient id="paint21_linear_395_2874" x1="938.161" y1="-48.1199" x2="938.161" y2="345.512" gradientUnits="userSpaceOnUse">
<stop offset="0.341" stop-color="#787878"/>
<stop offset="1"/>
</linearGradient>
<linearGradient id="paint22_linear_395_2874" x1="776.289" y1="-48.1207" x2="776.289" y2="345.622" gradientUnits="userSpaceOnUse">
<stop offset="0.341" stop-color="#787878"/>
<stop offset="1"/>
</linearGradient>
<linearGradient id="paint23_linear_395_2874" x1="640.782" y1="-48.1205" x2="640.782" y2="345.695" gradientUnits="userSpaceOnUse">
<stop offset="0.341" stop-color="#787878"/>
<stop offset="1"/>
</linearGradient>
<linearGradient id="paint24_linear_395_2874" x1="518.491" y1="-48.1205" x2="518.491" y2="345.741" gradientUnits="userSpaceOnUse">
<stop offset="0.341" stop-color="#787878"/>
<stop offset="1"/>
</linearGradient>
<linearGradient id="paint25_linear_395_2874" x1="403.768" y1="-48.1205" x2="403.768" y2="345.772" gradientUnits="userSpaceOnUse">
<stop offset="0.341" stop-color="#787878"/>
<stop offset="1"/>
</linearGradient>
<linearGradient id="paint26_linear_395_2874" x1="1960.81" y1="1119.98" x2="1347.71" y2="1119.98" gradientUnits="userSpaceOnUse">
<stop offset="0.341" stop-color="#787878"/>
<stop offset="1"/>
</linearGradient>
<linearGradient id="paint27_linear_395_2874" x1="1960.81" y1="1014.45" x2="1347.71" y2="1014.45" gradientUnits="userSpaceOnUse">
<stop offset="0.341" stop-color="#787878"/>
<stop offset="1"/>
</linearGradient>
<linearGradient id="paint28_linear_395_2874" x1="1960.81" y1="909.225" x2="1347.71" y2="909.225" gradientUnits="userSpaceOnUse">
<stop offset="0.341" stop-color="#787878"/>
<stop offset="1"/>
</linearGradient>
<linearGradient id="paint29_linear_395_2874" x1="1960.81" y1="804.002" x2="1347.71" y2="804.002" gradientUnits="userSpaceOnUse">
<stop offset="0.341" stop-color="#787878"/>
<stop offset="1"/>
</linearGradient>
<linearGradient id="paint30_linear_395_2874" x1="1960.81" y1="698.778" x2="1347.71" y2="698.778" gradientUnits="userSpaceOnUse">
<stop offset="0.341" stop-color="#787878"/>
<stop offset="1"/>
</linearGradient>
<linearGradient id="paint31_linear_395_2874" x1="1960.81" y1="593.55" x2="1347.71" y2="593.55" gradientUnits="userSpaceOnUse">
<stop offset="0.341" stop-color="#787878"/>
<stop offset="1"/>
</linearGradient>
<linearGradient id="paint32_linear_395_2874" x1="1960.81" y1="523.081" x2="1347.71" y2="523.081" gradientUnits="userSpaceOnUse">
<stop offset="0.341" stop-color="#787878"/>
<stop offset="1"/>
</linearGradient>
<linearGradient id="paint33_linear_395_2874" x1="1960.81" y1="487.365" x2="1347.71" y2="487.365" gradientUnits="userSpaceOnUse">
<stop offset="0.341" stop-color="#787878"/>
<stop offset="1"/>
</linearGradient>
<linearGradient id="paint34_linear_395_2874" x1="1960.81" y1="451.649" x2="1347.71" y2="451.649" gradientUnits="userSpaceOnUse">
<stop offset="0.341" stop-color="#787878"/>
<stop offset="1"/>
</linearGradient>
<linearGradient id="paint35_linear_395_2874" x1="1960.81" y1="415.929" x2="1347.71" y2="415.929" gradientUnits="userSpaceOnUse">
<stop offset="0.341" stop-color="#787878"/>
<stop offset="1"/>
</linearGradient>
<linearGradient id="paint36_linear_395_2874" x1="1960.81" y1="380.209" x2="1347.71" y2="380.209" gradientUnits="userSpaceOnUse">
<stop offset="0.341" stop-color="#787878"/>
<stop offset="1"/>
</linearGradient>
<linearGradient id="paint37_linear_395_2874" x1="1869.3" y1="1005.84" x2="1868.39" y2="1005.84" gradientUnits="userSpaceOnUse">
<stop offset="0.341" stop-color="#787878"/>
<stop offset="1"/>
</linearGradient>
<linearGradient id="paint38_linear_395_2874" x1="1787.35" y1="964.348" x2="1786.43" y2="964.348" gradientUnits="userSpaceOnUse">
<stop offset="0.341" stop-color="#787878"/>
<stop offset="1"/>
</linearGradient>
<linearGradient id="paint39_linear_395_2874" x1="1718.81" y1="929.648" x2="1717.89" y2="929.648" gradientUnits="userSpaceOnUse">
<stop offset="0.341" stop-color="#787878"/>
<stop offset="1"/>
</linearGradient>
<linearGradient id="paint40_linear_395_2874" x1="1660.64" y1="900.197" x2="1659.72" y2="900.197" gradientUnits="userSpaceOnUse">
<stop offset="0.341" stop-color="#787878"/>
<stop offset="1"/>
</linearGradient>
<linearGradient id="paint41_linear_395_2874" x1="1610.65" y1="874.889" x2="1609.73" y2="874.889" gradientUnits="userSpaceOnUse">
<stop offset="0.341" stop-color="#787878"/>
<stop offset="1"/>
</linearGradient>
<linearGradient id="paint42_linear_395_2874" x1="1567.23" y1="852.907" x2="1566.32" y2="852.907" gradientUnits="userSpaceOnUse">
<stop offset="0.341" stop-color="#787878"/>
<stop offset="1"/>
</linearGradient>
<linearGradient id="paint43_linear_395_2874" x1="1529.17" y1="833.635" x2="1528.25" y2="833.635" gradientUnits="userSpaceOnUse">
<stop offset="0.341" stop-color="#787878"/>
<stop offset="1"/>
</linearGradient>
<linearGradient id="paint44_linear_395_2874" x1="1495.52" y1="816.603" x2="1494.61" y2="816.603" gradientUnits="userSpaceOnUse">
<stop offset="0.341" stop-color="#787878"/>
<stop offset="1"/>
</linearGradient>
<linearGradient id="paint45_linear_395_2874" x1="1465.57" y1="801.439" x2="1464.66" y2="801.439" gradientUnits="userSpaceOnUse">
<stop offset="0.341" stop-color="#787878"/>
<stop offset="1"/>
</linearGradient>
<linearGradient id="paint46_linear_395_2874" x1="1438.74" y1="787.856" x2="1437.82" y2="787.856" gradientUnits="userSpaceOnUse">
<stop offset="0.341" stop-color="#787878"/>
<stop offset="1"/>
</linearGradient>
<linearGradient id="paint47_linear_395_2874" x1="1414.56" y1="775.614" x2="1413.64" y2="775.614" gradientUnits="userSpaceOnUse">
<stop offset="0.341" stop-color="#787878"/>
<stop offset="1"/>
</linearGradient>
<linearGradient id="paint48_linear_395_2874" x1="1392.66" y1="764.525" x2="1391.74" y2="764.525" gradientUnits="userSpaceOnUse">
<stop offset="0.341" stop-color="#787878"/>
<stop offset="1"/>
</linearGradient>
<linearGradient id="paint49_linear_395_2874" x1="1372.73" y1="754.436" x2="1371.81" y2="754.436" gradientUnits="userSpaceOnUse">
<stop offset="0.341" stop-color="#787878"/>
<stop offset="1"/>
</linearGradient>
<linearGradient id="paint50_linear_395_2874" x1="1354.52" y1="745.216" x2="1353.6" y2="745.216" gradientUnits="userSpaceOnUse">
<stop offset="0.341" stop-color="#787878"/>
<stop offset="1"/>
</linearGradient>
<linearGradient id="paint51_linear_395_2874" x1="926.154" y1="1103.51" x2="926.154" y2="738.129" gradientUnits="userSpaceOnUse">
<stop offset="0.341" stop-color="#787878"/>
<stop offset="1"/>
</linearGradient>
<linearGradient id="paint52_linear_395_2874" x1="959.731" y1="749.79" x2="959.731" y2="748.613" gradientUnits="userSpaceOnUse">
<stop offset="0.341" stop-color="#787878"/>
<stop offset="1"/>
</linearGradient>
<linearGradient id="paint53_linear_395_2874" x1="959.732" y1="763.969" x2="959.732" y2="762.792" gradientUnits="userSpaceOnUse">
<stop offset="0.341" stop-color="#787878"/>
<stop offset="1"/>
</linearGradient>
<linearGradient id="paint54_linear_395_2874" x1="959.732" y1="780.273" x2="959.732" y2="779.097" gradientUnits="userSpaceOnUse">
<stop offset="0.341" stop-color="#787878"/>
<stop offset="1"/>
</linearGradient>
<linearGradient id="paint55_linear_395_2874" x1="959.733" y1="799.217" x2="959.733" y2="798.04" gradientUnits="userSpaceOnUse">
<stop offset="0.341" stop-color="#787878"/>
<stop offset="1"/>
</linearGradient>
<linearGradient id="paint56_linear_395_2874" x1="959.733" y1="821.501" x2="959.733" y2="820.324" gradientUnits="userSpaceOnUse">
<stop offset="0.341" stop-color="#787878"/>
<stop offset="1"/>
</linearGradient>
<linearGradient id="paint57_linear_395_2874" x1="959.732" y1="848.09" x2="959.732" y2="846.913" gradientUnits="userSpaceOnUse">
<stop offset="0.341" stop-color="#787878"/>
<stop offset="1"/>
</linearGradient>
<linearGradient id="paint58_linear_395_2874" x1="959.733" y1="880.369" x2="959.733" y2="879.192" gradientUnits="userSpaceOnUse">
<stop offset="0.341" stop-color="#787878"/>
<stop offset="1"/>
</linearGradient>
<linearGradient id="paint59_linear_395_2874" x1="959.732" y1="920.378" x2="959.732" y2="919.201" gradientUnits="userSpaceOnUse">
<stop offset="0.341" stop-color="#787878"/>
<stop offset="1"/>
</linearGradient>
<linearGradient id="paint60_linear_395_2874" x1="959.733" y1="971.276" x2="959.733" y2="970.099" gradientUnits="userSpaceOnUse">
<stop offset="0.341" stop-color="#787878"/>
<stop offset="1"/>
</linearGradient>
<linearGradient id="paint61_linear_395_2874" x1="959.733" y1="1038.21" x2="959.733" y2="1037.03" gradientUnits="userSpaceOnUse">
<stop offset="0.341" stop-color="#787878"/>
<stop offset="1"/>
</linearGradient>
<linearGradient id="paint62_linear_395_2874" x1="175.384" y1="1103.51" x2="175.384" y2="738.129" gradientUnits="userSpaceOnUse">
<stop offset="0.341" stop-color="#787878"/>
<stop offset="1"/>
</linearGradient>
<linearGradient id="paint63_linear_395_2874" x1="252.133" y1="1103.51" x2="252.133" y2="738.129" gradientUnits="userSpaceOnUse">
<stop offset="0.341" stop-color="#787878"/>
<stop offset="1"/>
</linearGradient>
<linearGradient id="paint64_linear_395_2874" x1="321.315" y1="1103.51" x2="321.315" y2="738.129" gradientUnits="userSpaceOnUse">
<stop offset="0.341" stop-color="#787878"/>
<stop offset="1"/>
</linearGradient>
<linearGradient id="paint65_linear_395_2874" x1="377.283" y1="1103.51" x2="377.283" y2="738.129" gradientUnits="userSpaceOnUse">
<stop offset="0.341" stop-color="#787878"/>
<stop offset="1"/>
</linearGradient>
<linearGradient id="paint66_linear_395_2874" x1="406.885" y1="1103.51" x2="406.885" y2="738.129" gradientUnits="userSpaceOnUse">
<stop offset="0.341" stop-color="#787878"/>
<stop offset="1"/>
</linearGradient>
<linearGradient id="paint67_linear_395_2874" x1="370.844" y1="1103.51" x2="370.844" y2="738.129" gradientUnits="userSpaceOnUse">
<stop offset="0.341" stop-color="#787878"/>
<stop offset="1"/>
</linearGradient>
<linearGradient id="paint68_linear_395_2874" x1="74.234" y1="1103.51" x2="74.234" y2="738.129" gradientUnits="userSpaceOnUse">
<stop offset="0.341" stop-color="#787878"/>
<stop offset="1"/>
</linearGradient>
<linearGradient id="paint69_linear_395_2874" x1="-83348.4" y1="1103.51" x2="-83348.4" y2="738.129" gradientUnits="userSpaceOnUse">
<stop offset="0.341" stop-color="#787878"/>
<stop offset="1"/>
</linearGradient>
<linearGradient id="paint70_linear_395_2874" x1="265.697" y1="1103.51" x2="265.697" y2="738.129" gradientUnits="userSpaceOnUse">
<stop offset="0.341" stop-color="#787878"/>
<stop offset="1"/>
</linearGradient>
<linearGradient id="paint71_linear_395_2874" x1="753.79" y1="1103.51" x2="753.79" y2="738.129" gradientUnits="userSpaceOnUse">
<stop offset="0.341" stop-color="#787878"/>
<stop offset="1"/>
</linearGradient>
<linearGradient id="paint72_linear_395_2874" x1="981.306" y1="1103.51" x2="981.306" y2="738.129" gradientUnits="userSpaceOnUse">
<stop offset="0.341" stop-color="#787878"/>
<stop offset="1"/>
</linearGradient>
<linearGradient id="paint73_linear_395_2874" x1="1143.18" y1="1103.51" x2="1143.18" y2="738.129" gradientUnits="userSpaceOnUse">
<stop offset="0.341" stop-color="#787878"/>
<stop offset="1"/>
</linearGradient>
<linearGradient id="paint74_linear_395_2874" x1="1278.68" y1="1103.51" x2="1278.68" y2="738.129" gradientUnits="userSpaceOnUse">
<stop offset="0.341" stop-color="#787878"/>
<stop offset="1"/>
</linearGradient>
<linearGradient id="paint75_linear_395_2874" x1="1400.97" y1="1103.51" x2="1400.97" y2="738.129" gradientUnits="userSpaceOnUse">
<stop offset="0.341" stop-color="#787878"/>
<stop offset="1"/>
</linearGradient>
<linearGradient id="paint76_linear_395_2874" x1="1515.7" y1="1103.51" x2="1515.7" y2="738.129" gradientUnits="userSpaceOnUse">
<stop offset="0.341" stop-color="#787878"/>
<stop offset="1"/>
</linearGradient>
<linearGradient id="paint77_linear_395_2874" x1="-29.1277" y1="-39.2856" x2="569.308" y2="-39.2856" gradientUnits="userSpaceOnUse">
<stop offset="0.341" stop-color="#787878"/>
<stop offset="1"/>
</linearGradient>
<linearGradient id="paint78_linear_395_2874" x1="-29.1276" y1="66.249" x2="569.308" y2="66.249" gradientUnits="userSpaceOnUse">
<stop offset="0.341" stop-color="#787878"/>
<stop offset="1"/>
</linearGradient>
<linearGradient id="paint79_linear_395_2874" x1="-29.1276" y1="171.467" x2="569.308" y2="171.467" gradientUnits="userSpaceOnUse">
<stop offset="0.341" stop-color="#787878"/>
<stop offset="1"/>
</linearGradient>
<linearGradient id="paint80_linear_395_2874" x1="-29.1278" y1="276.692" x2="569.308" y2="276.692" gradientUnits="userSpaceOnUse">
<stop offset="0.341" stop-color="#787878"/>
<stop offset="1"/>
</linearGradient>
<linearGradient id="paint81_linear_395_2874" x1="-29.1278" y1="381.916" x2="569.307" y2="381.916" gradientUnits="userSpaceOnUse">
<stop offset="0.341" stop-color="#787878"/>
<stop offset="1"/>
</linearGradient>
<linearGradient id="paint82_linear_395_2874" x1="-29.128" y1="487.143" x2="569.307" y2="487.143" gradientUnits="userSpaceOnUse">
<stop offset="0.341" stop-color="#787878"/>
<stop offset="1"/>
</linearGradient>
<linearGradient id="paint83_linear_395_2874" x1="-29.128" y1="557.614" x2="569.307" y2="557.614" gradientUnits="userSpaceOnUse">
<stop offset="0.341" stop-color="#787878"/>
<stop offset="1"/>
</linearGradient>
<linearGradient id="paint84_linear_395_2874" x1="-29.1278" y1="593.327" x2="569.307" y2="593.327" gradientUnits="userSpaceOnUse">
<stop offset="0.341" stop-color="#787878"/>
<stop offset="1"/>
</linearGradient>
<linearGradient id="paint85_linear_395_2874" x1="-29.1278" y1="629.045" x2="569.308" y2="629.045" gradientUnits="userSpaceOnUse">
<stop offset="0.341" stop-color="#787878"/>
<stop offset="1"/>
</linearGradient>
<linearGradient id="paint86_linear_395_2874" x1="-29.1276" y1="664.763" x2="569.308" y2="664.763" gradientUnits="userSpaceOnUse">
<stop offset="0.341" stop-color="#787878"/>
<stop offset="1"/>
</linearGradient>
<linearGradient id="paint87_linear_395_2874" x1="-29.1276" y1="700.486" x2="569.308" y2="700.486" gradientUnits="userSpaceOnUse">
<stop offset="0.341" stop-color="#787878"/>
<stop offset="1"/>
</linearGradient>
<linearGradient id="paint88_linear_395_2874" x1="50.1612" y1="74.8519" x2="51.0775" y2="74.8519" gradientUnits="userSpaceOnUse">
<stop offset="0.341" stop-color="#787878"/>
<stop offset="1"/>
</linearGradient>
<linearGradient id="paint89_linear_395_2874" x1="132.117" y1="116.344" x2="133.032" y2="116.344" gradientUnits="userSpaceOnUse">
<stop offset="0.341" stop-color="#787878"/>
<stop offset="1"/>
</linearGradient>
<linearGradient id="paint90_linear_395_2874" x1="200.658" y1="151.046" x2="201.573" y2="151.046" gradientUnits="userSpaceOnUse">
<stop offset="0.341" stop-color="#787878"/>
<stop offset="1"/>
</linearGradient>
<linearGradient id="paint91_linear_395_2874" x1="258.829" y1="180.496" x2="259.745" y2="180.496" gradientUnits="userSpaceOnUse">
<stop offset="0.341" stop-color="#787878"/>
<stop offset="1"/>
</linearGradient>
<linearGradient id="paint92_linear_395_2874" x1="308.816" y1="205.805" x2="309.731" y2="205.805" gradientUnits="userSpaceOnUse">
<stop offset="0.341" stop-color="#787878"/>
<stop offset="1"/>
</linearGradient>
<linearGradient id="paint93_linear_395_2874" x1="352.235" y1="227.786" x2="353.151" y2="227.786" gradientUnits="userSpaceOnUse">
<stop offset="0.341" stop-color="#787878"/>
<stop offset="1"/>
</linearGradient>
<linearGradient id="paint94_linear_395_2874" x1="390.3" y1="247.057" x2="391.215" y2="247.057" gradientUnits="userSpaceOnUse">
<stop offset="0.341" stop-color="#787878"/>
<stop offset="1"/>
</linearGradient>
<linearGradient id="paint95_linear_395_2874" x1="423.944" y1="264.091" x2="424.859" y2="264.091" gradientUnits="userSpaceOnUse">
<stop offset="0.341" stop-color="#787878"/>
<stop offset="1"/>
</linearGradient>
<linearGradient id="paint96_linear_395_2874" x1="453.894" y1="279.253" x2="454.809" y2="279.253" gradientUnits="userSpaceOnUse">
<stop offset="0.341" stop-color="#787878"/>
<stop offset="1"/>
</linearGradient>
<linearGradient id="paint97_linear_395_2874" x1="480.727" y1="292.839" x2="481.643" y2="292.839" gradientUnits="userSpaceOnUse">
<stop offset="0.341" stop-color="#787878"/>
<stop offset="1"/>
</linearGradient>
<linearGradient id="paint98_linear_395_2874" x1="504.907" y1="305.081" x2="505.823" y2="305.081" gradientUnits="userSpaceOnUse">
<stop offset="0.341" stop-color="#787878"/>
<stop offset="1"/>
</linearGradient>
<linearGradient id="paint99_linear_395_2874" x1="526.806" y1="316.169" x2="527.723" y2="316.169" gradientUnits="userSpaceOnUse">
<stop offset="0.341" stop-color="#787878"/>
<stop offset="1"/>
</linearGradient>
<linearGradient id="paint100_linear_395_2874" x1="546.735" y1="326.258" x2="547.651" y2="326.258" gradientUnits="userSpaceOnUse">
<stop offset="0.341" stop-color="#787878"/>
<stop offset="1"/>
</linearGradient>
<linearGradient id="paint101_linear_395_2874" x1="564.949" y1="335.479" x2="565.865" y2="335.479" gradientUnits="userSpaceOnUse">
<stop offset="0.341" stop-color="#787878"/>
<stop offset="1"/>
</linearGradient>
<clipPath id="clip0_395_2874">
<rect width="1980" height="1131" fill="white" transform="translate(-30 -25)"/>
</clipPath>
</defs>
</svg>
