<svg width="457" height="457" viewBox="0 0 457 457" fill="none" xmlns="http://www.w3.org/2000/svg">
<path d="M228.5 457C259.347 457 289.271 450.958 317.443 439.042C344.654 427.533 369.09 411.058 390.074 390.074C411.059 369.089 427.534 344.653 439.043 317.443C450.959 289.271 457 259.346 457 228.5C457 197.653 450.958 167.729 439.043 139.557C427.534 112.347 411.059 87.9101 390.074 66.9256C369.09 45.941 344.654 29.466 317.443 17.9571C289.272 6.04142 259.347 0 228.5 0C197.654 0 167.729 6.04198 139.557 17.9571C112.347 29.466 87.9107 45.9416 66.9267 66.9256C45.9421 87.9101 29.4666 112.346 17.9576 139.557C6.04196 167.729 0 197.653 0 228.5C0 259.346 6.04196 289.271 17.9576 317.443C29.4666 344.653 45.9416 369.089 66.9267 390.074C87.9113 411.058 112.348 427.533 139.557 439.042C167.729 450.958 197.654 457 228.5 457ZM228.5 4.11026C258.794 4.11026 288.18 10.0427 315.842 21.7431C342.562 33.0448 366.56 49.2244 387.168 69.8328C407.776 90.4411 423.956 114.439 435.257 141.158C446.957 168.821 452.89 198.207 452.89 228.501C452.89 258.794 446.958 288.18 435.257 315.843C423.956 342.563 407.776 366.561 387.168 387.168C366.559 407.777 342.562 423.956 315.842 435.258C288.18 446.958 258.793 452.891 228.5 452.891C198.207 452.891 168.821 446.958 141.158 435.258C114.438 423.956 90.44 407.777 69.8322 387.168C49.2238 366.56 33.0443 342.563 21.7426 315.843C10.0427 288.18 4.10968 258.794 4.10968 228.501C4.10968 198.207 10.0427 168.821 21.7426 141.158C33.0443 114.439 49.2238 90.4411 69.8322 69.8328C90.4406 49.2244 114.438 33.0448 141.158 21.7431C168.82 10.0427 198.207 4.11026 228.5 4.11026Z" fill="#CFD1D2" fill-opacity="0.15"/>
<path d="M228.501 426.178C255.186 426.178 281.074 420.951 305.446 410.643C328.986 400.686 350.127 386.433 368.28 368.279C386.434 350.126 400.687 328.985 410.644 305.446C420.952 281.074 426.179 255.186 426.179 228.5C426.179 201.815 420.952 175.927 410.644 151.555C400.687 128.015 386.434 106.875 368.28 88.7207C350.127 70.5671 328.986 56.3142 305.446 46.3573C281.074 36.0486 255.186 30.8223 228.501 30.8223C201.815 30.8223 175.927 36.0492 151.555 46.3573C128.015 56.3142 106.875 70.5671 88.7211 88.7207C70.5674 106.875 56.3145 128.015 46.3577 151.555C36.049 175.927 30.8226 201.815 30.8226 228.5H34.9323C34.9323 202.368 40.0497 177.018 50.1426 153.155C59.8922 130.106 73.8491 109.404 91.6271 91.6268C109.405 73.8493 130.106 59.8918 153.156 50.1428C177.019 40.0499 202.368 34.9325 228.501 34.9325C254.633 34.9325 279.983 40.0499 303.845 50.1428C326.895 59.8924 347.596 73.8493 365.374 91.6268C383.151 109.404 397.109 130.106 406.858 153.155C416.951 177.018 422.068 202.368 422.068 228.5C422.068 254.633 416.951 279.982 406.858 303.845C397.108 326.895 383.151 347.596 365.374 365.373C347.596 383.151 326.895 397.108 303.845 406.857C279.983 416.95 254.633 422.068 228.501 422.068V426.178Z" fill="#CFD1D2" fill-opacity="0.15"/>
<path d="M228.499 442.99C257.454 442.99 285.544 437.318 311.989 426.133C337.53 415.33 360.469 399.864 380.166 380.167C399.864 360.47 415.329 337.531 426.132 311.99C437.317 285.545 442.988 257.455 442.988 228.5H438.879C438.879 256.902 433.316 284.454 422.347 310.389C411.75 335.44 396.581 357.94 377.26 377.261C357.938 396.583 335.439 411.752 310.388 422.348C284.452 433.318 256.901 438.88 228.499 438.88C200.097 438.88 172.545 433.318 146.61 422.348C121.558 411.752 99.0587 396.582 79.7371 377.261C60.4153 357.939 45.2457 335.44 34.6501 310.389C23.6805 284.454 18.118 256.902 18.118 228.5C18.118 200.098 23.6805 172.546 34.6501 146.611C45.2457 121.56 60.4153 99.0602 79.7371 79.7385C99.0587 60.4168 121.558 45.2471 146.61 34.6515C172.545 23.6819 200.097 18.1195 228.499 18.1195V14.0098C199.544 14.0098 171.454 19.6812 145.009 30.8665C119.467 41.6695 96.5289 57.1351 76.831 76.8324C57.1331 96.5303 41.6681 119.469 30.8651 145.01C19.6804 171.455 14.009 199.545 14.009 228.5C14.009 257.455 19.6804 285.545 30.8651 311.99C41.6681 337.531 57.1337 360.47 76.831 380.167C96.5283 399.865 119.467 415.33 145.009 426.133C171.454 437.318 199.544 442.99 228.499 442.99Z" fill="#CFD1D2" fill-opacity="0.15"/>
<path d="M31.4534 231.224L34.3301 231.189C34.3199 230.374 34.3148 229.558 34.3148 228.74H31.4382C31.4382 229.569 31.4432 230.397 31.4534 231.224Z" fill="#CFD1D2" fill-opacity="0.15"/>
<path d="M221.99 426.722L222.098 423.848C220.46 423.786 218.8 423.703 217.163 423.6L216.984 426.471C218.644 426.575 220.329 426.66 221.99 426.722ZM211.978 426.095L212.23 423.229C210.601 423.086 208.944 422.919 207.308 422.734L206.983 425.593C208.645 425.781 210.325 425.95 211.978 426.095ZM202.004 424.963L202.401 422.114C200.78 421.888 199.136 421.638 197.511 421.37L197.042 424.208C198.691 424.481 200.36 424.735 202.004 424.963ZM192.101 423.328L192.641 420.503C191.03 420.195 189.399 419.861 187.795 419.511L187.182 422.322C188.81 422.677 190.465 423.015 192.101 423.328ZM182.291 421.19L182.975 418.396C181.374 418.004 179.763 417.587 178.187 417.159L177.431 419.934C179.03 420.37 180.666 420.793 182.291 421.19ZM172.605 418.555L173.43 415.799C171.865 415.33 170.277 414.832 168.711 414.319L167.815 417.052C169.405 417.574 171.017 418.079 172.605 418.555ZM163.065 415.429L164.03 412.719C162.489 412.171 160.929 411.592 159.392 411L158.358 413.684C159.918 414.285 161.502 414.872 163.065 415.429ZM153.713 411.827L154.815 409.17C153.303 408.542 151.779 407.887 150.285 407.223L149.115 409.851C150.632 410.526 152.179 411.191 153.713 411.827ZM144.568 407.759L145.804 405.161C144.322 404.456 142.832 403.724 141.376 402.985L140.074 405.551C141.553 406.301 143.064 407.043 144.568 407.759ZM135.638 403.23L137.003 400.697C135.567 399.923 134.115 399.116 132.689 398.299L131.259 400.796C132.707 401.625 134.18 402.444 135.638 403.23ZM126.944 398.252L128.436 395.793C127.041 394.947 125.632 394.067 124.247 393.178L122.693 395.599C124.099 396.501 125.529 397.393 126.944 398.252ZM118.508 392.839L120.123 390.458C118.765 389.537 117.401 388.587 116.07 387.634L114.396 389.974C115.746 390.94 117.13 391.904 118.508 392.839ZM110.356 387.005L112.089 384.708C110.778 383.719 109.463 382.701 108.181 381.682L106.391 383.935C107.691 384.968 109.025 386.001 110.356 387.005ZM102.503 380.765L104.35 378.558C103.089 377.503 101.827 376.42 100.598 375.338L98.6975 377.497C99.943 378.595 101.224 379.694 102.503 380.765ZM94.9731 374.135L96.9274 372.024C95.7288 370.915 94.5224 369.769 93.3419 368.619L91.3345 370.679C92.5325 371.846 93.757 373.009 94.9731 374.135ZM87.7833 367.133L89.8416 365.123C88.695 363.949 87.5473 362.743 86.4312 361.54L84.3226 363.497C85.4551 364.718 86.6198 365.941 87.7833 367.133ZM80.9534 359.775L83.1105 357.871C82.0266 356.643 80.941 355.38 79.8836 354.12L77.6797 355.968C78.7517 357.248 79.8532 358.528 80.9534 359.775ZM74.5008 352.079L76.7505 350.287C75.7293 349.006 74.7086 347.69 73.7157 346.377L71.4208 348.111C72.4279 349.444 73.4643 350.779 74.5008 352.079ZM68.4425 344.066L70.7809 342.39C69.819 341.048 68.8655 339.681 67.9465 338.329L65.5663 339.946C66.4983 341.318 67.4664 342.704 68.4425 344.066ZM62.7947 335.754L65.215 334.199C64.3265 332.816 63.4431 331.404 62.5891 329.998L60.1304 331.492C60.9974 332.919 61.8938 334.352 62.7947 335.754ZM57.5746 327.162L60.07 325.731C59.2538 324.309 58.4432 322.852 57.6592 321.402L55.1283 322.77C55.9236 324.241 56.7465 325.719 57.5746 327.162ZM52.795 318.314L55.3604 317.012C54.6131 315.541 53.8772 314.044 53.1728 312.564L50.5751 313.8C51.2897 315.303 52.0364 316.821 52.795 318.314ZM48.4695 309.23L51.0982 308.06C50.4277 306.554 49.7691 305.021 49.1394 303.504L46.4824 304.607C47.1207 306.146 47.7895 307.701 48.4695 309.23ZM44.6122 299.932L47.2975 298.898C46.7032 297.357 46.1237 295.792 45.573 294.246L42.863 295.211C43.4216 296.779 44.0101 298.368 44.6122 299.932ZM41.2346 290.445L43.9684 289.55C43.4561 287.985 42.9568 286.391 42.484 284.813L39.7282 285.638C40.2083 287.24 40.7149 288.857 41.2346 290.445ZM38.3506 280.81L41.1273 280.057C40.6969 278.473 40.2812 276.862 39.892 275.267L37.0972 275.95C37.492 277.568 37.914 279.203 38.3506 280.81ZM35.967 271.058L38.7781 270.448C38.4274 268.834 38.0941 267.203 37.7886 265.602L34.9633 266.141C35.2728 267.766 35.6106 269.42 35.967 271.058ZM34.0827 261.198L36.921 260.731C36.6549 259.116 36.4047 257.47 36.1788 255.84L33.3292 256.236C33.5591 257.889 33.8121 259.559 34.0827 261.198ZM32.7023 251.256L35.5609 250.932C35.3773 249.31 35.2107 247.655 35.0667 246.01L32.2013 246.261C32.3476 247.93 32.5159 249.61 32.7023 251.256ZM31.8262 241.256L34.6972 241.077C34.595 239.439 34.512 237.777 34.4516 236.137L31.5765 236.243C31.6381 237.907 31.7223 239.594 31.8262 241.256Z" fill="#CFD1D2" fill-opacity="0.15"/>
<path d="M229.562 426.864V423.987C228.745 423.987 227.928 423.982 227.113 423.973L227.08 426.849C227.906 426.859 228.733 426.864 229.562 426.864Z" fill="#CFD1D2" fill-opacity="0.15"/>
<path d="M439.497 228.499H442.374C442.374 226.859 442.355 225.19 442.318 223.537L439.441 223.602C439.479 225.233 439.497 226.881 439.497 228.499ZM439.274 218.706L442.148 218.575C442.074 216.932 441.978 215.265 441.865 213.62L438.995 213.818C439.106 215.441 439.2 217.085 439.274 218.706ZM438.603 208.936L441.467 208.673C441.317 207.035 441.145 205.374 440.956 203.736L438.098 204.065C438.285 205.681 438.454 207.32 438.603 208.936ZM437.481 199.207L440.33 198.811C440.106 197.195 439.857 195.543 439.591 193.903L436.751 194.364C437.014 195.983 437.259 197.612 437.481 199.207ZM435.908 189.54L438.737 189.012C438.434 187.388 438.108 185.75 437.77 184.144L434.954 184.737C435.288 186.321 435.609 187.937 435.908 189.54ZM433.887 179.957L436.687 179.298C436.309 177.692 435.907 176.071 435.493 174.479L432.709 175.204C433.118 176.774 433.514 178.373 433.887 179.957ZM431.42 170.479L434.187 169.69C433.736 168.107 433.259 166.506 432.769 164.932L430.022 165.786C430.505 167.339 430.975 168.918 431.42 170.479ZM428.507 161.11L431.234 160.192C430.704 158.617 430.15 157.035 429.589 155.489L426.885 156.472C427.438 157.996 427.984 159.556 428.507 161.11ZM425.154 151.874L427.834 150.829C427.235 149.293 426.609 147.74 425.971 146.212L423.316 147.319C423.945 148.826 424.563 150.359 425.154 151.874ZM421.373 142.81L424.001 141.64C423.331 140.135 422.633 138.613 421.925 137.117L419.324 138.348C420.022 139.823 420.711 141.325 421.373 142.81ZM417.172 133.936L419.744 132.645C419.006 131.177 418.238 129.691 417.46 128.226L414.919 129.576C415.688 131.022 416.446 132.488 417.172 133.936ZM412.565 125.271L415.073 123.862C414.269 122.431 413.432 120.982 412.587 119.556L410.113 121.022C410.946 122.43 411.772 123.859 412.565 125.271ZM407.561 116.834L410.001 115.309C409.132 113.918 408.229 112.51 407.318 111.125L404.914 112.705C405.813 114.072 406.703 115.461 407.561 116.834ZM402.172 108.641L404.539 107.005C403.605 105.655 402.638 104.29 401.666 102.951L399.338 104.642C400.298 105.963 401.251 107.308 402.172 108.641ZM396.412 100.708L398.7 98.9641C397.703 97.6571 396.675 96.3399 395.643 95.0487L393.396 96.8454C394.414 98.1185 395.429 99.4182 396.412 100.708ZM390.292 93.0537L392.497 91.2062C391.444 89.95 390.357 88.6819 389.264 87.4382L387.103 89.3354C388.18 90.5634 389.253 91.815 390.292 93.0537ZM383.828 85.6917L385.945 83.7436C384.824 82.5253 383.679 81.3092 382.542 80.1293L380.47 82.1254C381.593 83.2901 382.722 84.4898 383.828 85.6917ZM377.032 78.6387L379.058 76.5951C377.885 75.4333 376.686 74.272 375.494 73.1429L373.516 75.2322C374.692 76.3461 375.875 77.4921 377.032 78.6387ZM369.922 71.9082L371.85 69.7737C370.629 68.67 369.378 67.5658 368.132 66.4898L366.252 68.6683C367.483 69.7291 368.717 70.8192 369.922 71.9082ZM362.51 65.5149L364.338 63.2939C363.064 62.2451 361.763 61.1996 360.473 60.1863L358.697 62.4501C359.97 63.4487 361.253 64.4795 362.51 65.5149ZM354.814 59.4723L356.539 57.1695C355.224 56.1856 353.877 55.2011 352.536 54.2448L350.865 56.5872C352.188 57.5304 353.517 58.5014 354.814 59.4723ZM346.851 53.7935L348.467 51.4133C347.103 50.4876 345.712 49.5669 344.334 48.6779L342.774 51.0948C344.133 51.9725 345.505 52.8802 346.851 53.7935ZM338.637 48.4909L340.14 46.039C338.741 45.1804 337.31 44.3258 335.888 43.4984L334.441 45.9853C335.844 46.8009 337.256 47.6442 338.637 48.4909ZM330.189 43.5774L331.578 41.0577C330.139 40.2653 328.671 39.4785 327.214 38.7182L325.883 41.269C327.322 42.0196 328.771 42.7957 330.189 43.5774ZM321.527 39.0627L322.797 36.4815C321.32 35.7551 319.817 35.0372 318.331 34.3481L317.121 36.9588C318.588 37.6383 320.07 38.346 321.527 39.0627ZM312.669 34.9576L313.818 32.3198C312.307 31.6618 310.774 31.0151 309.26 30.3977L308.174 33.062C309.666 33.6703 311.179 34.308 312.669 34.9576ZM303.617 31.2641L304.641 28.5761C303.096 27.987 301.528 27.4109 299.982 26.863L299.021 29.5742C300.546 30.1142 302.092 30.6829 303.617 31.2641ZM294.387 27.9921L295.284 25.2589C293.725 24.7466 292.132 24.2444 290.551 23.7655L289.716 26.5184C291.277 26.9906 292.848 27.4866 294.387 27.9921ZM285.013 25.1549L285.782 22.3828C284.2 21.9439 282.585 21.5169 280.984 21.1125L280.28 23.9016C281.86 24.3004 283.453 24.7223 285.013 25.1549ZM275.518 22.7595L276.156 19.954C274.556 19.5897 272.924 19.2383 271.303 18.9091L270.73 21.7281C272.329 22.0535 273.94 22.4003 275.518 22.7595ZM265.921 20.8097L266.427 17.9776C264.799 17.6862 263.152 17.4111 261.532 17.1603L261.091 20.0037C262.689 20.2511 264.314 20.5222 265.921 20.8097ZM256.242 19.309L256.617 16.4566C254.988 16.2431 253.33 16.0448 251.689 15.868L251.38 18.7277C252.999 18.9023 254.635 19.0977 256.242 19.309ZM246.505 18.2589L246.747 15.3924C245.104 15.2535 243.439 15.132 241.797 15.0315L241.621 17.9025C243.241 18.0025 244.884 18.1217 246.505 18.2589ZM236.728 17.6597L236.839 14.7852C235.2 14.7225 233.533 14.6779 231.886 14.6514L231.84 17.528C233.467 17.5535 235.111 17.5975 236.728 17.6597Z" fill="#CFD1D2" fill-opacity="0.15"/>
</svg>
