<svg width="704" height="658" viewBox="0 0 704 658" fill="none" xmlns="http://www.w3.org/2000/svg">
<g opacity="0.5">
<mask id="path-1-inside-1_397_3148" fill="white">
<path d="M298.816 316.427C297.673 321.338 297.161 326.491 297.451 331.79C299.092 361.861 324.727 384.891 354.718 383.212C357.512 383.06 360.231 382.618 362.898 382.056C358.294 373.395 353.654 366.131 346.756 358.427L344.215 373.53C338.969 372.651 333.774 370.87 328.904 368.031C328.896 368.024 328.896 368.024 328.896 368.024L339.072 350.541C337.89 349.426 336.669 348.295 335.381 347.141L335.055 346.838C334.356 346.229 333.735 345.652 333.083 345.045L317.579 358.576C314.085 354.542 311.203 349.858 309.246 344.558L325.805 338.395C325.654 338.243 325.495 338.107 325.342 337.955C322.118 335 319.174 332.28 316.312 329.753L306.485 330.038C306.418 327.37 306.559 324.687 306.958 321.991C304.365 320.026 301.67 318.183 298.816 316.427ZM355.04 389.103C321.802 390.964 293.389 365.455 291.568 332.12C291.216 325.644 291.911 319.343 293.471 313.392C291.129 312.171 288.663 310.983 285.985 309.83C283.926 317.025 282.995 324.674 283.419 332.577C285.492 370.415 317.756 399.389 355.487 397.278C360.288 397.008 364.954 396.246 369.421 395.037C368.144 392.392 366.908 389.9 365.71 387.536C362.266 388.352 358.709 388.898 355.04 389.103ZM348.455 268.386C381.703 266.525 410.106 292.059 411.931 325.382C412.281 331.853 411.593 338.138 410.039 344.071C412.375 345.309 414.846 346.502 417.518 347.65C419.574 340.469 420.504 332.812 420.079 324.922C418.005 287.089 385.749 258.106 348.005 260.224C343.224 260.487 338.562 261.251 334.112 262.45C335.394 265.1 336.627 267.588 337.828 269.955C341.258 269.147 344.808 268.595 348.455 268.386ZM404.684 341.048C405.827 336.138 406.331 330.993 406.046 325.708C404.403 295.637 378.759 272.616 348.775 274.288C345.997 274.447 343.292 274.881 340.642 275.437C342.2 278.363 343.754 281.127 345.401 283.806C349.506 283.202 353.743 283.134 358.054 283.746L356.029 298.222C358.181 300.688 360.595 303.192 363.279 305.786L372.121 288.174C376.878 290.576 381.322 293.81 385.135 297.981C385.135 297.981 385.134 297.981 385.138 297.984L369.951 311.987C372.206 314.019 374.322 315.955 376.359 317.834L393.172 310.368C395.326 315.257 396.703 320.579 397.002 326.237L386.191 326.837C392.386 332.36 398.032 336.974 404.684 341.048ZM0.120325 8.09175C2.2638 10.5267 215.924 251.134 225.245 262.422C250.715 293.293 262.931 295.462 272.738 297.21C275.307 297.672 277.749 298.096 280.276 299.009C304.086 307.506 314.113 316.748 330.747 332.082C333.801 334.912 337.075 337.917 340.872 341.355C360.886 359.329 367.201 372.281 377.671 393.759L381.921 402.47C386.704 412.118 390.352 422.346 393.988 432.562C397.032 441.083 399.92 449.136 403.094 455.321C409.913 468.586 429.976 488.043 442.049 497.63C455.06 507.968 468.406 517.313 481.321 526.345C491.142 533.211 500.413 539.704 509.387 546.487C529.029 561.231 547.568 574.282 565.502 586.903L569.961 590.039C588.549 603.067 606.141 615.032 622.232 625.607C633.203 632.834 643.628 639.023 652.95 644.555L654.104 645.239C657.667 647.367 661.065 649.374 664.24 651.317C671.22 655.584 678.219 657.561 685.037 657.182C696.226 656.556 703.385 649.703 703.42 649.671L703.54 649.544L703.422 649.404C701.272 646.985 487.691 406.456 478.305 395.074C452.82 364.209 440.618 362.028 430.805 360.286C428.355 359.854 425.842 359.404 423.27 358.49C399.419 349.974 389.406 340.724 372.81 325.406C369.752 322.572 366.474 319.563 362.671 316.141C342.64 298.128 336.324 285.176 325.862 263.729L321.617 255.022C316.834 245.396 313.204 235.175 309.662 225.243C306.583 216.604 303.678 208.454 300.444 202.171C293.255 188.188 272.743 168.797 261.501 159.865C248.427 149.481 234.504 139.75 222.214 131.159C212.885 124.633 203.234 117.874 194.156 111.015C174.535 96.2817 156.047 83.2644 138.169 70.677L133.593 67.4462C115.103 54.494 97.5269 42.5223 81.3285 31.884C70.3434 24.6653 59.9255 18.4847 50.6139 12.9395C46.6131 10.5753 42.8329 8.31966 39.3248 6.17916C32.3289 1.91837 25.3301 -0.0583492 18.5124 0.320511C7.30114 0.946661 0.204578 7.77245 0.14404 7.82401L0.00952655 7.95853L0.120325 8.09175ZM363.414 331.905C367.706 331.735 371.435 335.083 371.752 339.391C371.895 341.462 371.233 343.445 369.883 344.965C368.523 346.498 366.608 347.385 364.547 347.454C360.251 347.619 356.519 344.268 356.202 339.983C355.893 335.683 359.128 332.058 363.414 331.905ZM339.019 309.999C343.311 309.829 347.052 313.189 347.362 317.489C347.513 319.568 346.839 321.563 345.481 323.075C344.112 324.619 342.229 325.494 340.158 325.575C335.872 325.728 332.12 322.381 331.807 318.077C331.495 313.796 334.727 310.167 339.019 309.999Z"/>
</mask>
<path d="M298.816 316.427C297.673 321.338 297.161 326.491 297.451 331.79C299.092 361.861 324.727 384.891 354.718 383.212C357.512 383.06 360.231 382.618 362.898 382.056C358.294 373.395 353.654 366.131 346.756 358.427L344.215 373.53C338.969 372.651 333.774 370.87 328.904 368.031C328.896 368.024 328.896 368.024 328.896 368.024L339.072 350.541C337.89 349.426 336.669 348.295 335.381 347.141L335.055 346.838C334.356 346.229 333.735 345.652 333.083 345.045L317.579 358.576C314.085 354.542 311.203 349.858 309.246 344.558L325.805 338.395C325.654 338.243 325.495 338.107 325.342 337.955C322.118 335 319.174 332.28 316.312 329.753L306.485 330.038C306.418 327.37 306.559 324.687 306.958 321.991C304.365 320.026 301.67 318.183 298.816 316.427ZM355.04 389.103C321.802 390.964 293.389 365.455 291.568 332.12C291.216 325.644 291.911 319.343 293.471 313.392C291.129 312.171 288.663 310.983 285.985 309.83C283.926 317.025 282.995 324.674 283.419 332.577C285.492 370.415 317.756 399.389 355.487 397.278C360.288 397.008 364.954 396.246 369.421 395.037C368.144 392.392 366.908 389.9 365.71 387.536C362.266 388.352 358.709 388.898 355.04 389.103ZM348.455 268.386C381.703 266.525 410.106 292.059 411.931 325.382C412.281 331.853 411.593 338.138 410.039 344.071C412.375 345.309 414.846 346.502 417.518 347.65C419.574 340.469 420.504 332.812 420.079 324.922C418.005 287.089 385.749 258.106 348.005 260.224C343.224 260.487 338.562 261.251 334.112 262.45C335.394 265.1 336.627 267.588 337.828 269.955C341.258 269.147 344.808 268.595 348.455 268.386ZM404.684 341.048C405.827 336.138 406.331 330.993 406.046 325.708C404.403 295.637 378.759 272.616 348.775 274.288C345.997 274.447 343.292 274.881 340.642 275.437C342.2 278.363 343.754 281.127 345.401 283.806C349.506 283.202 353.743 283.134 358.054 283.746L356.029 298.222C358.181 300.688 360.595 303.192 363.279 305.786L372.121 288.174C376.878 290.576 381.322 293.81 385.135 297.981C385.135 297.981 385.134 297.981 385.138 297.984L369.951 311.987C372.206 314.019 374.322 315.955 376.359 317.834L393.172 310.368C395.326 315.257 396.703 320.579 397.002 326.237L386.191 326.837C392.386 332.36 398.032 336.974 404.684 341.048ZM0.120325 8.09175C2.2638 10.5267 215.924 251.134 225.245 262.422C250.715 293.293 262.931 295.462 272.738 297.21C275.307 297.672 277.749 298.096 280.276 299.009C304.086 307.506 314.113 316.748 330.747 332.082C333.801 334.912 337.075 337.917 340.872 341.355C360.886 359.329 367.201 372.281 377.671 393.759L381.921 402.47C386.704 412.118 390.352 422.346 393.988 432.562C397.032 441.083 399.92 449.136 403.094 455.321C409.913 468.586 429.976 488.043 442.049 497.63C455.06 507.968 468.406 517.313 481.321 526.345C491.142 533.211 500.413 539.704 509.387 546.487C529.029 561.231 547.568 574.282 565.502 586.903L569.961 590.039C588.549 603.067 606.141 615.032 622.232 625.607C633.203 632.834 643.628 639.023 652.95 644.555L654.104 645.239C657.667 647.367 661.065 649.374 664.24 651.317C671.22 655.584 678.219 657.561 685.037 657.182C696.226 656.556 703.385 649.703 703.42 649.671L703.54 649.544L703.422 649.404C701.272 646.985 487.691 406.456 478.305 395.074C452.82 364.209 440.618 362.028 430.805 360.286C428.355 359.854 425.842 359.404 423.27 358.49C399.419 349.974 389.406 340.724 372.81 325.406C369.752 322.572 366.474 319.563 362.671 316.141C342.64 298.128 336.324 285.176 325.862 263.729L321.617 255.022C316.834 245.396 313.204 235.175 309.662 225.243C306.583 216.604 303.678 208.454 300.444 202.171C293.255 188.188 272.743 168.797 261.501 159.865C248.427 149.481 234.504 139.75 222.214 131.159C212.885 124.633 203.234 117.874 194.156 111.015C174.535 96.2817 156.047 83.2644 138.169 70.677L133.593 67.4462C115.103 54.494 97.5269 42.5223 81.3285 31.884C70.3434 24.6653 59.9255 18.4847 50.6139 12.9395C46.6131 10.5753 42.8329 8.31966 39.3248 6.17916C32.3289 1.91837 25.3301 -0.0583492 18.5124 0.320511C7.30114 0.946661 0.204578 7.77245 0.14404 7.82401L0.00952655 7.95853L0.120325 8.09175ZM363.414 331.905C367.706 331.735 371.435 335.083 371.752 339.391C371.895 341.462 371.233 343.445 369.883 344.965C368.523 346.498 366.608 347.385 364.547 347.454C360.251 347.619 356.519 344.268 356.202 339.983C355.893 335.683 359.128 332.058 363.414 331.905ZM339.019 309.999C343.311 309.829 347.052 313.189 347.362 317.489C347.513 319.568 346.839 321.563 345.481 323.075C344.112 324.619 342.229 325.494 340.158 325.575C335.872 325.728 332.12 322.381 331.807 318.077C331.495 313.796 334.727 310.167 339.019 309.999Z" stroke="white" stroke-width="6" stroke-dasharray="22 22" mask="url(#path-1-inside-1_397_3148)"/>
</g>
</svg>
