<svg width="182" height="26" viewBox="0 0 182 26" fill="none" xmlns="http://www.w3.org/2000/svg">
<path d="M14.9888 5.27051L12.9562 9.26503L10.9238 5.27051H14.9888Z" fill="white"/>
<path d="M24.4473 2.25293L23.2039 4.17346H2.70814L1.46484 2.25293H24.4473Z" fill="white"/>
<path d="M12.3975 20.7321V23.6597L10.607 21.9226L9.69868 9.26503L8.54474 7.26966H6.24054L4.81484 7.9248L3.2998 5.27051H9.69868L11.7758 9.26503V11.0059L12.3044 11.6161L12.0401 16.2808L11.6083 16.9809L12.3975 20.7321Z" fill="white"/>
<path d="M13.5146 20.7321V23.6597L15.3015 21.9226L16.2135 9.26503L17.3637 7.26966H19.6678L21.0936 7.9248L22.6123 5.27051H16.2135L14.1363 9.26503V11.0059L13.604 11.6161L13.8683 16.2808L14.3038 16.9809L13.5146 20.7321Z" fill="white"/>
<mask id="mask0_434_1514" style="mask-type:luminance" maskUnits="userSpaceOnUse" x="26" y="0" width="155" height="26">
<path d="M180.535 0H26.7139V26H180.535V0Z" fill="white"/>
</mask>
<g mask="url(#mask0_434_1514)">
<path d="M34.1278 23.5738V5.51577H27.3711V2.58999H44.3255V5.51577H37.5688V23.5738H34.1278ZM45.2806 23.5738V9.22805C45.5517 9.06026 46.0522 8.82956 46.7821 8.53593C47.512 8.2423 48.3774 7.99062 49.3784 7.78089C50.3794 7.55018 51.3909 7.43483 52.4127 7.43483C52.9341 7.43483 53.3616 7.47678 53.6953 7.56067C54.0289 7.64456 54.3105 7.73894 54.5399 7.84381V10.4865C54.0602 10.4235 53.5597 10.3816 53.0384 10.3606C52.517 10.3187 51.9956 10.3187 51.4743 10.3606C50.9529 10.3816 50.442 10.4235 49.9415 10.4865C49.441 10.5494 48.9822 10.6123 48.5651 10.6752V23.5738H45.2806ZM57.8686 23.5738V7.87527H61.1531L61.1844 23.5738H57.8686ZM57.7747 5.26409V2.27539H61.2782V5.26409H57.7747ZM65.9005 9.07075C66.3593 8.84004 66.8703 8.63031 67.4333 8.44155C68.0172 8.23182 68.6324 8.05354 69.2789 7.90673C69.9254 7.75992 70.5823 7.64456 71.2496 7.56067C71.917 7.47678 72.5635 7.43483 73.1891 7.43483C74.6697 7.43483 75.8793 7.64456 76.8177 8.06403C77.7561 8.46252 78.4548 9.09172 78.9135 9.95163C79.3723 10.7906 79.6017 11.8497 79.6017 13.1291V23.5738H76.3172V13.5695C76.3172 13.171 76.2651 12.783 76.1608 12.4055C76.0774 12.007 75.9001 11.6505 75.629 11.3359C75.3788 11.0003 75.0034 10.7381 74.5029 10.5494C74.0232 10.3606 73.3872 10.2662 72.5947 10.2662C72.0317 10.2662 71.4478 10.3187 70.843 10.4235C70.2591 10.5284 69.7064 10.6752 69.1851 10.864V23.5738H65.9005V9.07075ZM84.2294 9.07075C84.6882 8.84004 85.1991 8.63031 85.7622 8.44155C86.3459 8.23182 86.9612 8.05354 87.6075 7.90673C88.2547 7.75992 88.9113 7.64456 89.5783 7.56067C90.2461 7.47678 90.8925 7.43483 91.5181 7.43483C92.9986 7.43483 94.2084 7.64456 95.1469 8.06403C96.0853 8.46252 96.7833 9.09172 97.2426 9.95163C97.7011 10.7906 97.9303 11.8497 97.9303 13.1291V23.5738H94.6462V13.5695C94.6462 13.171 94.5936 12.783 94.4894 12.4055C94.4066 12.007 94.2291 11.6505 93.9577 11.3359C93.7078 11.0003 93.332 10.7381 92.8314 10.5494C92.3522 10.3606 91.7163 10.2662 90.9235 10.2662C90.3608 10.2662 89.7765 10.3187 89.1716 10.4235C88.5882 10.5284 88.0349 10.6752 87.5136 10.864V23.5738H84.2294V9.07075ZM109.284 24.0457C106.74 24.0457 104.841 23.3221 103.59 21.875C102.361 20.4278 101.745 18.3619 101.745 15.6774C101.745 12.825 102.381 10.7381 103.653 9.41681C104.946 8.07452 106.802 7.40337 109.221 7.40337C110.952 7.40337 112.381 7.72846 113.506 8.37863C114.633 9.00783 115.467 9.94114 116.009 11.1786C116.552 12.416 116.822 13.9156 116.822 15.6774C116.822 18.341 116.166 20.4068 114.851 21.875C113.559 23.3221 111.703 24.0457 109.284 24.0457ZM109.253 21.2458C110.316 21.2458 111.161 21.0151 111.786 20.5536C112.412 20.0713 112.86 19.4106 113.131 18.5717C113.424 17.7327 113.569 16.768 113.569 15.6774C113.569 14.4609 113.424 13.4437 113.131 12.6257C112.839 11.8078 112.381 11.1995 111.755 10.8011C111.13 10.3816 110.295 10.1719 109.253 10.1719C108.21 10.1719 107.376 10.3921 106.75 10.8325C106.125 11.273 105.676 11.9022 105.405 12.7201C105.134 13.5381 104.998 14.5238 104.998 15.6774C104.998 17.4181 105.321 18.7814 105.968 19.7672C106.614 20.7529 107.709 21.2458 109.253 21.2458ZM124.86 23.5738L118.259 7.78089H121.763L127.143 20.8997L126.361 20.9941L131.366 7.78089H134.776L128.144 23.5738H124.86ZM143.107 24.0457C142.294 24.0457 141.511 23.9618 140.761 23.794C140.01 23.6472 139.322 23.3851 138.696 23.0075C138.092 22.63 137.601 22.1162 137.226 21.466C136.872 20.7948 136.694 19.9664 136.694 18.9806C136.694 17.8061 136.923 16.8414 137.383 16.0863C137.841 15.3313 138.498 14.765 139.353 14.3875C140.208 14.01 141.23 13.8212 142.419 13.8212C143.211 13.8212 143.92 13.8841 144.545 14.01C145.193 14.1358 145.766 14.3141 146.266 14.5448C146.788 14.7545 147.225 14.9957 147.58 15.2684L147.924 17.4391C147.465 17.1245 146.851 16.8623 146.078 16.6526C145.307 16.4219 144.473 16.3066 143.576 16.3066C142.388 16.3066 141.48 16.5163 140.855 16.9358C140.25 17.3552 139.947 17.9844 139.947 18.8233C139.947 19.4525 140.125 19.9664 140.479 20.3649C140.834 20.7424 141.272 21.0256 141.793 21.2143C142.335 21.3821 142.899 21.466 143.482 21.466C144.713 21.466 145.62 21.3821 146.203 21.2143C146.788 21.0465 147.08 20.6585 147.08 20.0503V13.4437C147.08 12.3321 146.746 11.5246 146.078 11.0213C145.411 10.4969 144.463 10.2348 143.232 10.2348C142.356 10.2348 141.449 10.3816 140.511 10.6752C139.572 10.9479 138.8 11.3359 138.196 11.8392V8.75615C138.779 8.35766 139.624 8.04306 140.73 7.81235C141.856 7.56067 143.013 7.43483 144.202 7.43483C144.786 7.43483 145.369 7.49775 145.953 7.62359C146.558 7.72846 147.121 7.90673 147.643 8.15841C148.164 8.38912 148.623 8.7142 149.019 9.13367C149.436 9.53216 149.759 10.025 149.989 10.6123C150.218 11.1995 150.333 11.8917 150.333 12.6887V20.2391C150.333 21.2667 150.01 22.0637 149.363 22.63C148.738 23.1753 147.882 23.5424 146.798 23.7311C145.714 23.9408 144.483 24.0457 143.107 24.0457ZM160.548 23.9828C159.13 23.9828 158.003 23.6053 157.169 22.8502C156.356 22.0952 155.949 20.9836 155.949 19.5155V10.5179H153.415V7.78089H155.949V3.37649H159.328V7.78089H163.144V10.5179H159.328V18.8548C159.328 19.5889 159.453 20.1447 159.703 20.5222C159.974 20.8787 160.464 21.057 161.174 21.057C161.528 21.057 161.882 21.0151 162.237 20.9312C162.591 20.8263 162.894 20.7005 163.144 20.5536V23.4794C162.769 23.6472 162.341 23.7731 161.861 23.857C161.403 23.9408 160.965 23.9828 160.548 23.9828ZM173.71 24.0457C172.167 24.0457 170.823 23.7311 169.676 23.1019C168.549 22.4727 167.673 21.5394 167.047 20.302C166.443 19.0645 166.141 17.5545 166.141 15.7717C166.141 13.0242 166.777 10.9479 168.049 9.54265C169.341 8.11646 171.135 7.40337 173.429 7.40337C175.118 7.40337 176.484 7.78089 177.527 8.53593C178.57 9.29097 179.32 10.3501 179.779 11.7134C180.259 13.0557 180.488 14.6287 180.467 16.4324H168.111L168.018 13.9785H177.965L177.183 14.765C177.12 13.1501 176.787 11.9756 176.182 11.2415C175.577 10.4865 174.628 10.1089 173.335 10.1089C172.501 10.1089 171.792 10.2872 171.208 10.6438C170.624 10.9793 170.175 11.5666 169.863 12.4055C169.571 13.2235 169.425 14.356 169.425 15.8032C169.425 17.5649 169.831 18.9072 170.645 19.8301C171.458 20.7319 172.657 21.1828 174.242 21.1828C174.951 21.1828 175.608 21.1199 176.213 20.9941C176.838 20.8682 177.412 20.711 177.934 20.5222C178.455 20.3125 178.903 20.1132 179.279 19.9245V22.9761C178.549 23.2907 177.725 23.5424 176.807 23.7311C175.89 23.9408 174.857 24.0457 173.71 24.0457Z" fill="white"/>
</g>
</svg>
