<svg width="35" height="33" viewBox="0 0 35 33" fill="none" xmlns="http://www.w3.org/2000/svg">
<path d="M20.2161 4.51074L17.1778 10.482L14.1396 4.51074H20.2161Z" fill="white"/>
<path d="M34.3554 0L32.4968 2.87092H1.85855L0 0H34.3554Z" fill="white"/>
<path d="M16.5997 28.1128V32.4892L13.9231 29.8925L12.5654 10.9712L10.8404 7.98844H7.39597L5.26476 8.96779L3 5H12.5654L15.6704 10.9712V13.5736L16.4606 14.4858L16.0655 21.4588L15.42 22.5053L16.5997 28.1128Z" fill="white"/>
<path d="M18.0127 27.6236V31.9999L20.6837 29.4032L22.047 10.482L23.7665 7.49918H27.2108L29.3421 8.47854L31.6124 4.51074H22.047L18.942 10.482V13.0843L18.1463 13.9965L18.5414 20.9695L19.1924 22.0161L18.0127 27.6236Z" fill="white"/>
</svg>
