<svg width="84" height="84" viewBox="0 0 84 84" fill="none" xmlns="http://www.w3.org/2000/svg">
<path d="M42.9327 49.1309H39.1504V53.4507H42.9327V49.1309Z" fill="white"/>
<path d="M8.48859 34.2899C8.48295 34.2899 8.47731 34.2891 8.47168 34.2891V40.4885H10.8486C10.8375 40.3787 10.8317 40.2672 10.8317 40.1545V34.2899H8.48859Z" fill="white"/>
<path d="M37.7845 49.1309H27.9766V53.4507H37.7845V49.1309Z" fill="white"/>
<path d="M42.9328 43.4434H22.8281V47.7632H42.9328V43.4434Z" fill="white"/>
<path d="M53.5635 40.1558V31.0684H7.50195V31.9377C7.50195 32.4821 7.94492 32.9251 8.48932 32.9251H11.5155C11.8927 32.9251 12.1985 33.2309 12.1985 33.6081V40.1558C12.1985 41.2161 13.061 42.0786 14.1213 42.0786H51.6405C52.701 42.0788 53.5635 41.2161 53.5635 40.1558Z" fill="#C6D5FA"/>
<path d="M53.5632 11.514C53.5632 9.7811 52.1534 8.37109 50.4203 8.37109H15.3412C13.6083 8.37109 12.1982 9.78093 12.1982 11.514V23.5509H53.5632V11.514Z" fill="#C6D5FA"/>
<path d="M45.9817 2.82169C45.9817 1.44993 44.8658 0.333984 43.4938 0.333984H22.2672C20.8954 0.333984 19.7793 1.44993 19.7793 2.82169V7.00543H45.9817V2.82169Z" fill="white"/>
<path d="M49.7378 4.77003C49.7378 4.07297 49.1707 3.50586 48.4736 3.50586H47.3486V7.00654H49.7378V4.77003Z" fill="white"/>
<path d="M42.9328 54.8164H22.8281V59.1362H42.9328V54.8164Z" fill="white"/>
<path d="M26.6104 49.1309H22.8281V53.4507H26.6104V49.1309Z" fill="white"/>
<path d="M0.333008 66.9877V73.743C0.333008 74.8031 1.01334 75.7266 2.0258 76.0409L4.68326 76.8657V63.8652L2.02598 64.69C1.01334 65.0041 0.333008 65.9276 0.333008 66.9877Z" fill="white"/>
<path d="M6.81869 29.702H58.9429C59.4542 29.702 59.87 29.2861 59.87 28.775V25.8451C59.87 25.334 59.4542 24.918 58.9429 24.918H6.81869C6.30742 24.918 5.8916 25.334 5.8916 25.8451V28.775C5.89177 29.2861 6.30759 29.702 6.81869 29.702Z" fill="white"/>
<path d="M56.9093 60.1348H50.1748V80.5957H56.9093C58.4549 80.5957 59.7122 79.3383 59.7122 77.7927V62.9377C59.7122 61.3923 58.4549 60.1348 56.9093 60.1348Z" fill="white"/>
<path d="M63.7356 64.69L61.0781 63.8652V76.8657L63.7356 76.0409C64.748 75.7267 65.4284 74.8032 65.4284 73.743V66.9877C65.4284 65.9277 64.748 65.0042 63.7356 64.69Z" fill="white"/>
<path d="M22.2513 60.502L16.9521 62.1987V78.5335L24.0083 80.7928C22.4173 78.8302 21.4617 76.3326 21.4617 73.6152C21.4617 67.3191 26.584 62.1968 32.8803 62.1968C39.1764 62.1968 44.2987 67.3191 44.2987 73.6152C44.2987 76.3326 43.3429 78.8302 41.7521 80.7928L48.8083 78.5335V62.1987L43.5091 60.502H22.2513Z" fill="#C6D5FA"/>
<path d="M7.10527 33.8378C6.84417 33.6472 6.62405 33.4047 6.4596 33.125H5.34792C3.11124 33.125 1.50895 34.3634 0.582031 36.8074C1.50895 39.2514 3.11141 40.4898 5.34792 40.4898H7.10527V33.8378Z" fill="white"/>
<path d="M32.8806 63.5625C27.3377 63.5625 22.8281 68.0719 22.8281 73.6148C22.8281 79.1576 27.3377 83.667 32.8806 83.667C38.4234 83.667 42.9328 79.1576 42.9328 73.6148C42.9328 68.0719 38.4234 63.5625 32.8806 63.5625ZM32.8806 79.8829C29.4188 79.8829 26.6125 77.0765 26.6125 73.6148C26.6125 70.153 29.4188 67.3467 32.8806 67.3467C36.3423 67.3467 39.1487 70.153 39.1487 73.6148C39.1487 77.0765 36.3423 79.8829 32.8806 79.8829Z" fill="white"/>
<path d="M6.0498 62.9377V77.7927C6.0498 79.3383 7.30715 80.5957 8.85275 80.5957H15.5872V60.1348H8.85275C7.30715 60.1348 6.0498 61.3923 6.0498 62.9377Z" fill="white"/>
<path d="M70.3604 32.7832C63.0236 32.7832 57.0547 38.7521 57.0547 46.0887C57.0547 53.4253 63.0236 59.3944 70.3604 59.3944C77.6971 59.3944 83.6659 53.4256 83.6659 46.0889C83.6659 38.7521 77.697 32.7832 70.3604 32.7832ZM70.3602 54.8081C68.9444 54.8081 67.7967 53.6604 67.7967 52.2446C67.7967 50.8288 68.9444 49.6811 70.3602 49.6811C71.776 49.6811 72.9237 50.8288 72.9237 52.2446C72.9239 53.6604 71.776 54.8081 70.3602 54.8081ZM77.2953 48.6486C77.1736 48.7381 77.0318 48.7813 76.8915 48.7813C76.6818 48.7813 76.4751 48.6852 76.3411 48.5037C76.2491 48.3804 74.2139 45.7157 70.3602 45.7157C66.4992 45.7157 64.4635 48.3904 64.3788 48.5043C64.1541 48.8063 63.7267 48.8703 63.4241 48.6466C63.1215 48.4227 63.0562 47.9972 63.2791 47.6939C63.3793 47.5573 65.7883 44.3498 70.3602 44.3498C74.9321 44.3498 77.3409 47.5573 77.4413 47.6939C77.6647 47.9979 77.5993 48.4254 77.2953 48.6486ZM79.6799 43.1652C79.4856 43.1652 79.2926 43.0827 79.1575 42.9227C79.1179 42.8763 76.0419 39.3406 70.3604 39.3406C64.6701 39.3406 61.5933 42.887 61.5629 42.9229C61.319 43.2099 60.8884 43.2463 60.6008 43.0033C60.3131 42.7603 60.2758 42.331 60.518 42.0428C60.6575 41.8766 64.0093 37.9745 70.3602 37.9745C76.7111 37.9745 80.0628 41.8766 80.2024 42.0428C80.4451 42.3315 80.4077 42.7625 80.1189 43.0052C79.9909 43.1128 79.835 43.1652 79.6799 43.1652Z" fill="#FFF3C2"/>
</svg>
