<svg width="147" height="94" viewBox="0 0 147 94" fill="none" xmlns="http://www.w3.org/2000/svg">
<path d="M89.5605 70.3116L100.362 77.4208L101.948 76.3224C101.948 76.3224 101.521 70.4946 98.2259 65.1855L96.3037 65.6737C97.9513 68.0232 99.2939 70.3116 99.5379 73.5763L92.2151 69.4572L89.5605 70.3116Z" fill="#D00000"/>
<path d="M92.8556 73.2389L100.362 77.4191C100.362 77.4191 100.27 71.4692 96.9442 66.1602L96.2424 66.7094C97.8901 69.0588 98.6223 71.9269 98.8664 75.1917L92.2148 71.4692L92.8556 73.2389Z" fill="white"/>
<path d="M62.038 56.1504C56.0882 62.5884 49.9553 71.3148 48.4297 80.5905L71.5577 93.8327L73.1138 92.7342C72.29 83.123 73.1138 74.3355 78.4839 67.928C77.9652 68.3857 77.9347 67.4398 77.477 67.928C72.7782 72.993 70.0016 81.1397 71.2221 90.1102L51.5419 78.7292C53.0675 70.9792 56.973 63.6563 62.9229 56.9742L62.038 56.1504Z" fill="#D00000"/>
<path d="M60.4819 57.25C54.5321 63.688 49.9553 71.316 48.4297 80.5917L71.5577 93.8338C70.7339 84.2226 71.5577 75.4351 76.9278 69.0276C76.4091 69.4853 76.3786 68.5394 75.9209 69.0276C71.2221 74.0926 69.0252 82.5749 70.2762 91.576L49.9858 79.7983C51.5114 72.0483 55.4169 64.7559 61.3667 58.0738L60.4819 57.25Z" fill="white"/>
<path d="M83.215 62.6216C82.6353 62.1029 81.5369 62.1334 80.1333 62.8962C77.7229 64.1777 75.343 67.0153 74.8243 69.2427C74.6107 70.1581 74.7632 70.8293 75.1599 71.226L86.2357 81.6306C85.8391 81.2644 85.717 80.5931 85.9306 79.6473C86.4493 77.4199 88.7987 74.5823 91.2092 73.3008C92.6432 72.5685 93.7417 72.5075 94.3214 73.0567L83.215 62.6216Z" fill="black"/>
<path d="M91.2089 73.3013C93.6193 72.0198 95.1449 72.7826 94.6262 75.01C94.138 77.2374 91.7581 80.075 89.3477 81.3565C86.9372 82.638 85.4116 81.8752 85.9303 79.6478C86.449 77.4205 88.7984 74.5828 91.2089 73.3013Z" fill="#D00000"/>
<path d="M93.5867 74.128C93.1595 73.7008 92.3052 73.7618 91.2067 74.3111C89.376 75.318 87.5453 77.4843 87.1487 79.193C86.9961 79.8947 87.0876 80.4134 87.4233 80.6881L88.8878 82.0916C88.5827 81.7865 88.4607 81.2983 88.6437 80.566C89.0404 78.8573 90.8406 76.691 92.7018 75.7146C93.7698 75.1349 94.6241 75.1044 95.0512 75.501L93.5867 74.128Z" fill="black"/>
<path d="M92.7012 75.7138C94.5319 74.7374 95.7219 75.3172 95.3252 77.0259C94.9286 78.7345 93.0979 80.9009 91.2672 81.8773C89.4059 82.8841 88.2465 82.2739 88.6431 80.5652C89.0398 78.8566 90.84 76.6902 92.7012 75.7138Z" fill="#D00000"/>
<path d="M94.4105 76.2905C94.0748 75.9854 93.4646 76.0159 92.6408 76.4431C91.2677 77.1754 89.9252 78.7925 89.6201 80.074C89.498 80.5927 89.5896 80.9894 89.8032 81.2029L92.7628 83.9795C92.5492 83.7659 92.4577 83.3693 92.5798 82.8506C92.8849 81.5691 94.2274 79.952 95.6004 79.2197C96.4243 78.7925 97.0345 78.762 97.3701 79.0671L94.4105 76.2905Z" fill="black"/>
<path d="M91.1465 78.4586L93.3433 80.3808C93.5671 80.1164 93.8214 79.8621 94.1061 79.618L91.9398 77.6348C91.6652 77.8789 91.3906 78.1535 91.1465 78.4586Z" fill="black"/>
<path d="M95.6014 79.2204C96.9745 78.4881 97.8593 78.9153 97.5542 80.1968C97.2796 81.4783 95.9066 83.0954 94.5335 83.8277C93.1605 84.56 92.2756 84.1328 92.5808 82.8513C92.8859 81.5698 94.2284 79.9527 95.6014 79.2204Z" fill="#D00000"/>
<path d="M95.3885 80.1328C96.2123 79.6751 96.7615 79.9497 96.5784 80.7125C96.3953 81.4753 95.5715 82.4822 94.7477 82.9094C93.9239 83.3671 93.3747 83.0925 93.5577 82.3297C93.7408 81.5669 94.5646 80.56 95.3885 80.1328Z" fill="black"/>
<path d="M68.4141 24.4189H69.543C69.6956 23.9917 70.0617 23.5646 70.6414 23.2289C72.2586 22.2831 74.8521 22.2831 76.4692 23.2289C77.0489 23.5646 77.4456 23.9917 77.5982 24.4189H78.6966L77.1405 26.036C76.9574 26.2394 76.7337 26.4225 76.4692 26.5852C74.8521 27.5006 72.2586 27.5006 70.6414 26.5852C70.377 26.4225 70.1532 26.2394 69.9702 26.036L68.4141 24.4189Z" fill="black"/>
<path d="M69.2692 18.5306C69.3099 18.5103 69.3506 18.4798 69.3913 18.4391C71.6797 17.1271 75.4326 17.1271 77.721 18.4391C77.7617 18.4798 77.8024 18.5103 77.8431 18.5306H79.4602V22.7718C79.4602 23.6566 78.8805 24.511 77.721 25.1822C75.4326 26.5248 71.6797 26.5248 69.3913 25.1822C68.2318 24.511 67.6826 23.6566 67.6826 22.7718V18.5306H69.2692Z" fill="#D00000"/>
<path d="M69.3911 16.1221C67.1027 17.4341 67.1027 19.6005 69.3911 20.9125C71.6795 22.255 75.4325 22.255 77.7209 20.9125C80.0092 19.6005 80.0092 17.4341 77.7209 16.1221C75.4325 14.7796 71.6795 14.7796 69.3911 16.1221Z" fill="white"/>
<path d="M70.3064 16.701C70.3268 16.6806 70.3573 16.6603 70.3979 16.6399C72.1371 15.633 74.9747 15.633 76.7139 16.6399C76.7546 16.6603 76.7851 16.6806 76.8055 16.701H78.0259V18.3791C78.0259 19.0504 77.5988 19.6911 76.7139 20.2098C74.9747 21.2167 72.1371 21.2167 70.3979 20.2098C69.5131 19.6911 69.0859 19.0504 69.0859 18.3791V16.701H70.3064Z" fill="black"/>
<path d="M70.3981 14.8685C68.659 15.8753 68.659 17.4925 70.3981 18.4994C72.1373 19.5368 74.9749 19.5368 76.7141 18.4994C78.4838 17.4925 78.4838 15.8753 76.7141 14.8685C74.9749 13.8616 72.1373 13.8616 70.3981 14.8685Z" fill="white"/>
<path d="M72.2589 13.8632C72.2589 13.8428 72.2691 13.8326 72.2894 13.8326C72.9912 13.436 74.1202 13.436 74.8524 13.8326C74.8524 13.8326 74.8626 13.8428 74.883 13.8632H75.3712V16.5482C75.3712 16.7923 75.1881 17.0669 74.8524 17.2805C74.1202 17.6772 72.9912 17.6772 72.2894 17.2805C71.9233 17.0669 71.7402 16.7923 71.7402 16.5482V13.8632H72.2589Z" fill="black"/>
<path d="M72.2894 13.1002C71.5572 13.5274 71.5572 14.1987 72.2894 14.5953C72.9912 14.992 74.1202 14.992 74.8524 14.5953C75.5542 14.1987 75.5542 13.5274 74.8524 13.1002C74.1202 12.7036 72.9912 12.7036 72.2894 13.1002Z" fill="black"/>
<path d="M115.983 51.8816H117.082C117.234 51.4239 117.631 51.0273 118.211 50.6611C119.828 49.7458 122.421 49.7458 124.039 50.6611C124.618 51.0273 124.984 51.4239 125.137 51.8816H126.266L124.71 53.4987C124.527 53.6818 124.303 53.8547 124.039 54.0174C122.421 54.9633 119.828 54.9633 118.211 54.0174C117.946 53.8547 117.723 53.6818 117.539 53.4987L115.983 51.8816Z" fill="black"/>
<path d="M116.838 45.961C116.879 45.9407 116.919 45.9204 116.96 45.9C119.248 44.588 122.971 44.588 125.29 45.9C125.33 45.9204 125.361 45.9407 125.381 45.961H126.998V50.2327C126.998 51.1176 126.419 51.9719 125.29 52.6432C122.971 53.9552 119.248 53.9552 116.96 52.6432C115.8 51.9719 115.221 51.1176 115.221 50.2327V45.961H116.838Z" fill="#D00000"/>
<path d="M116.96 43.5811C114.672 44.8931 114.672 47.0595 116.96 48.3715C119.249 49.714 122.971 49.714 125.29 48.3715C127.579 47.0595 127.579 44.8931 125.29 43.5811C122.971 42.2386 119.249 42.2386 116.96 43.5811Z" fill="white"/>
<path d="M117.875 44.1289C117.895 44.1085 117.926 44.0984 117.966 44.0984C119.705 43.061 122.543 43.061 124.282 44.0984C124.303 44.0984 124.333 44.1085 124.374 44.1289H125.594V45.8375C125.594 46.4783 125.167 47.1496 124.282 47.6683C122.543 48.6752 119.705 48.6752 117.966 47.6683C117.081 47.1496 116.654 46.4783 116.654 45.8375V44.1289H117.875Z" fill="black"/>
<path d="M117.967 42.3001C116.197 43.307 116.197 44.9546 117.967 45.9615C119.706 46.9684 122.544 46.9684 124.283 45.9615C126.022 44.9546 126.022 43.307 124.283 42.3001C122.544 41.2932 119.706 41.2932 117.967 42.3001Z" fill="white"/>
<path d="M119.798 41.293C119.818 41.293 119.828 41.293 119.828 41.293C120.561 40.8659 121.69 40.8659 122.391 41.293C122.412 41.293 122.422 41.293 122.422 41.293H122.94V43.9781C122.94 44.2527 122.757 44.5273 122.391 44.7104C121.69 45.1375 120.561 45.1375 119.828 44.7104C119.493 44.5273 119.31 44.2527 119.31 43.9781V41.293H119.798Z" fill="black"/>
<path d="M119.828 40.5612C119.126 40.9578 119.126 41.6291 119.828 42.0562C120.56 42.4529 121.689 42.4529 122.391 42.0562C123.093 41.6291 123.093 40.9578 122.391 40.5612C121.689 40.1645 120.56 40.1645 119.828 40.5612Z" fill="black"/>
<path d="M68.2324 38.4565C68.2629 38.243 70.5208 23.17 70.5208 23.17L71.6803 22.5293H75.0976L76.0435 23.2921L78.8811 41.9349L68.2324 38.4565Z" fill="#D00000"/>
<path d="M71.6793 22.5293L69.6045 38.0599L77.8732 40.5924L75.0966 22.5293H71.6793Z" fill="black"/>
<path d="M93.1604 52.3383L115.8 50.2635V49.2261L115.221 47.5784L115.037 45.6867L81.2607 42.666L89.621 52.7044L93.1604 52.3383Z" fill="#D00000"/>
<path d="M62.8619 61.9183C62.7093 61.9183 57.7664 56.8838 57.7664 56.8838L51.2979 49.3168L51.6335 43.7026L53.8609 39.3699L59.8717 35.7695H71.6798L88.0647 45.4113L89.8954 46.4792L90.2311 47.7607L91.7262 49.5914L93.0077 50.6289L100.788 62.8642L98.988 65.5492L89.1937 71.2244L83.3964 70.7362L69.8796 66.1594L62.8619 61.9183Z" fill="black"/>
<path d="M51.5725 44.9238L62.6178 47.853L69.3609 51.6365L77.8737 57.4642L91.1769 68.5096L89.1937 71.2251L72.7172 65.5194L57.7664 56.8845L51.2979 49.3176L51.5725 44.9238Z" fill="#D00000"/>
<path d="M88.0645 45.4141L99.1403 62.1956L100.788 62.8669L93.0074 50.6316L91.7259 49.5942L90.2308 47.7635L89.8952 46.482L88.0645 45.4141Z" fill="#D00000"/>
<path d="M62.8621 61.9173L57.7666 56.8828L72.7174 65.5177L89.1939 71.2234L83.3966 70.7352L69.8798 66.1584L62.8621 61.9173Z" fill="black"/>
<path d="M94.4109 64.7564L91.1766 68.5093L89.1934 71.2249L98.9877 65.5497L100.788 62.8646L99.1402 62.1934L94.4109 64.7564Z" fill="black"/>
<path d="M53.8613 39.3699L60.2078 42.5127L76.0435 52.1545L94.4117 64.7559L99.141 62.1929L88.0652 45.4113L71.6803 35.7695H59.8722L53.8613 39.3699Z" fill="white"/>
<path d="M96.7003 61.5833L91.5743 53.8027L85.6855 56.7014L94.534 62.7732L96.7003 61.5833Z" fill="black"/>
<path d="M68.2324 53.0098L69.3614 51.6367L74.7009 55.1761L76.9283 55.5117L77.8742 57.4645L76.0435 73.6664H70.3988L68.2324 53.498V53.0098Z" fill="#D00000"/>
<path d="M69.3613 51.6367L72.0159 73.6664H74.5484L76.9283 55.5117L74.7009 55.1761L69.3613 51.6367Z" fill="black"/>
<path d="M31.3437 50.5378L61.9776 52.9177V49.2868L62.6184 47.8528L58.5603 45.839L57.767 43.7031L30.0622 45.6254L29.6045 50.2632L31.3437 50.5378Z" fill="black"/>
<path d="M61.9767 53.2231V49.287L62.6174 47.8529L28.3525 47.4258L29.6035 50.2634L61.9767 53.2231Z" fill="#D00000"/>
<path d="M83.793 42.8789L88.0646 45.4114L89.8954 46.4793L90.231 47.7608L115.22 47.5778L115.251 45.7165L83.793 42.8789Z" fill="black"/>
<path d="M53.8613 39.3699L60.2078 42.5127L71.6803 35.7695H59.8722L53.8613 39.3699Z" fill="white"/>
<path d="M67.8975 79.6179H69.0264C69.179 79.1603 69.5451 78.7331 70.1553 78.3975C71.742 77.4821 74.366 77.4821 75.9526 78.3975C76.5628 78.7331 76.929 79.1603 77.0816 79.6179H78.2105L76.6544 81.2351C76.4713 81.4181 76.2374 81.591 75.9526 81.7538C74.366 82.6691 71.742 82.6691 70.1553 81.7538C69.8706 81.591 69.6366 81.4181 69.4536 81.2351L67.8975 79.6179Z" fill="black"/>
<path d="M68.7822 73.6968C68.8228 73.6765 68.8635 73.6561 68.9042 73.6358C71.1926 72.2933 74.9151 72.2933 77.2035 73.6358C77.2441 73.6561 77.2848 73.6765 77.3255 73.6968H78.9426V77.9685C78.9426 78.8228 78.3629 79.7077 77.2035 80.3789C74.9151 81.691 71.1926 81.691 68.9042 80.3789C67.7448 79.7077 67.165 78.8228 67.165 77.9685V73.6968H68.7822Z" fill="#D00000"/>
<path d="M68.9042 71.2887C66.5853 72.6312 66.5853 74.7671 68.9042 76.1096C71.1926 77.4216 74.9151 77.4216 77.2035 76.1096C79.5224 74.7671 79.5224 72.6312 77.2035 71.2887C74.9151 69.9767 71.1926 69.9767 68.9042 71.2887Z" fill="white"/>
<path d="M69.7888 71.8689C69.8295 71.8486 69.86 71.8282 69.8804 71.8079C71.6501 70.801 74.4572 70.801 76.2269 71.8079C76.2472 71.8282 76.2675 71.8486 76.2879 71.8689H77.5389V73.5776C77.5389 74.2183 77.0812 74.8896 76.2269 75.3778C74.4572 76.4152 71.6501 76.4152 69.8804 75.3778C69.026 74.8896 68.5684 74.2183 68.5684 73.5776V71.8689H69.7888Z" fill="black"/>
<path d="M69.8806 70.0364C68.1414 71.0433 68.1414 72.691 69.8806 73.6979C71.6502 74.7048 74.4573 74.7048 76.227 73.6979C77.9662 72.691 77.9662 71.0433 76.227 70.0364C74.4573 69.0295 71.6502 69.0295 69.8806 70.0364Z" fill="white"/>
<path d="M71.7411 69.0292C71.7411 69.0292 71.7513 69.019 71.7716 68.9987C72.4734 68.602 73.6329 68.602 74.3346 68.9987C74.3346 69.019 74.3448 69.0292 74.3651 69.0292H74.8533V71.7142C74.8533 71.9888 74.6703 72.2329 74.3346 72.4465C73.6329 72.8737 72.4734 72.8737 71.7716 72.4465C71.4055 72.2329 71.2529 71.9888 71.2529 71.7142V69.0292H71.7411Z" fill="black"/>
<path d="M71.7714 68.2969C71.0697 68.6936 71.0697 69.3649 71.7714 69.7615C72.4732 70.1887 73.6327 70.1887 74.3345 69.7615C75.0362 69.3649 75.0362 68.6936 74.3345 68.2969C73.6327 67.8698 72.4732 67.8698 71.7714 68.2969Z" fill="black"/>
<path d="M20.543 52.2775H21.6719C21.8245 51.8199 22.1906 51.3927 22.8008 51.0571C24.3875 50.1112 27.0115 50.1112 28.5981 51.0571C29.2084 51.3927 29.5745 51.8199 29.7271 52.2775H30.856L29.2999 53.8947C29.1168 54.0777 28.8829 54.2506 28.5981 54.4134C27.0115 55.3287 24.3875 55.3287 22.8008 54.4134C22.5161 54.2506 22.2822 54.0777 22.0991 53.8947L20.543 52.2775Z" fill="black"/>
<path d="M21.4277 46.3589C21.4684 46.3386 21.509 46.3183 21.5497 46.2979C23.8381 44.9554 27.5606 44.9554 29.849 46.2979C29.8896 46.3183 29.9303 46.3386 29.971 46.3589H31.5882V50.6306C31.5882 51.4849 31.0084 52.3698 29.849 53.0105C27.5606 54.3531 23.8381 54.3531 21.5497 53.0105C20.3903 52.3698 19.8105 51.4849 19.8105 50.6306V46.3589H21.4277Z" fill="#D00000"/>
<path d="M21.5497 43.9489C19.2308 45.2914 19.2308 47.4272 21.5497 48.7697C23.8381 50.0818 27.5606 50.0818 29.849 48.7697C32.1679 47.4272 32.1679 45.2914 29.849 43.9489C27.5606 42.6368 23.8381 42.6368 21.5497 43.9489Z" fill="white"/>
<path d="M22.4658 44.5291C22.4862 44.5087 22.5065 44.4884 22.5269 44.4681C24.2965 43.4612 27.1036 43.4612 28.8733 44.4681C28.8937 44.4884 28.9242 44.5087 28.9649 44.5291H30.1853V46.2072C30.1853 46.8785 29.7277 47.5498 28.8733 48.038C27.1036 49.0449 24.2965 49.0449 22.5269 48.038C21.6725 47.5498 21.2148 46.8785 21.2148 46.2072V44.5291H22.4658Z" fill="black"/>
<path d="M22.527 42.6966C20.7879 43.7035 20.7879 45.3511 22.527 46.358C24.2967 47.3649 27.1038 47.3649 28.8735 46.358C30.6127 45.3511 30.6127 43.7035 28.8735 42.6966C27.1038 41.6897 24.2967 41.6897 22.527 42.6966Z" fill="white"/>
<path d="M24.3866 41.6893C24.407 41.669 24.4171 41.6588 24.4171 41.6588C25.1189 41.2622 26.2784 41.2622 26.9801 41.6588C27.0005 41.6588 27.0107 41.669 27.0107 41.6893H27.4989V44.3744C27.4989 44.6185 27.3463 44.8931 26.9801 45.1067C26.2784 45.5033 25.1189 45.5033 24.4171 45.1067C24.0815 44.8931 23.8984 44.6185 23.8984 44.3744V41.6893H24.3866Z" fill="black"/>
<path d="M24.417 40.9571C23.7152 41.3537 23.7152 42.025 24.417 42.4217C25.1187 42.8183 26.2782 42.8183 26.98 42.4217C27.6817 42.025 27.6817 41.3537 26.98 40.9571C26.2782 40.5299 25.1187 40.5299 24.417 40.9571Z" fill="black"/>
<g style="mix-blend-mode:multiply">
<path d="M139.448 31.805C149.517 37.6328 149.517 47.061 139.448 52.8888C129.379 58.7165 113.025 58.7165 102.956 52.8888C92.8871 47.061 92.8871 37.6328 102.956 31.805C113.025 26.0077 129.379 26.0077 139.448 31.805Z" fill="black" fill-opacity="0.14"/>
</g>
<g style="mix-blend-mode:multiply">
<path d="M121.201 42.3615L135.298 29.8516C138.196 30.95 140.79 32.4146 142.804 34.1843L121.201 42.3615Z" fill="black" fill-opacity="0.14"/>
</g>
<g style="mix-blend-mode:multiply">
<path d="M121.202 42.3633L99.5693 50.4795C100.546 51.3338 101.675 52.1576 102.926 52.8594C104.207 53.5917 105.58 54.2629 107.075 54.8122L121.202 42.3633Z" fill="black" fill-opacity="0.14"/>
</g>
<g style="mix-blend-mode:multiply">
<path d="M121.202 42.331L99.5693 34.1843C101.492 32.5061 103.994 31.011 107.075 29.8516L121.202 42.331Z" fill="black" fill-opacity="0.14"/>
</g>
<g style="mix-blend-mode:multiply">
<path d="M121.201 42.332L135.298 54.8114C136.793 54.2622 138.166 53.5909 139.417 52.8587C140.698 52.1569 141.827 51.3331 142.804 50.4787L121.201 42.332Z" fill="black" fill-opacity="0.14"/>
</g>
<g style="mix-blend-mode:screen" opacity="0.3">
<path d="M133.498 53.2227C127.06 56.4569 115.77 56.6705 108.905 53.2227C116.899 55.4195 124.985 55.5416 133.498 53.2227Z" fill="white"/>
</g>
<g style="mix-blend-mode:screen" opacity="0.3">
<path d="M140.425 35.5898C145.734 39.3428 145.734 45.6893 140.059 49.4423C143.72 44.896 144.025 40.4107 140.425 35.5898Z" fill="white"/>
</g>
<g style="mix-blend-mode:screen" opacity="0.3">
<path d="M108.845 31.4992C115.832 27.9903 127.274 28.2649 133.742 31.5602C125.321 29.1803 116.961 29.2413 108.845 31.4992Z" fill="white"/>
</g>
<g style="mix-blend-mode:screen" opacity="0.3">
<path d="M102.529 49.5945C96.8229 45.8721 96.3652 39.251 102.376 35.2539C98.2875 40.1968 98.5621 44.9567 102.529 49.5945Z" fill="white"/>
</g>
<g style="mix-blend-mode:screen" opacity="0.3">
<path d="M131.393 51.3613C125.748 54.0464 116.686 54.0769 110.98 51.3613C117.693 53.3141 124.619 53.3446 131.393 51.3613Z" fill="white"/>
</g>
<g style="mix-blend-mode:screen" opacity="0.3">
<path d="M137.16 36.7461C141.493 39.9804 141.401 45.0453 136.824 48.2186C140.15 44.4351 140.242 40.5906 137.16 36.7461Z" fill="white"/>
</g>
<g style="mix-blend-mode:screen" opacity="0.3">
<path d="M110.95 33.3606C116.717 30.584 125.932 30.645 131.607 33.3911C124.803 31.3468 117.724 31.3163 110.95 33.3606Z" fill="white"/>
</g>
<g style="mix-blend-mode:screen" opacity="0.3">
<path d="M105.702 48.3391C100.942 45.0743 100.851 39.7653 105.58 36.4395C102.193 40.3145 102.102 44.3726 105.702 48.3391Z" fill="white"/>
</g>
<g style="mix-blend-mode:screen" opacity="0.3">
<path d="M129.226 49.4719C124.863 51.6688 117.51 51.6688 113.146 49.4414C118.456 50.906 123.643 50.9975 129.226 49.4719Z" fill="white"/>
</g>
<g style="mix-blend-mode:screen" opacity="0.3">
<path d="M133.773 37.9375C137.343 40.4395 137.221 44.5586 133.529 46.9996C134.109 46.2673 134.597 45.535 134.902 44.7722C135.94 42.3617 135.452 40.1649 133.773 37.9375Z" fill="white"/>
</g>
<g style="mix-blend-mode:screen" opacity="0.3">
<path d="M113.117 35.2527C117.541 33.0253 125.017 33.0253 129.411 35.2832C123.949 33.7576 118.64 33.7271 113.117 35.2527Z" fill="white"/>
</g>
<g style="mix-blend-mode:screen" opacity="0.3">
<path d="M108.998 47.091C105.092 44.5586 105.031 40.2564 108.876 37.6934C106.343 40.8056 106.252 43.8568 108.998 47.091Z" fill="white"/>
</g>
<path d="M122.819 39.0665C121.873 38.2122 120.378 38.2122 119.432 39.0665C118.975 39.4937 118.73 40.0734 118.73 40.6226V42.0262C118.73 42.3618 118.975 42.728 119.432 42.9721C120.378 43.5213 121.873 43.5213 122.819 42.9721C123.277 42.728 123.49 42.3618 123.49 42.0262V40.6226C123.49 40.0734 123.277 39.4937 122.819 39.0665Z" fill="white"/>
<g style="mix-blend-mode:multiply">
<path d="M91.9707 4.37084C102.07 10.1681 102.07 19.5963 91.9707 25.4241C81.9018 31.2519 65.5779 31.2519 55.4785 25.4241C45.4095 19.5963 45.4095 10.1681 55.4785 4.37084C65.5779 -1.45695 81.9018 -1.45695 91.9707 4.37084Z" fill="black" fill-opacity="0.14"/>
</g>
<g style="mix-blend-mode:multiply">
<path d="M73.7246 14.8993L87.8211 2.41992C90.7198 3.51835 93.3133 4.95242 95.3271 6.75262L73.7246 14.8993Z" fill="black" fill-opacity="0.14"/>
</g>
<g style="mix-blend-mode:multiply">
<path d="M73.7245 14.8984L52.1221 23.0146C53.0679 23.8995 54.1969 24.6928 55.4784 25.4251C56.7294 26.1574 58.1024 26.7981 59.5975 27.3778L73.7245 14.8984Z" fill="black" fill-opacity="0.14"/>
</g>
<g style="mix-blend-mode:multiply">
<path d="M73.7245 14.8688L52.1221 6.75262C54.0138 5.07446 56.5463 3.57938 59.5975 2.41992L73.7245 14.8688Z" fill="black" fill-opacity="0.14"/>
</g>
<g style="mix-blend-mode:multiply">
<path d="M73.7246 14.8672L87.8211 27.3466C89.3162 26.7974 90.6892 26.1566 91.9707 25.4243C93.2217 24.692 94.3507 23.8987 95.3271 23.0139L73.7246 14.8672Z" fill="black" fill-opacity="0.14"/>
</g>
<g style="mix-blend-mode:screen" opacity="0.3">
<path d="M86.0203 25.7598C79.5823 28.994 68.2929 29.2076 61.4277 25.7598C69.4219 27.9566 77.5075 28.1092 86.0203 25.7598Z" fill="white"/>
</g>
<g style="mix-blend-mode:screen" opacity="0.3">
<path d="M92.9472 8.1543C98.2563 11.8768 98.2563 18.2538 92.5811 21.9762C96.2425 17.4299 96.5476 12.9447 92.9472 8.1543Z" fill="white"/>
</g>
<g style="mix-blend-mode:screen" opacity="0.3">
<path d="M61.3672 4.0347C68.3544 0.525824 79.8269 0.80043 86.2649 4.12623C77.8436 1.71579 69.4834 1.77681 61.3672 4.0347Z" fill="white"/>
</g>
<g style="mix-blend-mode:screen" opacity="0.3">
<path d="M55.0511 22.1277C49.3454 18.4358 48.8877 11.7842 54.8985 7.78711C50.8099 12.7606 51.1151 17.4899 55.0511 22.1277Z" fill="white"/>
</g>
<g style="mix-blend-mode:screen" opacity="0.3">
<path d="M83.9459 23.929C78.2707 26.614 69.2087 26.614 63.5029 23.8984C70.2156 25.8817 77.1418 25.9122 83.9459 23.929Z" fill="white"/>
</g>
<g style="mix-blend-mode:screen" opacity="0.3">
<path d="M89.6821 9.28516C94.0148 12.5194 93.9232 17.6149 89.377 20.7882C92.6722 16.9742 92.7638 13.1297 89.6821 9.28516Z" fill="white"/>
</g>
<g style="mix-blend-mode:screen" opacity="0.3">
<path d="M63.4727 5.8961C69.2394 3.15002 78.454 3.18053 84.1292 5.95712C77.3251 3.88231 70.2768 3.88231 63.4727 5.8961Z" fill="white"/>
</g>
<g style="mix-blend-mode:screen" opacity="0.3">
<path d="M58.2542 20.9094C53.4638 17.6141 53.3723 12.3356 58.1016 9.00977C54.7148 12.8543 54.6233 16.9124 58.2542 20.9094Z" fill="white"/>
</g>
<g style="mix-blend-mode:screen" opacity="0.3">
<path d="M81.7792 22.0059C77.3855 24.2027 70.0322 24.2027 65.6689 22.0059C70.978 23.4399 76.165 23.5315 81.7792 22.0059Z" fill="white"/>
</g>
<g style="mix-blend-mode:screen" opacity="0.3">
<path d="M86.2949 10.4727C89.8648 12.9746 89.7732 17.0938 86.0508 19.5347C86.6305 18.8024 87.1187 18.0701 87.4543 17.3073C88.4612 14.8969 87.973 12.7305 86.2949 10.4727Z" fill="white"/>
</g>
<g style="mix-blend-mode:screen" opacity="0.3">
<path d="M65.6396 7.7864C70.0639 5.55903 77.5393 5.58954 81.933 7.84743C76.4714 6.29132 71.1623 6.2608 65.6396 7.7864Z" fill="white"/>
</g>
<g style="mix-blend-mode:screen" opacity="0.3">
<path d="M61.5204 19.6269C57.6149 17.0944 57.5538 12.7923 61.4289 10.2598C58.8964 13.3415 58.7743 16.3927 61.5204 19.6269Z" fill="white"/>
</g>
<path d="M75.3413 11.6363C74.3954 10.7514 72.9003 10.7514 71.9545 11.6363C71.4968 12.0635 71.2832 12.6127 71.2832 13.1924V14.5654C71.2832 14.9011 71.4968 15.2672 71.9545 15.5418C72.9003 16.0605 74.3954 16.0605 75.3413 15.5418C75.799 15.2672 76.0431 14.9011 76.0431 14.5654V13.1924C76.0431 12.6127 75.799 12.0635 75.3413 11.6363Z" fill="white"/>
<g style="mix-blend-mode:multiply">
<path d="M91.3906 59.5408C101.46 65.3685 101.46 74.7967 91.3906 80.6245C81.3217 86.4218 64.9673 86.4218 54.8984 80.6245C44.8294 74.7967 44.8294 65.3685 54.8984 59.5408C64.9673 53.713 81.3217 53.713 91.3906 59.5408Z" fill="black" fill-opacity="0.14"/>
</g>
<g style="mix-blend-mode:multiply">
<path d="M73.1445 70.0692L87.2105 57.5898C90.1397 58.6883 92.7332 60.1529 94.747 61.9225L73.1445 70.0692Z" fill="black" fill-opacity="0.14"/>
</g>
<g style="mix-blend-mode:multiply">
<path d="M73.1447 70.0684L51.5117 78.2151C52.4881 79.0694 53.617 79.8627 54.868 80.595C56.1495 81.3273 57.5226 81.968 59.0177 82.5478L73.1447 70.0684Z" fill="black" fill-opacity="0.14"/>
</g>
<g style="mix-blend-mode:multiply">
<path d="M73.1447 70.0692L51.5117 61.9225C53.4035 60.2444 55.9359 58.7493 59.0177 57.5898L73.1447 70.0692Z" fill="black" fill-opacity="0.14"/>
</g>
<g style="mix-blend-mode:multiply">
<path d="M73.1445 70.0684L87.2105 82.5478C88.7056 81.968 90.1092 81.3273 91.3602 80.595C92.6417 79.8627 93.7706 79.0694 94.747 78.2151L73.1445 70.0684Z" fill="black" fill-opacity="0.14"/>
</g>
<g style="mix-blend-mode:screen" opacity="0.3">
<path d="M85.4405 80.9602C79.0025 84.164 67.7131 84.4081 60.8174 80.9297C68.842 83.1265 76.8972 83.2791 85.4405 80.9602Z" fill="white"/>
</g>
<g style="mix-blend-mode:screen" opacity="0.3">
<path d="M92.3664 63.3242C97.6755 67.0772 97.6755 73.4237 91.9697 77.1766C95.6617 72.6304 95.9363 68.1451 92.3664 63.3242Z" fill="white"/>
</g>
<g style="mix-blend-mode:screen" opacity="0.3">
<path d="M60.7873 59.2349C67.7746 55.6955 79.2166 55.9701 85.6851 59.296C77.2638 56.916 68.9035 56.977 60.7568 59.2349H60.7873Z" fill="white"/>
</g>
<g style="mix-blend-mode:screen" opacity="0.3">
<path d="M54.471 77.3289C48.7653 73.6064 48.3076 66.9853 54.3185 62.9883C50.2299 67.9312 50.5045 72.6606 54.471 77.3289Z" fill="white"/>
</g>
<g style="mix-blend-mode:screen" opacity="0.3">
<path d="M83.3353 79.0996C77.6906 81.7847 68.5981 81.8152 62.9229 79.0996C69.6355 81.0524 76.5617 81.0829 83.3353 79.0996Z" fill="white"/>
</g>
<g style="mix-blend-mode:screen" opacity="0.3">
<path d="M89.1022 64.4844C93.4349 67.7186 93.3434 72.7836 88.7666 75.9569C92.0924 72.1734 92.1839 68.3289 89.1022 64.4844Z" fill="white"/>
</g>
<g style="mix-blend-mode:screen" opacity="0.3">
<path d="M62.8623 61.068C68.6596 58.3219 77.8742 58.3524 83.5494 61.129C76.7452 59.0847 69.6665 59.0542 62.8623 61.068Z" fill="white"/>
</g>
<g style="mix-blend-mode:screen" opacity="0.3">
<path d="M57.6443 76.0794C52.8845 72.8146 52.7929 67.5055 57.5223 64.1797C54.105 68.0547 54.0134 72.1128 57.6443 76.0794Z" fill="white"/>
</g>
<g style="mix-blend-mode:screen" opacity="0.3">
<path d="M81.1696 77.1758C76.8064 79.4032 69.453 79.3726 65.0898 77.1758C70.3989 78.6098 75.5859 78.7014 81.1696 77.1758Z" fill="white"/>
</g>
<g style="mix-blend-mode:screen" opacity="0.3">
<path d="M85.7158 65.6738C89.2857 68.1758 89.1636 72.2949 85.4717 74.7054C86.0514 73.9731 86.5396 73.2408 86.8447 72.5085C87.8821 70.0981 87.3939 67.9012 85.7158 65.6738Z" fill="white"/>
</g>
<g style="mix-blend-mode:screen" opacity="0.3">
<path d="M65.0596 62.9907C69.4838 60.7328 76.9592 60.7634 81.3529 63.0212C75.8913 61.4957 70.5822 61.4651 65.0596 62.9907Z" fill="white"/>
</g>
<g style="mix-blend-mode:screen" opacity="0.3">
<path d="M60.9403 74.8274C57.0348 72.2949 56.9738 67.9927 60.8183 65.4297C58.2858 68.5419 58.1943 71.5626 60.9403 74.8274Z" fill="white"/>
</g>
<path d="M74.7319 66.8009C73.8166 65.9466 72.3215 65.9466 71.3756 66.8009C70.9179 67.2281 70.6738 67.8078 70.6738 68.357V69.7301C70.6738 70.0962 70.9179 70.4318 71.3756 70.7064C72.3215 71.2556 73.8166 71.2556 74.7319 70.7064C75.2201 70.4318 75.4337 70.0962 75.4337 69.7301V68.357C75.4337 67.8078 75.2201 67.2281 74.7319 66.8009Z" fill="white"/>
<g style="mix-blend-mode:multiply">
<path d="M44.0669 32.2029C54.1358 38.0001 54.1358 47.4589 44.0669 53.2561C33.9674 59.0839 17.6435 59.0839 7.57459 53.2561C-2.52486 47.4589 -2.52486 38.0001 7.57459 32.2029C17.6435 26.3751 33.9674 26.3751 44.0669 32.2029Z" fill="black" fill-opacity="0.14"/>
</g>
<g style="mix-blend-mode:multiply">
<path d="M25.8203 42.7313L39.8863 30.252C42.8154 31.3504 45.409 32.815 47.3922 34.5847L25.8203 42.7313Z" fill="black" fill-opacity="0.14"/>
</g>
<g style="mix-blend-mode:multiply">
<path d="M25.8205 42.7305L4.1875 50.8467C5.16388 51.7315 6.29282 52.5248 7.54381 53.2571C8.7948 53.9894 10.1984 54.6301 11.6934 55.2099L25.8205 42.7305Z" fill="black" fill-opacity="0.14"/>
</g>
<g style="mix-blend-mode:multiply">
<path d="M25.8205 42.7008L4.1875 34.5847C6.07924 32.9065 8.61173 31.4114 11.6934 30.252L25.8205 42.7008Z" fill="black" fill-opacity="0.14"/>
</g>
<g style="mix-blend-mode:multiply">
<path d="M25.8203 42.6992L39.8863 55.2091C41.3814 54.6294 42.7849 53.9886 44.0359 53.2564C45.2869 52.5241 46.4159 51.7308 47.3922 50.8764L25.8203 42.6992Z" fill="black" fill-opacity="0.14"/>
</g>
<g style="mix-blend-mode:screen" opacity="0.3">
<path d="M38.1182 53.6223C31.6497 56.8261 20.3908 57.0702 13.4951 53.5918C21.5198 55.7887 29.5749 55.9412 38.1182 53.6223Z" fill="white"/>
</g>
<g style="mix-blend-mode:screen" opacity="0.3">
<path d="M45.0126 35.9863C50.3217 39.7088 50.3217 46.0858 44.6465 49.8388C48.3384 45.2925 48.613 40.7767 45.0126 35.9863Z" fill="white"/>
</g>
<g style="mix-blend-mode:screen" opacity="0.3">
<path d="M13.4326 31.897C20.4504 28.3576 31.8923 28.6323 38.3609 31.9581C29.909 29.5476 21.5793 29.6391 13.4326 31.897Z" fill="white"/>
</g>
<g style="mix-blend-mode:screen" opacity="0.3">
<path d="M7.14778 49.9598C1.44205 46.2678 0.98437 39.6162 6.99522 35.6191C2.90662 40.5926 3.18123 45.3219 7.14778 49.9598Z" fill="white"/>
</g>
<g style="mix-blend-mode:screen" opacity="0.3">
<path d="M36.0121 51.7617C30.3369 54.4468 21.2748 54.4468 15.5996 51.7617C22.3122 53.7145 29.2079 53.745 36.0121 51.7617Z" fill="white"/>
</g>
<g style="mix-blend-mode:screen" opacity="0.3">
<path d="M41.7475 37.1172C46.0802 40.3515 46.0192 45.447 41.4424 48.6202C44.7377 44.8062 44.8597 40.9922 41.7475 37.1172Z" fill="white"/>
</g>
<g style="mix-blend-mode:screen" opacity="0.3">
<path d="M15.5391 33.7281C21.3363 30.9821 30.5204 31.0126 36.2261 33.7892C29.422 31.7143 22.3432 31.7143 15.5391 33.7281Z" fill="white"/>
</g>
<g style="mix-blend-mode:screen" opacity="0.3">
<path d="M10.3205 48.7415C5.53017 45.4767 5.43864 40.1676 10.1985 36.8418C6.78116 40.7168 6.68962 44.7444 10.3205 48.7415Z" fill="white"/>
</g>
<g style="mix-blend-mode:screen" opacity="0.3">
<path d="M33.8464 49.8379C29.4832 52.0348 22.0993 52.0348 17.7666 49.8379C23.0452 51.272 28.2627 51.3635 33.8464 49.8379Z" fill="white"/>
</g>
<g style="mix-blend-mode:screen" opacity="0.3">
<path d="M38.3925 38.3047C41.9624 40.8067 41.8404 44.9258 38.1484 47.3667C38.7282 46.6345 39.1858 45.9022 39.5215 45.1394C40.5284 42.7289 40.0402 40.5626 38.3925 38.3047Z" fill="white"/>
</g>
<g style="mix-blend-mode:screen" opacity="0.3">
<path d="M17.7051 35.6528C22.1598 33.395 29.6352 33.4255 33.9984 35.6834C28.5368 34.1272 23.2277 34.1272 17.7051 35.6528Z" fill="white"/>
</g>
<g style="mix-blend-mode:screen" opacity="0.3">
<path d="M13.5858 47.459C9.6803 44.957 9.61927 40.6548 13.4943 38.0918C10.9618 41.1735 10.8703 44.2247 13.5858 47.459Z" fill="white"/>
</g>
<path d="M27.4077 39.463C26.4923 38.6087 24.9667 38.6087 24.0514 39.463C23.5937 39.8902 23.3496 40.4394 23.3496 41.0191V42.3922C23.3496 42.7583 23.5937 43.0939 24.0514 43.3685C24.9667 43.8873 26.4923 43.8873 27.4077 43.3685C27.8654 43.0939 28.1095 42.7583 28.1095 42.3922V41.0191C28.1095 40.4394 27.8654 39.8902 27.4077 39.463Z" fill="white"/>
<path d="M73.023 45.6242C73.2366 45.7462 73.5723 45.7462 73.7858 45.6242L78.1491 43.1222C78.3321 43.0002 78.3321 42.8171 78.1491 42.6951C77.9355 42.573 77.5998 42.573 77.4168 42.6951L73.023 45.197C72.84 45.3191 72.84 45.5021 73.023 45.6242Z" fill="black"/>
<path d="M71.4977 44.7414C71.7112 44.8634 72.0469 44.8634 72.2299 44.7414L76.5932 42.2394C76.8067 42.1174 76.8067 41.9343 76.5932 41.8122C76.4101 41.6902 76.0745 41.6902 75.8609 41.8122L71.4977 44.3142C71.3146 44.4363 71.3146 44.6193 71.4977 44.7414Z" fill="black"/>
<path d="M69.9717 43.8547C70.1548 43.9767 70.4904 43.9767 70.704 43.8547L75.0672 41.3527C75.2808 41.2306 75.2808 41.0476 75.0672 40.9255C74.8536 40.8035 74.5485 40.8035 74.3349 40.9255L69.9717 43.4275C69.7581 43.5495 69.7581 43.7326 69.9717 43.8547Z" fill="black"/>
<path d="M68.4463 42.9719C68.6294 43.0939 68.965 43.0939 69.1786 42.9719L73.5418 40.4699C73.7249 40.3478 73.7249 40.1342 73.5418 40.0427C73.3282 39.9207 72.9926 39.9207 72.8095 40.0427L68.4463 42.5447C68.2327 42.6667 68.2327 42.8498 68.4463 42.9719Z" fill="black"/>
<path d="M66.8893 42.0851C67.1028 42.2072 67.4385 42.2072 67.6216 42.0851L71.9848 39.5526C72.1983 39.4611 72.1983 39.2475 71.9848 39.156C71.8017 39.0339 71.4661 39.0339 71.2525 39.156L66.8893 41.658C66.7062 41.78 66.7062 41.9631 66.8893 42.0851Z" fill="black"/>
<path d="M65.3643 41.2004C65.5779 41.3224 65.883 41.3224 66.0966 41.2004L70.4598 38.6679C70.6734 38.5763 70.6734 38.3628 70.4598 38.2712C70.2462 38.1492 69.9411 38.1492 69.7275 38.2712L65.3643 40.7732C65.1507 40.8953 65.1507 41.0783 65.3643 41.2004Z" fill="black"/>
</svg>
