<svg width="203" height="89" viewBox="0 0 203 89" fill="none" xmlns="http://www.w3.org/2000/svg">
<path d="M119.743 53.4327C119.802 54.9237 119.707 56.4431 119.431 57.9726C117.392 69.3011 106.555 76.8311 95.2265 74.7918C84.8518 72.9239 77.6685 63.6775 78.0978 53.4327H64.8182C64.785 54.6756 64.8116 55.9101 64.9132 57.1291L69.3202 57.8938L69.8218 60.7985L65.9273 62.9964C66.4383 64.9245 67.117 66.7936 67.9467 68.5867L72.3414 67.7993L73.8062 70.3577L70.8987 73.7541C72.03 75.3819 73.309 76.9046 74.7078 78.3171L78.5685 76.074L80.8197 77.9772L79.249 82.1634C80.8563 83.299 82.5714 84.3031 84.384 85.1548L87.25 81.7201L90.016 82.7384L89.9728 87.2024C92.0374 87.7595 93.7109 88.0592 95.8235 88.2556L97.3387 84.0565L100.287 84.067L101.775 88.2852C103.771 88.119 105.728 87.7764 107.631 87.2727L107.618 82.8014L110.392 81.8028L113.228 85.2511C115.032 84.4156 116.762 83.4336 118.39 82.3026L116.849 78.1056L119.114 76.2193L122.958 78.4894C124.362 77.0979 125.649 75.5825 126.801 73.9536L123.917 70.536L125.4 67.9891L129.797 68.8087C130.63 67.0369 131.315 65.1716 131.841 63.2274L127.969 61.0065L128.492 58.1055L132.895 57.3733C133.016 56.0495 133.054 54.7352 133.024 53.4324L119.743 53.4324V53.4327Z" fill="url(#paint0_linear_548_28542)"/>
<path d="M0 53L0 55L67 55V53L0 53Z" fill="url(#paint1_linear_548_28542)"/>
<path d="M129 53V55L203 55V53L129 53Z" fill="url(#paint2_linear_548_28542)"/>
<path d="M98.2358 38.5958L97.4581 36.3931C96.4157 36.4799 95.3934 36.6589 94.3994 36.922L94.4056 39.2573L92.9566 39.7789L91.4756 37.978C90.5334 38.4143 89.6297 38.9272 88.7795 39.5179L89.5838 41.7106L88.4006 42.6955L86.3929 41.51C85.6597 42.2367 84.9871 43.0281 84.3858 43.879L85.8921 45.6646L85.1169 46.9946L82.8205 46.5668C82.3855 47.4925 82.0276 48.4666 81.7528 49.4821L83.7752 50.6423L83.5024 52.1581L81.2023 52.5402C81.1057 53.5877 81.1013 54.6258 81.1862 55.6451L83.4884 56.0445L83.7504 57.5618L81.716 58.7099C81.9828 59.7171 82.3374 60.6935 82.7708 61.6301L85.0666 61.2187L85.8317 62.5552L84.3127 64.3293C84.9036 65.1797 85.5718 65.975 86.3024 66.7129L88.3192 65.5412L89.4953 66.5353L88.6747 68.7221C89.5143 69.3152 90.4102 69.8398 91.3571 70.2846L92.8542 68.4904L94.2991 69.0225L94.2766 71.3544C95.355 71.6453 96.2293 71.8019 97.3329 71.9046L98.1244 69.7111L99.6645 69.7165L100.442 71.9199C101.484 71.8331 102.507 71.6542 103.501 71.391L103.494 69.0553L104.943 68.5337L106.425 70.3349C107.367 69.8985 108.27 69.3856 109.121 68.7947L108.316 66.6024L109.499 65.6169L111.507 66.8029C112.24 66.076 112.913 65.2843 113.515 64.4334L112.008 62.6481L112.783 61.3178L115.08 61.746C115.515 60.8204 115.872 59.8461 116.147 58.8304L114.125 57.6703L114.398 56.1549L116.698 55.7725C116.794 54.7249 116.799 53.6873 116.714 52.6678L114.412 52.2683L114.15 50.751L116.184 49.6029C115.917 48.5958 115.563 47.6193 115.129 46.6828L112.833 47.094L112.069 45.7575L113.587 43.9838C112.996 43.1334 112.328 42.3376 111.597 41.6003L109.581 42.7715L108.405 41.7773L109.225 39.5905C108.386 38.9974 107.489 38.4734 106.543 38.0282L105.046 39.8222L103.601 39.2902L103.623 36.9587C102.55 36.6682 101.657 36.5091 100.567 36.4086L99.7751 38.602L98.2358 38.5958ZM100.879 43.4417C106.796 44.5069 110.73 50.1678 109.665 56.0856C108.6 62.0032 102.938 65.9367 97.0211 64.8714C91.1033 63.8061 87.1699 58.1454 88.2352 52.2277C89.3004 46.3098 94.9611 42.3763 100.879 43.4417Z" fill="url(#paint3_linear_548_28542)"/>
<path d="M63.4548 2.98003L62.4024 -0.000549316C60.9918 0.116913 59.6085 0.359016 58.2635 0.715096L58.2719 3.87513L56.3112 4.5808L54.3071 2.14401C53.0321 2.73432 51.8095 3.42833 50.659 4.22762L51.7473 7.19463L50.1463 8.52744L47.4296 6.92337C46.4374 7.90679 45.5273 8.97763 44.7138 10.129L46.7521 12.5451L45.7031 14.3448L42.5957 13.7659C42.007 15.0185 41.5228 16.3367 41.151 17.7106L43.8875 19.2804L43.5182 21.3315L40.406 21.8485C40.2753 23.2659 40.2693 24.6706 40.3843 26.0498L43.4994 26.5903L43.8539 28.6435L41.101 30.197C41.4622 31.56 41.9419 32.881 42.5284 34.1485L45.6348 33.5919L46.6702 35.4003L44.6151 37.801C45.4147 38.9516 46.3187 40.0279 47.3074 41.0263L50.0363 39.4408L51.6276 40.786L50.5174 43.745C51.6535 44.5477 52.8657 45.2574 54.147 45.8594L56.1727 43.4316L58.1279 44.1515L58.0974 47.3068C59.5567 47.7005 60.7397 47.9124 62.2329 48.0513L63.304 45.0832L65.388 45.0906L66.4398 48.0723C67.8507 47.9548 69.234 47.7127 70.5787 47.3566L70.5701 44.1961L72.5309 43.4903L74.5353 45.9277C75.8103 45.3371 77.0329 44.6431 78.1838 43.8436L77.0945 40.877L78.6957 39.5437L81.4126 41.1483C82.4048 40.1648 83.315 39.0936 84.1289 37.9422L82.0909 35.5265L83.1387 33.7262L86.247 34.3055C86.8354 33.0532 87.3197 31.7347 87.6915 30.3604L84.9549 28.7907L85.3244 26.7401L88.4365 26.2225C88.5669 24.8051 88.573 23.4009 88.4582 22.0213L85.3429 21.4808L84.9892 19.4277L87.7412 17.8743C87.3802 16.5114 86.9009 15.1901 86.3138 13.9229L83.2074 14.4792L82.1725 12.6708L84.2271 10.2706C83.4274 9.11995 82.5235 8.04311 81.5346 7.04553L78.8058 8.63033L77.2148 7.28495L78.3251 4.32592C77.189 3.52333 75.9762 2.81427 74.6954 2.21178L72.6694 4.63929L70.7142 3.91953L70.7452 0.764702C69.2926 0.371696 68.0836 0.156334 66.6093 0.0202103L65.5379 2.98821L63.4548 2.98003ZM67.0311 9.5372C75.0384 10.9786 80.3616 18.6385 78.92 26.6461C77.4785 34.6535 69.8181 39.9761 61.8109 38.5346C53.8033 37.093 48.4808 29.4333 49.9224 21.4257C51.3639 13.4182 59.0237 8.09551 67.0311 9.5372Z" fill="url(#paint4_linear_548_28542)"/>
<path d="M108.149 11.6181L107.572 9.98326C106.798 10.0476 106.04 10.1805 105.302 10.3758L105.307 12.1091L104.231 12.4962L103.132 11.1596C102.432 11.4833 101.762 11.8641 101.131 12.3024L101.728 13.9299L100.85 14.6609L99.3593 13.7811C98.8151 14.3204 98.3159 14.9079 97.8696 15.5395L98.9875 16.8647L98.4122 17.8518L96.7077 17.5342C96.3849 18.2213 96.1192 18.9444 95.9154 19.698L97.4163 20.559L97.2138 21.6841L95.5068 21.9677C95.4351 22.7451 95.4319 23.5157 95.4949 24.2721L97.2036 24.5686L97.3981 25.6948L95.8881 26.5468C96.0862 27.2944 96.3493 28.0191 96.671 28.7143L98.3749 28.409L98.9428 29.401L97.8156 30.7177C98.2541 31.3489 98.75 31.9392 99.2923 32.4868L100.789 31.6171L101.662 32.355L101.053 33.9781C101.676 34.4183 102.341 34.8076 103.044 35.1378L104.155 33.8062L105.227 34.201L105.211 35.9318C106.011 36.1478 106.66 36.264 107.479 36.3402L108.067 34.7121L109.21 34.7162L109.787 36.3516C110.561 36.2871 111.319 36.1543 112.057 35.9591L112.052 34.2256L113.128 33.8384L114.227 35.1753C114.926 34.8514 115.597 34.4707 116.228 34.0322L115.631 32.405L116.509 31.6737L117.999 32.5539C118.544 32.0144 119.043 31.4269 119.489 30.7954L118.371 29.4704L118.946 28.4829L120.651 28.8007C120.974 28.1138 121.239 27.3905 121.443 26.6368L119.942 25.7758L120.145 24.6511L121.852 24.3671C121.923 23.5897 121.927 22.8195 121.864 22.0628L120.155 21.7663L119.961 20.6403L121.47 19.7882C121.272 19.0407 121.01 18.316 120.687 17.6209L118.984 17.9259L118.416 16.934L119.543 15.6175C119.104 14.9864 118.609 14.3957 118.066 13.8485L116.569 14.7178L115.697 13.9799L116.306 12.3568C115.682 11.9166 115.017 11.5276 114.315 11.1972L113.204 12.5287L112.131 12.1339L112.148 10.4035C111.351 10.188 110.688 10.0698 109.88 9.99514L109.292 11.6231L108.149 11.6181ZM110.111 15.2147C114.503 16.0054 117.423 20.2068 116.632 24.5991C115.842 28.9912 111.64 31.9106 107.248 31.1199C102.856 30.3292 99.9361 26.1278 100.727 21.7356C101.518 17.3435 105.719 14.424 110.111 15.2147Z" fill="url(#paint5_linear_548_28542)"/>
<path d="M139.129 20.3321L138.449 18.4042C137.536 18.4802 136.641 18.6367 135.772 18.867L135.777 20.9109L134.509 21.3674L133.213 19.7913C132.388 20.1731 131.597 20.6219 130.853 21.1389L131.557 23.0581L130.521 23.9201L128.764 22.8825C128.122 23.5187 127.534 24.2113 127.007 24.956L128.326 26.5187L127.647 27.6828L125.637 27.3084C125.257 28.1187 124.943 28.9711 124.703 29.8599L126.473 30.8752L126.234 32.2019L124.221 32.5364C124.137 33.4532 124.133 34.3618 124.207 35.2538L126.222 35.6034L126.451 36.9314L124.671 37.9363C124.904 38.8178 125.215 39.6724 125.594 40.4921L127.603 40.1321L128.273 41.3018L126.944 42.8545C127.461 43.5988 128.045 44.2949 128.685 44.9407L130.45 43.9152L131.479 44.7853L130.761 46.6992C131.496 47.2183 132.28 47.6774 133.109 48.0668L134.419 46.4965L135.684 46.9621L135.664 49.0029C136.608 49.2576 137.373 49.3947 138.339 49.4845L139.032 47.5646L140.379 47.5694L141.06 49.498C141.972 49.422 142.867 49.2654 143.737 49.0352L143.731 46.991L145 46.5344L146.296 48.1109C147.121 47.729 147.912 47.2801 148.656 46.763L147.951 44.8441L148.987 43.9818L150.744 45.0197C151.386 44.3836 151.975 43.6907 152.501 42.946L151.183 41.3834L151.861 40.219L153.871 40.5937C154.252 39.7836 154.565 38.9309 154.806 38.042L153.035 37.0266L153.274 35.7003L155.287 35.3656C155.372 34.4487 155.376 33.5405 155.301 32.6481L153.286 32.2985L153.058 30.9705L154.838 29.9658C154.604 29.0843 154.294 28.2297 153.914 27.41L151.905 27.7699L151.236 26.6001L152.565 25.0477C152.047 24.3034 151.463 23.6069 150.823 22.9617L149.058 23.9867L148.029 23.1165L148.747 21.2026C148.012 20.6835 147.228 20.2249 146.4 19.8352L145.089 21.4052L143.825 20.9397L143.845 18.8992C142.905 18.6449 142.123 18.5056 141.169 18.4176L140.476 20.3373L139.129 20.3321ZM141.443 24.5733C146.622 25.5056 150.065 30.4601 149.132 35.6394C148.2 40.8187 143.245 44.2614 138.066 43.329C132.887 42.3966 129.444 37.4422 130.376 32.2628C131.309 27.0836 136.263 23.6408 141.443 24.5733Z" fill="url(#paint6_linear_548_28542)"/>
<defs>
<linearGradient id="paint0_linear_548_28542" x1="98.9193" y1="88.2853" x2="98.9193" y2="53.4327" gradientUnits="userSpaceOnUse">
<stop stop-color="#323232"/>
<stop offset="0.1213" stop-color="#4A4A4A"/>
<stop offset="0.3356" stop-color="#7D7D7D"/>
<stop offset="0.553" stop-color="#C4C4C4"/>
<stop offset="0.7854" stop-color="#F3F3F3"/>
<stop offset="0.8552" stop-color="#F0F0F0"/>
<stop offset="0.9119" stop-color="#E6E6E6"/>
<stop offset="0.9638" stop-color="#D5D5D5"/>
<stop offset="1" stop-color="#C4C4C4"/>
</linearGradient>
<linearGradient id="paint1_linear_548_28542" x1="33.5" y1="55" x2="33.5" y2="52.9999" gradientUnits="userSpaceOnUse">
<stop stop-color="#323232"/>
<stop offset="0.1213" stop-color="#4A4A4A"/>
<stop offset="0.3356" stop-color="#7D7D7D"/>
<stop offset="0.553" stop-color="#C4C4C4"/>
<stop offset="0.7854" stop-color="#F3F3F3"/>
<stop offset="0.8552" stop-color="#F0F0F0"/>
<stop offset="0.9119" stop-color="#E6E6E6"/>
<stop offset="0.9638" stop-color="#D5D5D5"/>
<stop offset="1" stop-color="#C4C4C4"/>
</linearGradient>
<linearGradient id="paint2_linear_548_28542" x1="166" y1="55" x2="166" y2="52.9999" gradientUnits="userSpaceOnUse">
<stop stop-color="#323232"/>
<stop offset="0.1213" stop-color="#4A4A4A"/>
<stop offset="0.3356" stop-color="#7D7D7D"/>
<stop offset="0.553" stop-color="#C4C4C4"/>
<stop offset="0.7854" stop-color="#F3F3F3"/>
<stop offset="0.8552" stop-color="#F0F0F0"/>
<stop offset="0.9119" stop-color="#E6E6E6"/>
<stop offset="0.9638" stop-color="#D5D5D5"/>
<stop offset="1" stop-color="#C4C4C4"/>
</linearGradient>
<linearGradient id="paint3_linear_548_28542" x1="98.9499" y1="71.92" x2="98.9499" y2="36.3931" gradientUnits="userSpaceOnUse">
<stop stop-color="#323232"/>
<stop offset="0.1213" stop-color="#4A4A4A"/>
<stop offset="0.3356" stop-color="#7D7D7D"/>
<stop offset="0.553" stop-color="#C4C4C4"/>
<stop offset="0.7854" stop-color="#F3F3F3"/>
<stop offset="0.8552" stop-color="#F0F0F0"/>
<stop offset="0.9119" stop-color="#E6E6E6"/>
<stop offset="0.9638" stop-color="#D5D5D5"/>
<stop offset="1" stop-color="#C4C4C4"/>
</linearGradient>
<linearGradient id="paint4_linear_548_28542" x1="64.4211" y1="48.0723" x2="64.4211" y2="-0.000639918" gradientUnits="userSpaceOnUse">
<stop stop-color="#323232"/>
<stop offset="0.1213" stop-color="#4A4A4A"/>
<stop offset="0.3356" stop-color="#7D7D7D"/>
<stop offset="0.553" stop-color="#C4C4C4"/>
<stop offset="0.7854" stop-color="#F3F3F3"/>
<stop offset="0.8552" stop-color="#F0F0F0"/>
<stop offset="0.9119" stop-color="#E6E6E6"/>
<stop offset="0.9638" stop-color="#D5D5D5"/>
<stop offset="1" stop-color="#C4C4C4"/>
</linearGradient>
<linearGradient id="paint5_linear_548_28542" x1="108.679" y1="36.3514" x2="108.679" y2="9.98322" gradientUnits="userSpaceOnUse">
<stop stop-color="#323232"/>
<stop offset="0.1213" stop-color="#4A4A4A"/>
<stop offset="0.3356" stop-color="#7D7D7D"/>
<stop offset="0.553" stop-color="#C4C4C4"/>
<stop offset="0.7854" stop-color="#F3F3F3"/>
<stop offset="0.8552" stop-color="#F0F0F0"/>
<stop offset="0.9119" stop-color="#E6E6E6"/>
<stop offset="0.9638" stop-color="#D5D5D5"/>
<stop offset="1" stop-color="#C4C4C4"/>
</linearGradient>
<linearGradient id="paint6_linear_548_28542" x1="139.754" y1="49.4981" x2="139.754" y2="18.4041" gradientUnits="userSpaceOnUse">
<stop stop-color="#323232"/>
<stop offset="0.1213" stop-color="#4A4A4A"/>
<stop offset="0.3356" stop-color="#7D7D7D"/>
<stop offset="0.553" stop-color="#C4C4C4"/>
<stop offset="0.7854" stop-color="#F3F3F3"/>
<stop offset="0.8552" stop-color="#F0F0F0"/>
<stop offset="0.9119" stop-color="#E6E6E6"/>
<stop offset="0.9638" stop-color="#D5D5D5"/>
<stop offset="1" stop-color="#C4C4C4"/>
</linearGradient>
</defs>
</svg>
