<svg width="97" height="86" viewBox="0 0 97 86" fill="none" xmlns="http://www.w3.org/2000/svg">
<path d="M95.7921 81.5277C95.7921 81.4529 95.7734 81.3969 95.7361 81.3595C94.6711 79.2295 93.4379 76.8753 92.2608 75.418L89.5703 76.9874C90.7474 78.4448 91.9806 80.799 93.0456 82.929C93.0456 82.9664 93.0642 83.0224 93.1016 83.0971C93.6061 84.2182 93.4379 85.1711 92.8774 85.5074L95.5679 83.9379C96.1285 83.6016 96.2966 82.6487 95.7921 81.5277Z" fill="#3D3D3D"/>
<path d="M78.4727 53.4983L81.1632 51.9289C81.6116 51.6486 82.6766 51.9849 83.6855 52.5454L80.995 54.1149C79.9861 53.5544 78.9211 53.2181 78.4727 53.4983Z" fill="#262525"/>
<path d="M85.479 54.2852L82.7324 55.8546L89.5708 76.9864L92.2613 75.4169L85.479 54.2852Z" fill="#353434"/>
<path d="M80.9941 54.1183L83.6847 52.5488C84.1891 52.8291 84.6936 53.2215 85.0299 53.6138L82.3394 55.1833C82.0031 54.7909 81.4986 54.3986 80.9941 54.1183Z" fill="#262525"/>
<path d="M82.3398 55.1847L85.0304 53.6152C85.1798 53.8021 85.3106 53.9889 85.4227 54.1758L82.7322 55.7452C82.6201 55.5584 82.4893 55.3716 82.3398 55.1847Z" fill="#A8A8A8"/>
<path d="M82.7314 55.7433L85.422 54.1738C85.422 54.2112 85.4407 54.2486 85.478 54.2859L82.7314 55.8554C82.7314 55.818 82.7314 55.7807 82.7314 55.7433Z" fill="#262525"/>
<path d="M93.0455 82.9269C91.9805 80.797 90.7473 78.4427 89.5702 76.9854L82.7318 55.8536C82.5636 55.237 81.835 54.5644 80.9942 54.116C79.5368 53.2752 77.7992 52.9949 78.3597 54.3402L87.7205 77.3778C87.4963 78.2746 87.4402 79.3956 87.4963 80.4606C87.4963 81.7498 88.4492 83.3754 89.5702 84.048L91.5881 85.3372C91.6255 85.3372 91.6628 85.3372 91.7002 85.3372C93.1015 86.178 93.9423 84.7206 93.0455 82.9269Z" fill="#262525"/>
<path d="M86.7105 50.8131L85.141 46.7773L80.7129 49.3558L82.3384 53.3355C82.955 55.017 82.7308 56.5305 81.8339 57.0349L86.2621 54.4565C87.1029 53.952 87.3831 52.4947 86.7105 50.8131Z" fill="#D00000"/>
<path d="M85.9813 51.2603L85.1405 49.0742L82.3379 50.6997L83.1787 52.8858C83.7953 54.5673 83.571 56.0247 82.6742 56.5292L82.9545 56.4171L84.8042 55.5202L85.4768 54.9037C86.3737 54.3992 86.5979 52.9418 85.9813 51.2603Z" fill="#353434"/>
<path d="M79.9854 29.8479L84.3574 27.2695L85.1422 46.7758L80.714 49.3542L79.9854 29.8479Z" fill="#D3D2CF"/>
<path d="M83.6279 24.5237C83.2355 23.6269 82.675 22.73 82.0024 21.9453C81.4979 21.3848 80.8813 20.8803 80.2647 20.488C80.2274 20.4506 80.1713 20.4132 80.0966 20.3758C79.0316 19.8153 78.0226 19.8153 77.35 20.2077L72.9219 22.7301C73.6506 22.3377 74.6034 22.3937 75.7245 22.9543C75.7619 22.9916 75.8179 23.029 75.8926 23.0664C76.5092 23.4027 77.0698 23.9071 77.6303 24.5237C78.3029 25.2524 78.8634 26.1492 79.2558 27.1021C79.6482 27.999 79.9284 28.9519 79.9845 29.8487L84.3566 27.2703C84.3005 26.3734 84.0203 25.4206 83.6279 24.5237Z" fill="#D00000"/>
<path d="M75.8924 23.0666C78.0224 24.2437 79.76 27.2705 79.9842 29.8489L80.7129 49.3552L82.3384 53.3349C83.1232 55.4088 82.6187 57.0904 81.2174 57.2025L80.3205 57.3146C79.8721 57.3146 79.3677 57.2025 78.8632 56.9223C77.9103 56.3617 77.0134 55.2967 76.4529 54.0075L73.5943 46.7768L71.7445 25.9253C71.5203 23.0666 73.314 21.6653 75.7242 22.9545C75.7616 22.9919 75.8177 23.0292 75.8924 23.0666Z" fill="#B2B0AF"/>
<path d="M77.6299 24.5237L82.002 21.9453C82.6746 22.73 83.2351 23.6269 83.6275 24.5237L79.2554 27.1021C78.863 26.1493 78.3025 25.2524 77.6299 24.5237Z" fill="#F7F6F5"/>
<path d="M18.6059 29.6797L15.8594 31.2491C16.3078 30.9689 16.8123 30.7447 17.3167 30.6886L20.0073 29.1191C19.5028 29.1752 19.0544 29.3994 18.6059 29.6797Z" fill="#262525"/>
<path d="M22.2495 30.7441L19.5029 32.3136C19.8953 34.0512 19.8953 36.2373 19.7271 38.031C19.6711 38.5354 19.5029 38.8717 19.2227 38.9839L21.9132 37.4144C22.1934 37.3023 22.3616 36.966 22.4176 36.4615C22.5858 34.6678 22.5858 32.4818 22.2495 30.7441Z" fill="#3D3D3D"/>
<path d="M25.7247 15.1602L27.5745 15.9449L22.2495 30.7427L19.5029 32.3122L25.7247 15.1602Z" fill="#353434"/>
<path d="M25.7811 14.9923L21.0727 12.582L17.3171 30.687C16.5885 30.7991 15.8598 31.1914 15.2432 31.6399C14.5145 32.1443 14.5145 33.6577 15.3553 35.1151L16.7566 37.5814C17.0929 38.198 17.5414 38.6464 17.9898 38.8706C18.8306 39.3751 19.6153 39.1509 19.7274 38.0298C19.8956 36.2362 19.8956 34.0501 19.5032 32.3125L25.7811 14.9923Z" fill="#262525"/>
<path d="M28.1927 14.4339L26.5111 16.5078C26.4364 16.6573 26.3243 16.7694 26.1748 16.8441L30.5469 14.2657C30.6964 14.191 30.8272 14.0976 30.9393 13.9855L32.5648 11.8555L28.1927 14.4339Z" fill="#C4C3C2"/>
<path d="M23.709 5.24022L28.0811 2.71786L42.5426 0.0273438L38.1705 2.60576L23.709 5.24022Z" fill="#C4C3C2"/>
<path d="M48.4275 5.07329C48.3528 4.92381 48.2967 4.77434 48.2594 4.62487C47.8109 3.67197 47.2504 2.83119 46.6338 2.10251C46.0733 1.48593 45.4567 0.925407 44.8402 0.589092C44.0554 0.140673 43.2707 -0.0835367 42.542 0.0285681L38.1699 2.60698C38.8986 2.49488 39.6833 2.66303 40.4681 3.11145C41.0847 3.50382 41.7012 4.00829 42.2617 4.68092C42.8783 5.35355 43.4389 6.19433 43.8312 7.14722C43.906 7.2967 43.9807 7.44617 44.0554 7.59565C44.9523 10.062 44.616 12.192 43.2707 12.9206L47.6988 10.3983C48.988 9.61354 49.3804 7.48354 48.4275 5.07329Z" fill="#D00000"/>
<path d="M40.4679 3.11232C41.8692 3.95311 43.2705 5.63468 44.0552 7.59651C45.1202 10.4552 44.4476 12.8654 42.5978 13.2018L28.1924 14.4349L26.5108 16.5089C25.9503 17.1815 25.0534 17.1815 24.1005 16.6209C23.5961 16.2846 23.0356 15.8362 22.5311 15.1636L21.6342 13.9865C20.345 12.3049 19.9527 10.1189 20.7374 8.99783L23.7082 5.24231L38.1697 2.60785C38.8984 2.49575 39.6831 2.6639 40.4679 3.11232Z" fill="#B2B0AF"/>
<path d="M42.2607 4.67998L46.6328 2.10156C47.2494 2.83024 47.8099 3.67103 48.2584 4.62392L43.8302 7.14628C43.4379 6.19339 42.8773 5.35261 42.2607 4.67998Z" fill="#F7F6F5"/>
<path d="M73.3158 33.376C73.3158 35.2258 72.0266 35.9544 70.4011 35.0576C68.7755 34.1047 67.4863 31.8626 67.4863 30.0129C67.4863 28.1071 68.7755 27.3784 70.4011 28.3313C72.0266 29.2282 73.3158 31.4703 73.3158 33.376Z" fill="#262525"/>
<path d="M68.3271 28.1087L73.2037 25.306C73.7642 24.9697 74.4929 25.0258 75.3337 25.4742C76.9032 26.4271 78.2484 28.6692 78.2484 30.5189C78.2484 31.4718 77.9121 32.0884 77.4076 32.4247L72.475 35.2273C72.9795 34.9471 73.3158 34.2744 73.3158 33.3776C73.3158 31.4718 72.0266 29.2297 70.4011 28.3329C69.6164 27.8284 68.8316 27.7723 68.3271 28.1087Z" fill="#353434"/>
<path d="M37.3304 12.5792C37.3304 14.4289 35.9852 15.1576 34.4157 14.2607C32.7902 13.3078 31.501 11.0657 31.501 9.21601C31.501 7.31023 32.7902 6.58155 34.4157 7.53444C35.9852 8.43128 37.3304 10.7294 37.3304 12.5792Z" fill="#262525"/>
<path d="M32.3418 7.31179L37.2183 4.50917C37.7228 4.17286 38.5076 4.22891 39.2923 4.67733C40.9178 5.63022 42.207 7.87232 42.207 9.72205C42.207 10.6749 41.8707 11.2915 41.3662 11.6278L36.4897 14.4304C36.9941 14.1502 37.3305 13.4776 37.3305 12.5807C37.3305 10.731 35.9852 8.43285 34.4157 7.53601C33.5749 7.03153 32.8463 7.03153 32.3418 7.31179Z" fill="#353434"/>
<path d="M25.8379 0.5865L29.0889 0.0820312L38.6739 1.31518L35.8713 1.87571L31.6673 1.37124L25.8379 0.5865Z" fill="#DDDCD8"/>
<path d="M14.9072 6.91986L25.8374 0.585938L35.8708 1.87515L24.9406 8.20906L14.9072 6.91986Z" fill="#D3D2CF"/>
<path d="M13.1143 9.32822L14.9079 6.91797L24.9413 8.20717L22.6992 10.6174L13.1143 9.32822Z" fill="#C4C3C2"/>
<path d="M78.807 26.5943L80.6007 25.5293L80.5447 42.6813L78.751 45.3719L78.807 26.5943Z" fill="#DDDCD8"/>
<path d="M35.8701 1.87498L38.6727 1.31445L80.6 25.5291L78.8063 26.5941L35.8701 1.87498Z" fill="white"/>
<path d="M24.9404 8.20892L35.8707 1.875L78.8068 26.5941L67.8205 32.9841L24.9404 8.20892Z" fill="#F7F6F5"/>
<path d="M67.8207 32.9857L78.807 26.5957L78.7509 45.3733L67.7646 51.7632L67.8207 32.9857Z" fill="#D3D2CF"/>
<path d="M64.6254 34.8361L67.8204 32.9863L67.7643 51.7639L64.5693 51.9881L64.6254 34.8361Z" fill="#C4C3C2"/>
<path d="M64.6259 34.8339L64.5698 51.986L15.1315 23.4553C14.0105 22.7827 13.0576 21.1571 13.0576 19.8119L13.1137 9.33008L22.6986 10.6193L64.6259 34.8339Z" fill="#B2B0AF"/>
<path d="M22.6992 10.6192L24.9413 8.20898L67.8214 32.9842L64.6264 34.8339L22.6992 10.6192Z" fill="#D00000"/>
<g style="mix-blend-mode:multiply" opacity="0.5">
<path d="M58.7979 39.9353L49.1008 34.3301V25.8662L48.9327 25.7541V34.218L36.2088 26.8751H28.3054L16.0859 19.8125V20.0367L28.1933 27.0433V30.9669L28.3614 31.079V27.0433H36.1527L58.7979 40.1595V39.9353Z" fill="#B2B0AF"/>
</g>
<path fill-rule="evenodd" clip-rule="evenodd" d="M46.466 29.9037V31.6974C46.466 31.8655 46.5781 32.0337 46.7463 32.1458L46.0176 31.7534C46.1297 31.8094 46.2418 31.6973 46.2418 31.5292V30.5763C46.2418 30.3521 46.1297 30.1279 45.9615 30.0718L45.1768 29.5673C45.0086 29.5113 44.8965 29.5673 44.8965 29.7916V30.7445C44.8965 30.9687 45.0086 31.1368 45.1768 31.2489L44.5042 30.8566C44.6163 30.9126 44.7284 30.8566 44.7284 30.6884V29.6795C44.7284 29.5113 44.6163 29.2871 44.4481 29.175L43.6073 28.6705V28.2782L46.466 29.9037ZM43.5513 29.9597V29.0068C43.5513 28.8947 43.6073 28.8947 43.6634 28.8947L44.4481 29.3992C44.5042 29.3992 44.5042 29.4552 44.5042 29.5113V30.5202C44.5042 30.5763 44.5042 30.6324 44.4481 30.5763L43.6634 30.1279C43.6073 30.1279 43.5513 30.0158 43.5513 29.9597ZM47.475 30.8566V32.2018C47.475 32.426 47.3628 32.4821 47.1947 32.426V32.2018L46.7463 31.9216C46.6902 31.8655 46.6342 31.8094 46.6342 31.7534V30.6323L47.1947 30.9687V30.7445L46.6342 30.4081V29.9597L47.1947 30.296C47.3628 30.4081 47.475 30.6324 47.475 30.8566ZM45.9615 31.4731L45.1768 31.0247C45.1207 30.9687 45.0647 30.9126 45.0647 30.8566V29.8476C45.0647 29.7916 45.1207 29.7355 45.1768 29.7916L45.9615 30.24C46.0176 30.296 46.0176 30.3521 46.0176 30.4081V31.4171C46.0176 31.4731 46.0176 31.4731 45.9615 31.4731ZM37.946 25.9239C38.0021 26.036 38.0581 26.1482 38.0581 26.2603V26.7087C38.0581 26.9329 37.89 27.045 37.7218 26.9329L36.4326 26.2042V24.0742L37.6658 24.8029C37.8339 24.915 38.0021 25.1953 38.0021 25.4195V25.8118C38.0021 25.8492 37.9834 25.8866 37.946 25.9239ZM36.7689 25.0832L37.6097 25.5876V25.2513L36.7689 24.7468V25.0832ZM37.7218 26.0921L36.7689 25.5316V25.9239L37.7218 26.4284V26.0921ZM38.2263 25.1953L38.6187 25.3634V27.4934L38.2263 27.2692V25.1953ZM40.076 28.3342L39.1231 27.8297C38.955 27.7176 38.7868 27.4374 38.7868 27.1571V25.9239C38.7868 25.6997 38.955 25.5876 39.1231 25.6997L40.076 26.2603L43.3831 28.166V30.24L42.8786 29.9597C43.0468 30.0158 43.1589 29.9597 43.1589 29.7916V28.7826C43.1589 28.6145 42.9908 28.3903 42.8786 28.2782L42.0939 27.8297C41.9258 27.7176 41.8137 27.8297 41.8137 27.9979V29.0068C41.8137 29.175 41.9258 29.3992 42.0379 29.5113L40.8047 28.7826V27.4374C40.8047 27.3813 40.8608 27.3813 40.9168 27.3813L41.6455 27.8297V27.6055L40.9168 27.1571C40.7487 27.045 40.6365 27.1571 40.6365 27.3253V28.6705L40.076 28.3342ZM40.076 27.7176V26.8768C40.076 26.7647 40.02 26.6526 39.9079 26.5966L39.2913 26.2603C39.2352 26.2042 39.1792 26.2603 39.1792 26.3724V27.1571C39.1792 27.2692 39.2352 27.3813 39.2913 27.4374L39.9079 27.8297C40.02 27.8297 40.076 27.8297 40.076 27.7176ZM42.8786 29.7355L42.0939 29.2871C42.0379 29.231 41.9818 29.175 41.9818 29.1189V28.11C41.9818 28.0539 42.0379 28.0539 42.0939 28.0539L42.8786 28.5024C42.9347 28.5584 42.9908 28.6145 42.9908 28.6705V29.6795C42.9908 29.7355 42.9347 29.7355 42.8786 29.7355Z" fill="#D00000"/>
<path d="M56.9482 46.1019L53.1926 43.9719C51.6232 43.0751 50.334 41.0012 50.334 39.4317V35.0596C50.334 33.4901 51.6232 32.9296 53.1926 33.8265L56.9482 35.9564C58.5176 36.9093 59.8068 38.9272 59.8068 40.5527V44.9248C59.8068 46.4943 58.5176 47.0548 56.9482 46.1019Z" fill="#262525"/>
<path d="M21.0741 25.4183L17.3747 23.2883C15.7492 22.3354 14.46 20.3175 14.46 18.748L14.46 14.3759C14.46 12.7504 15.7492 12.1899 17.3747 13.1428L21.0741 15.2728C22.6436 16.1696 23.9328 18.2436 23.9328 19.813V24.1851C23.9328 25.8106 22.6436 26.3151 21.0741 25.4183Z" fill="#262525"/>
<path d="M64.7394 16.3926L62.161 17.0092L51.1747 23.3431L48.9326 25.7533L49.1008 25.8654L51.3429 23.4552L62.3291 17.1213L64.9636 16.5047L64.7394 16.3926Z" fill="#D3D2CF"/>
<path d="M27.2959 23.7925V25.5861C27.2959 25.6982 27.3519 25.8664 27.464 25.9224L28.4169 26.483H32.4527L27.5762 23.6243C27.4641 23.5682 27.2959 23.6803 27.2959 23.7925Z" fill="#D00000"/>
<path d="M25.7831 14.5995L22.4199 12.6377V12.3574L25.7831 14.3193V14.5995Z" fill="#D00000"/>
<path d="M25.0544 14.655L22.4199 13.1416V12.8613L25.0544 14.4308V14.655Z" fill="#D00000"/>
<path d="M24.662 15.3839L22.4199 14.0947V13.8145L24.662 15.1597V15.3839Z" fill="#D00000"/>
<path d="M26.4558 16.4492L24.9424 15.5523V15.3281L26.4558 16.1689V16.4492Z" fill="#D00000"/>
<path d="M26.0073 15.7214L22.4199 13.5914V13.3672L26.0073 15.4411V15.7214Z" fill="#D00000"/>
<path d="M26.623 15.0488L26.0625 14.7685V14.4883L26.623 14.8246V15.0488Z" fill="#D00000"/>
<g style="mix-blend-mode:multiply" opacity="0.5">
<path fill-rule="evenodd" clip-rule="evenodd" d="M49.0445 36.7967L43.8877 33.826V33.4336L49.0445 36.4044V36.7967ZM49.0445 37.7496L43.8877 34.7789V34.3304L49.0445 37.3573V37.7496ZM49.0445 38.7025L43.8877 35.7317V35.2833L49.0445 38.2541V38.7025ZM49.0445 39.7115L43.8877 36.7407V36.2923L49.0445 39.2631V39.7115Z" fill="#B2B0AF"/>
</g>
<path d="M76.9015 28.8944L70.3994 32.6499V35.7328L76.9015 31.9773C77.5181 31.5849 78.0225 30.8563 78.0225 30.2397V29.3428C78.0225 28.7263 77.5181 28.5021 76.9015 28.8944Z" fill="#191817"/>
<path d="M70.5698 35.62L68.6641 36.741V33.6582L70.5698 32.5371V35.62Z" fill="#C4C3C2"/>
<path d="M70.1768 35.3958L70.5691 35.62V32.5371L70.1768 32.7613V35.3958Z" fill="#B2B0AF"/>
<path d="M68.6641 36.2933V36.7418L70.5698 35.6207L70.1775 35.3965L68.6641 36.2933Z" fill="#D00000"/>
<g style="mix-blend-mode:screen">
<path d="M76.9584 29.9034C76.7902 30.0155 76.6221 30.2957 76.6221 30.5199C76.6221 30.7441 76.7902 30.8002 76.9584 30.6881C77.1826 30.632 77.3507 30.3518 77.3507 30.1276C77.3507 29.9034 77.1826 29.7913 76.9584 29.9034Z" fill="#D00000"/>
</g>
<path style="mix-blend-mode:screen" d="M72.2497 27.5485C73.7632 24.9701 77.0703 24.0732 79.7047 25.5866C82.3392 27.1001 83.236 30.4072 81.7226 33.0416C80.2092 35.6761 76.846 36.5729 74.2116 35.0595C71.6332 33.5461 70.7363 30.1829 72.2497 27.5485Z" fill="url(#paint0_radial_540_11553)"/>
<path d="M52.7445 45.2588C52.7445 47.1086 51.4553 47.8373 49.8298 46.9404C48.2042 45.9875 46.915 43.7454 46.915 41.8957C46.915 39.9899 48.2042 39.2612 49.8298 40.2141C51.4553 41.111 52.7445 43.3531 52.7445 45.2588Z" fill="#262525"/>
<path d="M47.7559 39.9915L52.6324 37.1889C53.1929 36.8525 53.9216 36.9086 54.7064 37.357C56.3319 38.3099 57.6211 40.552 57.6211 42.4017C57.6211 43.3546 57.3408 43.9712 56.8363 44.3075L51.9037 47.1101C52.4082 46.8299 52.7445 46.1572 52.7445 45.2604C52.7445 43.3546 51.4553 41.1125 49.8298 40.2157C48.989 39.7112 48.2603 39.6552 47.7559 39.9915Z" fill="#353434"/>
<path d="M16.7591 24.462C16.7591 26.3117 15.4139 27.0404 13.8444 26.1435C12.2189 25.1907 10.9297 22.9486 10.9297 21.0988C10.9297 19.193 12.2189 18.4644 13.8444 19.4173C15.4139 20.3141 16.7591 22.6122 16.7591 24.462Z" fill="#262525"/>
<path d="M11.7148 19.1946L16.6475 16.392C17.1519 16.0557 17.8806 16.1117 18.7214 16.5601C20.3469 17.513 21.6361 19.7551 21.6361 21.6049C21.6361 22.5578 21.2998 23.1743 20.7953 23.5106L15.9188 26.3133C16.4232 26.033 16.7596 25.3604 16.7596 24.4635C16.7596 22.6138 15.4143 20.3156 13.8448 19.4188C13.0041 18.9143 12.2754 18.8583 11.7148 19.1946Z" fill="#353434"/>
<path d="M27.1826 73.7386L29.8731 72.1691C30.1721 71.9823 30.4897 71.8328 30.826 71.7207L28.0795 73.2902C27.7805 73.4023 27.4816 73.5518 27.1826 73.7386Z" fill="#262525"/>
<path d="M30.3783 74.8644L33.0688 73.2949C33.5173 75.0325 33.5733 77.2746 33.5173 79.1244C33.4612 79.6849 33.293 80.0212 33.0128 80.1894L30.3223 81.7588C30.6025 81.5907 30.7707 81.2544 30.7707 80.6939C30.8828 78.8441 30.8267 76.602 30.3783 74.8644Z" fill="#3D3D3D"/>
<path d="M31.1064 54.1792L33.797 52.6097C33.9091 52.5536 34.1333 52.5536 34.3575 52.7218L31.6109 54.2913C31.4428 54.1231 31.2186 54.1231 31.1064 54.1792Z" fill="#262525"/>
<path d="M34.8611 59.2804L30.377 74.863L33.0675 73.2935L37.5517 57.7109L34.8611 59.2804Z" fill="#353434"/>
<path d="M31.6094 54.2941L34.356 52.7246C34.6362 52.8928 35.0846 53.2851 35.477 53.7335L32.7865 55.303C32.3941 54.8546 31.9457 54.4622 31.6094 54.2941Z" fill="#262525"/>
<path d="M32.7871 55.3038L35.4776 53.7344C36.2063 54.5752 36.935 55.6402 37.3274 56.537L34.6368 58.1065C34.2445 57.2096 33.5158 56.1446 32.7871 55.3038Z" fill="#A8A8A8"/>
<path d="M34.6367 58.1066L37.3272 56.5371C37.5514 57.0416 37.6635 57.434 37.5514 57.7142L34.8609 59.2837C34.917 59.0034 34.8609 58.555 34.6367 58.1066Z" fill="#262525"/>
<path d="M31.6107 54.2899C32.8438 54.9625 35.142 58.2696 34.8617 59.2785L30.3775 74.8611C30.826 76.5987 30.882 78.8408 30.7699 80.6906C30.7699 81.8677 29.9291 82.1479 29.0323 81.6434C28.6399 81.4192 28.2476 80.9708 27.9112 80.4103L26.3978 78C25.557 76.5987 25.4449 75.0853 26.1736 74.4687C26.7341 73.9643 27.4068 73.5158 28.0794 73.2916L30.9381 54.5141C30.9941 54.0656 31.2744 54.0656 31.6107 54.2899Z" fill="#262525"/>
<path d="M37.2167 56.5315L36.1517 59.3342C36.0023 59.7078 35.7967 59.9694 35.5352 60.1189L39.9073 57.5405C40.1688 57.391 40.393 57.1481 40.5799 56.8118L41.5888 53.9531L37.2167 56.5315Z" fill="#C4C3C2"/>
<path d="M37.6085 57.205L36.992 58.8866C36.8425 59.2229 36.6183 59.4845 36.3193 59.6713L39.178 57.9897C39.4769 57.8403 39.7012 57.5787 39.8506 57.205L40.4672 55.5234L37.6085 57.205Z" fill="#353434"/>
<path d="M54.3115 42.2392C54.1994 41.9776 54.0873 41.7347 53.9752 41.5105C53.6015 40.8379 53.1904 40.24 52.742 39.7168C52.1815 39.1002 51.5089 38.5397 50.8923 38.2034C49.8273 37.5868 48.7623 37.4747 47.9776 37.9231L43.6055 40.4455C44.3902 39.9971 45.4552 40.1652 46.5202 40.7818C47.1368 41.1181 47.7533 41.6226 48.3139 42.2952C48.7997 42.8184 49.2294 43.4163 49.6031 44.0889C49.7152 44.3131 49.8273 44.5373 49.9394 44.7615C51.0044 47.2839 50.7802 49.6942 49.3789 50.591L53.807 48.0126C55.1523 47.1718 55.4325 44.7055 54.3115 42.2392Z" fill="#D00000"/>
<path d="M46.5201 40.7832C47.6412 41.3998 48.7622 42.5769 49.603 44.0903C51.0604 46.7808 50.9483 49.6395 49.3788 50.5924L37.2154 56.534L36.1504 59.3366C35.702 60.4016 34.637 60.5697 33.4599 59.8971C33.1236 59.7103 32.7873 59.4674 32.451 59.1684L31.442 58.1034C30.0407 56.7021 29.256 54.46 29.7044 53.0027L31.5541 48.014L43.5494 40.503C44.3341 39.9985 45.4551 40.1106 46.5201 40.7832Z" fill="#B2B0AF"/>
<path d="M48.3154 42.2933L52.7436 39.7148C53.192 40.238 53.603 40.8359 53.9767 41.5085C54.0888 41.7327 54.2009 41.9756 54.313 42.2372L49.9409 44.7596C49.8288 44.5354 49.7167 44.3111 49.6046 44.0869C49.2309 43.4143 48.8012 42.8164 48.3154 42.2933Z" fill="#F7F6F5"/>
<path d="M20.3441 70.432C20.3067 70.3946 20.2693 70.3386 20.232 70.2638C19.167 68.1338 17.8778 65.7796 16.7007 64.3223L13.9541 65.8917C15.1873 67.3491 16.4765 69.7033 17.5415 71.8333C17.5788 71.8707 17.6162 71.9267 17.6536 72.0015C18.158 73.1225 17.9899 74.1314 17.4294 74.4117L20.1199 72.8422C20.6804 72.562 20.8486 71.553 20.3441 70.432Z" fill="#3D3D3D"/>
<path d="M2.57715 42.5198L5.26766 40.9503C5.71608 40.6701 6.89319 41.0064 7.90213 41.5669L5.15556 43.1364C4.20267 42.5759 3.02557 42.2395 2.57715 42.5198Z" fill="#262525"/>
<path d="M6.83594 44.8156L9.52645 43.2461L16.7012 64.3218L13.9546 65.8913L6.83594 44.8156Z" fill="#353434"/>
<path d="M5.1543 43.1339L7.90086 41.5645C8.34928 41.8447 8.79771 42.181 9.13402 42.5734L6.4435 44.1429C6.10718 43.7505 5.65877 43.4142 5.1543 43.1339Z" fill="#262525"/>
<path d="M6.44336 44.1417L9.13389 42.5723C9.28336 42.7591 9.41414 42.9459 9.52624 43.1328L6.77968 44.7023C6.70494 44.5154 6.59283 44.3286 6.44336 44.1417Z" fill="#A8A8A8"/>
<path d="M6.7793 44.7042L9.52586 43.1348C9.52586 43.1721 9.52586 43.2095 9.52586 43.2469L6.83535 44.8163C6.83535 44.779 6.81667 44.7416 6.7793 44.7042Z" fill="#262525"/>
<path d="M5.15325 43.1362C5.93799 43.5846 6.66667 44.2012 6.83482 44.8178L13.9535 65.8935C15.1866 67.3508 16.4758 69.705 17.5408 71.835C18.4937 73.6287 17.6529 75.1421 16.1956 74.3013L14.1777 73.0682C13.0006 72.3956 12.0477 70.8261 11.9916 69.4808C11.9916 68.4719 11.9916 67.2948 12.1598 66.398L2.46272 43.4165C1.84615 42.0152 3.69589 42.2954 5.15325 43.1362Z" fill="#262525"/>
<path d="M11.2099 38.8203L6.83786 41.3427L6.83786 44.9861C6.7818 45.8269 6.50154 46.4434 5.99707 46.7237L10.3692 44.1453C10.8736 43.865 11.2099 43.2485 11.2099 42.4077V38.8203Z" fill="#D3D2CF"/>
<path d="M10.4813 41.0605L7.67868 42.6861L7.67868 44.4797C7.62262 45.3766 7.28631 45.9932 6.83789 46.2734L9.64051 44.6479C10.145 44.3116 10.4813 43.7511 10.4813 42.8542V41.0605Z" fill="#353434"/>
<path d="M14.6302 28.952L19.0022 26.4297L11.2109 38.8173L6.83887 41.3396L14.6302 28.952Z" fill="#C4C3C2"/>
<path d="M18.6656 21.3862C18.3293 20.6015 17.8809 19.8168 17.2643 19.1441C17.2269 19.0694 17.1895 18.9947 17.1522 18.9199C16.5356 18.3034 15.919 17.7428 15.3585 17.4065C14.2374 16.79 13.1724 16.6778 12.3877 17.1263L8.01562 19.6486C8.80036 19.2002 9.86534 19.3123 10.9303 19.9849C11.5469 20.3212 12.1635 20.8257 12.7801 21.4983C12.8174 21.5357 12.8548 21.5918 12.8922 21.6665C13.5088 22.3391 13.9572 23.1239 14.2935 23.9086C15.1343 25.7583 15.3024 27.7202 14.6298 28.9533L19.0019 26.431C19.6745 25.1978 19.5064 23.236 18.6656 21.3862Z" fill="#D00000"/>
<path d="M10.9302 19.9858C11.6029 20.3222 12.2755 20.9387 12.8921 21.6674C14.8539 23.9656 15.5265 27.2166 14.6297 28.9542L6.8384 41.3418L6.8384 44.9852C6.78235 46.7229 5.49314 47.3955 3.92367 46.4987L2.80262 45.826C1.28921 44.9292 0.0560524 42.7992 0 41.0055L0 34.5595L7.17472 20.6024C7.9034 19.2011 9.36076 19.033 10.9302 19.9858Z" fill="#B2B0AF"/>
<path d="M12.7793 21.5003L17.1514 18.9219C17.1887 18.9966 17.2261 19.0713 17.2635 19.1461C17.8801 19.8187 18.3285 20.6034 18.6648 21.3882L14.2927 23.9105C13.9564 23.1258 13.508 22.3411 12.8914 21.6684C12.854 21.5937 12.8167 21.5377 12.7793 21.5003Z" fill="#F7F6F5"/>
<g style="mix-blend-mode:multiply" opacity="0.5">
<path d="M46.1854 42.6274C44.616 41.7305 43.3828 42.4592 43.3828 44.1968C43.3828 45.9905 44.616 48.1766 46.1854 49.0173C47.6988 49.9142 48.932 49.1855 48.932 47.4479C48.932 45.6542 47.6988 43.5242 46.1854 42.6274Z" fill="#B2B0AF"/>
</g>
<g style="mix-blend-mode:multiply" opacity="0.5">
<path d="M10.535 22.0571C8.96558 21.1602 7.73242 21.8889 7.73242 23.6265C7.73242 25.4202 8.96558 27.5502 10.535 28.447C12.0485 29.3439 13.2816 28.6152 13.2816 26.8776C13.2816 25.0839 12.0485 22.9539 10.535 22.0571Z" fill="#B2B0AF"/>
</g>
<defs>
<radialGradient id="paint0_radial_540_11553" cx="0" cy="0" r="1" gradientUnits="userSpaceOnUse" gradientTransform="translate(76.9766 30.3152) rotate(180) scale(5.47913)">
<stop stop-color="#DE0E3F"/>
<stop offset="1"/>
</radialGradient>
</defs>
</svg>
