<svg width="153" height="142" viewBox="0 0 153 142" fill="none" xmlns="http://www.w3.org/2000/svg">
<path d="M73.0407 89.0645C73.0407 89.0645 71.1634 93.6252 62.3301 96.6067C53.4967 99.5883 45.024 108.9 56.9896 116.5" stroke="#263238" stroke-width="2" stroke-miterlimit="10"/>
<path d="M74.5238 91.959C74.5238 91.959 69.3184 96.9334 57.3216 102.123C45.3248 107.313 43.0389 120.786 57.3216 122.275" stroke="#263238" stroke-width="2" stroke-miterlimit="10"/>
<path d="M145.842 73.4907C145.842 73.4907 158.061 60.6201 141.131 44.5296C124.2 28.4391 117.428 19.3103 102.853 17.6914" stroke="#DE0E3F" stroke-width="2" stroke-miterlimit="10"/>
<path d="M141.426 74.2743C141.426 74.2743 151.143 66.1085 148.934 53.7504C146.726 41.3922 117.659 10.9166 99.583 15.186" stroke="#263238" stroke-width="4" stroke-miterlimit="10"/>
<path d="M152.356 73.2879L139.297 59.4024C138.848 58.9252 138.248 58.6751 137.641 58.6561C137.034 58.6377 130.995 58.6583 130.995 58.6583C130.369 58.6243 129.732 58.8358 129.239 59.2992L121.699 66.3904C120.744 67.288 120.698 68.7897 121.595 69.7443L134.652 83.632C135.101 84.1093 135.701 84.3599 136.308 84.3783C136.915 84.3973 142.404 84.3599 143.011 84.3783C143.618 84.3973 144.232 84.1841 144.71 83.7353L152.252 76.6412C153.208 75.7447 153.254 74.2425 152.356 73.2879Z" fill="#263238"/>
<path opacity="0.2" d="M152.356 73.2879L139.297 59.4024C138.848 58.9252 138.248 58.6751 137.641 58.6561C137.034 58.6377 130.995 58.6583 130.995 58.6583C130.369 58.6243 129.732 58.8358 129.239 59.2992L121.699 66.3904C120.744 67.288 120.698 68.7897 121.595 69.7443L134.652 83.632C135.101 84.1093 135.701 84.3599 136.308 84.3783C136.915 84.3973 142.404 84.3599 143.011 84.3783C143.618 84.3973 144.232 84.1841 144.71 83.7353L152.252 76.6412C153.208 75.7447 153.254 74.2425 152.356 73.2879Z" fill="white"/>
<path opacity="0.2" d="M128.3 69.7465L141.356 83.6342C142.254 84.5893 143.756 84.6351 144.711 83.7374L152.254 76.6434C153.208 75.7458 153.254 74.2436 152.356 73.289L139.297 59.4035C138.4 58.4489 136.897 58.4026 135.943 59.3008L128.402 66.392C127.448 67.2897 127.402 68.7913 128.3 69.7465Z" fill="black"/>
<path d="M135.286 79.4179C133.082 77.4719 130.594 78.015 130.594 78.015L120.233 88.9876C119.548 89.7122 120.225 91.1597 122.091 92.696C124.272 94.4901 126.028 94.3126 126.536 93.7728L136.975 82.6757C136.975 82.6757 136.975 80.9089 135.286 79.4179Z" fill="#DE0E3F"/>
<path opacity="0.2" d="M120.233 88.9858C121.882 87.2391 128.194 92.0075 126.536 93.7704C126.028 94.3102 124.273 94.4883 122.092 92.6936C120.225 91.1585 119.548 89.711 120.233 88.9858Z" fill="black"/>
<path d="M104.315 121.654V128.057H89.9785V121.654C89.9785 118.806 92.2845 116.498 95.132 116.498H99.1591C102.007 116.497 104.315 118.806 104.315 121.654Z" fill="#263238"/>
<path opacity="0.2" d="M104.315 121.654V128.057H89.9785V121.654C89.9785 118.806 92.2845 116.498 95.132 116.498H99.1591C102.007 116.497 104.315 118.806 104.315 121.654Z" fill="white"/>
<path opacity="0.2" d="M104.315 121.654V128.057H92.7676V121.654C92.7676 118.806 95.0736 116.498 97.9211 116.498H99.1592C102.007 116.497 104.315 118.806 104.315 121.654Z" fill="black"/>
<path d="M125.481 93.6189L125.129 93.9929L99.9028 120.827C98.7641 122.038 96.8605 122.1 95.6492 120.961C95.0184 120.369 94.7002 119.566 94.7002 118.762C94.7002 118.025 94.9681 117.282 95.5152 116.702L120.194 90.4537L120.741 89.8731C122.31 89.3149 126.078 92.2177 125.481 93.6189Z" fill="#DE0E3F"/>
<path d="M109.904 121.654V128.057H95.5674V121.654C95.5674 118.806 97.8734 116.498 100.721 116.498H104.748C107.596 116.497 109.904 118.806 109.904 121.654Z" fill="#263238"/>
<path opacity="0.2" d="M109.904 121.654V128.057H95.5674V121.654C95.5674 118.806 97.8734 116.498 100.721 116.498H104.748C107.596 116.497 109.904 118.806 109.904 121.654Z" fill="white"/>
<path opacity="0.2" d="M109.904 121.654V128.057H98.3564V121.654C98.3564 118.806 100.662 116.498 103.51 116.498H104.748C107.596 116.497 109.904 118.806 109.904 121.654Z" fill="black"/>
<path d="M85.6182 124.51V138.886H114.423V124.51C114.423 123.598 113.682 122.857 112.77 122.857H87.2711C86.3584 122.857 85.6182 123.598 85.6182 124.51Z" fill="#263238"/>
<path opacity="0.2" d="M85.6182 124.51V138.886H114.423V124.51C114.423 123.598 113.682 122.857 112.77 122.857H87.2711C86.3584 122.857 85.6182 123.598 85.6182 124.51Z" fill="white"/>
<path opacity="0.2" d="M85.6182 124.51V138.886H104.369V124.51C104.369 123.598 103.629 122.857 102.717 122.857H87.2716C86.3584 122.857 85.6182 123.598 85.6182 124.51Z" fill="white"/>
<path d="M78.9637 116.246V129.052H50.29V116.246C50.29 110.551 54.9026 105.934 60.5971 105.934H68.6517C74.3467 105.934 78.9637 110.551 78.9637 116.246Z" fill="#DE0E3F"/>
<path opacity="0.2" d="M78.9635 116.246V129.052H55.8682V116.246C55.8682 110.551 60.4808 105.934 66.1752 105.934H68.6509C74.3465 105.934 78.9635 110.551 78.9635 116.246Z" fill="black"/>
<path d="M108.007 78.881L104.798 82.2974L100.544 86.819L89.1562 98.9327C88.8381 99.2676 88.4138 99.4351 87.984 99.4351C87.5876 99.4351 83.5349 99.4407 83.1051 99.4351C82.7143 99.4351 82.318 99.29 82.011 98.9997L70.1487 87.8462C69.8529 87.5615 69.6854 87.1986 69.6519 86.819C69.6128 86.378 69.7524 85.9259 70.0817 85.5742L88.933 65.5281C89.2456 65.1987 89.6586 65.0256 90.0829 65.0201C90.4848 65.0145 94.5543 65.0201 94.9841 65.0201C95.3804 65.0201 95.7712 65.1652 96.0838 65.4555L104.798 73.6503L107.94 76.609C108.582 77.2174 108.616 78.2334 108.007 78.881Z" fill="#263238"/>
<path opacity="0.3" d="M108.007 78.881L104.798 82.2974L100.544 86.819L89.1562 98.9327C88.8381 99.2676 88.4138 99.4351 87.984 99.4351C87.5876 99.4351 83.5349 99.4407 83.1051 99.4351C82.7143 99.4351 82.318 99.29 82.011 98.9997L70.1487 87.8462C69.8529 87.5615 69.6854 87.1986 69.6519 86.819C69.6128 86.378 69.7524 85.9259 70.0817 85.5742L88.933 65.5281C89.2456 65.1987 89.6586 65.0256 90.0829 65.0201C90.4848 65.0145 94.5543 65.0201 94.9841 65.0201C95.3804 65.0201 95.7712 65.1652 96.0838 65.4555L104.798 73.6503L107.94 76.609C108.582 77.2174 108.616 78.2334 108.007 78.881Z" fill="white"/>
<path opacity="0.2" d="M104.799 73.6503V82.2974L100.545 86.819H70.6621C70.0252 86.819 69.6417 86.0531 70.0732 85.5848C70.0765 85.5814 70.0799 85.5775 70.0832 85.5742L88.9344 65.5281C89.247 65.1987 89.6601 65.0256 90.0844 65.0201C90.4863 65.0145 94.5557 65.0201 94.9856 65.0201C95.3819 65.0201 95.7727 65.1652 96.0853 65.4555L104.799 73.6503Z" fill="white"/>
<path d="M128.358 57.9749C126.178 55.1837 122.96 53.763 119.727 53.7569C118.637 53.7547 114.426 53.7658 113.373 53.7563C110.436 53.729 107.482 54.8683 105.279 57.2118L76.6807 87.6266H113.247L127.703 72.2517C131.413 68.3061 131.691 62.2437 128.358 57.9749Z" fill="#263238"/>
<path opacity="0.6" d="M128.358 57.9749C126.178 55.1837 122.96 53.763 119.727 53.7569C118.637 53.7547 114.426 53.7658 113.373 53.7563C110.436 53.729 107.482 54.8683 105.279 57.2118L76.6807 87.6266H113.247L127.703 72.2517C131.413 68.3061 131.691 62.2437 128.358 57.9749Z" fill="white"/>
<path opacity="0.2" d="M128.357 57.9752C124.214 52.6703 116.318 52.3086 111.707 57.2121L83.1094 87.6269H113.247L127.703 72.252C131.412 68.3064 131.69 62.244 128.357 57.9752Z" fill="black"/>
<path d="M123.151 77.7331L106.85 62.4029C106.425 62.0027 105.883 61.8039 105.342 61.8028C104.752 61.8017 99.1537 61.7944 98.5994 61.8028C98.0227 61.8117 97.45 62.0451 97.0235 62.4984L71.1001 90.0617C70.2639 90.9509 70.3069 92.3499 71.1956 93.1861L87.5013 108.521C87.9272 108.922 88.4698 109.121 89.0119 109.121C89.6014 109.122 95.1747 109.121 95.7173 109.121C96.3062 109.121 96.894 108.888 97.3289 108.425L123.248 80.857C124.083 79.9677 124.04 78.5693 123.151 77.7331Z" fill="#DE0E3F"/>
<g opacity="0.2">
<path d="M123.248 80.8574L97.3293 108.426C96.4931 109.315 95.0942 109.358 94.2049 108.522L77.8992 93.1866C77.01 92.3503 76.967 90.9514 77.8032 90.0622L103.727 62.4989C104.563 61.6096 105.962 61.5666 106.851 62.4028L123.152 77.733C124.041 78.5698 124.084 79.9682 123.248 80.8574Z" fill="black"/>
</g>
<path d="M93.7872 108.268L93.8542 108.245L81.9417 120.912C80.4513 122.497 78.6203 123.53 76.6832 124.026C76.5604 124.06 76.4376 124.088 76.3148 124.11C75.7287 124.244 75.1314 124.322 74.5341 124.356C74.3555 124.361 74.1712 124.367 73.9926 124.367H73.747C72.3626 124.373 68.5388 124.367 67.5228 124.367H67.506C64.2683 124.367 61.0474 122.943 58.8647 120.152C55.5322 115.882 55.8113 109.819 59.5179 105.873L71.3299 93.3125H77.7606L93.7872 108.268Z" fill="#263238"/>
<path opacity="0.6" d="M93.7872 108.268L93.8542 108.245L81.9417 120.912C80.4513 122.497 78.6203 123.53 76.6832 124.026C76.5604 124.06 76.4376 124.088 76.3148 124.11C75.7287 124.244 75.1314 124.322 74.5341 124.356C74.3555 124.361 74.1712 124.367 73.9926 124.367H73.747C72.3626 124.373 68.5388 124.367 67.5228 124.367H67.506C64.2683 124.367 61.0474 122.943 58.8647 120.152C55.5322 115.882 55.8113 109.819 59.5179 105.873L71.3299 93.3125H77.7606L93.7872 108.268Z" fill="white"/>
<path opacity="0.2" d="M93.8554 108.245L81.9429 120.912C80.4524 122.497 78.6215 123.53 76.6844 124.026C76.5616 124.06 76.4388 124.088 76.316 124.11C75.7299 124.244 75.1326 124.322 74.5353 124.356C74.3566 124.361 74.1724 124.367 73.9938 124.367H73.7482C70.5774 124.311 67.4346 122.893 65.2966 120.152C61.9585 115.882 62.2376 109.819 65.9498 105.873L77.7618 93.3125L93.7884 108.268L93.8554 108.245Z" fill="black"/>
<path d="M73.4273 8.42217C75.6072 5.63101 78.8253 4.21031 82.058 4.20417C83.1482 4.20194 87.3589 4.21365 88.4123 4.20361C91.3485 4.17625 94.3021 5.31561 96.506 7.65907L142.265 56.3258C145.976 60.2719 146.253 66.3338 142.92 70.6031C140.734 73.4027 137.503 74.8234 134.261 74.8212C133.18 74.8206 128.894 74.8262 127.792 74.8223C124.903 74.8122 122.01 73.6718 119.842 71.3663L74.0821 22.6995C70.3716 18.7534 70.0936 12.691 73.4273 8.42217Z" fill="#263238"/>
<path opacity="0.6" d="M73.4273 8.42217C75.6072 5.63101 78.8253 4.21031 82.058 4.20417C83.1482 4.20194 87.3589 4.21365 88.4123 4.20361C91.3485 4.17625 94.3021 5.31561 96.506 7.65907L142.265 56.3258C145.976 60.2719 146.253 66.3338 142.92 70.6031C140.734 73.4027 137.503 74.8234 134.261 74.8212C133.18 74.8206 128.894 74.8262 127.792 74.8223C124.903 74.8122 122.01 73.6718 119.842 71.3663L74.0821 22.6995C70.3716 18.7534 70.0936 12.691 73.4273 8.42217Z" fill="white"/>
<path opacity="0.2" d="M142.919 70.6013C146.253 66.3325 145.975 60.2701 142.265 56.324L96.5057 7.65724C91.8953 2.75372 83.9987 3.11601 79.8561 8.42033C76.5224 12.6891 76.8004 18.7515 80.5103 22.6977L126.27 71.3644C130.88 76.2679 138.777 75.9062 142.919 70.6013Z" fill="black"/>
<path d="M89.6522 116.246V129.052H60.9785V116.246C60.9785 110.551 65.5911 105.934 71.2856 105.934H79.3402C85.0352 105.934 89.6522 110.551 89.6522 116.246Z" fill="#DE0E3F"/>
<path opacity="0.2" d="M89.6534 116.246V129.052H66.5586V116.246C66.5586 110.551 71.1712 105.934 76.8656 105.934H79.3413C85.0363 105.934 89.6534 110.551 89.6534 116.246Z" fill="black"/>
<path d="M101.684 127.934V138.959H37.6895V127.934C37.6895 127.021 38.4297 126.281 39.3424 126.281H100.031C100.944 126.281 101.684 127.021 101.684 127.934Z" fill="#DE0E3F"/>
<path opacity="0.2" d="M101.682 127.934V138.959H65.6152V127.934C65.6152 127.021 66.3554 126.281 67.2681 126.281H100.029C100.942 126.281 101.682 127.021 101.682 127.934Z" fill="black"/>
<path opacity="0.2" d="M101.684 127.934V138.959H37.6895V127.934C37.6895 127.021 38.4297 126.281 39.3424 126.281H100.031C100.944 126.281 101.684 127.021 101.684 127.934Z" fill="black"/>
<path d="M118.676 139.542V141.189H33.127V139.542C33.127 138.118 34.2769 136.963 35.7004 136.963H116.097C117.52 136.963 118.676 138.118 118.676 139.542Z" fill="#263238"/>
<path opacity="0.2" d="M118.676 139.542V141.189H33.127V139.542C33.127 138.118 34.2769 136.963 35.7004 136.963H116.097C117.52 136.963 118.676 138.118 118.676 139.542Z" fill="white"/>
<path opacity="0.2" d="M118.674 139.542V141.189H61.0527V139.542C61.0527 138.118 62.2027 136.963 63.6261 136.963H116.095C117.518 136.963 118.674 138.118 118.674 139.542Z" fill="black"/>
<path d="M80.1325 109.648C79.8579 109.648 78.7878 109.648 78.5131 109.648C74.8132 109.648 71.8145 113.195 71.8145 117.569C71.8145 121.944 74.8132 125.49 78.5131 125.49C78.7878 125.49 79.8579 125.49 80.1325 125.49C83.8319 125.49 86.8312 121.944 86.8312 117.569C86.8312 113.194 83.8319 109.648 80.1325 109.648Z" fill="#263238"/>
<path opacity="0.2" d="M80.1325 109.648C79.8579 109.648 78.7878 109.648 78.5131 109.648C74.8132 109.648 71.8145 113.195 71.8145 117.569C71.8145 121.944 74.8132 125.49 78.5131 125.49C78.7878 125.49 79.8579 125.49 80.1325 125.49C83.8319 125.49 86.8312 121.944 86.8312 117.569C86.8312 113.194 83.8319 109.648 80.1325 109.648Z" fill="white"/>
<path opacity="0.2" d="M80.1333 125.49C83.8328 125.49 86.8319 121.944 86.8319 117.569C86.8319 113.195 83.8328 109.648 80.1333 109.648C76.4337 109.648 73.4346 113.195 73.4346 117.569C73.4346 121.944 76.4337 125.49 80.1333 125.49Z" fill="black"/>
<path d="M82.1565 112.861C81.9935 112.861 81.3571 112.861 81.1941 112.861C78.9953 112.861 77.2129 114.969 77.2129 117.569C77.2129 120.169 78.9953 122.276 81.1941 122.276C81.3571 122.276 81.9935 122.276 82.1565 122.276C84.3554 122.276 86.1378 120.169 86.1378 117.569C86.1378 114.969 84.3554 112.861 82.1565 112.861Z" fill="#263238"/>
<path opacity="0.6" d="M82.1565 112.861C81.9935 112.861 81.3571 112.861 81.1941 112.861C78.9953 112.861 77.2129 114.969 77.2129 117.569C77.2129 120.169 78.9953 122.276 81.1941 122.276C81.3571 122.276 81.9935 122.276 82.1565 122.276C84.3554 122.276 86.1378 120.169 86.1378 117.569C86.1378 114.969 84.3554 112.861 82.1565 112.861Z" fill="white"/>
<path opacity="0.2" d="M82.156 122.276C84.3548 122.276 86.1373 120.169 86.1373 117.569C86.1373 114.969 84.3548 112.861 82.156 112.861C79.9573 112.861 78.1748 114.969 78.1748 117.569C78.1748 120.169 79.9573 122.276 82.156 122.276Z" fill="black"/>
<path d="M137.625 55.4395C137.35 55.4395 136.28 55.4395 136.005 55.4395C132.305 55.4395 129.307 58.9859 129.307 63.3602C129.307 67.7351 132.305 71.281 136.005 71.281C136.28 71.281 137.35 71.281 137.625 71.281C141.325 71.281 144.323 67.7345 144.323 63.3602C144.323 58.9859 141.325 55.4395 137.625 55.4395Z" fill="#263238"/>
<path opacity="0.2" d="M137.625 55.4395C137.35 55.4395 136.28 55.4395 136.005 55.4395C132.305 55.4395 129.307 58.9859 129.307 63.3602C129.307 67.7351 132.305 71.281 136.005 71.281C136.28 71.281 137.35 71.281 137.625 71.281C141.325 71.281 144.323 67.7345 144.323 63.3602C144.323 58.9859 141.325 55.4395 137.625 55.4395Z" fill="white"/>
<path opacity="0.2" d="M137.625 71.281C141.325 71.281 144.324 67.7347 144.324 63.3602C144.324 58.9857 141.325 55.4395 137.625 55.4395C133.926 55.4395 130.927 58.9857 130.927 63.3602C130.927 67.7347 133.926 71.281 137.625 71.281Z" fill="black"/>
<path d="M139.647 58.6484C139.484 58.6484 138.847 58.6484 138.684 58.6484C136.486 58.6484 134.703 60.7563 134.703 63.356C134.703 65.9557 136.486 68.0636 138.684 68.0636C138.847 68.0636 139.484 68.0636 139.647 68.0636C141.846 68.0636 143.628 65.9563 143.628 63.356C143.627 60.7558 141.845 58.6484 139.647 58.6484Z" fill="#263238"/>
<path opacity="0.6" d="M139.647 58.6484C139.484 58.6484 138.847 58.6484 138.684 58.6484C136.486 58.6484 134.703 60.7563 134.703 63.356C134.703 65.9557 136.486 68.0636 138.684 68.0636C138.847 68.0636 139.484 68.0636 139.647 68.0636C141.846 68.0636 143.628 65.9563 143.628 63.356C143.627 60.7558 141.845 58.6484 139.647 58.6484Z" fill="white"/>
<path opacity="0.2" d="M139.647 68.0636C141.846 68.0636 143.629 65.9559 143.629 63.356C143.629 60.7561 141.846 58.6484 139.647 58.6484C137.448 58.6484 135.666 60.7561 135.666 63.356C135.666 65.9559 137.448 68.0636 139.647 68.0636Z" fill="black"/>
<path d="M72.4876 1.56645C71.0395 1.58823 69.5792 1.82547 68.1546 2.29271L57.2715 6.59669V27.4126L68.1546 31.7166C69.7366 32.2358 71.3627 32.4713 72.9676 32.4423C72.9676 32.4423 90.9089 32.4708 92.5116 32.444C99.9315 32.3178 106.895 26.5463 106.895 17.0049C106.895 7.27383 99.6524 1.46429 92.0695 1.56478C92.0695 1.56478 75.6611 1.519 72.4876 1.56645Z" fill="#DE0E3F"/>
<path opacity="0.2" d="M87.7027 2.29365L74.585 6.59762V27.4136L87.7027 31.7175C96.5968 34.636 106.893 28.6082 106.893 17.0059C106.893 5.40301 96.5968 -0.624236 87.7027 2.29365Z" fill="black"/>
<path d="M98.0407 9.07422C97.7661 9.07422 96.696 9.07422 96.4213 9.07422C92.722 9.07422 89.7227 12.6207 89.7227 16.995C89.7227 21.3698 92.722 24.9157 96.4213 24.9157C96.696 24.9157 97.7661 24.9157 98.0407 24.9157C101.74 24.9157 104.739 21.3693 104.739 16.995C104.739 12.6207 101.74 9.07422 98.0407 9.07422Z" fill="#263238"/>
<path opacity="0.2" d="M98.0407 9.07422C97.7661 9.07422 96.696 9.07422 96.4213 9.07422C92.722 9.07422 89.7227 12.6207 89.7227 16.995C89.7227 21.3698 92.722 24.9157 96.4213 24.9157C96.696 24.9157 97.7661 24.9157 98.0407 24.9157C101.74 24.9157 104.739 21.3693 104.739 16.995C104.739 12.6207 101.74 9.07422 98.0407 9.07422Z" fill="white"/>
<path opacity="0.2" d="M98.0415 24.9157C101.741 24.9157 104.74 21.3695 104.74 16.995C104.74 12.6205 101.741 9.07422 98.0415 9.07422C94.3419 9.07422 91.3428 12.6205 91.3428 16.995C91.3428 21.3695 94.3419 24.9157 98.0415 24.9157Z" fill="black"/>
<path d="M100.064 12.2852C99.9007 12.2852 99.2644 12.2852 99.1014 12.2852C96.9025 12.2852 95.1201 14.3925 95.1201 16.9927C95.1201 19.5924 96.9025 21.7003 99.1014 21.7003C99.2644 21.7003 99.9007 21.7003 100.064 21.7003C102.263 21.7003 104.045 19.5924 104.045 16.9927C104.044 14.3925 102.262 12.2852 100.064 12.2852Z" fill="#263238"/>
<path opacity="0.6" d="M100.064 12.2852C99.9007 12.2852 99.2644 12.2852 99.1014 12.2852C96.9025 12.2852 95.1201 14.3925 95.1201 16.9927C95.1201 19.5924 96.9025 21.7003 99.1014 21.7003C99.2644 21.7003 99.9007 21.7003 100.064 21.7003C102.263 21.7003 104.045 19.5924 104.045 16.9927C104.044 14.3925 102.262 12.2852 100.064 12.2852Z" fill="white"/>
<path opacity="0.2" d="M100.064 21.7003C102.263 21.7003 104.046 19.5927 104.046 16.9927C104.046 14.3928 102.263 12.2852 100.064 12.2852C97.8655 12.2852 96.083 14.3928 96.083 16.9927C96.083 19.5927 97.8655 21.7003 100.064 21.7003Z" fill="black"/>
<path d="M63.9792 2.79492C64.4716 2.79492 66.3907 2.79492 66.8831 2.79492C73.5176 2.79492 78.8955 9.15431 78.8955 16.9992C78.8955 24.844 73.5176 31.2034 66.8831 31.2034C66.3907 31.2034 64.4716 31.2034 63.9792 31.2034C57.3447 31.2034 51.9668 24.844 51.9668 16.9992C51.9668 9.15431 57.3447 2.79492 63.9792 2.79492Z" fill="#263238"/>
<path opacity="0.2" d="M63.9792 2.79492C64.4716 2.79492 66.3907 2.79492 66.8831 2.79492C73.5176 2.79492 78.8955 9.15431 78.8955 16.9992C78.8955 24.844 73.5176 31.2034 66.8831 31.2034C66.3907 31.2034 64.4716 31.2034 63.9792 31.2034C57.3447 31.2034 51.9668 24.844 51.9668 16.9992C51.9668 9.15431 57.3447 2.79492 63.9792 2.79492Z" fill="white"/>
<path opacity="0.2" d="M63.9792 31.2034C70.6135 31.2034 75.9916 24.8439 75.9916 16.9991C75.9916 9.15437 70.6135 2.79492 63.9792 2.79492C57.3449 2.79492 51.9668 9.15437 51.9668 16.9991C51.9668 24.8439 57.3449 31.2034 63.9792 31.2034Z" fill="white"/>
<path d="M60.167 5.61133C57.0773 5.61133 48.0212 5.61133 44.9314 5.61133C39.5624 5.61133 35.21 10.7113 35.21 17.0026C35.21 23.2939 39.5624 28.3939 44.9314 28.3939C48.0212 28.3939 57.0773 28.3939 60.167 28.3939C65.536 28.3939 69.8885 23.2939 69.8885 17.0026C69.8885 10.7113 65.536 5.61133 60.167 5.61133Z" fill="#263238"/>
<path opacity="0.6" d="M60.167 5.61133C57.0773 5.61133 48.0212 5.61133 44.9314 5.61133C39.5624 5.61133 35.21 10.7113 35.21 17.0026C35.21 23.2939 39.5624 28.3939 44.9314 28.3939C48.0212 28.3939 57.0773 28.3939 60.167 28.3939C65.536 28.3939 69.8885 23.2939 69.8885 17.0026C69.8885 10.7113 65.536 5.61133 60.167 5.61133Z" fill="white"/>
<path d="M41.6325 2.79492C42.1249 2.79492 44.0441 2.79492 44.5364 2.79492C51.1709 2.79492 56.5488 9.15431 56.5488 16.9992C56.5488 24.844 51.1709 31.2034 44.5364 31.2034C44.0441 31.2034 42.1249 31.2034 41.6325 31.2034C34.998 31.2034 29.6201 24.844 29.6201 16.9992C29.6201 9.15431 34.998 2.79492 41.6325 2.79492Z" fill="#263238"/>
<path opacity="0.2" d="M41.6325 2.79492C42.1249 2.79492 44.0441 2.79492 44.5364 2.79492C51.1709 2.79492 56.5488 9.15431 56.5488 16.9992C56.5488 24.844 51.1709 31.2034 44.5364 31.2034C44.0441 31.2034 42.1249 31.2034 41.6325 31.2034C34.998 31.2034 29.6201 24.844 29.6201 16.9992C29.6201 9.15431 34.998 2.79492 41.6325 2.79492Z" fill="white"/>
<path opacity="0.2" d="M41.6325 31.2034C48.2668 31.2034 53.6449 24.8439 53.6449 16.9991C53.6449 9.15437 48.2668 2.79492 41.6325 2.79492C34.9983 2.79492 29.6201 9.15437 29.6201 16.9991C29.6201 24.8439 34.9983 31.2034 41.6325 31.2034Z" fill="white"/>
<path d="M15.502 6.30698L18.9674 3.96017L28.6654 4.1349L40.0649 2.98047C40.0649 2.98047 44.6463 5.15981 47.7651 8.11509C47.7651 8.11509 51.2741 14.3846 49.5196 25.1066L45.2324 31.6859L38.6029 31.9918L30.876 31.2471L25.7967 22.8647L15.0146 13.8973L15.502 6.30698Z" fill="#263238"/>
<path opacity="0.2" d="M49.5194 25.1066L45.2306 31.6848L38.6045 31.9907L30.8759 31.2455L25.7972 22.8642L15.0156 13.8956L15.5035 6.30698L18.9678 3.96129L28.6653 4.13377L40.0631 2.98047C40.0631 2.98047 44.6456 5.15869 47.7649 8.11509C47.7649 8.11509 51.2739 14.384 49.5194 25.1066Z" fill="white"/>
<path opacity="0.2" d="M49.519 25.1071L45.2302 31.6854L42.0238 26.2923L42.3152 19.4874L32.5122 20.3622L27.8242 22.5716L29.8673 28.03L34.0652 27.3479L45.2302 31.6854L30.8755 31.246L25.7962 22.8636L15.7939 14.676L24.4364 12.5525L33.7933 18.2174H42.6959L38.21 12.5503L40.0627 2.98047C40.0627 2.98047 44.6452 5.15869 47.7645 8.11509C47.7645 8.11621 51.2735 14.3846 49.519 25.1071Z" fill="black"/>
<path d="M3.98263 11.1311C3.65942 10.4942 3.58573 6.93989 3.93797 6.49777C4.29021 6.05565 11.6381 2.91168 17.9505 3.99856L20.2141 10.3864L16.1363 13.4494L9.67148 14.2042L3.98263 11.1311Z" fill="#263238"/>
<path opacity="0.4" d="M3.98263 11.1311C3.65942 10.4942 3.58573 6.93989 3.93797 6.49777C4.29021 6.05565 11.6381 2.91168 17.9505 3.99856L20.2141 10.3864L16.1363 13.4494L9.67148 14.2042L3.98263 11.1311Z" fill="white"/>
<path opacity="0.2" d="M20.2133 10.3843L16.1349 13.4479L9.67124 14.2066L3.98127 11.1329C3.65862 10.4949 3.5866 6.94061 3.93828 6.49793C3.93828 6.49793 8.71445 6.09154 9.63887 6.52193C10.5638 6.94731 15.0101 12.049 15.0101 12.049L20.2133 10.3843Z" fill="black"/>
<path d="M7.79004 7.04688L0.728516 10.8602L1.45253 28.8559C1.45253 28.8559 5.6794 28.6695 7.1492 27.5653C8.61901 26.4616 12.5042 12.0559 12.5042 12.0559L7.79004 7.04688Z" fill="#263238"/>
<path opacity="0.6" d="M12.5037 12.0576C12.5037 12.0576 8.61957 26.4622 7.14865 27.5669C5.72295 28.6337 1.711 28.8447 1.46091 28.8537C1.45589 28.8531 1.45532 28.8576 1.4503 28.857L0.728516 10.8607L7.7906 7.04688L12.5037 12.0576Z" fill="white"/>
<path opacity="0.2" d="M12.5047 12.057C12.5047 12.057 8.62057 26.4616 7.14965 27.5664C5.72395 28.6332 1.712 28.8442 1.46191 28.8531C4.76102 27.8092 5.48838 26.0162 5.48838 26.0162L7.79161 7.04688L12.5047 12.057Z" fill="black"/>
<path d="M26.9297 37.574L26.7617 35.4287L32.8966 28.1114L39.7153 27.0547L44.4753 32.3853L36.1025 40.0811L31.0332 41.7563L26.9297 37.574Z" fill="#263238"/>
<path opacity="0.4" d="M44.4758 32.3872L36.103 40.0824L31.0344 41.7555L26.9303 37.5743L26.7617 35.4273L32.8955 28.1106L39.7181 27.0566C39.7181 27.0566 39.7181 27.0566 39.7231 27.0611L44.4758 32.3872Z" fill="white"/>
<path opacity="0.2" d="M44.4758 32.3858L36.103 40.0811L31.0344 41.7541L26.9303 37.5729L26.7617 35.4259L33.2098 34.5741L39.7181 27.0547C39.7181 27.0547 39.7181 27.0547 39.7231 27.0592L44.4758 32.3858Z" fill="black"/>
<path d="M16.6356 45.7101C16.5356 42.0754 25.7709 36.8264 25.7709 36.8264L32.8972 36.2676L34.9983 41.4485L22.4869 46.4732L16.6356 45.7101Z" fill="#263238"/>
<path opacity="0.6" d="M34.9956 41.4469L22.4836 46.4715L16.6356 45.709C16.5335 42.0743 25.7704 36.8269 25.7704 36.8269L32.8989 36.2676L34.9956 41.4469Z" fill="white"/>
<path opacity="0.2" d="M34.9957 41.4463L22.4837 46.471L16.6357 45.7084L22.3458 45.661C22.3458 45.661 24.0216 39.7364 32.8985 36.2676L34.9957 41.4463Z" fill="black"/>
<path d="M22.1279 4.13389L23.8997 2.1996C23.8997 2.1996 30.7056 0.347395 33.6296 0.7376C36.5535 1.1278 38.6006 2.40894 38.6006 2.40894L37.6041 11.3619C37.6041 11.3619 28.6608 13.1588 27.0989 12.3366C25.537 11.5143 22.1279 4.13389 22.1279 4.13389Z" fill="#263238"/>
<path opacity="0.4" d="M38.6011 2.40765L37.6008 11.3617C37.6008 11.3617 28.6619 13.1553 27.1 12.3375C25.5381 11.5147 22.1279 4.1326 22.1279 4.1326L23.8969 2.19608C23.8969 2.19608 30.7022 0.348336 33.629 0.737424C36.5513 1.12651 38.6011 2.40765 38.6011 2.40765Z" fill="white"/>
<path opacity="0.2" d="M37.6008 11.3613C37.6008 11.3613 28.6619 13.1549 27.1 12.3371C25.5381 11.5143 22.1279 4.13219 22.1279 4.13219C22.1279 4.13219 28.1696 3.21557 29.7315 3.97477C31.2884 4.73341 33.2399 10.6077 33.2399 10.6077L37.6008 11.3613Z" fill="black"/>
<path d="M14.4814 25.6831L20.2161 4.13086H28.6637L30.8737 10.3267C30.8737 10.3267 23.6983 24.3121 21.0992 25.6831C18.5001 27.0541 14.4814 25.6831 14.4814 25.6831Z" fill="#263238"/>
<path opacity="0.6" d="M30.8754 10.325C30.8754 10.325 23.696 24.3099 21.0992 25.6798C18.5023 27.0497 14.4814 25.6798 14.4814 25.6798L20.2172 4.13086H28.6631L30.8754 10.325Z" fill="white"/>
<path opacity="0.2" d="M30.8754 10.3256C30.8754 10.3256 23.696 24.3104 21.0992 25.6803C18.5023 27.0502 14.4814 25.6803 14.4814 25.6803C19.429 25.8428 20.2764 23.9308 20.2764 23.9308L28.6631 4.13086L30.8754 10.3256Z" fill="black"/>
</svg>
