<svg width="136" height="118" viewBox="0 0 136 118" fill="none" xmlns="http://www.w3.org/2000/svg">
<path d="M61.5615 1.71337C61.5615 2.4194 60.9936 2.98729 60.2876 2.98729C59.5816 2.98729 59.0137 2.4194 59.0137 1.71337C59.0137 1.00734 59.5816 0.439453 60.2876 0.439453C60.9936 0.439453 61.5615 1.00734 61.5615 1.71337Z" fill="#0071BA"/>
<path d="M71.5389 30.0929L71.6923 8.75861L60.4727 1.97461" stroke="#0071BA" stroke-miterlimit="10"/>
<path d="M84.1855 75.1094L115.803 93.3279L132.932 89.8439" stroke="#0071BA" stroke-miterlimit="10"/>
<path d="M134.083 90.0259C134.083 90.7319 133.515 91.2998 132.809 91.2998C132.103 91.2998 131.535 90.7319 131.535 90.0259C131.535 89.3198 132.103 88.752 132.809 88.752C133.515 88.752 134.083 89.3198 134.083 90.0259Z" fill="#0071BA"/>
<path d="M129.726 97.3481C129.726 98.0542 129.158 98.6221 128.452 98.6221C127.746 98.6221 127.178 98.0542 127.178 97.3481C127.178 96.6421 127.746 96.0742 128.452 96.0742C129.158 96.0742 129.726 96.6421 129.726 97.3481Z" fill="#0071BA"/>
<path d="M78.3545 78.4844L115.436 99.8954L128.59 97.3169" stroke="#0071BA" stroke-miterlimit="10"/>
<path d="M98.3989 90.0742L98.3682 109.72" stroke="#0071BA" stroke-miterlimit="10"/>
<path d="M98.3989 96.2422L89.8652 101.415" stroke="#0071BA" stroke-miterlimit="10"/>
<path d="M98.3526 102.996L92.7197 106.48" stroke="#0071BA" stroke-miterlimit="10"/>
<path d="M94.0078 106.543C94.0078 107.249 93.4399 107.817 92.7339 107.817C92.0279 107.817 91.46 107.249 91.46 106.543C91.46 105.837 92.0279 105.27 92.7339 105.27C93.4399 105.27 94.0078 105.837 94.0078 106.543Z" fill="#0071BA"/>
<path d="M99.4883 109.766C99.4883 110.472 98.9204 111.04 98.2143 111.04C97.5083 111.04 96.9404 110.472 96.9404 109.766C96.9404 109.06 97.5083 108.492 98.2143 108.492C98.9204 108.492 99.4883 109.06 99.4883 109.766Z" fill="#0071BA"/>
<path d="M91.1387 101.524C91.1387 102.23 90.5708 102.813 89.8647 102.813C89.1587 102.813 88.5908 102.23 88.5908 101.524C88.5908 100.833 89.1587 100.25 89.8647 100.25C90.5708 100.25 91.1387 100.833 91.1387 101.524Z" fill="#0071BA"/>
<path d="M71.4141 84.0879L79.5027 88.9073L79.2878 101.892L67.8379 108.753L68.0374 115.092" stroke="#0071BA" stroke-miterlimit="10"/>
<path d="M69.1735 115.108C69.1735 115.814 68.5903 116.397 67.8843 116.397C67.1936 116.397 66.6104 115.814 66.6104 115.108C66.6104 114.417 67.1936 113.834 67.8843 113.834C68.5903 113.834 69.1735 114.417 69.1735 115.108Z" fill="#0071BA"/>
<path d="M13.9805 96.1821C13.9805 96.8882 13.4126 97.456 12.7065 97.456C12.0005 97.456 11.4326 96.8882 11.4326 96.1821C11.4326 95.4761 12.0005 94.9082 12.7065 94.9082C13.4126 94.9082 13.9805 95.4761 13.9805 96.1821Z" fill="#0071BA"/>
<path d="M61.0077 81.4023L41.2082 92.9137L24.1101 89.537L12.4453 96.1829" stroke="#0071BA" stroke-miterlimit="10"/>
<path d="M64.999 99.5298C64.999 100.236 64.4311 100.819 63.7251 100.819C63.0191 100.819 62.4512 100.236 62.4512 99.5298C62.4512 98.8391 63.0191 98.2559 63.7251 98.2559C64.4311 98.2559 64.999 98.8391 64.999 99.5298Z" fill="#0071BA"/>
<path d="M47.8086 116.014C47.8086 116.72 47.2407 117.288 46.5347 117.288C45.8286 117.288 45.2607 116.72 45.2607 116.014C45.2607 115.308 45.8286 114.74 46.5347 114.74C47.2407 114.74 47.8086 115.308 47.8086 116.014Z" fill="#0071BA"/>
<path d="M66.6874 84.6113L52.2598 92.8995L52.4594 112.638L46.5195 116.014" stroke="#0071BA" stroke-miterlimit="10"/>
<path d="M58.4912 89.5234L63.6176 92.9001L63.6943 99.5153" stroke="#0071BA" stroke-miterlimit="10"/>
<path d="M12.7373 83.5356C12.7373 84.2417 12.1694 84.8096 11.4634 84.8096C10.7573 84.8096 10.1895 84.2417 10.1895 83.5356C10.1895 82.8296 10.7573 82.2617 11.4634 82.2617C12.1694 82.2617 12.7373 82.8296 12.7373 83.5356Z" fill="#0071BA"/>
<path d="M35.8369 83.3071C35.8369 84.0131 35.269 84.581 34.563 84.581C33.857 84.581 33.2891 84.0131 33.2891 83.3071C33.2891 82.6011 33.857 82.0332 34.563 82.0332C35.269 82.0332 35.8369 82.6011 35.8369 83.3071Z" fill="#0071BA"/>
<path d="M43.9255 71.3652L28.8073 80.2366L17.4802 80.2827L11.4482 83.6593" stroke="#0071BA" stroke-miterlimit="10"/>
<path d="M34.4863 76.707L40.1652 80.0069L34.4863 83.3836" stroke="#0071BA" stroke-miterlimit="10"/>
<path d="M98.1514 53.3158L114.728 43.6463L114.881 30.4467L126.546 23.6934" stroke="#0071BA" stroke-miterlimit="10"/>
<path d="M127.713 23.4946C127.713 24.2006 127.145 24.7685 126.439 24.7685C125.733 24.7685 125.165 24.2006 125.165 23.4946C125.165 22.7886 125.733 22.2207 126.439 22.2207C127.145 22.2207 127.713 22.7886 127.713 23.4946Z" fill="#0071BA"/>
<path d="M133.131 43.2778C133.131 43.9839 132.563 44.5671 131.857 44.5671C131.151 44.5671 130.583 43.9839 130.583 43.2778C130.583 42.5871 131.151 42.0039 131.857 42.0039C132.563 42.0039 133.131 42.5871 133.131 43.2778Z" fill="#0071BA"/>
<path d="M106.425 48.4827L114.728 53.4709L132.072 43.1875" stroke="#0071BA" stroke-miterlimit="10"/>
<path d="M52.1505 49.6322L27.6698 35.6037L33.0418 32.5954L17.8008 23.6934" stroke="#0071BA" stroke-miterlimit="10"/>
<path d="M18.8144 23.4634C18.8144 24.1694 18.2465 24.7373 17.5405 24.7373C16.8345 24.7373 16.2666 24.1694 16.2666 23.4634C16.2666 22.7573 16.8345 22.1895 17.5405 22.1895C18.2465 22.1895 18.8144 22.7573 18.8144 23.4634Z" fill="#0071BA"/>
<path d="M24.9531 13.4868C24.9531 14.1928 24.3852 14.7607 23.6792 14.7607C22.9732 14.7607 22.4053 14.1928 22.4053 13.4868C22.4053 12.7808 22.9732 12.2129 23.6792 12.2129C24.3852 12.2129 24.9531 12.7808 24.9531 13.4868Z" fill="#0071BA"/>
<path d="M23.373 27.0855L23.6033 13.7324" stroke="#0071BA" stroke-miterlimit="10"/>
<path d="M38.3066 41.6665L49.3575 35.2969L58.9349 40.8837" stroke="#0071BA" stroke-miterlimit="10"/>
<path d="M2.94627 76.0901C2.94627 76.7807 2.37838 77.364 1.67236 77.364C0.966328 77.364 0.398438 76.7807 0.398438 76.0901C0.398438 75.384 0.966328 74.8008 1.67236 74.8008C2.37838 74.8008 2.94627 75.384 2.94627 76.0901Z" fill="#0071BA"/>
<path d="M32.3224 64.918L18.5856 72.8991L12.5997 69.6606L1.54883 76.107" stroke="#0071BA" stroke-miterlimit="10"/>
<path d="M10.529 47.9751C10.529 48.6811 9.94577 49.249 9.23974 49.249C8.54906 49.249 7.96582 48.6811 7.96582 47.9751C7.96582 47.2691 8.54906 46.7012 9.23974 46.7012C9.94577 46.7012 10.529 47.2691 10.529 47.9751Z" fill="#0071BA"/>
<path d="M4.6501 37.9517C4.6501 38.6577 4.06686 39.2256 3.37618 39.2256C2.67015 39.2256 2.08691 38.6577 2.08691 37.9517C2.08691 37.2456 2.67015 36.6777 3.37618 36.6777C4.06686 36.6777 4.6501 37.2456 4.6501 37.9517Z" fill="#0071BA"/>
<path d="M41.1331 53.6228L20.5355 41.1445L9.28516 47.8978" stroke="#0071BA" stroke-linecap="round" stroke-linejoin="round"/>
<path d="M14.857 44.5686L3.3457 38.0762" stroke="#0071BA" stroke-linecap="round" stroke-linejoin="round"/>
<path d="M92.8418 70.6586L97.431 73.2217L114.621 63.0918L131.704 73.0222" stroke="#0071BA" stroke-miterlimit="10"/>
<path d="M133.055 72.9927C133.055 73.6987 132.487 74.2666 131.781 74.2666C131.075 74.2666 130.507 73.6987 130.507 72.9927C130.507 72.2866 131.075 71.7188 131.781 71.7188C132.487 71.7188 133.055 72.2866 133.055 72.9927Z" fill="#0071BA"/>
<path d="M136.002 66.0083C136.002 66.7143 135.434 67.2822 134.728 67.2822C134.022 67.2822 133.454 66.7143 133.454 66.0083C133.454 65.3023 134.022 64.7344 134.728 64.7344C135.434 64.7344 136.002 65.3023 136.002 66.0083Z" fill="#0071BA"/>
<path d="M122.402 67.436L129.708 62.8008L134.773 65.9319" stroke="#0071BA" stroke-miterlimit="10"/>
<path d="M108.497 2.66454C108.497 3.37057 107.929 3.93846 107.223 3.93846C106.517 3.93846 105.949 3.37057 105.949 2.66454C105.949 1.95852 106.517 1.39062 107.223 1.39062C107.929 1.39062 108.497 1.95852 108.497 2.66454Z" fill="#0071BA"/>
<path d="M97.3239 21.4512L103.264 24.9199L92.3203 31.4737" stroke="#0071BA" stroke-miterlimit="10"/>
<path d="M86.6875 27.589L107.101 15.7708L94.6687 8.86397L107.408 2.72461" stroke="#0071BA" stroke-miterlimit="10"/>
<path d="M96.2808 69.3251V66.3629C96.2808 66.7773 96.0813 67.207 95.6822 67.4373L70.0964 82.6476C69.4825 83.0159 68.6997 83.0313 68.0704 82.6629L30.8659 61.1444C30.4515 60.8988 30.252 60.4844 30.252 60.0547L30.2827 63.1704C30.252 63.6155 30.4515 64.0606 30.8966 64.3062L67.9016 85.7172C68.6537 86.1623 69.5746 86.147 70.3267 85.7019L95.6976 70.6144C96.1887 70.3228 96.3729 69.8009 96.2808 69.3251Z" fill="#1E2584"/>
<path d="M30.8659 61.1436L68.0704 82.6621C68.6997 83.0305 69.4825 83.0151 70.0964 82.6468L95.6822 67.4365C96.0813 67.2062 96.2808 66.7765 96.2808 66.3621C96.2808 65.963 96.066 65.5486 95.6669 65.3184L58.3549 43.7078C57.9712 43.4776 57.4954 43.4776 57.1117 43.7078L30.8659 59.0102C30.4668 59.2404 30.252 59.6548 30.252 60.0539C30.252 60.4836 30.4515 60.898 30.8659 61.1436Z" fill="#353D9B"/>
<path d="M57.0176 46.3809L54.3623 48.0078L57.0176 49.6194L59.7649 47.9617L57.0176 46.3809Z" fill="#0071BA"/>
<path d="M60.2256 48.2227L57.5703 49.8496L60.2256 51.4612L62.9883 49.8035L60.2256 48.2227Z" fill="#0071BA"/>
<path d="M63.4482 50.0645L60.793 51.6914L63.4482 53.303L66.1956 51.6453L63.4482 50.0645Z" fill="#0071BA"/>
<path d="M66.6709 51.9043L64.0156 53.5312L66.6709 55.1582L69.4183 53.4852L66.6709 51.9043Z" fill="#0071BA"/>
<path d="M69.8789 53.748L67.2236 55.375L69.8789 57.0019L72.6416 55.3289L69.8789 53.748Z" fill="#0071BA"/>
<path d="M73.1035 55.5898L70.4482 57.2168L73.1035 58.8437L75.8509 57.1707L73.1035 55.5898Z" fill="#0071BA"/>
<path d="M76.3262 57.4316L73.6709 59.0586L76.3262 60.6855L79.0735 59.0125L76.3262 57.4316Z" fill="#0071BA"/>
<path d="M79.5342 59.2734L76.8789 60.9004L79.5342 62.5273L82.2969 60.8543L79.5342 59.2734Z" fill="#0071BA"/>
<path d="M82.7568 61.1133L80.1016 62.7402L82.7568 64.3671L85.5042 62.6942L82.7568 61.1133Z" fill="#0071BA"/>
<path d="M85.9795 62.9727L83.3242 64.5842L87.8827 67.2549L90.0315 65.2903L85.9795 62.9727Z" fill="#0071BA"/>
<path d="M89.1875 64.8125L86.5322 66.4241L89.1875 68.051L91.9502 66.378L89.1875 64.8125Z" fill="#0071BA"/>
<path d="M53.8721 48.2539L51.2168 49.8655L53.8721 51.4924L56.6194 49.8194L53.8721 48.2539Z" fill="#0071BA"/>
<path d="M57.0794 50.0957L54.4395 51.7073L57.0794 53.3342L59.8421 51.6612L57.0794 50.0957Z" fill="#0071BA"/>
<path d="M60.3027 51.9375L57.6475 53.5491L60.3027 55.176L63.0501 53.503L60.3027 51.9375Z" fill="#0071BA"/>
<path d="M63.5254 53.7773L60.8701 55.4043L63.5254 57.0159L66.2728 55.3429L63.5254 53.7773Z" fill="#0071BA"/>
<path d="M66.7347 55.6211L64.0947 57.248L66.7347 58.8596L69.4974 57.1866L66.7347 55.6211Z" fill="#0071BA"/>
<path d="M69.958 57.4629L67.3027 59.0898L69.958 60.7014L72.7054 59.0284L69.958 57.4629Z" fill="#0071BA"/>
<path d="M73.1807 59.3047L70.5254 60.9316L73.1807 62.5432L75.928 60.8702L73.1807 59.3047Z" fill="#0071BA"/>
<path d="M76.388 61.1465L73.748 62.7734L76.388 64.385L79.1507 62.7274L76.388 61.1465Z" fill="#0071BA"/>
<path d="M79.6113 62.9863L76.9561 64.6133L79.6113 66.2248L82.3587 64.5672L79.6113 62.9863Z" fill="#0071BA"/>
<path d="M82.834 64.8301L80.1787 66.457L82.834 68.0686L85.5814 66.411L82.834 64.8301Z" fill="#0071BA"/>
<path d="M86.0432 66.6719L83.4033 68.2988L86.0432 69.9104L88.806 68.2528L86.0432 66.6719Z" fill="#0071BA"/>
<path d="M50.7266 50.1094L48.0713 51.7363L52.7372 54.4683L54.4562 52.2582L50.7266 50.1094Z" fill="#0071BA"/>
<path d="M53.9339 51.9512L51.2939 53.5781L53.9339 55.205L56.6966 53.5321L53.9339 51.9512Z" fill="#0071BA"/>
<path d="M57.1572 53.8086L54.502 55.4202L57.1572 57.0471L59.9046 55.3741L57.1572 53.8086Z" fill="#0071BA"/>
<path d="M60.3799 55.6504L57.7246 57.262L60.3799 58.8889L63.1273 57.2159L60.3799 55.6504Z" fill="#0071BA"/>
<path d="M63.6045 57.4902L60.9492 59.1018L63.6045 60.7288L66.3519 59.0558L63.6045 57.4902Z" fill="#0071BA"/>
<path d="M66.8125 59.332L64.1572 60.9436L66.8125 62.5706L69.5599 60.8976L66.8125 59.332Z" fill="#0071BA"/>
<path d="M70.0352 61.1758L67.3799 62.7874L70.0352 64.4143L72.7825 62.7413L70.0352 61.1758Z" fill="#0071BA"/>
<path d="M73.2578 63.0176L70.6025 64.6292L73.2578 66.2561L76.0052 64.5831L73.2578 63.0176Z" fill="#0071BA"/>
<path d="M76.4658 64.8594L73.8105 66.471L76.4658 68.0979L79.2132 66.4249L76.4658 64.8594Z" fill="#0071BA"/>
<path d="M79.6885 66.7012L77.0332 68.3128L79.6885 69.9397L82.4358 68.2667L79.6885 66.7012Z" fill="#0071BA"/>
<path d="M82.9131 68.541L80.2578 70.1526L82.9131 71.7795L85.6605 70.1066L82.9131 68.541Z" fill="#0071BA"/>
<path d="M47.5781 51.9844L44.9229 53.6113L49.3432 56.1591L51.8143 54.4248L47.5781 51.9844Z" fill="#0071BA"/>
<path d="M50.8008 53.8262L48.1455 55.4531L50.8008 57.0647L53.5482 55.4071L50.8008 53.8262Z" fill="#0071BA"/>
<path d="M54.0088 55.668L51.3535 57.2949L54.0088 58.9065L56.7715 57.2489L54.0088 55.668Z" fill="#0071BA"/>
<path d="M57.2315 57.5078L54.5762 59.1347L57.2315 60.7463L59.9788 59.0887L57.2315 57.5078Z" fill="#0071BA"/>
<path d="M60.4561 59.3516L57.8008 60.9785L60.4561 62.6054L63.2034 60.9324L60.4561 59.3516Z" fill="#0071BA"/>
<path d="M63.6641 61.1934L61.0088 62.8203L63.6641 64.4472L66.4268 62.7742L63.6641 61.1934Z" fill="#0071BA"/>
<path d="M66.8867 63.0352L64.2314 64.6621L66.8867 66.289L69.6341 64.616L66.8867 63.0352Z" fill="#0071BA"/>
<path d="M70.1094 64.877L67.4541 66.5039L70.1094 68.1308L72.8567 66.4578L70.1094 64.877Z" fill="#0071BA"/>
<path d="M73.3174 66.7168L70.6621 68.3437L73.3174 69.9707L76.0801 68.2977L73.3174 66.7168Z" fill="#0071BA"/>
<path d="M76.54 68.5605L73.8848 70.1875L76.54 71.8144L79.2874 70.1414L76.54 68.5605Z" fill="#0071BA"/>
<path d="M79.7647 70.4023L77.1094 72.0293L79.7647 73.6562L82.512 71.9832L79.7647 70.4023Z" fill="#0071BA"/>
<path d="M44.4326 53.8535L41.7773 55.4651L44.4326 57.092L47.18 55.4191L44.4326 53.8535Z" fill="#0071BA"/>
<path d="M47.6553 55.6953L45 57.3069L47.6553 58.9338L50.4026 57.2608L47.6553 55.6953Z" fill="#0071BA"/>
<path d="M50.8636 57.5371L48.2236 59.1487L50.8636 60.7756L53.6263 59.1026L50.8636 57.5371Z" fill="#0071BA"/>
<path d="M54.0859 59.377L51.4307 60.9885L55.7129 63.4443L58.1226 61.6946L54.0859 59.377Z" fill="#0071BA"/>
<path d="M57.3106 61.2207L54.6553 62.8476L59.1524 65.4415L61.47 63.6151L57.3106 61.2207Z" fill="#0071BA"/>
<path d="M60.5179 63.0625L57.8779 64.6894L62.4518 67.3601L64.6926 65.4569L60.5179 63.0625Z" fill="#0071BA"/>
<path d="M63.7412 64.9043L61.0859 66.5312L63.7412 68.1428L66.4886 66.4698L63.7412 64.9043Z" fill="#0071BA"/>
<path d="M66.9639 66.7461L64.3086 68.373L66.9639 69.9846L69.7112 68.3116L66.9639 66.7461Z" fill="#0071BA"/>
<path d="M70.1722 68.5859L67.5322 70.2129L70.1722 71.8245L72.9349 70.1515L70.1722 68.5859Z" fill="#0071BA"/>
<path d="M73.3945 70.4297L70.7393 72.0566L75.3438 74.7426L77.6 72.8394L73.3945 70.4297Z" fill="#0071BA"/>
<path d="M76.6192 72.2715L73.9639 73.8984L76.6192 75.51L79.3665 73.8524L76.6192 72.2715Z" fill="#0071BA"/>
<path d="M50.5102 61.541L43.9258 65.4702L58.9826 74.1267L65.5977 70.1822L50.5102 61.541Z" fill="#1E2584"/>
<path d="M58.334 11.5514H58.3493C58.38 11.5207 58.4158 11.4951 58.4568 11.4746L58.334 11.5514Z" fill="#1E2584"/>
<path d="M98.7467 31.505L61.9873 10.1707C61.4655 9.86374 60.8822 9.94048 60.4525 10.2628L58.5186 11.4293C58.9176 11.2144 59.4241 11.1837 59.8846 11.4446L96.6287 32.7943C97.304 33.1933 97.7337 33.9147 97.7337 34.6975L97.6877 64.105C97.6724 64.6115 97.4114 65.0259 97.0277 65.2715L99.0537 64.0436V64.0283C99.4835 63.8134 99.7904 63.3683 99.7904 62.8158L99.8365 33.4082C99.8365 32.6254 99.4221 31.9041 98.7467 31.505Z" fill="#1E2584"/>
<path d="M97.6869 64.1063L97.7329 34.6988C97.7329 33.916 97.3032 33.1946 96.6278 32.7956L59.8837 11.4459C59.4233 11.185 58.9168 11.2157 58.5177 11.4306C58.4973 11.451 58.4768 11.4664 58.4563 11.4766C58.4154 11.4971 58.3796 11.5227 58.3489 11.5534C58.0266 11.7989 57.8117 12.1826 57.8117 12.6431L57.6582 42.112C57.6582 42.8641 58.0573 43.5701 58.7019 43.9385L95.6148 65.2881C96.0906 65.5644 96.6125 65.5184 97.0269 65.2728C97.4106 65.0272 97.6715 64.6128 97.6869 64.1063Z" fill="#4653B7"/>
<path d="M60.084 41.6962L60.2221 14.6523L95.37 34.7127L95.2779 61.5264L60.084 41.6962Z" fill="#242B84"/>
<path d="M85.4096 33.3922C79.1168 32.0876 77.0141 27.6059 77.0141 27.6059C73.2384 28.8184 68.6645 24.9199 68.6645 24.9199L67.498 25.4418C67.498 25.4418 67.9278 25.8869 68.6492 26.4241C70.0766 27.5138 72.6551 29.0333 75.1723 28.2198C75.1723 28.2198 77.275 32.7016 83.5678 34.0062C83.5678 34.0062 83.6599 39.1479 80.1451 43.4455C78.8098 45.0877 77.5359 46.1314 76.5997 46.7761C75.6481 47.4207 75.0341 47.6509 75.0341 47.6509L76.8759 47.037C76.8759 47.037 79.2856 46.1468 81.987 42.8315C85.5017 38.534 85.4096 33.3922 85.4096 33.3922Z" fill="#0046B7"/>
<path fill-rule="evenodd" clip-rule="evenodd" d="M76.5995 46.7777C75.6479 47.4223 75.034 47.6525 75.034 47.6525C75.034 47.6525 66.9761 39.4872 67.4979 25.4434C67.4979 25.4434 67.9277 25.8885 68.6491 26.4257C70.0765 27.5154 72.655 29.0349 75.1721 28.2214C75.1721 28.2214 77.2749 32.7032 83.5677 34.0078C83.5677 34.0078 83.6598 39.1495 80.145 43.447C78.8097 45.0893 77.5358 46.133 76.5995 46.7777ZM75.1721 40.7611V37.2002C76.0009 37.2309 76.0009 36.1872 75.4944 35.4198C75.0033 34.6524 73.8522 34.3301 73.4992 35.1282C73.1461 35.9263 74.0517 36.6324 74.0517 36.6324L74.021 40.0857L75.1721 40.7611Z" fill="#0071BA"/>
<path d="M75.1717 37.1993C76.0005 37.23 76.0005 36.1863 75.494 35.4189C75.0028 34.6515 73.8517 34.3292 73.4987 35.1273C73.1457 35.9254 74.0512 36.6314 74.0512 36.6314L74.0205 40.0848L75.1717 40.7602V37.1993Z" fill="#242B84"/>
<path d="M90.6569 7.88287C90.3039 3.47787 87.4951 0.0705238 84.3794 0.270053C84.0212 0.30075 83.6733 0.372375 83.3357 0.48493C82.7524 0.653763 81.939 1.00678 81.4785 1.20631C81.8776 1.05282 82.2766 0.960732 82.7064 0.930035C85.8221 0.730506 88.6309 4.16855 88.9839 8.60424C89.2909 12.5488 87.5718 15.9561 84.9933 16.8156C86.5435 16.4933 87.4797 16.0022 88.0323 15.6338C89.9815 14.4059 90.9331 11.367 90.6569 7.88287Z" fill="#22297F"/>
<path d="M83.2894 17.1055C83.2434 17.1208 83.2434 17.1208 83.2894 17.1055V17.1055Z" fill="#22297F"/>
<path d="M83.5505 17.0625C83.4482 17.083 83.3715 17.0983 83.3203 17.1085C83.3817 17.0932 83.4584 17.0778 83.5505 17.0625Z" fill="#22297F"/>
<path d="M83.5498 17.0617C83.6317 17.0514 83.734 17.0361 83.8568 17.0156C83.7493 17.031 83.6419 17.0463 83.5498 17.0617Z" fill="#22297F"/>
<path fill-rule="evenodd" clip-rule="evenodd" d="M84.9932 16.8157C84.6658 16.9181 84.3281 16.9846 83.9802 17.0153C83.9393 17.0153 83.8983 17.0153 83.8574 17.0153C80.8031 17.1227 78.0557 13.7154 77.7027 9.32572C77.4111 5.50397 79.038 2.17336 81.4784 1.20641C81.8775 1.05293 82.2765 0.960836 82.7063 0.930139C85.822 0.730609 88.6308 4.16865 88.9838 8.60435C89.2907 12.5489 87.5717 15.9562 84.9932 16.8157ZM83.7653 15.8334C86.2671 15.6646 88.0629 12.4875 87.7712 8.72713C87.4643 4.96677 85.1927 2.05057 82.6756 2.2194C80.1738 2.38824 78.378 5.56536 78.685 9.32572C78.9766 13.0707 81.2635 15.9869 83.7653 15.8334Z" fill="#2E3192"/>
<path d="M87.7718 8.72564C87.4648 4.96528 85.1933 2.04908 82.6761 2.21791C80.1743 2.38675 78.3786 5.56387 78.6855 9.32423C78.9772 13.0692 81.2641 15.9854 83.7659 15.832C86.2677 15.6631 88.0634 12.486 87.7718 8.72564Z" fill="#22297F"/>
<path d="M79.7596 8.20652C79.6828 8.20652 79.6214 8.14513 79.6214 8.06838C79.6214 8.00699 79.5754 6.59494 80.5577 4.75313C81.5553 2.84992 82.7372 3.12619 82.7832 3.14154C82.8753 3.15689 82.9213 3.23363 82.8906 3.31038C82.8753 3.40247 82.7986 3.44851 82.7218 3.41781C82.6758 3.41781 81.7088 3.20294 80.8186 4.89126C79.8824 6.65633 79.9131 8.03769 79.9131 8.05304C79.9131 8.12978 79.8517 8.20652 79.7749 8.20652C79.7749 8.20652 79.7698 8.20652 79.7596 8.20652Z" fill="#0071BA"/>
<path d="M86.8503 12.1202C86.8503 12.1202 86.8452 12.1202 86.835 12.1202C86.7582 12.1048 86.6968 12.0434 86.7122 11.9513C86.7122 11.936 86.9577 9.54163 86.4666 7.34681C85.9754 5.19803 84.1643 3.84737 84.1336 3.83202C84.0722 3.78598 84.0569 3.69388 84.1029 3.63249C84.1643 3.55575 84.2564 3.5404 84.3178 3.58645C84.3946 3.64784 86.2517 5.0292 86.7582 7.28541C87.2494 9.52628 87.0038 11.9667 87.0038 11.982C86.9884 12.0588 86.927 12.1202 86.8503 12.1202Z" fill="#0071BA"/>
<path d="M80.5116 10.1559C80.4349 10.1559 80.3735 10.0945 80.3735 10.0178C80.0665 6.44161 81.2637 5.30583 81.3251 5.25979C81.3865 5.19839 81.4786 5.21374 81.5246 5.27514C81.586 5.33653 81.586 5.42862 81.5246 5.47466C81.5093 5.49001 80.3735 6.5951 80.6651 9.9871C80.6651 10.0638 80.6037 10.1406 80.527 10.1559C80.527 10.1559 80.5219 10.1559 80.5116 10.1559Z" fill="#0071BA"/>
<path d="M84.9165 5.85847C84.8704 5.85847 84.8244 5.82778 84.7937 5.78173C83.8421 4.24689 82.5835 4.76874 82.5375 4.79944C82.4607 4.83013 82.3686 4.79944 82.3379 4.72269C82.3072 4.64595 82.3379 4.55386 82.4147 4.52316C82.43 4.52316 83.9495 3.86318 85.0393 5.62825C85.0853 5.70499 85.07 5.79708 84.9932 5.84313C84.9727 5.85336 84.9472 5.85847 84.9165 5.85847Z" fill="#0071BA"/>
<path d="M81.7394 8.40592C81.7292 8.40592 81.7189 8.40592 81.7087 8.40592C81.6166 8.37522 81.5706 8.29848 81.6013 8.22173C81.6166 8.16034 82.0464 6.67154 82.998 6.77898C83.9035 6.88642 84.2719 7.62315 84.2872 7.65384C84.3179 7.73059 84.2872 7.82267 84.2258 7.85337C84.1491 7.89942 84.057 7.86872 84.0263 7.79198C84.011 7.76128 83.704 7.16269 82.9673 7.08595C82.2612 6.99386 81.8929 8.28313 81.8929 8.29848C81.8622 8.35987 81.8008 8.40592 81.7394 8.40592Z" fill="#0071BA"/>
<path d="M81.1095 9.17414C81.0174 9.17414 80.9561 9.0974 80.9561 9.02066C80.9561 8.94392 80.9561 7.04071 81.923 6.11981C82.2811 5.77191 82.7211 5.60819 83.243 5.62866C83.3197 5.64401 83.3811 5.7054 83.3811 5.78214C83.3811 5.87423 83.3044 5.93563 83.2276 5.93563C82.7979 5.92028 82.4295 6.04307 82.1225 6.33469C81.263 7.1635 81.2477 9.00531 81.2477 9.02066C81.2477 9.0974 81.1863 9.17414 81.1095 9.17414Z" fill="#0071BA"/>
<path d="M80.2046 12.3204C80.1432 12.3204 80.0818 12.2897 80.0665 12.2283C79.7135 11.3688 79.56 9.49625 79.56 9.41951C79.5446 9.34276 79.606 9.26602 79.6981 9.26602C79.7748 9.25067 79.8516 9.31207 79.8516 9.40416C79.8516 9.41951 80.0051 11.3074 80.3427 12.1208C80.3734 12.1976 80.3274 12.2897 80.2506 12.3204C80.2404 12.3204 80.2251 12.3204 80.2046 12.3204Z" fill="#0071BA"/>
<path d="M81.4162 14.2541C81.4162 14.2541 81.4111 14.2541 81.4008 14.2541C81.3241 14.2387 81.2627 14.162 81.2627 14.0852C81.278 14.0699 81.4929 11.9365 81.3701 9.86442C81.3701 9.78768 81.4315 9.71094 81.5083 9.71094C81.6004 9.71094 81.6618 9.77233 81.6771 9.84907C81.7845 11.9518 81.5697 14.1006 81.5697 14.1159C81.5543 14.1927 81.4929 14.2541 81.4162 14.2541Z" fill="#0071BA"/>
<path d="M85.5307 9.52498C85.4693 9.52498 85.3925 9.46359 85.3925 9.38685C85.0856 7.26877 84.134 6.40926 84.1186 6.39391C84.0726 6.33251 84.0572 6.24042 84.1186 6.17903C84.1647 6.11764 84.2568 6.11764 84.3181 6.16368C84.3642 6.20973 85.3618 7.11528 85.6842 9.35615C85.6995 9.43289 85.6381 9.50964 85.5614 9.52498C85.5511 9.52498 85.5409 9.52498 85.5307 9.52498Z" fill="#0071BA"/>
<path d="M85.5928 14.2848C85.5621 14.2848 85.5314 14.2746 85.5007 14.2541C85.4393 14.1927 85.424 14.1006 85.47 14.0392C85.47 14.0392 85.8691 13.4867 86.1147 11.0156C86.3756 8.51378 85.3319 6.56453 85.3166 6.54919C85.2705 6.47244 85.3012 6.38035 85.378 6.33431C85.4393 6.30361 85.5314 6.33431 85.5775 6.3957C85.6235 6.48779 86.6826 8.43704 86.4216 11.0463C86.1607 13.5941 85.7463 14.1773 85.7003 14.2234C85.6696 14.2694 85.6389 14.2848 85.5928 14.2848Z" fill="#0071BA"/>
<path d="M84.4254 11.2159C84.3333 11.2159 84.2719 11.1392 84.2719 11.0625C84.2259 9.83458 83.8575 8.65275 83.4278 8.29974C83.3357 8.22811 83.2487 8.19741 83.1669 8.20764C82.7525 8.28439 82.6911 9.1746 82.7064 9.48156C82.7064 9.57365 82.6297 9.63505 82.5529 9.63505C82.4762 9.63505 82.3994 9.57366 82.3994 9.49691C82.3994 9.34343 82.3841 8.05416 83.1208 7.91603C83.2896 7.88533 83.4585 7.94672 83.612 8.06951C84.1185 8.46857 84.5175 9.72714 84.5636 11.0471C84.5636 11.1392 84.5022 11.2006 84.4254 11.2159Z" fill="#0071BA"/>
<path d="M82.5674 15.0519C82.547 15.0519 82.5316 15.0519 82.5214 15.0519C82.4446 15.0212 82.3986 14.9445 82.4293 14.8678C82.813 13.5938 82.3679 10.5242 82.3525 10.4935C82.3525 10.4167 82.3986 10.34 82.4907 10.3246C82.5674 10.3093 82.6442 10.3707 82.6595 10.4474C82.6749 10.5856 83.12 13.6245 82.7056 14.9445C82.6902 15.0059 82.6288 15.0519 82.5674 15.0519Z" fill="#0071BA"/>
<path d="M85.0858 11.7973C85.0858 11.7973 85.0806 11.7973 85.0704 11.7973C84.9937 11.7973 84.9323 11.7205 84.9323 11.6438C84.9937 10.1396 84.5332 8.55875 84.5332 8.5434C84.5179 8.46666 84.5639 8.37457 84.6407 8.35922C84.7174 8.32853 84.7941 8.37457 84.8248 8.45132C84.8402 8.52806 85.3006 10.1089 85.2392 11.6591C85.2239 11.7359 85.1625 11.7973 85.0858 11.7973Z" fill="#0071BA"/>
<path d="M84.1949 15.0525C84.1643 15.0525 84.1336 15.0372 84.1029 15.0065C84.0415 14.9604 84.0415 14.8683 84.0875 14.8069C85.3 13.5177 85.4228 11.3075 85.4382 11.2768C85.4382 11.2001 85.4996 11.1387 85.5917 11.1387C85.6684 11.1387 85.7298 11.2154 85.7298 11.2922C85.7298 11.3842 85.5917 13.6405 84.3024 15.0065C84.2717 15.0372 84.241 15.0525 84.1949 15.0525Z" fill="#0071BA"/>
<path d="M83.213 15.4353C83.1925 15.4353 83.1721 15.4353 83.1516 15.4353C83.0748 15.4046 83.0442 15.3125 83.0595 15.2357C83.0748 15.2357 83.3051 14.5144 83.3972 12.3963C83.4739 10.2782 83.1976 9.44938 83.1823 9.43403C83.1669 9.35729 83.1976 9.28055 83.2744 9.24985C83.3511 9.21915 83.4432 9.2652 83.4739 9.34194C83.4892 9.37264 83.7809 10.2321 83.6888 12.4116C83.5967 14.5757 83.3511 15.3125 83.3511 15.3432C83.3204 15.4046 83.2744 15.4353 83.213 15.4353Z" fill="#0071BA"/>
<path d="M84.2874 13.6083C84.2669 13.6083 84.2516 13.6083 84.2414 13.6083C84.1646 13.5776 84.1186 13.5009 84.1493 13.4088C84.3488 12.7642 84.2567 11.567 84.2567 11.5516C84.2567 11.4749 84.3181 11.3982 84.3948 11.3828C84.4869 11.3828 84.5483 11.4442 84.5637 11.5209C84.5637 11.5823 84.6558 12.7949 84.4255 13.5009C84.4102 13.5623 84.3488 13.6083 84.2874 13.6083Z" fill="#0071BA"/>
<path d="M80.8943 13.5482C80.8329 13.5482 80.7562 13.5022 80.7562 13.4254C80.5106 11.5376 80.4492 10.6473 80.4492 10.632C80.4492 10.5553 80.5106 10.4785 80.5873 10.4785C80.6794 10.4785 80.7408 10.5399 80.7562 10.6167C80.7562 10.632 80.8022 11.5069 81.0478 13.3794C81.0631 13.4715 81.0018 13.5482 80.925 13.5482C80.9148 13.5482 80.9045 13.5482 80.8943 13.5482Z" fill="#0071BA"/>
<path d="M44.8144 15.7112C44.6456 15.7419 44.4307 15.8339 44.2158 15.926L43.2949 16.4172V16.4325C43.387 16.3814 43.4791 16.3456 43.5712 16.3251C44.3693 16.187 45.1828 17.2 45.3823 18.5813C45.5358 19.6557 45.2902 20.638 44.7991 21.0831L45.8274 20.3617C46.4106 20.0087 46.6869 19.0111 46.5488 17.906C46.3953 16.586 45.6125 15.6037 44.8144 15.7112Z" fill="#1E2584"/>
<path d="M44.5078 21.2826L44.5539 21.252C44.5334 21.2622 44.518 21.2673 44.5078 21.2673V21.2826Z" fill="#1E2584"/>
<path d="M51.7513 9.44958C51.0145 7.22406 48.9732 4.75297 46.057 4.24647C45.1054 4.07764 44.2152 4.27717 43.4171 4.63018C43.4171 4.63018 41.5599 5.52039 40.2246 7.42359C41.0841 6.39525 42.8338 4.73762 44.8445 5.09063C47.5612 5.55108 49.5411 8.09892 50.2932 10.4165C50.508 11.0919 50.4313 11.9053 50.109 12.3197L51.0606 11.5216L51.3829 11.2607C51.3983 11.2453 51.6592 10.9998 51.6745 10.9844C52.0736 10.6314 51.9661 10.1403 51.7513 9.44958Z" fill="#1E2584"/>
<path d="M45.7044 9.98856C45.1979 9.85043 44.676 9.89647 44.1849 10.05C44.1849 10.05 41.1919 11.4927 40.5166 13.5033C40.5319 13.4727 40.5473 13.442 40.5626 13.4113C40.6394 13.2885 42.4505 10.3723 44.4918 10.8941C46.4411 11.3853 47.7457 13.7029 48.1755 15.7749C48.2829 16.3121 48.2215 16.88 48.0373 17.2944L48.9582 16.4349L49.3726 16.0512C49.8331 15.6214 49.6029 15.2991 49.4647 14.5931C49.0657 12.5978 47.7917 10.5258 45.7044 9.98856Z" fill="#1E2584"/>
<path d="M45.3825 18.5833C45.183 17.2019 44.3695 16.1889 43.5714 16.3271C43.4793 16.3475 43.3872 16.3833 43.2951 16.4345C42.6658 16.7568 42.3128 17.8619 42.497 19.0898C42.6965 20.4711 43.51 21.4688 44.3081 21.3306C44.3797 21.3204 44.4463 21.2999 44.5077 21.2692C44.5179 21.2692 44.5332 21.2641 44.5537 21.2539C44.6356 21.213 44.7174 21.1567 44.7993 21.0851C45.2904 20.64 45.536 19.6577 45.3825 18.5833Z" fill="#0071BA"/>
<path d="M48.175 15.7714C47.7453 13.6993 46.4406 11.3817 44.4914 10.8906C42.4501 10.3687 40.6389 13.2849 40.5622 13.4077C40.5469 13.4384 40.5315 13.4691 40.5162 13.4998C40.2399 14.0524 40.2092 14.9272 40.4855 15.5258C40.7617 16.1551 41.2682 16.2318 41.5905 15.6946C41.6059 15.6793 42.9566 13.5152 44.2919 13.8682C45.6886 14.2212 46.502 15.8328 46.7169 16.8458C46.8244 17.3676 47.0699 17.7206 47.3462 17.7974C47.469 17.8281 47.6071 17.7974 47.7299 17.7053C47.8527 17.6132 47.9601 17.4597 48.0369 17.2909C48.2211 16.8765 48.2825 16.3086 48.175 15.7714Z" fill="#0071BA"/>
<path d="M50.2937 10.4173C49.5416 8.09971 47.5617 5.55187 44.845 5.09141C42.8343 4.7384 41.0846 6.39603 40.2251 7.42438C39.8875 7.83878 39.6879 8.14575 39.6572 8.1918C39.5498 8.36063 39.473 8.59085 39.427 8.83643C39.3656 9.29688 39.4117 9.81873 39.5958 10.2331C39.8721 10.8778 40.3633 11.0006 40.6856 10.5094C40.7009 10.4787 42.5888 7.60856 44.8296 7.99227C47.1012 8.37598 48.5747 10.4941 49.0044 11.814C49.1425 12.2591 49.3881 12.52 49.6337 12.5661C49.7872 12.5968 49.9253 12.5354 50.0635 12.3973C50.0788 12.3666 50.0942 12.3512 50.1095 12.3205C50.4318 11.9061 50.5086 11.0926 50.2937 10.4173Z" fill="#0071BA"/>
<path d="M26.178 61.9384L26.1012 52.6219C26.1012 52.1922 25.871 51.8085 25.518 51.6089L16.8308 46.59C16.5545 46.4212 16.2476 46.4519 16.002 46.59L14.0527 47.6951H14.0681C14.2983 47.5263 14.636 47.4956 14.9276 47.6644L23.6148 52.6833C23.9678 52.8982 24.198 53.2819 24.198 53.6963L24.2748 63.0128C24.2748 63.4426 24.0445 63.7956 23.7376 64.0105L25.4106 63.0435H25.3952C25.8403 62.89 26.178 62.4603 26.178 61.9384Z" fill="#0046B7"/>
<path d="M24.2743 63.0135L24.1975 53.697C24.1975 53.2826 23.9673 52.8989 23.6143 52.684L14.9271 47.6651C14.6355 47.4962 14.2978 47.5269 14.0676 47.6957C13.8527 47.8339 13.6992 48.0795 13.6992 48.3711V58.3169C13.6992 58.7313 13.9294 59.115 14.2825 59.3298L18.8102 61.9237L21.2046 65.1929V63.2897L22.5092 64.0418C22.9236 64.272 23.3841 64.226 23.7371 64.0111C24.044 63.7962 24.2743 63.4432 24.2743 63.0135Z" fill="#0071BA"/>
<path d="M16.5862 54.4037C16.5862 55.386 16.2025 56.1842 15.7267 56.1842C15.2509 56.1842 14.8672 55.386 14.8672 54.4037C14.8672 53.4214 15.2509 52.6387 15.7267 52.6387C16.2025 52.6387 16.5862 53.4214 16.5862 54.4037Z" fill="#0046B7"/>
<path d="M19.4869 56.1828C19.4869 57.1651 19.1185 57.9632 18.6427 57.9632C18.1669 57.9632 17.7832 57.1651 17.7832 56.1828C17.7832 55.2005 18.1669 54.4023 18.6427 54.4023C19.1185 54.4023 19.4869 55.2005 19.4869 56.1828Z" fill="#0046B7"/>
<path d="M22.7718 57.8276C22.7718 58.8099 22.388 59.608 21.9122 59.608C21.4364 59.608 21.0527 58.8099 21.0527 57.8276C21.0527 56.8606 21.4364 56.0625 21.9122 56.0625C22.388 56.0625 22.7718 56.8606 22.7718 57.8276Z" fill="#0046B7"/>
<path d="M119.314 87.2525V78.1202C119.314 77.7519 119.114 77.3988 118.792 77.2147L117.411 76.4165L117.395 77.0305H117.38L115.968 77.7365L114.479 76.7696L114.525 74.7436L111.01 72.7022V73.2241L109.598 73.9301L107.987 73.0399L108.002 71.3516C107.961 71.3823 107.92 71.413 107.879 71.4437L105.623 72.825V72.8404C105.823 72.7022 106.068 72.6715 106.298 72.8097L116.444 78.6881C116.766 78.8723 116.966 79.21 116.966 79.5783V88.7106C116.966 89.125 116.735 89.4473 116.428 89.6162V89.6315L118.792 88.1427C119.099 87.9739 119.314 87.6516 119.314 87.2525Z" fill="#003CB5"/>
<path d="M116.966 88.7112V79.5789C116.966 79.2105 116.766 78.8729 116.444 78.6887L106.298 72.8102C106.068 72.6721 105.823 72.7028 105.623 72.8409C105.47 72.9484 105.362 73.1325 105.362 73.3474L105.301 82.8481C105.301 83.2011 105.485 83.5388 105.792 83.723L115.4 89.5861C115.738 89.8009 116.121 89.7856 116.428 89.6167C116.735 89.4479 116.966 89.1256 116.966 88.7112Z" fill="#0D5ACC"/>
<path d="M111.256 68.9559C110.734 68.8945 110.35 69.1093 110.059 69.3856C109.706 69.754 109.521 70.2605 109.521 70.767L109.598 73.9288L111.01 73.2227V72.7009L110.949 70.0763C110.949 69.6772 111.041 69.2935 111.256 68.9559Z" fill="#0046B7"/>
<path d="M111.302 67.1456C113.65 67.4833 115.431 69.8316 115.999 72.3948C116.06 72.6864 116.075 72.9934 116.075 73.3003L115.968 77.736L117.38 77.03H117.395L117.411 76.4161L117.503 72.5943C117.503 72.2873 117.472 71.9804 117.411 71.6888C116.858 69.1256 115.062 66.7926 112.714 66.455C112.115 66.3629 111.594 66.4856 111.148 66.6852C110.212 67.0535 109.537 67.4833 109.414 67.56C109.921 67.2531 110.535 67.0382 111.302 67.1456Z" fill="#0046B7"/>
<path d="M107.987 73.039L109.599 73.9292L109.522 70.7674C109.522 70.2609 109.706 69.7544 110.059 69.3861C110.351 69.1098 110.735 68.8949 111.257 68.9563C111.441 68.987 111.656 69.0484 111.87 69.1559C112.96 69.6931 113.758 70.9209 114.203 71.8725C114.434 72.4097 114.556 73.1771 114.541 73.7604L114.526 74.7427L114.48 76.7687L115.968 77.7356L116.076 73.2999C116.076 72.993 116.061 72.686 115.999 72.3944C115.431 69.8312 113.651 67.4829 111.303 67.1452C110.535 67.0378 109.921 67.2527 109.415 67.5596C109.241 67.6722 109.082 67.795 108.939 67.928C108.356 68.4652 108.018 69.2326 108.018 70.0307L108.003 71.3507L107.987 73.039Z" fill="#0D5ACC"/>
<path d="M110.228 80.3906C110.228 80.3906 109.245 79.6232 109.629 78.7483C110.028 77.8734 111.287 78.2418 111.824 79.086C112.361 79.9148 112.361 81.0506 111.455 81.0199V84.9184L110.197 84.1663L110.228 80.3906Z" fill="#242B84"/>
</svg>
