<svg width="108" height="108" viewBox="0 0 108 108" fill="none" xmlns="http://www.w3.org/2000/svg">
<path d="M63.3721 39.9492H44.651C42.0661 39.9492 39.9707 42.0446 39.9707 44.6295V63.3506C39.9707 65.9354 42.0661 68.0309 44.651 68.0309H63.3721C65.9569 68.0309 68.0523 65.9354 68.0523 63.3506V44.6295C68.0523 42.0446 65.9569 39.9492 63.3721 39.9492Z" fill="#CCCCCC"/>
<path d="M54.011 35.2682C55.3035 35.2682 56.3512 34.2204 56.3512 32.928C56.3512 31.6356 55.3035 30.5879 54.011 30.5879C52.7186 30.5879 51.6709 31.6356 51.6709 32.928C51.6709 34.2204 52.7186 35.2682 54.011 35.2682Z" fill="#F0B324"/>
<path d="M61.4304 24.1763C57.148 20.3151 51.0168 20.1981 46.594 24.1763C44.2538 26.2824 47.4598 29.699 49.7298 27.6631C52.3507 25.2996 55.7673 25.3932 58.2947 27.6631C60.588 29.7224 63.7238 26.259 61.4304 24.1763Z" fill="#F0B324"/>
<path d="M40.7434 17.1552C38.4033 19.2614 41.6092 22.678 43.8792 20.642C50.0103 15.1427 58.2008 15.2831 64.1448 20.642C66.4381 22.7014 69.5739 19.238 67.2805 17.1552C59.5815 10.2284 48.6765 10.0178 40.7434 17.1552Z" fill="#F0B324"/>
<path d="M54.011 77.3912C55.3035 77.3912 56.3512 76.3435 56.3512 75.0511C56.3512 73.7587 55.3035 72.7109 54.011 72.7109C52.7186 72.7109 51.6709 73.7587 51.6709 75.0511C51.6709 76.3435 52.7186 77.3912 54.011 77.3912Z" fill="#F0B324"/>
<path d="M46.5941 83.8034C50.8766 87.6646 57.0078 87.7816 61.4306 83.8034C63.7707 81.6972 60.5648 78.2806 58.2948 80.3166C55.6739 82.6801 52.2573 82.5865 49.7299 80.3166C47.4366 78.2572 44.3008 81.7206 46.5941 83.8034Z" fill="#F0B324"/>
<path d="M64.1449 87.3595C58.0138 92.8588 49.8233 92.7184 43.8793 87.3595C41.586 85.3002 38.4502 88.7636 40.7436 90.8463C48.4426 97.7731 59.3476 97.9837 67.2807 90.8463C69.6208 88.7402 66.4149 85.3236 64.1449 87.3595Z" fill="#F0B324"/>
<path d="M32.9505 56.3307C34.2429 56.3307 35.2906 55.2829 35.2906 53.9905C35.2906 52.6981 34.2429 51.6504 32.9505 51.6504C31.6581 51.6504 30.6104 52.6981 30.6104 53.9905C30.6104 55.2829 31.6581 56.3307 32.9505 56.3307Z" fill="#F0B324"/>
<path d="M24.1987 46.5717C20.3375 50.8541 20.2205 56.9853 24.1987 61.4081C26.3049 63.7483 29.7215 60.5423 27.6856 58.2724C25.322 55.6514 25.4156 52.2348 27.6856 49.7075C29.7449 47.4141 26.2815 44.2784 24.1987 46.5717Z" fill="#F0B324"/>
<path d="M20.6411 43.8579C22.7004 41.5645 19.237 38.4287 17.1543 40.7221C10.2275 48.4211 10.0168 59.3262 17.1543 67.2592C19.2604 69.5994 22.677 66.3934 20.6411 64.1234C15.1417 57.9923 15.2822 49.8018 20.6411 43.8579Z" fill="#F0B324"/>
<path d="M75.0726 56.3307C76.365 56.3307 77.4127 55.2829 77.4127 53.9905C77.4127 52.6981 76.365 51.6504 75.0726 51.6504C73.7801 51.6504 72.7324 52.6981 72.7324 53.9905C72.7324 55.2829 73.7801 56.3307 75.0726 56.3307Z" fill="#F0B324"/>
<path d="M83.8248 46.5705C81.7187 44.2304 78.3021 47.4364 80.338 49.7063C82.7016 52.3273 82.608 55.7439 80.338 58.2712C78.2787 60.5646 81.7421 63.7003 83.8248 61.407C87.6861 57.1246 87.8031 50.9934 83.8248 46.5705Z" fill="#F0B324"/>
<path d="M90.8454 40.719C88.7392 38.3788 85.3226 41.5848 87.3585 43.8548C92.8579 49.9859 92.7175 58.1764 87.3585 64.1203C85.2992 66.4137 88.7626 69.5495 90.8454 67.2561C97.7722 59.5571 97.9828 48.652 90.8454 40.719Z" fill="#F0B324"/>
</svg>
