<svg width="112" height="81" viewBox="0 0 112 81" fill="none" xmlns="http://www.w3.org/2000/svg">
<path d="M82.2954 18.9852L70.7576 12.5605C67.8454 13.761 66.8006 15.4505 71.0911 20.7415C76.4932 27.3885 78.6496 22.7867 82.2954 18.9852Z" fill="black"/>
<path d="M82.2954 18.2516L70.7576 11.8047C67.8454 13.0051 66.8006 14.6947 71.0911 19.9856C76.4932 26.6326 78.6496 22.0308 82.2954 18.2516Z" fill="#D00000"/>
<path d="M99.1906 10.4495C103.326 11.6722 106.66 16.5185 106.66 21.2759C106.66 23.9658 105.593 26.0333 103.904 27.1226H103.881C103.748 27.2115 103.607 27.293 103.459 27.3671L99.7019 29.5013L98.4792 27.3894C94.7 25.8554 91.7211 21.2759 91.7211 16.8075C91.7211 16.4518 91.7359 16.1109 91.7655 15.7849L90.3428 13.3173L94.5666 10.9164C94.6555 10.8571 94.7371 10.8052 94.8112 10.7607H94.8334C96.0561 10.1161 97.5678 9.96044 99.1906 10.4495Z" fill="black"/>
<path d="M99.1908 10.4484C103.326 11.6711 106.66 16.5174 106.66 21.2747C106.66 22.2307 106.527 23.0977 106.282 23.898C106.193 23.9573 106.105 24.0165 106.016 24.0758C105.897 24.1499 105.771 24.224 105.638 24.2981L99.1463 27.8773L98.057 26.0099C94.7002 24.6316 92.0547 18.7627 92.0547 16.6285C92.0547 14.4721 92.077 16.0061 92.0992 15.7171L90.832 13.5162L96.8788 10.1816C97.6124 10.1149 98.3905 10.2038 99.1908 10.4484Z" fill="#D00000"/>
<path d="M99.1904 10.4477C102.947 11.5592 106.06 15.6719 106.593 19.9847L98.9236 24.2307L97.901 22.4967C94.7665 21.2074 92.5879 18.7397 92.5879 16.739C92.5879 14.7604 92.6101 16.161 92.6323 15.8942L91.4541 13.849L97.8788 10.292C97.9232 10.2624 97.9751 10.2328 98.0344 10.2031C98.4049 10.2476 98.7903 10.3291 99.1904 10.4477Z" fill="#D00000"/>
<path d="M94.9227 12.8714C99.0576 14.1163 102.392 18.9626 102.392 23.6978C102.392 28.4551 99.0576 31.3007 94.9227 30.0558C90.7877 28.8331 87.4531 23.9868 87.4531 19.2294C87.4531 14.4942 90.7877 11.6487 94.9227 12.8714Z" fill="black"/>
<path d="M94.9238 13.5374C98.7252 14.6711 101.815 19.1395 101.815 23.519C101.815 27.8984 98.7252 30.5217 94.9238 29.3879C91.1223 28.2541 88.0322 23.7858 88.0322 19.4063C88.0322 15.0268 91.1223 12.4036 94.9238 13.5374Z" fill="#1E3B66"/>
<path d="M73.8698 15.8293L13.5355 47.975C-13.097 62.1582 3.35378 92.0141 30.2752 76.6749L89.9426 39.6607C111.64 26.1888 96.3673 3.02437 73.8698 15.8293Z" fill="#ACBDD4"/>
<path d="M76.8052 16.4286L14.937 49.4413C-5.49306 60.3566 7.5564 84.0102 27.7864 71.4942L88.7209 33.7464C105.394 23.4091 94.3231 7.06947 76.8052 16.4286Z" fill="#DFE8F5"/>
<path d="M80.5393 16.5172L15.1364 51.2195C6.88876 55.8657 11.9574 65.047 20.3606 60.2007L84.3408 21.0968C91.2767 17.0952 87.5642 12.449 80.5393 16.5172Z" fill="url(#paint0_linear_540_11245)"/>
<path d="M26.6748 31.2999C31.3877 31.2999 39.7909 29.9883 43.5257 29.9883L50.5062 37.858C53.9075 40.9036 50.4395 49.3068 41.7028 53.6196C37.3456 55.776 28.8756 54.7311 26.0968 51.9523C23.2957 49.1512 23.5403 47.6173 24.1849 45.4164L26.6748 31.2999Z" fill="#DFE8F5"/>
<path d="M92.9663 15.7616L93.4998 0.289L92.9663 0L90.9655 1.13377C88.7869 2.40092 87.4975 4.46838 86.5194 6.40246L82.8735 13.6719C82.629 14.161 81.5397 15.8061 78.4941 17.6512C74.0257 20.3856 64.7555 26.3657 64.8444 28.2553L65.3557 28.5443C72.6918 24.5205 78.1606 20.5412 81.7842 18.5849C88.7647 14.8057 90.6988 15.2503 92.9663 15.7616Z" fill="#D00000"/>
<path d="M93.477 16.0729L93.4993 0.289062L91.4985 1.44506C89.2977 2.71222 88.0083 4.77968 87.0523 6.69152L83.3843 13.9832C83.162 14.4501 82.0727 16.0951 79.027 17.9625C74.5587 20.6747 65.2662 26.677 65.3551 28.5444C73.0247 24.3428 78.5824 20.897 82.295 18.8962C89.2754 15.117 91.2095 15.5616 93.477 16.0729Z" fill="black"/>
<path d="M41.8362 30.0566L50.8396 44.929C49.3502 48.0413 46.2379 51.3759 41.7028 53.6213C37.3456 55.7776 28.8756 54.7328 26.0968 51.9539C23.2957 49.1529 23.5403 47.6189 24.1849 45.4181L26.6748 31.3016C30.7875 31.3016 37.6568 30.3012 41.8362 30.0566Z" fill="#ACBDD4"/>
<path d="M36.8343 35.548L37.0343 54.7332C32.8549 55.0222 28.0531 53.9106 26.0968 51.9543C23.2957 49.1532 23.5403 47.6193 24.1849 45.4185L26.6748 31.3019C28.0531 31.3019 29.7204 31.1908 31.5211 31.0352L36.8343 35.548Z" fill="#8AA0BD"/>
<path d="M28.3851 34.5917C31.1195 37.326 36.4104 37.904 40.1674 35.8588C43.9244 33.8358 44.747 29.9454 41.9903 27.211C39.256 24.4767 33.965 23.8987 30.208 25.9439C26.451 27.9891 25.6285 31.8573 28.3851 34.5917Z" fill="#1E3B66"/>
<path d="M29.8737 33.7702C32.0301 35.9044 36.1206 36.349 39.055 34.7706C41.9895 33.1922 42.6342 30.1688 40.4778 28.0347C38.3436 25.9005 34.2309 25.4559 31.3187 27.0343C28.3842 28.6349 27.7396 31.636 29.8737 33.7702Z" fill="black"/>
<path d="M29.3634 32.7909C31.6977 35.1474 36.2327 35.6364 39.4562 33.8802C42.6797 32.1462 43.3688 28.8338 41.0123 26.4774C38.6559 24.1209 34.143 23.6318 30.9196 25.3881C27.6961 27.1221 27.007 30.4567 29.3634 32.7909Z" fill="#D00000"/>
<path d="M29.3634 32.1467C31.6977 34.4809 36.2327 34.97 39.4562 33.236C42.6797 31.4798 43.3688 28.1674 41.0123 25.8109C38.6559 23.4767 34.143 22.9876 30.9196 24.7216C27.6961 26.4778 27.007 29.7902 29.3634 32.1467Z" fill="#D00000"/>
<path d="M30.6314 31.4339C32.4765 33.2791 35.989 33.657 38.5011 32.3009C41.0132 30.9226 41.5689 28.3438 39.7238 26.5209C37.9008 24.6758 34.3661 24.2978 31.8541 25.6539C29.342 27.0322 28.8085 29.611 30.6314 31.4339Z" fill="#D00000"/>
<path fill-rule="evenodd" clip-rule="evenodd" d="M47.5925 58.1777L48.2372 62.8462L47.6369 63.2019L47.548 62.3571L47.1923 62.5572L46.8588 62.7573L46.7699 63.7132L46.1475 64.0689L46.7477 58.689L47.1923 58.4223L47.5925 58.1777ZM47.4591 61.7791L47.1923 59.4671V59.4227H47.1701L46.9255 62.1126L47.1923 61.9347L47.4591 61.7791Z" fill="white"/>
<path fill-rule="evenodd" clip-rule="evenodd" d="M50.5939 59.9326V60.0438C50.5939 60.5625 50.5198 60.9701 50.3716 61.2665C50.2234 61.5777 49.9863 61.8296 49.6603 62.0223L48.7266 62.5781V57.5317L49.638 56.9982H49.6603C49.9567 56.8203 50.1716 56.7759 50.3049 56.8648C50.4383 56.9685 50.505 57.2205 50.505 57.6206V57.7762C50.505 58.3246 50.379 58.7322 50.1271 58.9989C50.4383 58.9396 50.5939 59.2509 50.5939 59.9326ZM49.3712 59.199L49.5936 59.0656C49.6232 59.0508 49.6454 59.036 49.6603 59.0212C49.7344 58.9619 49.7862 58.8878 49.8159 58.7988C49.8603 58.6951 49.8826 58.5098 49.8826 58.2431V57.9541C49.8677 57.7614 49.8381 57.6428 49.7936 57.5984C49.764 57.5687 49.7195 57.5687 49.6603 57.5984C49.6306 57.5984 49.601 57.6058 49.5713 57.6206L49.3712 57.754V59.199ZM49.9493 60.1327C49.9493 59.8807 49.927 59.7177 49.8826 59.6436C49.8381 59.5547 49.764 59.5473 49.6603 59.6214H49.638L49.3712 59.777V61.5999L49.5936 61.4665C49.6084 61.4665 49.6306 61.4591 49.6603 61.4443C49.7492 61.3702 49.8159 61.2739 49.8603 61.1553C49.9196 61.0219 49.9493 60.8219 49.9493 60.5551V60.1327Z" fill="white"/>
<path d="M51.8388 57.5985L51.4164 55.9534L50.7939 56.3091L51.5053 58.9323V60.9331L52.15 60.5552V58.5544L52.8392 55.1309L52.2167 55.4866L51.8388 57.5985Z" fill="white"/>
<path d="M54.3502 56.5107L54.0167 56.2661C53.8981 56.192 53.8166 56.1179 53.7722 56.0438C53.7277 55.9697 53.7055 55.8585 53.7055 55.7103C53.7055 55.5473 53.7203 55.4139 53.7499 55.3102C53.7944 55.2064 53.8685 55.1249 53.9722 55.0657C54.076 55.0064 54.1427 55.0138 54.1723 55.0879C54.2168 55.1768 54.239 55.3472 54.239 55.5992V55.9549L54.8392 55.5992V55.288C54.8392 54.8433 54.78 54.5321 54.6614 54.3543C54.5428 54.1912 54.3205 54.2061 53.9945 54.3987C53.6536 54.5914 53.4165 54.8285 53.2831 55.1101C53.1497 55.3917 53.083 55.74 53.083 56.155C53.083 56.4069 53.1275 56.607 53.2164 56.7552C53.2905 56.9034 53.4017 57.0294 53.5499 57.1331L53.8611 57.3332C54.0093 57.4221 54.113 57.5259 54.1723 57.6444C54.2316 57.763 54.2612 57.926 54.2612 58.1335C54.2612 58.341 54.2464 58.504 54.2168 58.6226C54.1723 58.7411 54.0982 58.8301 53.9945 58.8893C53.8759 58.9635 53.8018 58.956 53.7722 58.8671C53.7277 58.7782 53.7055 58.5929 53.7055 58.3113V57.8L53.083 58.1557V58.6003C53.083 59.0894 53.1497 59.4155 53.2831 59.5785C53.4165 59.7563 53.6536 59.7489 53.9945 59.5563C54.3205 59.3636 54.5502 59.1117 54.6836 58.8004C54.817 58.504 54.8837 58.1187 54.8837 57.6444C54.8837 57.3777 54.8392 57.1553 54.7503 56.9775C54.6614 56.7997 54.528 56.644 54.3502 56.5107Z" fill="white"/>
<path d="M56.929 55.6877C56.8401 55.5098 56.7067 55.3616 56.5289 55.2431L56.1954 54.9985C56.0768 54.9096 55.9953 54.8355 55.9509 54.7762C55.9064 54.7021 55.8842 54.5836 55.8842 54.4205C55.8842 54.2575 55.9064 54.1241 55.9509 54.0204C55.9953 53.9166 56.0694 53.8351 56.1732 53.7758C56.2621 53.7166 56.3288 53.7314 56.3733 53.8203C56.4029 53.9092 56.4177 54.0723 56.4177 54.3094V54.6651L57.018 54.3316V54.0204C57.018 53.5609 56.9587 53.2497 56.8401 53.0867C56.7215 52.9237 56.4992 52.9385 56.1732 53.1311C55.8471 53.3238 55.6174 53.5609 55.484 53.8425C55.3358 54.1241 55.2617 54.4724 55.2617 54.8874C55.2617 55.1393 55.3062 55.3394 55.3951 55.4876C55.4692 55.6358 55.5804 55.7544 55.7286 55.8433L56.0398 56.0434C56.188 56.1323 56.2917 56.236 56.351 56.3546C56.4251 56.488 56.4622 56.6584 56.4622 56.8659C56.4622 57.0734 56.44 57.2364 56.3955 57.355C56.3659 57.4736 56.2918 57.5625 56.1732 57.6218C56.0694 57.681 55.9953 57.6662 55.9509 57.5773C55.9064 57.4884 55.8842 57.3031 55.8842 57.0215V56.5102L55.284 56.8882V57.3328C55.284 57.807 55.3432 58.1331 55.4618 58.3109C55.5952 58.4888 55.8323 58.4814 56.1732 58.2887C56.4992 58.0812 56.729 57.8293 56.8623 57.5328C56.9957 57.2364 57.0624 56.8511 57.0624 56.3768C57.0624 56.0953 57.0179 55.8655 56.929 55.6877Z" fill="white"/>
<path d="M83.7178 38.2825C85.5407 39.2385 87.2302 39.5497 88.942 40.2833L89.9424 39.6608C93.5438 37.4155 96.1003 34.9257 97.8121 32.3691C97.1674 32.7693 96.5227 33.2139 95.9002 33.5918C92.9436 35.3036 86.919 38.5493 83.7178 38.2825Z" fill="#8AA0BD"/>
<path d="M97.034 27.4336L111.017 35.0143V35.3922L108.483 37.0817C106.527 38.3711 103.77 38.0821 101.636 37.7931L93.566 36.7038C93.0325 36.6371 91.0539 36.5927 87.8082 38.0599C87.1413 38.3711 85.2295 39.416 83.7178 38.2822V37.8821C88.5419 35.9924 96.9006 29.7456 97.034 27.4336Z" fill="black"/>
<path d="M97.034 27.0332L111.017 35.0141L108.483 36.6814C106.527 37.9707 103.77 37.6817 101.636 37.3927L93.5438 36.3034C93.0325 36.2367 91.0539 36.2145 87.786 37.6817C87.1413 37.9707 85.2072 39.0156 83.7178 37.8818C88.5419 35.8366 96.9006 29.4119 97.034 27.0332Z" fill="#D00000"/>
<path d="M77.5603 38.9713C76.2931 39.3492 75.2705 40.8386 75.2705 42.2836C75.2705 43.7286 76.2931 44.6179 77.5603 44.2399C78.8052 43.862 79.8278 42.3726 79.8278 40.9276C79.8278 39.4603 78.8052 38.5933 77.5603 38.9713Z" fill="#1E3B66"/>
<path d="M77.5609 39.7043C76.6494 39.971 75.8936 41.0381 75.8936 42.1052C75.8936 43.15 76.6494 43.7725 77.5609 43.5057C78.4723 43.239 79.2059 42.1497 79.2059 41.1048C79.2059 40.06 78.4723 39.4375 77.5609 39.7043Z" fill="#ACBDD4"/>
<path d="M77.5599 39.7062C76.6484 39.973 75.8926 41.04 75.8926 42.1071C75.8926 42.574 76.0482 42.9519 76.2927 43.2187C76.5595 43.352 76.893 43.3743 77.2486 43.2853C78.1601 42.9963 78.8937 41.9293 78.8937 40.8844C78.8937 40.4176 78.7603 40.0174 78.4936 39.7729C78.2268 39.6173 77.9156 39.595 77.5599 39.7062Z" fill="url(#paint1_linear_540_11245)"/>
<path d="M42.1695 38.9029C40.2132 39.4809 38.6348 41.7707 38.6348 44.016C38.6348 46.2613 40.2132 47.5951 42.1695 47.0171C44.1035 46.4391 45.6819 44.1493 45.6819 41.904C45.6819 39.681 44.1035 38.3249 42.1695 38.9029Z" fill="#1E3B66"/>
<path d="M42.1688 40.0354C40.7461 40.4577 39.6123 42.1028 39.6123 43.7257C39.6123 45.3485 40.7461 46.3044 42.1688 45.9043C43.5694 45.4819 44.7254 43.8146 44.7254 42.1917C44.7254 40.5689 43.5694 39.613 42.1688 40.0354Z" fill="#ACBDD4"/>
<path d="M42.1698 40.0375C40.7693 40.4599 39.6133 42.1049 39.6133 43.7278C39.6133 44.4614 39.8356 45.0394 40.2357 45.4396C40.6359 45.6619 41.1472 45.7063 41.703 45.5507C43.1035 45.1283 44.2595 43.461 44.2595 41.8604C44.2595 41.1268 44.015 40.5266 43.637 40.1264C43.2147 39.9041 42.7256 39.8596 42.1698 40.0375Z" fill="url(#paint2_linear_540_11245)"/>
<path d="M27.9626 38.9499C29.2298 39.3278 30.2524 40.8172 30.2524 42.2622C30.2524 43.7072 29.2298 44.5742 27.9626 44.1963C26.6955 43.8184 25.6729 42.3512 25.6729 40.8839C25.6729 39.4389 26.6955 38.5719 27.9626 38.9499Z" fill="#1E3B66"/>
<path d="M27.9615 39.6825C28.8729 39.9493 29.6288 41.0163 29.6288 42.0612C29.6288 43.1283 28.8729 43.7507 27.9615 43.484C27.05 43.195 26.3164 42.1279 26.3164 41.083C26.3164 40.0382 27.05 39.3935 27.9615 39.6825Z" fill="#ACBDD4"/>
<path d="M27.9625 39.6825C28.874 39.9493 29.6298 41.0163 29.6298 42.0612C29.6298 42.5503 29.4742 42.9282 29.2297 43.195C28.9629 43.3283 28.6294 43.3506 28.2738 43.2394C27.3623 42.9727 26.6064 41.9056 26.6064 40.8607C26.6064 40.3717 26.7621 39.9937 27.0066 39.727C27.2734 39.5936 27.6068 39.5713 27.9625 39.6825Z" fill="url(#paint3_linear_540_11245)"/>
<path d="M3.28731 56.6211C4.71008 62.0899 9.60085 69.8039 18.2931 68.6924C26.6296 67.6253 32.2095 58.9331 40.924 60.8227C44.1919 61.5341 43.8585 64.2685 43.0137 68.7813L30.2755 76.6733C8.1114 89.3003 -6.96107 71.2934 3.28731 56.6211Z" fill="#1E3B66"/>
<path d="M2.30919 58.1562C2.55373 62.9803 7.53343 71.2279 18.3598 69.983C26.8742 69.0049 32.9432 60.9129 39.4346 62.0911C42.7247 62.6691 42.5913 64.8477 41.7021 69.5829L30.2755 76.6745C8.86727 88.8569 -5.91619 72.4951 2.30919 58.1562Z" fill="url(#paint4_linear_540_11245)"/>
<path d="M42.0352 67.8936L31.0309 74.7184C11.4679 85.8783 -2.42638 72.562 2.50885 59.3125C3.70931 63.8031 8.33331 71.1393 18.3594 69.9833C26.8738 69.0051 32.9428 60.9131 39.4342 62.0913C42.3019 62.6027 42.5465 64.1366 42.0352 67.8936Z" fill="url(#paint5_linear_540_11245)"/>
<path d="M42.1692 66.3812L32.1876 72.5614C17.3819 81.3648 1.5536 72.1834 2.88745 60.3789C4.75483 64.4916 9.04537 71.0719 18.3601 69.9826C26.8744 68.9822 32.9434 60.9124 39.4348 62.0907C41.9024 62.5353 42.2359 63.2689 42.1692 66.3812Z" fill="url(#paint6_linear_540_11245)"/>
<defs>
<linearGradient id="paint0_linear_540_11245" x1="-56.9284" y1="107.26" x2="120.127" y2="-69.7959" gradientUnits="userSpaceOnUse">
<stop stop-color="#E8EDF1"/>
<stop offset="1" stop-color="white"/>
</linearGradient>
<linearGradient id="paint1_linear_540_11245" x1="76.5386" y1="46.0175" x2="73.1641" y2="39.6711" gradientUnits="userSpaceOnUse">
<stop stop-color="#008BD2"/>
<stop offset="1" stop-color="#DCCF71"/>
</linearGradient>
<linearGradient id="paint2_linear_540_11245" x1="40.6063" y1="49.7714" x2="35.4013" y2="39.9821" gradientUnits="userSpaceOnUse">
<stop stop-color="#008BD2"/>
<stop offset="1" stop-color="#DCCF71"/>
</linearGradient>
<linearGradient id="paint3_linear_540_11245" x1="23.8392" y1="43.2112" x2="27.3344" y2="36.9056" gradientUnits="userSpaceOnUse">
<stop stop-color="#008BD2"/>
<stop offset="1" stop-color="#DCCF71"/>
</linearGradient>
<linearGradient id="paint4_linear_540_11245" x1="-21.7783" y1="86.8702" x2="57.662" y2="24.8047" gradientUnits="userSpaceOnUse">
<stop stop-color="#BFE5FB"/>
<stop offset="1" stop-color="white"/>
</linearGradient>
<linearGradient id="paint5_linear_540_11245" x1="-22.9149" y1="91.7839" x2="59.9485" y2="24.6823" gradientUnits="userSpaceOnUse">
<stop stop-color="#BFE5FB"/>
<stop offset="1" stop-color="#008BD2"/>
</linearGradient>
<linearGradient id="paint6_linear_540_11245" x1="45.0597" y1="27.9433" x2="9.12144" y2="116.894" gradientUnits="userSpaceOnUse">
<stop stop-color="#0062AE"/>
<stop offset="1" stop-color="#A1DAF8"/>
</linearGradient>
</defs>
</svg>
